<?xml version="1.0" standalone="no"?>
<!DOCTYPE svg PUBLIC "-//W3C//DTD SVG 1.1//EN" "http://www.w3.org/Graphics/SVG/1.1/DTD/svg11.dtd" >
<svg>
<metadata>
Created by FontForge 20090914 at Thu Sep 25 11:30:08 2014
 By www-data
Copyright &#194;&#169; 2007 M. Hacen, All Rights Reserved / www.hacen.net
</metadata>
<defs>
<font id="HacenTunisiaBold" horiz-adv-x="991" >
  <font-face 
    font-family="Hacen Tunisia Bold"
    font-weight="400"
    font-stretch="normal"
    units-per-em="2048"
    panose-1="2 0 0 0 0 0 0 0 0 0"
    ascent="1638"
    descent="-410"
    x-height="1097"
    cap-height="1429"
    bbox="-246 -568 2701 2134.08"
    underline-thickness="100"
    underline-position="-700"
    unicode-range="U+0020-U+FEFF"
  />
<missing-glyph horiz-adv-x="582" 
d="M5 1257h485v-1107h-485v1107zM76 1186v-966h343v966h-343z" />
    <glyph glyph-name=".notdef" unicode="&#x640;&#x651;&#x650;" horiz-adv-x="582" 
d="M5 1257h485v-1107h-485v1107zM76 1186v-966h343v966h-343z" />
    <glyph glyph-name="shaddawithfathatanisolated" unicode="&#x651;&#x64b;" horiz-adv-x="425" 
d="M398 1823c3.33301 -5.33301 5.16211 -9.50195 5.49512 -12.502s0.166016 -5.83301 -0.500977 -8.5s-1.16699 -5.5 -1.5 -8.5s0.833984 -7.5 3.50098 -13.5c8 -21.333 12.833 -43.333 14.5 -66s0 -43.834 -5 -63.501s-13.5 -36.5 -25.5 -50.5s-27.667 -22.667 -47 -26
c-16.667 -2.66699 -29.667 -1.66699 -39 3s-19.666 10.667 -30.999 18c-2.66699 -7.33301 -6.16699 -15.833 -10.5 -25.5s-10.333 -19.167 -18 -28.5s-16.667 -17.833 -27 -25.5s-22.833 -13.167 -37.5 -16.5c-22.667 -6 -41.334 -7.16699 -56.001 -3.5
s-26.334 10.334 -35.001 20.001s-14.5 21.334 -17.5 35.001s-4.5 27.167 -4.5 40.5c0 14 1.5 27.167 4.5 39.5s6.16699 22.166 9.5 29.499c0 -2 1.5 -1.5 4.5 1.5s6.16699 6.5 9.5 10.5s6.66602 7.5 9.99902 10.5s5 3.5 5 1.5c-3.33301 -14 -5.66602 -27.333 -6.99902 -40
s-0.666016 -23.5 2.00098 -32.5s8.33398 -15.333 17.001 -19s21.334 -3.83398 38.001 -0.500977c18.667 3.33301 32.334 11 41.001 23s14.5 25.5 17.5 40.5s4.83301 30.333 5.5 46s2.66699 28.834 6 39.501c0.666992 -2 2.16699 -1.66699 4.5 1l7.5 9
c2.66699 3.33301 5.33398 6.5 8.00098 9.5s4.66699 3.5 6 1.5c-2 -20 0.166992 -38 6.5 -54s15 -28.167 26 -36.5s23.667 -12.166 38 -11.499s28.5 7.66699 42.5 21c2.66699 6.66699 3.33398 14.334 2.00098 23.001s-4.16602 17.167 -8.49902 25.5s-9.5 16.5 -15.5 24.5
s-12 15 -18 21c3.33301 6.66699 8.16602 11.834 14.499 15.501s13 7 20 10s13.667 6.16699 20 9.5s11.5 7.66602 15.5 12.999zM389.996 2031l-340 -193l17 91l340 193zM400.996 1903l-340 -193l17 91l340 193z" />
    <glyph glyph-name="shaddawithdammatanisolated" unicode="&#x651;&#x64c;" horiz-adv-x="484" arabic-form="isolated" 
d="M425 1928c-4.66699 -8 -11.667 -17.501 -21 -28.501s-20.333 -22.333 -33 -34s-26.667 -22.667 -42 -33s-31.333 -19 -48 -26s-33.334 -11.333 -50.001 -13s-32.667 0.5 -48 6.5c-15.333 6.66699 -23.666 15.667 -24.999 27s-0.333008 23.333 3 36s7 24.667 11 36
s3.33301 20.166 -2 26.499s-17.5 9.33301 -36.5 9s-49.167 -6.16602 -90.5 -17.499c13.333 15.333 28.833 27.833 46.5 37.5s35.334 15.834 53.001 18.501s34.167 2.16699 49.5 -1.5s27.166 -10.5 35.499 -20.5s11.833 -23.5 10.5 -40.5s-9.33301 -37.5 -24 -61.5
c32 11.333 61.833 24 89.5 38s52.834 31.667 75.501 53c-28.667 6 -49.667 15 -63 27s-21.166 25.333 -23.499 40s0.333984 29.667 8.00098 45s18.167 29.166 31.5 41.5c13.333 12.333 28.666 22.333 45.999 30s34.666 11.167 51.999 10.5
c14.667 -1.33301 24.5 -8.33301 29.5 -21s7.33301 -27 7 -43s-2.33301 -31.5 -6 -46.5s-6.83398 -25.5 -9.50098 -31.5l40 -10l-18 -65zM396 1846c8.66699 -10 16.1689 -20.999 22.502 -32.999s12.166 -24 17.499 -36c7.33301 -21.333 11.666 -43.333 12.999 -66
s-0.666992 -43.834 -6 -63.501s-14.166 -36.334 -26.499 -50.001s-28.166 -21.834 -47.499 -24.501c-16.667 -2.66699 -29.5 -1.66699 -38.5 3s-19.167 11 -30.5 19c-2.66699 -7.33301 -6.33398 -15.666 -11.001 -24.999s-10.834 -18.666 -18.501 -27.999
s-16.834 -17.833 -27.501 -25.5s-23.334 -13.167 -38.001 -16.5c-22.667 -5.33301 -41.5 -4.83301 -56.5 1.5s-27 16.166 -36 29.499s-15.333 28.833 -19 46.5s-5.66699 35.334 -6 53.001s0.833984 34 3.50098 49s5.66699 26.167 9 33.5
c0.666992 -1.33301 2.5 -0.333008 5.5 3s6.33301 6.83301 10 10.5s7 6.83398 10 9.50098s4.5 3 4.5 1c-3.33301 -14 -5.5 -29.833 -6.5 -47.5s0.333008 -34.167 4 -49.5s10.167 -27.833 19.5 -37.5s22.666 -12.834 39.999 -9.50098c18.667 3.33301 32.334 11 41.001 23
s14.667 25.5 18 40.5s5.5 30.167 6.5 45.5s3.16699 28.333 6.5 39c0.666992 -2 2.16699 -1.66699 4.5 1l8 9c3 3.33301 5.66699 6.5 8 9.5s4.16602 3.5 5.49902 1.5c-2 -20 0 -38 6 -54s14.5 -28.333 25.5 -37s23.667 -12.834 38 -12.501s28.833 7.16602 43.5 20.499
c2.66699 6.66699 3.33398 14.334 2.00098 23.001s-4.16602 17.334 -8.49902 26.001s-9.33301 17 -15 25s-11.5 15 -17.5 21c7.33301 13.333 13.833 25.833 19.5 37.5zM403.002 2065c-3.33301 3.33301 -7.33496 5.49805 -12.002 6.49805s-8.66699 1.5 -12 1.5
c-9.33301 0.666992 -17.166 -1.66602 -23.499 -6.99902s-9.5 -11.333 -9.5 -18c-1.33301 -6.66699 -0.166016 -12.167 3.50098 -16.5s8.5 -8.16602 14.5 -11.499s13.167 -6.5 21.5 -9.5l25.5 -9.5c1.33301 11.333 2 21.333 2 30c0 7.33301 -0.666992 14.5 -2 21.5
s-4 11.833 -8 14.5v-2z" />
    <glyph glyph-name="shaddawithkasratanisolated" unicode="&#x651;&#x64d;" horiz-adv-x="425" arabic-form="isolated" 
d="M370 2050c8 -10 15.167 -21.1719 21.5 -33.5049s11.833 -24.5 16.5 -36.5c6.66699 -21.333 10.334 -43.333 11.001 -66s-1.83301 -43.667 -7.5 -63s-14.834 -35.666 -27.501 -48.999s-28.667 -21.333 -48 -24c-16.667 -2 -29.5 -0.666992 -38.5 4
s-19.167 11.334 -30.5 20.001c-2.66699 -7.33301 -6.5 -15.666 -11.5 -24.999s-11.333 -18.5 -19 -27.5s-17 -17.167 -28 -24.5s-23.833 -12.666 -38.5 -15.999c-22.667 -4.66699 -41.5 -3.66699 -56.5 3s-26.667 17 -35 31s-14.166 30 -17.499 48
s-4.83301 35.833 -4.5 53.5s1.83301 34 4.5 49s6 25.833 10 32.5c0 -2 1.5 -1.5 4.5 1.5l10.5 10.5c4 4 7.5 7.33301 10.5 10s4.5 3 4.5 1c-4 -14 -6.66699 -30 -8 -48s-0.333008 -34.667 3 -50s9.5 -27.833 18.5 -37.5s22.167 -13.167 39.5 -10.5
c19.333 2.66699 33.5 9.66699 42.5 21s15.333 24.5 19 39.5s6 30.333 7 46s3.5 28.834 7.5 39.501c0.666992 -2 2.33398 -1.83301 5.00098 0.5s5.5 5.33301 8.5 9l8 9.5c2.33301 2.66699 4.16602 3 5.49902 1c-2.66699 -19.333 -1.33398 -37.166 3.99902 -53.499
s13.333 -29 24 -38s23 -13.5 37 -13.5c14.667 0 29.667 6.66699 45 20c3.33301 6.66699 4.33301 14.167 3 22.5s-4 16.833 -8 25.5s-8.83301 17.167 -14.5 25.5s-11.167 15.5 -16.5 21.5l20 37c6 11.333 12.333 22.666 19 33.999zM381 1579l-350 -141l33 75l350 141z
M391 1684l-350 -141l33 75l350 141z" />
    <glyph glyph-name="shaddawithfathaisolated" unicode="&#x651;&#x64e;" horiz-adv-x="425" arabic-form="isolated" 
d="M398 1823c3.33301 -5.33301 5.16211 -9.50195 5.49512 -12.502s0.166016 -5.83301 -0.500977 -8.5s-1.16699 -5.5 -1.5 -8.5s0.833984 -7.5 3.50098 -13.5c8 -21.333 12.833 -43.333 14.5 -66s0 -43.834 -5 -63.501s-13.5 -36.5 -25.5 -50.5s-27.667 -22.667 -47 -26
c-16.667 -2.66699 -29.667 -1.66699 -39 3s-19.666 10.667 -30.999 18c-2.66699 -7.33301 -6.16699 -15.833 -10.5 -25.5s-10.333 -19.167 -18 -28.5s-16.667 -17.833 -27 -25.5s-22.833 -13.167 -37.5 -16.5c-22.667 -6 -41.334 -7.16699 -56.001 -3.5
s-26.334 10.334 -35.001 20.001s-14.5 21.334 -17.5 35.001s-4.5 27.167 -4.5 40.5c0 14 1.5 27.167 4.5 39.5s6.16699 22.166 9.5 29.499c0 -2 1.5 -1.5 4.5 1.5s6.16699 6.5 9.5 10.5s6.66602 7.5 9.99902 10.5s5 3.5 5 1.5c-3.33301 -14 -5.66602 -27.333 -6.99902 -40
s-0.666016 -23.5 2.00098 -32.5s8.33398 -15.333 17.001 -19s21.334 -3.83398 38.001 -0.500977c18.667 3.33301 32.334 11 41.001 23s14.5 25.5 17.5 40.5s4.83301 30.333 5.5 46s2.66699 28.834 6 39.501c0.666992 -2 2.16699 -1.66699 4.5 1l7.5 9
c2.66699 3.33301 5.33398 6.5 8.00098 9.5s4.66699 3.5 6 1.5c-2 -20 0.166992 -38 6.5 -54s15 -28.167 26 -36.5s23.667 -12.166 38 -11.499s28.5 7.66699 42.5 21c2.66699 6.66699 3.33398 14.334 2.00098 23.001s-4.16602 17.167 -8.49902 25.5s-9.5 16.5 -15.5 24.5
s-12 15 -18 21c3.33301 6.66699 8.16602 11.834 14.499 15.501s13 7 20 10s13.667 6.16699 20 9.5s11.5 7.66602 15.5 12.999zM400.996 1903l-340 -193l17 91l340 193z" />
    <glyph glyph-name="shaddawithdammaisolated" unicode="&#x651;&#x64f;" horiz-adv-x="437" arabic-form="isolated" 
d="M372 1846c8.66699 -10 16.1689 -20.9971 22.502 -32.9971s12.166 -24 17.499 -36c7.33301 -21.333 11.666 -43.333 12.999 -66s-0.666992 -43.834 -6 -63.501s-14.166 -36.334 -26.499 -50.001s-28.166 -21.834 -47.499 -24.501c-16.667 -2.66699 -29.5 -1.66699 -38.5 3
s-19.167 11 -30.5 19c-2.66699 -7.33301 -6.33398 -15.666 -11.001 -24.999s-10.834 -18.666 -18.501 -27.999s-16.834 -17.833 -27.501 -25.5s-23.334 -13.167 -38.001 -16.5c-22.667 -5.33301 -41.5 -4.83301 -56.5 1.5s-27 16.166 -36 29.499s-15.333 29.166 -19 47.499
s-5.66699 36.333 -6 54s0.833984 33.834 3.50098 48.501s5.66699 25.667 9 33c0 -2 1.66699 -1.5 5 1.5s6.83301 6.5 10.5 10.5s7 7.33301 10 10s4.5 3 4.5 1c-3.33301 -14 -5.5 -29.833 -6.5 -47.5s0.333008 -34.167 4 -49.5s10.167 -27.833 19.5 -37.5
s22.666 -12.834 39.999 -9.50098c18.667 3.33301 32.334 11 41.001 23s14.667 25.5 18 40.5s5.5 30.167 6.5 45.5s3.16699 28.333 6.5 39c0.666992 -2 2.16699 -1.66699 4.5 1l8 9c3 3.33301 5.66699 6.5 8 9.5s4.16602 3.5 5.49902 1.5c-2 -20 0 -38 6 -54
s14.5 -28.333 25.5 -37s23.667 -12.834 38 -12.501s28.833 7.16602 43.5 20.499c2.66699 6.66699 3.33398 14.334 2.00098 23.001s-4.16602 17.334 -8.49902 26.001s-9.33301 17 -15 25s-11.5 15 -17.5 21c7.33301 13.333 13.833 25.833 19.5 37.5zM347.002 1915
c-7.33301 -12 -19.668 -25.6641 -37.001 -40.9971s-37.833 -29.833 -61.5 -43.5s-49.167 -25 -76.5 -34s-55 -12.833 -83 -11.5c-38 2.66699 -63 4 -75 4c-11.333 0 -15.333 0.666992 -12 2l103 34c28.667 9.33301 54.334 18.666 77.001 27.999s43.167 19.666 61.5 30.999
s36.5 25.666 54.5 42.999c-30.667 5.33301 -53.167 14.166 -67.5 26.499s-22.666 25.833 -24.999 40.5s0.5 29.667 8.5 45s19 29.333 33 42s30.167 22.834 48.5 30.5c18.333 7.66699 36.833 11.167 55.5 10.5c15.333 -0.666992 25.666 -7.33398 30.999 -20
c5.33301 -12.667 7.83301 -27.167 7.5 -43.5s-2.5 -32.166 -6.5 -47.499s-7.33301 -26.333 -10 -33l43 -10l-19 -63zM322 2054.01c-3.33301 3.33301 -7.16895 5.49805 -11.502 6.49805s-8.16602 1.5 -11.499 1.5c-11.333 0.666992 -20.166 -1.66602 -26.499 -7
c-6.33301 -5.33301 -9.83301 -11.666 -10.5 -18.999c-1.33301 -13.333 5 -23.166 19 -29.499s30.667 -12.166 50 -17.499c1.33301 10.667 2 20.667 2 30c0 7.33301 -0.666992 14.666 -2 21.999s-4.33301 12 -9 14v-1z" />
    <glyph glyph-name="shaddawithkasraisolated" unicode="&#x651;&#x650;" horiz-adv-x="425" arabic-form="isolated" 
d="M385 1972c8 -10 15.167 -21.1729 21.5 -33.5059s11.833 -24.5 16.5 -36.5c6.66699 -21.333 10.334 -43.333 11.001 -66s-1.83301 -43.667 -7.5 -63s-14.834 -35.666 -27.501 -48.999s-28.667 -21.333 -48 -24c-16.667 -2 -29.5 -0.666992 -38.5 4
s-19.167 11.334 -30.5 20.001c-2.66699 -7.33301 -6.5 -15.666 -11.5 -24.999s-11.333 -18.5 -19 -27.5s-17 -17.167 -28 -24.5s-23.833 -12.666 -38.5 -15.999c-22.667 -4.66699 -41.5 -3.66699 -56.5 3s-26.667 17 -35 31s-14.166 30 -17.499 48
s-4.83301 35.833 -4.5 53.5s1.83301 33.834 4.5 48.501s6 25.667 10 33c0 -2 1.5 -1.5 4.5 1.5l10.5 10.5c4 4 7.5 7.33301 10.5 10s4.5 3 4.5 1c-4 -14 -6.66699 -30 -8 -48s-0.333008 -34.667 3 -50s9.5 -27.833 18.5 -37.5s22.167 -13.167 39.5 -10.5
c19.333 2.66699 33.5 9.66699 42.5 21s15.333 24.5 19 39.5s6 30.333 7 46s3.5 28.834 7.5 39.501c0.666992 -2 2.33398 -1.83301 5.00098 0.5s5.5 5.33301 8.5 9l8 9.5c2.33301 2.66699 4.16602 3 5.49902 1c-2.66699 -19.333 -1.33398 -37.166 3.99902 -53.499
s13.333 -29 24 -38s23 -13.5 37 -13.5c14.667 0 29.667 6.66699 45 20c3.33301 6.66699 4.33301 14.167 3 22.5s-4 16.833 -8 25.5s-8.83301 17.167 -14.5 25.5s-11.167 15.5 -16.5 21.5l20 37c6 11.333 12.333 22.666 19 33.999zM422 1589.99l-340 -193l17 91l340 193z" />
    <glyph glyph-name="shaddawithfathamedial" unicode="&#x640;&#x651;&#x64e;" horiz-adv-x="375" arabic-form="medial" 
d="M298 1190c3.33301 -5.33301 5.16211 -9.50195 5.49512 -12.502s0.166016 -5.83301 -0.500977 -8.5s-1.16699 -5.5 -1.5 -8.5s0.833984 -7.5 3.50098 -13.5c8 -21.333 12.833 -43.333 14.5 -66s0 -43.834 -5 -63.501s-13.5 -36.5 -25.5 -50.5s-27.667 -22.667 -47 -26
c-16.667 -2.66699 -29.667 -1.66699 -39 3s-19.666 10.667 -30.999 18c-2.66699 -7.33301 -6.16699 -15.833 -10.5 -25.5s-10.333 -19.167 -18 -28.5s-16.667 -17.833 -27 -25.5s-22.833 -13.167 -37.5 -16.5c-22.667 -6 -41.334 -7.16699 -56.001 -3.5
s-26.334 10.334 -35.001 20.001s-14.5 21.334 -17.5 35.001s-4.5 27.167 -4.5 40.5c0 14 1.5 27.167 4.5 39.5s6.16699 22.166 9.5 29.499c0 -2 1.5 -1.5 4.5 1.5s6.16699 6.5 9.5 10.5s6.66602 7.5 9.99902 10.5s5 3.5 5 1.5c-3.33301 -14 -5.66602 -27.333 -6.99902 -40
s-0.666016 -23.5 2.00098 -32.5s8.33398 -15.333 17.001 -19s21.334 -3.83398 38.001 -0.500977c18.667 3.33301 32.334 11 41.001 23s14.5 25.5 17.5 40.5s4.83301 30.333 5.5 46s2.66699 28.834 6 39.501c0.666992 -2 2.16699 -1.66699 4.5 1l7.5 9
c2.66699 3.33301 5.33398 6.5 8.00098 9.5s4.66699 3.5 6 1.5c-2 -20 0.166992 -38 6.5 -54s15 -28.167 26 -36.5s23.667 -12.166 38 -11.499s28.5 7.66699 42.5 21c2.66699 6.66699 3.33398 14.334 2.00098 23.001s-4.16602 17.167 -8.49902 25.5s-9.5 16.5 -15.5 24.5
s-12 15 -18 21c3.33301 6.66699 8.16602 11.834 14.499 15.501s13 7 20 10s13.667 6.16699 20 9.5s11.5 7.66602 15.5 12.999zM300.996 1270l-340 -193l17 91l340 193z" />
    <glyph glyph-name="shaddawithdammamedial" unicode="&#x640;&#x651;&#x64f;" horiz-adv-x="480" arabic-form="medial" 
d="M365 1238c8.66699 -10 16.1689 -20.9971 22.502 -32.9971s12.166 -24 17.499 -36c7.33301 -21.333 11.666 -43.333 12.999 -66s-0.666992 -43.834 -6 -63.501s-14.166 -36.334 -26.499 -50.001s-28.166 -21.834 -47.499 -24.501c-16.667 -2.66699 -29.5 -1.66699 -38.5 3
s-19.167 11 -30.5 19c-2.66699 -7.33301 -6.33398 -15.666 -11.001 -24.999s-10.834 -18.666 -18.501 -27.999s-16.834 -17.833 -27.501 -25.5s-23.334 -13.167 -38.001 -16.5c-22.667 -5.33301 -41.5 -4.83301 -56.5 1.5s-27 16.166 -36 29.499s-15.333 29.166 -19 47.499
s-5.66699 36.333 -6 54s0.833984 33.834 3.50098 48.501s5.66699 25.667 9 33c0 -2 1.66699 -1.5 5 1.5s6.83301 6.5 10.5 10.5s7 7.33301 10 10s4.5 3 4.5 1c-3.33301 -14 -5.5 -29.833 -6.5 -47.5s0.333008 -34.167 4 -49.5s10.167 -27.833 19.5 -37.5
s22.666 -12.834 39.999 -9.50098c18.667 3.33301 32.334 11 41.001 23s14.667 25.5 18 40.5s5.5 30.167 6.5 45.5s3.16699 28.333 6.5 39c0.666992 -2 2.16699 -1.66699 4.5 1l8 9c3 3.33301 5.66699 6.5 8 9.5s4.16602 3.5 5.49902 1.5c-2 -20 0 -38 6 -54
s14.5 -28.333 25.5 -37s23.667 -12.834 38 -12.501s28.833 7.16602 43.5 20.499c2.66699 6.66699 3.33398 14.334 2.00098 23.001s-4.16602 17.334 -8.49902 26.001s-9.33301 17 -15 25s-11.5 15 -17.5 21c7.33301 13.333 13.833 25.833 19.5 37.5zM340.002 1307
c-7.33301 -12 -19.668 -25.6641 -37.001 -40.9971s-37.833 -29.833 -61.5 -43.5s-49.167 -25 -76.5 -34s-55 -12.833 -83 -11.5c-38 2.66699 -63 4 -75 4c-11.333 0 -15.333 0.666992 -12 2l103 34c28.667 9.33301 54.334 18.666 77.001 27.999s43.167 19.666 61.5 30.999
s36.5 25.666 54.5 42.999c-30.667 5.33301 -53.167 14.166 -67.5 26.499s-22.666 25.833 -24.999 40.5s0.5 29.667 8.5 45s19 29.333 33 42s30.167 22.834 48.5 30.501s36.833 11.167 55.5 10.5c15.333 -0.666992 25.666 -7.33398 30.999 -20.001s7.83301 -27.167 7.5 -43.5
s-2.5 -32.166 -6.5 -47.499s-7.33301 -26.333 -10 -33l43 -10l-19 -63zM315 1446.01c-3.33301 3.33301 -7.16895 5.49707 -11.502 6.49707s-8.16602 1.5 -11.499 1.5c-11.333 0.666992 -20.166 -1.66602 -26.499 -6.99902s-9.83301 -11.666 -10.5 -18.999
c-1.33301 -13.333 5 -23.166 19 -29.499s30.667 -12.166 50 -17.499c1.33301 10.667 2 20.667 2 30c0 7.33301 -0.666992 14.666 -2 21.999s-4.33301 12 -9 14v-1z" />
    <glyph glyph-name="allahisolated" unicode="&#xfedf;&#xfee0;&#xfeea;" horiz-adv-x="2039" arabic-form="isolated" 
d="M1172 1066h246.996v-675h276v966h247v-1079c0.666992 -2 1 -4 1 -6v-5c0 -17.333 -3.33301 -33.5 -10 -48.5s-15.667 -28.167 -27 -39.5s-24.666 -20.166 -39.999 -26.499s-31.333 -9.5 -48 -9.5h-1053c-19.333 0 -36.666 3.5 -51.999 10.5s-28.5 16.5 -39.5 28.5
s-19.333 26 -25 42s-8.5 33 -8.5 51l-2 490c-27.333 0 -54.666 0.166992 -81.999 0.5s-54.666 0.5 -81.999 0.5c-22 0 -43 -4.5 -63 -13.5s-37.5 -21 -52.5 -36s-26.833 -32.5 -35.5 -52.5s-13 -41 -13 -63l-1 -208l45.5 -7c17.667 -2.66699 36 -5 55 -7
s37.5 -3.66699 55.5 -5s33.333 -2 46 -2v-248c-25.333 0 -53.666 1.33301 -84.999 4s-62.833 6.16699 -94.5 10.5s-62.5 9.33301 -92.5 15s-56.333 11.834 -79 18.501l1 -1c-28 6 -51.333 20.333 -70 43s-28 49 -28 79v308c0 56.667 10.667 110 32 160
s50.666 93.667 87.999 131s80.833 66.833 130.5 88.5s103.167 32.5 160.5 32.5h259c20 0 39 -3.83301 57 -11.5s34 -18.334 48 -32.001s25.167 -29.334 33.5 -47.001s12.5 -36.5 12.5 -56.5l3 -475h285v675zM1509 1240c0 -17.333 -2.50098 -31.334 -7.50098 -42.001
s-11.667 -19.167 -20 -25.5s-17.666 -10.666 -27.999 -12.999s-20.833 -3.5 -31.5 -3.5h-258c-28.667 0 -50.167 6.5 -64.5 19.5s-21.5 34.5 -21.5 64.5v151c0 10 3.5 18.333 10.5 25s15.5 10 25.5 10h37c10.667 0 19.334 -3.33301 26.001 -10s10 -15 10 -25v-126h51v126
c0 10 3.66699 18.333 11 25s16 10 26 10h37c10 0 18.5 -3.33301 25.5 -10s10.5 -15 10.5 -25v-126h51v126c0 10 3.5 18.333 10.5 25s15.833 10 26.5 10h37c9.33301 0 17.666 -3.33301 24.999 -10s11 -15 11 -25v-151z" />
    <glyph glyph-name="fathamedial" unicode="&#x640;&#x64e;" horiz-adv-x="448" arabic-form="medial" 
d="M396 1157l-191.5 -102.5l-191.5 -102.5l8 39.5l7 37.5l191.5 101.5l191.5 102.5z" />
    <glyph glyph-name="dammamedial" unicode="&#x640;&#x64f;" horiz-adv-x="490" arabic-form="medial" 
d="M360 1221c-7.33301 -15.333 -19.8301 -32.833 -37.4971 -52.5s-38.5 -38 -62.5 -55s-50.167 -31.167 -78.5 -42.5s-56.833 -16.333 -85.5 -15c-19.333 1.33301 -35.166 2.33301 -47.499 3s-21.833 1.33398 -28.5 2.00098s-10.834 1.16699 -12.501 1.5
s-1.83398 0.833008 -0.500977 1.5l105.5 43c29.667 12 56 24 79 36s43.833 25.167 62.5 39.5s37.334 32.5 56.001 54.5c-31.333 7.33301 -54.333 18.666 -69 33.999s-23.167 32.333 -25.5 51s0.666992 37.834 9 57.501s19.666 37.5 33.999 53.5s30.833 29 49.5 39
s37.334 14.333 56.001 13c10.667 -0.666992 19 -4.83398 25 -12.501s10.167 -17.334 12.5 -29.001s3.16602 -24.667 2.49902 -39s-1.83398 -28.166 -3.50098 -41.499s-3.83398 -25.5 -6.50098 -36.5s-5 -19.167 -7 -24.5l44 -13l-19 -80zM335.003 1398
c-3.33301 4 -7.33301 6.66699 -12 8s-8.66699 2 -12 2c-11.333 1.33301 -20.333 -1.5 -27 -8.5s-10.334 -15.167 -11.001 -24.5c-1.33301 -16.667 5.33398 -29 20.001 -37s31.667 -15.667 51 -23c1.33301 13.333 2 26 2 38c0 10 -0.666992 19.5 -2 28.5
s-4.33301 15.167 -9 18.5v-2z" />
    <glyph glyph-name="kasramedial" unicode="&#x640;&#x650;" horiz-adv-x="669" arabic-form="medial" 
d="M392 506l-191.5 -102.5l-191.5 -102.5c3.33301 15.333 6 28.333 8 39l7 38l191.5 101.5l191.5 102.5z" />
    <glyph glyph-name="shaddamedial" unicode="&#x640;&#x651;" horiz-adv-x="448" arabic-form="medial" 
d="M386 1293c7.33301 -11.333 13.1689 -23.3232 17.502 -35.9902s8.16602 -25.334 11.499 -38.001c4 -22 5 -44.333 3 -67s-7 -43.334 -15 -62.001s-19 -33.834 -33 -45.501s-31 -17.5 -51 -17.5c-16.667 0 -29.167 3 -37.5 9s-17.5 13.667 -27.5 23
c-4 -6.66699 -9 -14.334 -15 -23.001s-13.333 -17 -22 -25s-19 -15 -31 -21s-25.333 -9.66699 -40 -11c-23.333 -2 -42 1.33301 -56 10s-24.333 20.334 -31 35.001s-10.5 31.167 -11.5 49.5s-0.333008 36.166 2 53.499s5.83301 33.166 10.5 47.499
s9.33398 24.833 14.001 31.5c0 -2 1.66699 -1.66699 5 1l11.5 9c4.33301 3.33301 8.16602 6.16602 11.499 8.49902s5 2.5 5 0.5c-5.33301 -13.333 -9.83301 -28.833 -13.5 -46.5s-4.66699 -34.334 -3 -50.001s6.33398 -28.834 14.001 -39.501s20.167 -15.667 37.5 -15
c18.667 0 33.167 5.16699 43.5 15.5s18.333 22.666 24 36.999s10 29.166 13 44.499s7.16699 28 12.5 38c0.666992 -2 2.5 -1.83301 5.5 0.5s6 5 9 8s6 5.66699 9 8s4.83301 2.5 5.5 0.5c-5.33301 -19.333 -6.16602 -37.333 -2.49902 -54s10.167 -30 19.5 -40
s21.166 -16 35.499 -18s29.833 2.66699 46.5 14c4 6 5.83301 13.333 5.5 22s-1.83301 17.5 -4.5 26.5s-6.33398 18 -11.001 27s-9.33398 16.833 -14.001 23.5l24.5 34z" />
    <glyph glyph-name="lamwithalefmaddaaboveisolatedd" unicode="&#xfedf;&#xfe82;" horiz-adv-x="1012" arabic-form="isolated" 
d="M167 264c47.333 5.33301 89.835 11.332 127.502 17.999s72.167 13.667 103.5 21c-0.666992 25.333 -2.16699 52.333 -4.5 81s-5.16602 58 -8.49902 88c-10 59.333 -24.333 120.666 -43 183.999s-42.334 126 -71.001 188s-61.834 121.833 -99.501 179.5
s-80.5 110.167 -128.5 157.5l174 175c59.333 -59.333 112.166 -123.333 158.499 -192s86.5 -139.667 120.5 -213s62 -147.666 84 -222.999s38.667 -148.666 50 -219.999c1.33301 -10 2.5 -18.333 3.5 -25l3 -19.5c1 -6.33301 1.83301 -13 2.5 -20
s1.33398 -15.833 2.00098 -26.5c15.333 19.333 27.833 42.833 37.5 70.5s15.834 59.5 18.501 95.5v774h247v-790c-5.33301 -74.667 -16.833 -138.167 -34.5 -190.5s-41.5 -96.833 -71.5 -133.5s-65.833 -66.667 -107.5 -90s-88.834 -43 -141.501 -59
s-110.834 -29.667 -174.501 -41l-205.5 -35zM44.002 1400c-5.33301 -1.33301 -9.83203 0.169922 -13.499 4.50293s-5.5 9.16602 -5.5 14.499l3 49c0 7.33301 2 13.166 6 17.499s8.66699 7.16602 14 8.49902l384 68c11.333 2 17.666 -4.33301 18.999 -19l-3 -49
c0 -6 -2 -11.667 -6 -17s-8.66699 -8.33301 -14 -9z" />
    <glyph glyph-name="lamwithalefmaddaabovefinal" unicode="&#xfee0;&#xfe82;" horiz-adv-x="1076" arabic-form="final" 
d="M1091 143l-269.997 -0.00488281c-30 0 -55.333 8.33301 -76 25c-38 -19.333 -78.667 -36.666 -122 -51.999s-88 -29 -134 -41s-92.667 -22.667 -140 -32s-93.333 -17.666 -138 -24.999l-42 246c46.667 5.33301 89.167 11.333 127.5 18s72.833 13.667 103.5 21
c-0.666992 24.667 -2.16699 51.834 -4.5 81.501s-5.16602 58.834 -8.49902 87.501c-10 59.333 -24.333 120.666 -43 183.999s-42.334 126 -71.001 188s-61.834 121.833 -99.501 179.5s-80.5 110.167 -128.5 157.5l174 175c59.333 -59.333 112.166 -123.333 158.499 -192
s86.5 -139.667 120.5 -213s62 -147.666 84 -222.999s38.667 -148.666 50 -219.999c3.33301 -16.667 5.83301 -33.167 7.5 -49.5s3.16699 -33.5 4.5 -51.5c9.33301 4.66699 16.666 8.5 21.999 11.5l13.5 7.5l9 5l8.5 5v921h247v-966h147v-248zM44.0029 1400
c-5.33301 -1.33301 -9.83203 0.169922 -13.499 4.50293s-5.5 9.16602 -5.5 14.499l3 49c0 7.33301 2 13.166 6 17.499s8.66699 7.16602 14 8.49902l384 68c11.333 2 17.666 -4.33301 18.999 -19l-3 -49c0 -6 -2 -11.667 -6 -17s-8.66699 -8.33301 -14 -9z" />
    <glyph glyph-name="lamwithalefhamzaaboveisolatedd" unicode="&#xfedf;&#xfe84;" horiz-adv-x="1012" arabic-form="isolated" 
d="M167 264c47.333 5.33301 89.833 11.332 127.5 17.999s72.5 13.667 104.5 21c-0.666992 25.333 -2.16699 52.333 -4.5 81s-5.5 58 -9.5 88c-10 59.333 -24.333 120.666 -43 183.999s-42.167 126 -70.5 188s-61.5 121.833 -99.5 179.5s-80.667 110.167 -128 157.5l174 175
c58.667 -59.333 111.167 -123.333 157.5 -192s86.5 -139.667 120.5 -213s62 -147.666 84 -222.999s38.667 -148.666 50 -219.999c1.33301 -10 2.5 -18.333 3.5 -25l3 -19.5c1 -6.33301 1.83301 -13 2.5 -20s1.33398 -15.833 2.00098 -26.5
c15.333 19.333 27.833 42.833 37.5 70.5s15.834 59.5 18.501 95.5v774h247v-790c-5.33301 -74.667 -16.833 -138.167 -34.5 -190.5s-41.5 -96.833 -71.5 -133.5s-65.833 -66.667 -107.5 -90s-88.834 -43 -141.501 -59s-110.834 -29.667 -174.501 -41l-205.5 -35zM309 1533
c-3.33301 7.33301 -5.49902 14.998 -6.49902 22.998s-1.5 16 -1.5 24c0 16.667 2.66699 32.834 8 48.501s13.166 29.667 23.499 42s23.333 22.166 39 29.499s33.5 11 53.5 11h111v-83l-111 1c-18 0 -31 -5.16699 -39 -15.5s-12 -21.5 -12 -33.5
c0 -11.333 3.66699 -21.666 11 -30.999s19 -14.666 35 -15.999h125v-83h-274v83h38z" />
    <glyph glyph-name="lamwithalefhamzaabovefinal" unicode="&#xfee0;&#xfe84;" horiz-adv-x="1076" arabic-form="final" 
d="M1091 143l-270 -0.00488281c-30 0 -55.333 8.33301 -76 25c-38 -19.333 -78.667 -36.666 -122 -51.999s-88 -29 -134 -41s-92.667 -22.667 -140 -32s-93.333 -17.666 -138 -24.999l-42 246c47.333 5.33301 90 11.333 128 18s72.667 13.667 104 21
c-0.666992 24.667 -2.16699 51.834 -4.5 81.501s-5.5 58.834 -9.5 87.501c-10 59.333 -24.333 120.666 -43 183.999s-42.167 126 -70.5 188s-61.5 121.833 -99.5 179.5s-80.667 110.167 -128 157.5l174 175c58.667 -59.333 111.167 -123.333 157.5 -192
s86.5 -139.667 120.5 -213s62 -147.666 84 -222.999s38.667 -148.666 50 -219.999c3.33301 -16.667 5.83301 -33.167 7.5 -49.5s3.16699 -33.5 4.5 -51.5l22.5 11.5c5.66699 3 10.167 5.5 13.5 7.5l8.5 5l8.5 5v921h247v-966h147v-248zM309 1533
c-3.33301 7.33301 -5.49902 14.998 -6.49902 22.998s-1.5 16 -1.5 24c0 16.667 2.66699 32.834 8 48.501s13.166 29.667 23.499 42s23.333 22.166 39 29.499s33.5 11 53.5 11h111v-83l-111 1c-18 0 -31 -5.16699 -39 -15.5s-12 -21.5 -12 -33.5
c0 -11.333 3.66699 -21.666 11 -30.999s19 -14.666 35 -15.999h125v-83h-274v83h38z" />
    <glyph glyph-name="lamwithalefhamzabelowisolated" unicode="&#xfedf;&#xfe88;" horiz-adv-x="1012" arabic-form="isolated" 
d="M167 264c47.333 5.33301 89.833 11.332 127.5 17.999s72.5 13.667 104.5 21c-0.666992 25.333 -2.16699 52.333 -4.5 81s-5.5 58 -9.5 88c-10 59.333 -24.333 120.666 -43 183.999s-42.167 126 -70.5 188s-61.5 121.833 -99.5 179.5s-80.667 110.167 -128 157.5l174 175
c58.667 -59.333 111.167 -123.333 157.5 -192s86.5 -139.667 120.5 -213s62 -147.666 84 -222.999s38.667 -148.666 50 -219.999c1.33301 -10 2.5 -18.333 3.5 -25l3 -19.5c1 -6.33301 1.83301 -13 2.5 -20s1.33398 -15.833 2.00098 -26.5
c15.333 19.333 27.833 42.833 37.5 70.5s15.834 59.5 18.501 95.5v774h247v-790c-5.33301 -74.667 -16.833 -138.167 -34.5 -190.5s-41.5 -96.833 -71.5 -133.5s-65.833 -66.667 -107.5 -90s-88.834 -43 -141.501 -59s-110.834 -29.667 -174.501 -41l-205.5 -35z
M175 -252.001c-3.33301 7.33301 -5.49902 14.998 -6.49902 22.998s-1.5 16 -1.5 24c0 16.667 2.66699 32.834 8 48.501s13.166 29.667 23.499 42s23.333 22.166 39 29.499s33.5 11 53.5 11h111v-83l-111 1c-18 0 -31 -5.16699 -39 -15.5s-12 -21.5 -12 -33.5
c0 -11.333 3.66699 -21.666 11 -30.999s19 -14.666 35 -15.999h125v-83h-274v83h38z" />
    <glyph glyph-name="lamwithalefhamzabelowfinal" unicode="&#xfee0;&#xfe88;" horiz-adv-x="1076" arabic-form="final" 
d="M1091 143l-270 -0.00488281c-30 0 -55.333 8.33301 -76 25c-38 -19.333 -78.667 -36.666 -122 -51.999s-88 -29 -134 -41s-92.667 -22.667 -140 -32s-93.333 -17.666 -138 -24.999l-42 246c47.333 5.33301 90 11.333 128 18s72.667 13.667 104 21
c-0.666992 24.667 -2.16699 51.834 -4.5 81.501s-5.5 58.834 -9.5 87.501c-10 59.333 -24.333 120.666 -43 183.999s-42.167 126 -70.5 188s-61.5 121.833 -99.5 179.5s-80.667 110.167 -128 157.5l174 175c58.667 -59.333 111.167 -123.333 157.5 -192
s86.5 -139.667 120.5 -213s62 -147.666 84 -222.999s38.667 -148.666 50 -219.999c3.33301 -16.667 5.83301 -33.167 7.5 -49.5s3.16699 -33.5 4.5 -51.5l22.5 11.5c5.66699 3 10.167 5.5 13.5 7.5l8.5 5l8.5 5v921h247v-966h147v-248zM175 -252.005
c-3.33301 7.33301 -5.49902 14.998 -6.49902 22.998s-1.5 16 -1.5 24c0 16.667 2.66699 32.834 8 48.501s13.166 29.667 23.499 42s23.333 22.166 39 29.499s33.5 11 53.5 11h111v-83l-111 1c-18 0 -31 -5.16699 -39 -15.5s-12 -21.5 -12 -33.5
c0 -11.333 3.66699 -21.666 11 -30.999s19 -14.666 35 -15.999h125v-83h-274v83h38z" />
    <glyph glyph-name="lamwithalefisolated" unicode="&#xfedf;&#xfe8e;" horiz-adv-x="1012" arabic-form="isolated" 
d="M167 264c47.333 5.33301 89.833 11.332 127.5 17.999s72.5 13.667 104.5 21c-0.666992 25.333 -2.16699 52.333 -4.5 81s-5.5 58 -9.5 88c-10 59.333 -24.333 120.666 -43 183.999s-42.167 126 -70.5 188s-61.5 121.833 -99.5 179.5s-80.667 110.167 -128 157.5l174 175
c58.667 -59.333 111.167 -123.333 157.5 -192s86.5 -139.667 120.5 -213s62 -147.666 84 -222.999s38.667 -148.666 50 -219.999c1.33301 -10 2.5 -18.333 3.5 -25l3 -19.5c1 -6.33301 1.83301 -13 2.5 -20s1.33398 -15.833 2.00098 -26.5
c15.333 19.333 27.833 42.833 37.5 70.5s15.834 59.5 18.501 95.5v774h247v-790c-5.33301 -74.667 -16.833 -138.167 -34.5 -190.5s-41.5 -96.833 -71.5 -133.5s-65.833 -66.667 -107.5 -90s-88.834 -43 -141.501 -59s-110.834 -29.667 -174.501 -41l-205.5 -35z" />
    <glyph glyph-name="lamwithaleffinal" unicode="&#xfee0;&#xfe8e;" horiz-adv-x="1076" arabic-form="final" 
d="M1091 143l-269.999 -0.00488281c-30 0 -55.333 8.33301 -76 25c-38 -19.333 -78.667 -36.666 -122 -51.999s-88 -29 -134 -41s-92.667 -22.667 -140 -32s-93.333 -17.666 -138 -24.999l-42 246c47.333 5.33301 90 11.333 128 18s72.667 13.667 104 21
c-0.666992 24.667 -2.16699 51.834 -4.5 81.501s-5.5 58.834 -9.5 87.501c-9.33301 59.333 -23.5 120.666 -42.5 183.999s-42.833 126 -71.5 188s-61.834 121.833 -99.501 179.5s-80.167 110.167 -127.5 157.5l174 175c58.667 -59.333 111.167 -123.333 157.5 -192
s86.5 -139.667 120.5 -213s62 -147.666 84 -222.999s38.667 -148.666 50 -219.999c2.66699 -16.667 5 -33.167 7 -49.5s3.66699 -33.5 5 -51.5l22.5 11.5c5.66699 3 10.167 5.5 13.5 7.5l8.5 5l8.5 5v921h247v-966h147v-248z" />
    <glyph glyph-name="bullet_ara" unicode="&#xfcf4;" horiz-adv-x="532" arabic-form="medial" 
d="M424 1178c-7.33301 -15.333 -19.8301 -32.833 -37.4971 -52.5s-38.5 -38 -62.5 -55s-50.167 -31.167 -78.5 -42.5s-56.833 -16.333 -85.5 -15c-19.333 1.33301 -35.166 2.33301 -47.499 3s-21.833 1.33398 -28.5 2.00098s-10.834 1.16699 -12.501 1.5
s-1.83398 0.833008 -0.500977 1.5l105.5 43c29.667 12 56 24 79 36s43.833 25.167 62.5 39.5s37.334 32.5 56.001 54.5c-31.333 7.33301 -54.333 18.666 -69 33.999s-23.167 32.333 -25.5 51s0.666992 37.834 9 57.501s19.666 37.5 33.999 53.5s30.833 28.833 49.5 38.5
s37.334 14.167 56.001 13.5c10.667 -0.666992 19 -4.83398 25 -12.501s10.167 -17.334 12.5 -29.001s3.16602 -24.667 2.49902 -39s-1.83398 -28.166 -3.50098 -41.499s-3.83398 -25.5 -6.50098 -36.5s-5 -19.167 -7 -24.5l44 -13l-19 -80zM399.003 1355
c-3.33301 4 -7.33301 6.66699 -12 8s-8.66699 2 -12 2c-11.333 1.33301 -20.333 -1.5 -27 -8.5s-10.334 -15.167 -11.001 -24.5c-1.33301 -16.667 5.33398 -29 20.001 -37s31.667 -15.667 51 -23c1.33301 13.333 2 26 2 38c0 10 -0.666992 19.5 -2 28.5
s-4.33301 15.167 -9 18.5v-2z" />
    <glyph glyph-name="fathatanisolated" unicode="&#xfe70;" horiz-adv-x="408" arabic-form="isolated" 
d="M389 1675l-340 -193l17 91l340 193zM403 1842l-340 -193l17 91l340 193z" />
    <glyph glyph-name="fathatanabove" unicode="&#xfe71;" horiz-adv-x="669" arabic-form="medial" 
d="M383 1154l-191 -102.5l-191 -102.5c3.33301 15.333 6 28.333 8 39l7 38l191.5 101.5l191.5 102.5zM416 1345l-191.5 -102.499l-191.5 -102.5l8.5 38.5c2.33301 10.333 4.83301 23.166 7.5 38.499l191 101.5l191 102.5z" />
    <glyph glyph-name="dammatanisolated" unicode="&#xfe72;" horiz-adv-x="469" arabic-form="isolated" 
d="M409 1632c-4 -9.33301 -10.5 -20.499 -19.5 -33.499s-19.667 -26.333 -32 -40s-25.833 -26.834 -40.5 -39.501s-29.834 -23 -45.501 -31s-31.5 -13 -47.5 -15s-31.333 0.666992 -46 8s-22.667 17.833 -24 31.5s-0.333008 27.667 3 42s6.83301 28.333 10.5 42
s3 24.334 -2 32.001s-16.5 11.167 -34.5 10.5s-46.667 -7.33398 -86 -20.001c12.667 18 27.5 32.5 44.5 43.5s33.833 18.333 50.5 22s32.334 3.33398 47.001 -0.999023s26 -12.5 34 -24.5s11.5 -28 10.5 -48s-8.83301 -44 -23.5 -72c30.667 13.333 59.167 28 85.5 44
s50.166 36.667 71.499 62c-27.333 6.66699 -47.5 17.167 -60.5 31.5s-20.333 30.166 -22 47.499s1 35 8 53s17 34.5 30 49.5s27.667 27 44 36s32.833 13.167 49.5 12.5c14 -1.33301 23.333 -9.5 28 -24.5s6.83398 -32 6.50098 -51s-2.33301 -37.5 -6 -55.5
s-6.5 -30.333 -8.5 -37l38 -12l-17 -76zM388 1793c-6.66699 6.66699 -14.333 9.99805 -23 9.99805c-9.33301 0.666992 -16.833 -2.16602 -22.5 -8.49902s-8.5 -13.5 -8.5 -21.5c-1.33301 -7.33301 -0.333008 -13.666 3 -18.999s8 -10 14 -14s12.833 -7.83301 20.5 -11.5
l24.5 -11.5c1.33301 12.667 2 24.334 2 35.001c0 9.33301 -0.833008 18.166 -2.5 26.499s-4.16699 13.833 -7.5 16.5v-2z" />
    <glyph glyph-name="kasratanisolated" unicode="&#xfe74;" horiz-adv-x="408" arabic-form="isolated" 
d="M384 -83l-191.5 -102.498l-191.5 -102.5c3.33301 15.333 6 28.166 8 38.499s4.33301 23.166 7 38.499l191.5 101.5l191.5 102.5zM416 107.002l-191.5 -102.499l-191.5 -102.5l8.5 39.5c2.33301 10.333 4.83301 23.166 7.5 38.499l191 101l191 102z" />
    <glyph glyph-name="fathaisolated" unicode="&#xfe76;" horiz-adv-x="408" arabic-form="isolated" 
d="M396 1583l-191.5 -102.5l-191.5 -102.5l8 39.5l7 37.5l191.5 101.5l191.5 102.5z" />
    <glyph glyph-name="dammaisolated" unicode="&#xfe78;" horiz-adv-x="414" arabic-form="isolated" 
d="M366 1664c-7.33301 -15.333 -19.8301 -32.833 -37.4971 -52.5s-38.5 -38 -62.5 -55s-50.167 -31.167 -78.5 -42.5s-56.833 -16.333 -85.5 -15c-19.333 1.33301 -35.166 2.33301 -47.499 3s-21.833 1.33398 -28.5 2.00098s-10.834 1.16699 -12.501 1.5
s-1.83398 0.833008 -0.500977 1.5l105.5 43c29.667 12 56 24 79 36s43.833 25.167 62.5 39.5s37.334 32.5 56.001 54.5c-31.333 7.33301 -54.333 18.666 -69 33.999s-23.167 32.333 -25.5 51s0.666992 37.834 9 57.501s19.666 37.5 33.999 53.5s30.833 28.833 49.5 38.5
s37.334 14.167 56.001 13.5c10.667 -0.666992 19 -4.83398 25 -12.501s10.167 -17.334 12.5 -29.001s3.16602 -24.667 2.49902 -39s-1.83398 -28.166 -3.50098 -41.499s-3.83398 -25.5 -6.50098 -36.5s-5 -19.167 -7 -24.5l44 -13l-19 -80zM341.003 1841
c-3.33301 4 -7.33301 6.66699 -12 8s-8.66699 2 -12 2c-11.333 1.33301 -20.333 -1.5 -27 -8.5s-10.334 -15.167 -11.001 -24.5c-1.33301 -16.667 5.33398 -29 20.001 -37s31.667 -15.667 51 -23c1.33301 13.333 2 26 2 38c0 10 -0.666992 19.5 -2 28.5
s-4.33301 15.167 -9 18.5v-2z" />
    <glyph glyph-name="kasraisolated" unicode="&#xfe7a;" horiz-adv-x="408" arabic-form="isolated" 
d="M392 -363l-191.5 -102.5l-191.5 -102.5c3.33301 15.333 6 28.333 8 39l7 38l191.5 101.5l191.5 102.5z" />
    <glyph glyph-name="shaddaisolated" unicode="&#xfe7c;" horiz-adv-x="425" arabic-form="isolated" 
d="M398 1823c7.33301 -11.333 13.1689 -23.3232 17.502 -35.9902s8.16602 -25.334 11.499 -38.001c4 -22 5 -44.333 3 -67s-7 -43.334 -15 -62.001s-19 -33.834 -33 -45.501s-31 -17.5 -51 -17.5c-16.667 0 -29.167 3 -37.5 9s-17.5 13.667 -27.5 23
c-4 -6.66699 -9 -14.334 -15 -23.001s-13.333 -17 -22 -25s-19 -15 -31 -21s-25.333 -9.66699 -40 -11c-23.333 -2 -42 1.33301 -56 10s-24.333 20.334 -31 35.001s-10.5 31.167 -11.5 49.5s-0.333008 36.166 2 53.499s5.83301 33.166 10.5 47.499
s9.33398 24.833 14.001 31.5c0 -2 1.66699 -1.66699 5 1l11.5 9c4.33301 3.33301 8.16602 6.16602 11.499 8.49902s5 2.5 5 0.5c-5.33301 -13.333 -9.83301 -28.833 -13.5 -46.5s-4.66699 -34.334 -3 -50.001s6.33398 -28.834 14.001 -39.501s20.167 -15.667 37.5 -15
c18.667 0 33.167 5.16699 43.5 15.5s18.333 22.666 24 36.999s10 29.166 13 44.499s7.16699 28 12.5 38c0.666992 -2 2.5 -1.83301 5.5 0.5s6 5 9 8s6 5.66699 9 8s4.83301 2.5 5.5 0.5c-5.33301 -19.333 -6.16602 -37.333 -2.49902 -54s10.167 -30 19.5 -40
s21.166 -16 35.499 -18s29.833 2.66699 46.5 14c4 6 5.83301 13.333 5.5 22s-1.83301 17.5 -4.5 26.5s-6.33398 18 -11.001 27s-9.33398 16.833 -14.001 23.5l24.5 34z" />
    <glyph glyph-name="sukunisolated" unicode="&#xfe7e;" horiz-adv-x="328" arabic-form="isolated" 
d="M347 1696c3.33301 -22.667 0.000976562 -46.502 -9.99902 -71.502s-23.667 -54.167 -41 -87.5v1c0 0.666992 0.333008 1.33398 1 2.00098l-3 -5h1h-1c-16 -9.33301 -36.5 -18.166 -61.5 -26.499s-49.667 -13.333 -74 -15s-46 2 -65 11s-30.5 26.167 -34.5 51.5
c-3.33301 22 -2.16602 47.167 3.50098 75.5s14.667 55.5 27 81.5s27.666 48.333 45.999 67s38.166 29.667 59.499 33c18.667 2.66699 36.667 0.5 54 -6.5s32.833 -16.5 46.5 -28.5s25.167 -25.5 34.5 -40.5s15 -28.833 17 -41.5zM283.001 1628
c-2 9.33301 -6.49902 19.332 -13.499 29.999s-15.333 20.5 -25 29.5s-20.167 16.333 -31.5 22s-23 7.5 -35 5.5c-20 -3.33301 -34.667 -12.333 -44 -27s-13 -29.667 -11 -45c2 -14.667 9 -25.5 21 -32.5s26 -10.667 42 -11s32.667 1.83398 50 6.50098
s32.666 11.667 45.999 21zM295.002 1536h1h-1z" />
    <glyph glyph-name="logo" unicode="&#xfe7f;" horiz-adv-x="2797" arabic-form="medial" 
d="M90 727h2611v-504h-2611v504zM1364 886l-45.0107 -26.002c-16 -9.33301 -32.5 -17.833 -49.5 -25.5s-33.833 -14.167 -50.5 -19.5s-33 -8 -49 -8c-20.667 0 -39.167 6.83301 -55.5 20.5s-30.833 35.5 -43.5 65.5l-30 -20.5
c-8.66699 -5.66699 -17.167 -10.834 -25.5 -15.501s-16.833 -8.66699 -25.5 -12l-30 -11c-12 -4 -22.667 -6 -32 -6c-11.333 0 -22.333 3.83301 -33 11.5s-16 18.834 -16 33.501c0 4.66699 0.833008 9.66699 2.5 15s3.83398 11 6.50098 17c12 26.667 28.333 52.167 49 76.5
s43.5 45.666 68.5 63.999s50.833 33 77.5 44s52 16.5 76 16.5c18 0 34 -5.33301 48 -16s21 -28 21 -52c0 -9.33301 -3.16699 -19.5 -9.5 -30.5s-15.5 -23.167 -27.5 -36.5c-13.333 -13.333 -25 -28.166 -35 -44.499s-15 -31.833 -15 -46.5c0 -10 3 -17.167 9 -21.5
s13.667 -6.5 23 -6.5c14 0 30.5 3.33301 49.5 10s37.833 14.334 56.5 23.001s35.834 17.167 51.501 25.5s26.834 14.5 33.501 18.5c5.33301 24.667 16.166 47.5 32.499 68.5s34.833 39.167 55.5 54.5s41.834 27.5 63.501 36.5s40.834 13.5 57.501 13.5
c9.33301 0 16 -1.66699 20 -5s6 -7.66602 6 -12.999c0 -6.66699 -3.66699 -13.5 -11 -20.5s-17.333 -11.167 -30 -12.5c-12.667 -4.66699 -27.334 -11 -44.001 -19s-32.5 -18 -47.5 -30s-27.667 -25.667 -38 -41s-15.5 -32.666 -15.5 -51.999
c0 -21.333 5.5 -36.333 16.5 -45s25.167 -13 42.5 -13s37 3.33301 59 10s43.5 14.5 64.5 23.5s40.333 18.167 58 27.5s31.5 16.333 41.5 21c0 24 6.33301 47.667 19 71s28.834 44.166 48.501 62.499s41.834 33 66.501 44s49 16.5 73 16.5c14.667 0 26.834 -1.5 36.501 -4.5
s17 -6.66699 22 -11s8.5 -9.33301 10.5 -15s3 -10.834 3 -15.501c0 -17.333 -9.66699 -34.666 -29 -51.999s-41.666 -33.666 -66.999 -48.999s-50.166 -28.833 -74.499 -40.5l-52.5 -25.5c10.667 -15.333 24.334 -26.5 41.001 -33.5s35.667 -10.5 57 -10.5
c20 0 41.5 2.83301 64.5 8.5s46.333 13.5 70 23.5s47 21.833 70 35.5s44.5 28.167 64.5 43.5c12.667 9.33301 25.334 20 38 32c12.667 12 26 23 40 33c2.66699 2 7 4.66699 13 8l19.5 10.5c7 3.66699 14.167 6.66699 21.5 9s14 3.5 20 3.5c10 0 15 -4.33301 15 -13
c0 -3.33301 -1.33301 -8.83301 -4 -16.5s-6 -15.167 -10 -22.5c-10.667 -30 -19.167 -55 -25.5 -75s-10.166 -35.667 -11.5 -47c0 -3.33301 2 -5 6 -5c4.66699 0 11.334 2.16699 20 6.5c8.66699 4.33301 18.5 9.66602 29.5 15.999s22.333 13.666 34 21.999
s22.5 16.5 32.5 24.5c2.66699 1.33301 10.334 6.33301 23 15c12.667 8.66699 27 17.834 43 27.501s32 18.5 48 26.5s28.667 12 38 12c8 0 12 -4 12 -12c-2 -19.333 -3 -38.333 -3 -57c0 -8 0.333008 -16.167 1 -24.5s2.16699 -15.666 4.5 -21.999s5.66602 -11.5 10 -15.5
c4.33301 -4 10.166 -6 17.5 -6c11.333 0 21.666 1.83301 31 5.5c9.33301 3.66699 18.333 8.16699 27 13.5s17.167 11.333 25.5 18s17.5 13 27.5 19l8 -21c-8 -6 -18 -14.333 -30 -25s-24.833 -21.167 -38.5 -31.5s-27.834 -19.333 -42.5 -27
c-14.667 -7.66699 -28.667 -11.5 -42 -11.5c-10 0 -18.333 2 -25 6s-11.667 9 -15 15s-5.66602 12.333 -7 19c-1.33301 6.66699 -2 13 -2 19s0.333008 12.167 1 18.5s1 12.166 1 17.499c0 7.33301 -1.16699 14.333 -3.5 21s-7.16602 10 -14.5 10
c-6.66699 0 -15.834 -3.16699 -27.5 -9.5c-11.667 -6.33301 -24.5 -14.333 -38.5 -24l-45 -31c-16 -11 -32 -21.333 -48 -31s-31.333 -17.834 -46 -24.501s-28 -10 -40 -10c-7.33301 1.33301 -14.666 4 -22 8c-7.33301 4 -11 10.333 -11 19c0 15.333 1.5 30.166 4.5 44.499
s9.16699 35.166 18.5 62.499c0 0.666992 -5.16699 -2.66602 -15.5 -9.99902s-24.666 -16.666 -43 -27.999c-18.333 -11.333 -39.666 -23.666 -63.999 -36.999s-50 -25.833 -77 -37.5s-54.667 -21.334 -83 -29.001s-55.833 -11.5 -82.5 -11.5
c-27.333 0 -52.833 5.5 -76.5 16.5s-40.167 26.5 -49.5 46.5c-12.667 -5.33301 -28.5 -12.666 -47.5 -21.999s-39.667 -18.5 -62 -27.5s-45.166 -16.667 -68.499 -23s-45.333 -9.5 -66 -9.5c-23.333 0 -43.833 5.5 -61.5 16.5s-29.5 31.167 -35.5 60.5zM523.989 1295
c5.33301 24.667 13.835 46.001 25.502 64.001s27.167 27 46.5 27c6.66699 0 13.167 -1.16699 19.5 -3.5s9.5 -8.16602 9.5 -17.499c0 -6 -2.66699 -14.167 -8 -24.5s-11 -19.833 -17 -28.5l-97 -192c70 3.33301 139.667 15.333 209 36s132.333 53 189 97
c23.333 20.667 43.833 35.167 61.5 43.5s32.167 12.5 43.5 12.5c16.667 0 25 -7 25 -21c0 -12.667 -7.66699 -28.5 -23 -47.5s-39.666 -37.167 -72.999 -54.5c-22 -22.667 -43 -46.667 -63 -72s-38 -52.666 -54 -81.999s-29.333 -61.333 -40 -96s-17.334 -73 -20.001 -115
c0 -12.667 -5 -19 -15 -19c-8 0 -14 4.5 -18 13.5s-6 24.167 -6 45.5c0 48.667 7.5 95.5 22.5 140.5s33.833 86.5 56.5 124.5c-50.667 -16.667 -102.334 -28.834 -155.001 -36.501s-106.334 -11.5 -161.001 -11.5l-80 -160c-10 -20.667 -23 -38.667 -39 -54
s-34.667 -23 -56 -23c-16 0 -32.667 6.16699 -50 18.5s-33 28.666 -47 48.999s-25.667 43.166 -35 68.499s-14 51 -14 77c0 22.667 5.5 41.5 16.5 56.5s29.167 22.5 54.5 22.5c4 0 8 -0.166992 12 -0.5s8.33301 -0.833008 13 -1.5l92.5 -10c31 -3.33301 62.5 -5 94.5 -5z
M1102.99 264.999h91v320l318 -320h109v421h-91v-320l-313 320h-114v-421zM1708.99 264.999h430v76h-331v108h299v75h-299v87h322v75h-421v-421zM2201.99 685.999v-77h183v-344h89v344h183v77h-455zM426.991 1080c-72 2 -143.332 9.00195 -213.999 21.002
c-8.66699 -6.66699 -13 -18.334 -13 -35.001c0 -15.333 3.16699 -32.833 9.5 -52.5s14.833 -38.334 25.5 -56.001s22.667 -32.667 36 -45s26.666 -18.5 39.999 -18.5c10 0 19.667 4 29 12s18 21.333 26 40zM1182.99 1059
c-3.33301 0.666992 -6.66504 0.999023 -9.99805 0.999023h-10c-24 0 -47.5 -5.66699 -70.5 -17s-44.667 -25.833 -65 -43.5s-39 -37.167 -56 -58.5s-31.5 -41.666 -43.5 -60.999c27.333 0 53.166 5.5 77.499 16.5s47.166 25 68.499 42s41 36.167 59 57.5
s34.667 42.333 50 63zM879.993 390v-125h126v125h-126zM1913.99 1091c-33.333 -3.33301 -66.333 -15.998 -99 -37.998s-58.667 -55 -78 -99c26.667 11.333 51.167 22.666 73.5 33.999s41.833 22.333 58.5 33s29.667 20.667 39 30s14 17.666 14 24.999
c0 6.66699 -2.66699 11.667 -8 15z" />
    <glyph glyph-name="hamzaisolated" unicode="&#x621;" horiz-adv-x="1002" arabic-form="isolated" 
d="M93 143l0.000976562 248.003h100c-5.33301 16 -9 32.333 -11 49s-3 33.667 -3 51c0 43.333 8 86 24 128s39.667 79.5 71 112.5s70.333 59.667 117 80s100.667 30.5 162 30.5h336v-249l-336 1c-22 0 -40.833 -3 -56.5 -9s-28.834 -13.667 -39.501 -23
s-18.5 -20.333 -23.5 -33s-7.5 -25.334 -7.5 -38.001c0 -24.667 9 -46.834 27 -66.501s47 -30.834 87 -33.501h376v-248h-823z" />
    <glyph glyph-name="alefwithmaddaaboveisolated" unicode="&#x622;" horiz-adv-x="506" arabic-form="isolated" 
d="M373 145h-247v1174l247 42v-1216zM44 1400c-5.33301 -1.33301 -9.83203 0.169922 -13.499 4.50293s-5.5 9.16602 -5.5 14.499l3 49c0 7.33301 2 13.166 6 17.499s8.66699 7.16602 14 8.49902l384 68c11.333 2 17.666 -4.33301 18.999 -19l-3 -49c0 -6 -2 -11.667 -6 -17
s-8.66699 -8.33301 -14 -9z" />
    <glyph glyph-name="alefwithmaddaabovefinal" unicode="&#x622;" horiz-adv-x="516" arabic-form="final" 
d="M524 143l-315 0.00292969c-17.333 0 -33.5 3.16699 -48.5 9.5s-28.167 15.166 -39.5 26.499s-20.333 24.5 -27 39.5s-10 31.167 -10 48.5c0 1.33301 -0.166992 2.66602 -0.5 3.99902s0.166992 3.66602 1.5 6.99902v1036l247 47v-970h192v-248zM44 1400
c-5.33301 -1.33301 -9.83203 0.169922 -13.499 4.50293s-5.5 9.16602 -5.5 14.499l3 49c0 7.33301 2 13.166 6 17.499s8.66699 7.16602 14 8.49902l384 68c11.333 2 17.666 -4.33301 18.999 -19l-3 -49c0 -6 -2 -11.667 -6 -17s-8.66699 -8.33301 -14 -9z" />
    <glyph glyph-name="alefwithhamzaaboveisolated" unicode="&#x623;" horiz-adv-x="506" arabic-form="isolated" 
d="M373 145h-247v1212h247v-1212zM151 1533c-3.33301 7.33301 -5.49902 14.998 -6.49902 22.998s-1.5 16 -1.5 24c0 16.667 2.66699 32.834 8 48.501s13.166 29.667 23.499 42s23.333 22.166 39 29.499s33.5 11 53.5 11h111v-83l-111 1c-18 0 -31 -5.16699 -39 -15.5
s-12 -21.5 -12 -33.5c0 -11.333 3.66699 -21.666 11 -30.999s19 -14.666 35 -15.999h125v-83h-274v83h38z" />
    <glyph glyph-name="alefwithhamzaabovefinal" unicode="&#x623;" horiz-adv-x="521" arabic-form="final" 
d="M525 143l-315 0.00292969c-17.333 0 -33.5 3.16699 -48.5 9.5s-28.167 15.166 -39.5 26.499s-20.333 24.5 -27 39.5s-10 31.167 -10 48.5c0 1.33301 -0.166992 2.66602 -0.5 3.99902s0.166992 3.66602 1.5 6.99902v1079h247v-966h192v-248zM96 1533
c-3.33301 7.33301 -5.49902 14.998 -6.49902 22.998s-1.5 16 -1.5 24c0 16.667 2.66699 32.834 8 48.501s13.166 29.667 23.499 42s23.333 22.166 39 29.499s33.5 11 53.5 11h111v-83l-111 1c-18 0 -31 -5.16699 -39 -15.5s-12 -21.5 -12 -33.5
c0 -11.333 3.66699 -21.666 11 -30.999s19 -14.666 35 -15.999h125v-83h-274v83h38z" />
    <glyph glyph-name="wawwithhamzaaboveisolated" unicode="&#x624;" horiz-adv-x="962" arabic-form="isolated" 
d="M731 1013c21.333 0 41.1709 -3.99805 59.5039 -11.998s34.333 -18.833 48 -32.5s24.5 -29.834 32.5 -48.501s12 -38.667 12 -60c-0.666992 -16 -0.833984 -37.5 -0.500977 -64.5s0.5 -56.833 0.5 -89.5c0 -32 0.166992 -65.333 0.5 -100s0.333008 -67 0 -97
s-1 -56.333 -2 -79s-2.16699 -38.667 -3.5 -48c-4.66699 -140 -21.5 -256.167 -50.5 -348.5s-69.167 -165.833 -120.5 -220.5s-113 -93.167 -185 -115.5s-153 -33.5 -243 -33.5v248c99.333 0 176.166 19 230.499 57s87.833 96.333 100.5 175
c-32.667 -4.66699 -69.334 -8.83398 -110.001 -12.501s-81.834 -3 -123.501 2s-82.167 15.833 -121.5 32.5s-74 42.667 -104 78s-53.333 82 -70 140s-23 130.333 -19 217c0 56.667 10.667 110 32 160s50.5 93.667 87.5 131s80.5 66.833 130.5 88.5s103.333 32.5 160 32.5
h259zM638.005 765.002c-28 0 -55.665 0.167969 -82.998 0.500977s-55 0.5 -83 0.5c-22 0 -42.833 -4.5 -62.5 -13.5s-37 -21 -52 -36s-26.833 -32.5 -35.5 -52.5s-13 -41 -13 -63c-2.66699 -47.333 -1.83398 -86.5 2.49902 -117.5s13.166 -55.667 26.499 -74
s31.333 -31.5 54 -39.5s50.667 -13 84 -15c36 0.666992 65 2.66699 87 6s38.833 10.166 50.5 20.499s19.5 25.333 23.5 45s6 46.167 6 79.5zM336.007 1231c-4 9.33301 -7 19.5 -9 30.5s-3 22.167 -3 33.5c0 22 4.16699 43.667 12.5 65s20.5 40.333 36.5 57
s35.833 30.167 59.5 40.5s51.167 15.5 82.5 15.5h170v-113l-170 1c-28 0 -48.167 -7 -60.5 -21s-18.5 -29 -18.5 -45s5.66699 -30.333 17 -43s29.333 -19.667 54 -21h193v-113h-422v113h58z" />
    <glyph glyph-name="wawwithhamzaabovefinal" unicode="&#x624;" horiz-adv-x="1042" arabic-form="final" 
d="M859 143c-15.333 -66 -37.3281 -128.166 -65.9951 -186.499s-66 -109.166 -112 -152.499s-102 -77.5 -168 -102.5s-144 -37.5 -234 -37.5v248c99.333 0 176.166 19 230.499 57s87.833 96.333 100.5 175c-32.667 -4.66699 -69.334 -8.83398 -110.001 -12.501
s-81.834 -3 -123.501 2s-82.167 15.833 -121.5 32.5s-74 42.667 -104 78s-53.333 82 -70 140s-23 130.333 -19 217c0 56.667 10.667 110 32 160s50.5 93.667 87.5 131s80.5 66.833 130.5 88.5s103.333 32.5 160 32.5h259c21.333 0 41.166 -4 59.499 -12
s34.333 -18.833 48 -32.5s24.5 -29.834 32.5 -48.501s12 -38.667 12 -60c0 -24 0.333008 -49 1 -75s1.66699 -53.667 3 -83c1.33301 -32 2.66602 -66 3.99902 -102s2 -71.333 2 -106c0 -17.333 -0.166992 -34.5 -0.5 -51.5s-0.833008 -34.167 -1.5 -51.5h154v-248h-186z
M638.005 765.001c-28 0 -55.665 0.167969 -82.998 0.500977s-55 0.5 -83 0.5c-22 0 -42.833 -4.5 -62.5 -13.5s-37 -21 -52 -36s-26.833 -32.5 -35.5 -52.5s-13 -41 -13 -63c-2.66699 -47.333 -1.83398 -86.5 2.49902 -117.5s13.166 -55.667 26.499 -74
s31.333 -31.5 54 -39.5s50.667 -13 84 -15c36 0.666992 65 2.66699 87 6s38.833 10.166 50.5 20.499s19.5 25.333 23.5 45s6 46.167 6 79.5zM336.007 1231c-4 9.33301 -7 19.5 -9 30.5s-3 22.167 -3 33.5c0 22 4.16699 43.667 12.5 65s20.5 40.333 36.5 57
s35.833 30.167 59.5 40.5s51.167 15.5 82.5 15.5h170v-113l-170 1c-28 0 -48.167 -7 -60.5 -21s-18.5 -29 -18.5 -45s5.66699 -30.333 17 -43s29.333 -19.667 54 -21h193v-113h-422v113h58z" />
    <glyph glyph-name="alefwithhamzabelowisolated" unicode="&#x625;" horiz-adv-x="506" arabic-form="isolated" 
d="M373 145h-247v1212h247v-1212zM151 -137c-3.33301 7.33301 -5.49902 14.998 -6.49902 22.998s-1.5 16 -1.5 24c0 16.667 2.66699 32.834 8 48.501s13.166 29.667 23.499 42s23.333 22.166 39 29.499s33.5 11 53.5 11h111v-83l-111 1c-18 0 -31 -5.16699 -39 -15.5
s-12 -21.5 -12 -33.5c0 -11.333 3.66699 -21.666 11 -30.999s19 -14.666 35 -15.999h125v-83h-274v83h38z" />
    <glyph glyph-name="alefwithhamzabelowfinal" unicode="&#x625;" horiz-adv-x="531" arabic-form="final" 
d="M540 143l-316 0.00292969c-17.333 0 -33.5 3.16699 -48.5 9.5s-28 15.166 -39 26.499s-19.833 24.5 -26.5 39.5s-10 31.167 -10 48.5c0 1.33301 -0.166992 2.66602 -0.5 3.99902s0.166992 3.66602 1.5 6.99902v1079h247v-966h192v-248zM151 -136.997
c-3.33301 7.33301 -5.49902 14.998 -6.49902 22.998s-1.5 16 -1.5 24c0 16.667 2.66699 32.834 8 48.501s13.166 29.667 23.499 42s23.333 22.166 39 29.499s33.5 11 53.5 11h111v-83l-111 1c-18 0 -31 -5.16699 -39 -15.5s-12 -21.5 -12 -33.5
c0 -11.333 3.66699 -21.666 11 -30.999s19 -14.666 35 -15.999h125v-83h-274v83h38z" />
    <glyph glyph-name="yehwithhamzaaboveisolated" unicode="&#x626;" horiz-adv-x="1148" arabic-form="isolated" 
d="M342 417c-13.333 -16.667 -24.3301 -35.3359 -32.9971 -56.0029s-14.334 -41.5 -17.001 -62.5s-1.66699 -41.5 3 -61.5s13.667 -37.5 27 -52.5s31.5 -26.667 54.5 -35s51.5 -11.833 85.5 -10.5h286c34 0 57 7.66699 69 23s18 33.333 18 54
c0 19.333 -3.5 35.833 -10.5 49.5s-17 25.5 -30 35.5s-28.833 18.833 -47.5 26.5s-39.334 15.5 -62.001 23.5c-37.333 12.667 -73.833 26.334 -109.5 41.001s-67.334 34 -95.001 58s-50 54.667 -67 92s-25.5 85 -25.5 143c0 66.667 11.833 123.667 35.5 171
s54.834 86.166 93.501 116.499s82.5 52.5 131.5 66.5s98.5 21 148.5 21s100.167 -6.83301 150.5 -20.5s95.833 -31.5 136.5 -53.5l-120 -217c-25.333 13.333 -52.833 24 -82.5 32s-58.5 12 -86.5 12c-21.333 0 -41.666 -2.16699 -60.999 -6.5s-36.333 -11.5 -51 -21.5
s-26.334 -23.5 -35.001 -40.5s-13 -38.5 -13 -64.5c0 -12.667 3.66699 -23.667 11 -33s17 -17.5 29 -24.5s25.5 -13.333 40.5 -19s30.5 -11.167 46.5 -16.5l72 -25c24 -8.66699 47.167 -19.167 69.5 -31.5s43.5 -27.166 63.5 -44.499s38.333 -38.333 55 -63
c19.333 -30 34.333 -62.833 45 -98.5s16 -71.5 16 -107.5c0 -40 -6.66699 -79.5 -20 -118.5s-34 -74 -62 -105s-63.333 -56 -106 -75s-93 -28.5 -151 -28.5l-282 2c-78 0 -143.833 11.667 -197.5 35s-96.834 53.833 -129.501 91.5s-56.167 80.5 -70.5 128.5
s-21.5 97 -21.5 147c0 28 2.16699 52.167 6.5 72.5s10.166 39.333 17.499 57s15.833 34.834 25.5 51.501s19.834 35.334 30.501 56.001zM53.0029 1125c-4 9.33301 -7 19.5 -9 30.5s-3 22.167 -3 33.5c0 22 4.16699 43.667 12.5 65s20.5 40.333 36.5 57
s35.833 30.167 59.5 40.5s51.167 15.5 82.5 15.5h170v-113l-170 1c-28 0 -48.167 -7 -60.5 -21s-18.5 -29 -18.5 -45s5.66699 -30.333 17 -43s29.333 -19.667 54 -21h193v-113h-422v113h58z" />
    <glyph glyph-name="yehwithhamzaabovefinal" unicode="&#x626;" horiz-adv-x="1498" arabic-form="final" 
d="M341 746c-14 -26.667 -26.1729 -58.3311 -36.5059 -94.998s-15.5 -72.667 -15.5 -108c0.666992 -20.667 3.16699 -40.334 7.5 -59.001s12.5 -35 24.5 -49s29.167 -25 51.5 -33s51.5 -12 87.5 -12l238 1v261c0 57.333 8 108.5 24 153.5s39.5 82.833 70.5 113.5
s68.833 54 113.5 70s96 24 154 24l178 -4c17.333 0 33.333 -3.5 48 -10.5s27.5 -16.333 38.5 -28s19.667 -25.167 26 -40.5s9.5 -31.333 9.5 -48v-491h148v-248h-272c-17.333 0 -33.333 3.16699 -48 9.5s-27.667 15.166 -39 26.499s-20.166 24.5 -26.499 39.5
s-9.5 31.167 -9.5 48.5v497c-9.33301 0.666992 -18.833 1.16699 -28.5 1.5s-19.167 0.5 -28.5 0.5c-21.333 0 -39.166 -2 -53.499 -6s-25.666 -10.5 -33.999 -19.5s-14.333 -20.667 -18 -35s-5.5 -32.166 -5.5 -53.499l1 -376c0 -18 -2.83301 -35.167 -8.5 -51.5
s-13.834 -30.5 -24.501 -42.5s-23.667 -21.5 -39 -28.5s-32.666 -10.5 -51.999 -10.5h-362c-77.333 0 -142.666 11.5 -195.999 34.5s-96.5 53.333 -129.5 91s-56.833 80.667 -71.5 129s-22 97.5 -22 147.5c0 28 2.16699 56.167 6.5 84.5s10.333 56.166 18 83.499
s16.334 53.5 26.001 78.5s19.834 47.833 30.501 68.5zM176.994 1070c-4 9.33301 -7 19.5 -9 30.5s-3 22.167 -3 33.5c0 22 4.16699 43.667 12.5 65s20.5 40.333 36.5 57s35.833 30.167 59.5 40.5s51.167 15.5 82.5 15.5h170v-113l-170 1c-28 0 -48.167 -7 -60.5 -21
s-18.5 -29 -18.5 -45s5.66699 -30.333 17 -43s29.333 -19.667 54 -21h193v-113h-422v113h58z" />
    <glyph glyph-name="yehwithhamzaaboveinitial" unicode="&#x626;" horiz-adv-x="595" arabic-form="initial" 
d="M-8 391l274 -0.000976562v411h247v-524c0.666992 -2 1 -4 1 -6v-5c0 -17.333 -3.33301 -33.5 -10 -48.5s-15.667 -28.167 -27 -39.5s-24.5 -20.166 -39.5 -26.499s-31.167 -9.5 -48.5 -9.5h-397v248zM157 1011c-4 9.33301 -7 19.5 -9 30.5s-3 22.167 -3 33.5
c0 22 4.16699 43.667 12.5 65s20.5 40.333 36.5 57s35.833 30.167 59.5 40.5s51.167 15.5 82.5 15.5h170v-113l-170 1c-28 0 -48.167 -7 -60.5 -21s-18.5 -29 -18.5 -45s5.66699 -30.333 17 -43s29.333 -19.667 54 -21h193v-113h-422v113h58z" />
    <glyph glyph-name="yehwithhamzaabovemedial" unicode="&#x626;" horiz-adv-x="610" arabic-form="medial" 
d="M-6 143v248h196v410h247v-410h177v-248h-620zM157 1011c-4 9.33301 -7 19.5 -9 30.5s-3 22.167 -3 33.5c0 22 4.16699 43.667 12.5 65s20.5 40.333 36.5 57s35.833 30.167 59.5 40.5s51.167 15.5 82.5 15.5h170v-113l-170 1c-28 0 -48.167 -7 -60.5 -21
s-18.5 -29 -18.5 -45s5.66699 -30.333 17 -43s29.333 -19.667 54 -21h193v-113h-422v113h58z" />
    <glyph glyph-name="alefisolated" unicode="&#x627;" horiz-adv-x="506" arabic-form="isolated" 
d="M374 145h-248v1212h248v-1212z" />
    <glyph glyph-name="aleffinal" unicode="&#x627;" horiz-adv-x="526" arabic-form="final" 
d="M535 143l-315 0.00292969c-17.333 0 -33.5 3.16699 -48.5 9.5s-28.167 15.166 -39.5 26.499s-20.333 24.5 -27 39.5s-10 31.167 -10 48.5c0 1.33301 -0.166992 2.66602 -0.5 3.99902s0.166992 3.66602 1.5 6.99902v1079h247v-966h192v-248z" />
    <glyph glyph-name="behisolated" unicode="&#x628;" horiz-adv-x="1275" arabic-form="isolated" 
d="M1199 981l-0.00292969 -714.001c0 -17.333 -3.16699 -33.5 -9.5 -48.5s-15.166 -28.167 -26.499 -39.5s-24.5 -20.166 -39.5 -26.499s-31.167 -9.5 -48.5 -9.5h-601c-78.667 0 -144.667 11.667 -198 35s-96.333 54 -129 92s-56 81 -70 129s-21 96.667 -21 146
c0 28 2.16699 56.167 6.5 84.5s10.333 56.166 18 83.499s16.334 53.5 26.001 78.5s19.834 47.833 30.501 68.5l219 -114c-14.667 -27.333 -27.167 -59.166 -37.5 -95.499s-15.5 -72.5 -15.5 -108.5c0 -20.667 2.16699 -40.167 6.5 -58.5s12.5 -34.333 24.5 -48
s28.5 -24.5 49.5 -32.5s48.167 -12.333 81.5 -13c84 0 165.167 0.166992 243.5 0.5s159.5 0.5 243.5 0.5v590h247zM525.997 -124.001c0 18.667 3.33301 36 10 52s16 30 28 42s26 21.333 42 28s33 10 51 10c18.667 0 36 -3.33301 52 -10s30 -16 42 -28s21.5 -26 28.5 -42
s10.5 -33.333 10.5 -52c0 -18 -3.5 -35 -10.5 -51s-16.5 -30 -28.5 -42s-26 -21.5 -42 -28.5s-33.333 -10.5 -52 -10.5c-18 0 -35 3.5 -51 10.5s-30 16.5 -42 28.5s-21.333 26 -28 42s-10 33 -10 51z" />
    <glyph glyph-name="behfinal" unicode="&#x628;" horiz-adv-x="1359" arabic-form="final" 
d="M477 143c-78.667 0 -144.834 11.667 -198.501 35s-96.834 54 -129.501 92s-56 81 -70 129s-21 96.667 -21 146c0 28 2.16699 56.167 6.5 84.5s10.333 56.166 18 83.499s16.334 53.5 26.001 78.5s19.834 47.833 30.501 68.5l219 -114
c-14 -27.333 -26.333 -59.166 -37 -95.499s-16 -72.5 -16 -108.5c0 -20.667 2.16699 -40.167 6.5 -58.5s12.5 -34.333 24.5 -48s28.5 -24.5 49.5 -32.5s48.167 -12.333 81.5 -13c84 0 165.167 0.166992 243.5 0.5s159.5 0.5 243.5 0.5v590h247v-590h167v-248h-891zM585 -124
c0 18.667 3.33301 36 10 52s16 30 28 42s26 21.333 42 28s33 10 51 10c18.667 0 36 -3.33301 52 -10s30 -16 42 -28s21.5 -26 28.5 -42s10.5 -33.333 10.5 -52c0 -18 -3.5 -35 -10.5 -51s-16.5 -30 -28.5 -42s-26 -21.5 -42 -28.5s-33.333 -10.5 -52 -10.5
c-18 0 -35 3.5 -51 10.5s-30 16.5 -42 28.5s-21.333 26 -28 42s-10 33 -10 51z" />
    <glyph glyph-name="behinitial" unicode="&#x628;" horiz-adv-x="598" arabic-form="initial" 
d="M-5 391l274 -0.000976562v590h247v-703c0.666992 -2 1 -4 1 -6v-5c0 -17.333 -3.33301 -33.5 -10 -48.5s-15.667 -28.167 -27 -39.5s-24.5 -20.166 -39.5 -26.499s-31.167 -9.5 -48.5 -9.5h-397v248zM94 -124.001c0 18.667 3.33301 36 10 52s16 30 28 42s26 21.333 42 28
s33 10 51 10c18.667 0 36 -3.33301 52 -10s30 -16 42 -28s21.5 -26 28.5 -42s10.5 -33.333 10.5 -52c0 -18 -3.5 -35 -10.5 -51s-16.5 -30 -28.5 -42s-26 -21.5 -42 -28.5s-33.333 -10.5 -52 -10.5c-18 0 -35 3.5 -51 10.5s-30 16.5 -42 28.5s-21.333 26 -28 42
s-10 33 -10 51z" />
    <glyph glyph-name="behmedial" unicode="&#x628;" horiz-adv-x="610" arabic-form="medial" 
d="M-6 143v248h196v590h247v-590h177v-248h-620zM188 -124c0 18.667 3.33301 36 10 52s16 30 28 42s26 21.333 42 28s33 10 51 10c18.667 0 36 -3.33301 52 -10s30 -16 42 -28s21.5 -26 28.5 -42s10.5 -33.333 10.5 -52c0 -18 -3.5 -35 -10.5 -51s-16.5 -30 -28.5 -42
s-26 -21.5 -42 -28.5s-33.333 -10.5 -52 -10.5c-18 0 -35 3.5 -51 10.5s-30 16.5 -42 28.5s-21.333 26 -28 42s-10 33 -10 51z" />
    <glyph glyph-name="tehmarbutaisolated" unicode="&#x629;" horiz-adv-x="962" arabic-form="isolated" 
d="M735 1013c20.667 0 40.168 -3.83398 58.501 -11.501s34.5 -18.334 48.5 -32.001s25 -29.834 33 -48.501s12 -39 12 -61l1 -567c0 -30 -9.5 -56.333 -28.5 -79s-42.833 -37 -71.5 -43c-49.333 -13.333 -100.333 -23.333 -153 -30s-105.667 -10 -159 -10
c-22.667 0 -48.167 0.333008 -76.5 1s-57 2.33398 -86 5.00098s-57.5 7.33398 -85.5 14.001s-53.5 16 -76.5 28s-42.167 27.333 -57.5 46s-25 41.334 -29 68.001v308c0 56.667 10.667 110 32 160s50.666 93.667 87.999 131s80.833 66.833 130.5 88.5
s103.167 32.5 160.5 32.5h259zM476.001 378.999c54 0 108.332 4.66699 162.999 14v372c-26.667 0 -53.667 0.166992 -81 0.5s-54.666 0.5 -81.999 0.5c-22 0 -43 -4.5 -63 -13.5s-37.5 -21 -52.5 -36s-26.667 -32.5 -35 -52.5s-12.5 -41 -12.5 -63l1 -209
c30.667 -6.66699 57.167 -10.5 79.5 -11.5s46.5 -1.5 72.5 -1.5h10zM218 1252c0 18.667 3.33301 36 10 52s16 30 28 42s26 21.333 42 28s33 10 51 10c18.667 0 36 -3.33301 52 -10s30 -16 42 -28s21.5 -26 28.5 -42s10.5 -33.333 10.5 -52c0 -18 -3.5 -35 -10.5 -51
s-16.5 -30 -28.5 -42s-26 -21.5 -42 -28.5s-33.333 -10.5 -52 -10.5c-18 0 -35 3.5 -51 10.5s-30 16.5 -42 28.5s-21.333 26 -28 42s-10 33 -10 51zM516 1252c0 18.667 3.33301 36 10 52s16 30 28 42s26 21.333 42 28s33 10 51 10c18.667 0 36 -3.33301 52 -10
s30 -16 42 -28s21.5 -26 28.5 -42s10.5 -33.333 10.5 -52c0 -18 -3.5 -35 -10.5 -51s-16.5 -30 -28.5 -42s-26 -21.5 -42 -28.5s-33.333 -10.5 -52 -10.5c-18 0 -35 3.5 -51 10.5s-30 16.5 -42 28.5s-21.333 26 -28 42s-10 33 -10 51z" />
    <glyph glyph-name="tehmarbutafinal" unicode="&#x629;" horiz-adv-x="1032" arabic-form="final" 
d="M1042 143l-290 0.000976562c-19.333 0 -36.666 3.5 -51.999 10.5s-28.333 16.5 -39 28.5s-18.834 26 -24.501 42s-8.5 33 -8.5 51l-2 490c-28 0 -55.5 0.166992 -82.5 0.5s-54.5 0.5 -82.5 0.5c-22 0 -42.833 -4.5 -62.5 -13.5s-37 -21 -52 -36
s-26.833 -32.5 -35.5 -52.5s-13 -41 -13 -63l1 -208c12 -2 27.833 -4.33301 47.5 -7s40 -5 61 -7s41.333 -3.66699 61 -5s35.5 -2 47.5 -2v-248c-25.333 0 -54.666 1.33301 -87.999 4s-67 6.16699 -101 10.5s-66.833 9.33301 -98.5 15s-58.834 11.834 -81.501 18.501l2 -1
c-28 6 -51.333 20.333 -70 43s-28 49 -28 79v308c0 56.667 10.667 110 32 160s50.5 93.667 87.5 131s80.5 66.833 130.5 88.5s103.333 32.5 160 32.5h259c20 0 39.167 -3.83301 57.5 -11.5s34.5 -18.334 48.5 -32.001s25.167 -29.334 33.5 -47.001s12.5 -36.5 12.5 -56.5
l3 -475h167v-248zM516 1252c0 18.667 3.33301 36 10 52s16 30 28 42s26 21.333 42 28s33 10 51 10c18.667 0 36 -3.33301 52 -10s30 -16 42 -28s21.5 -26 28.5 -42s10.5 -33.333 10.5 -52c0 -18 -3.5 -35 -10.5 -51s-16.5 -30 -28.5 -42s-26 -21.5 -42 -28.5
s-33.333 -10.5 -52 -10.5c-18 0 -35 3.5 -51 10.5s-30 16.5 -42 28.5s-21.333 26 -28 42s-10 33 -10 51zM218 1252c0 18.667 3.33301 36 10 52s16 30 28 42s26 21.333 42 28s33 10 51 10c18.667 0 36 -3.33301 52 -10s30 -16 42 -28s21.5 -26 28.5 -42
s10.5 -33.333 10.5 -52c0 -18 -3.5 -35 -10.5 -51s-16.5 -30 -28.5 -42s-26 -21.5 -42 -28.5s-33.333 -10.5 -52 -10.5c-18 0 -35 3.5 -51 10.5s-30 16.5 -42 28.5s-21.333 26 -28 42s-10 33 -10 51z" />
    <glyph glyph-name="tehisolated" unicode="&#x62a;" horiz-adv-x="1275" arabic-form="isolated" 
d="M1199 981l-0.00292969 -714.001c0 -17.333 -3.16699 -33.5 -9.5 -48.5s-15.166 -28.167 -26.499 -39.5s-24.5 -20.166 -39.5 -26.499s-31.167 -9.5 -48.5 -9.5h-601c-78.667 0 -144.667 11.667 -198 35s-96.333 54 -129 92s-56 81 -70 129s-21 96.667 -21 146
c0 28 2.16699 56.167 6.5 84.5s10.333 56.166 18 83.499s16.334 53.5 26.001 78.5s19.834 47.833 30.501 68.5l219 -114c-14.667 -27.333 -27.167 -59.166 -37.5 -95.499s-15.5 -72.5 -15.5 -108.5c0 -20.667 2.16699 -40.167 6.5 -58.5s12.5 -34.333 24.5 -48
s28.5 -24.5 49.5 -32.5s48.167 -12.333 81.5 -13c84 0 165.167 0.166992 243.5 0.5s159.5 0.5 243.5 0.5v590h247zM592.997 1108c0 18.667 3.33301 36 10 52s16 30 28 42s26 21.333 42 28s33 10 51 10c18.667 0 36 -3.33301 52 -10s30 -16 42 -28s21.5 -26 28.5 -42
s10.5 -33.333 10.5 -52c0 -18 -3.5 -35 -10.5 -51s-16.5 -30 -28.5 -42s-26 -21.5 -42 -28.5s-33.333 -10.5 -52 -10.5c-18 0 -35 3.5 -51 10.5s-30 16.5 -42 28.5s-21.333 26 -28 42s-10 33 -10 51zM294.997 1108c0 18.667 3.33301 36 10 52s16 30 28 42s26 21.333 42 28
s33 10 51 10c18.667 0 36 -3.33301 52 -10s30 -16 42 -28s21.5 -26 28.5 -42s10.5 -33.333 10.5 -52c0 -18 -3.5 -35 -10.5 -51s-16.5 -30 -28.5 -42s-26 -21.5 -42 -28.5s-33.333 -10.5 -52 -10.5c-18 0 -35 3.5 -51 10.5s-30 16.5 -42 28.5s-21.333 26 -28 42
s-10 33 -10 51z" />
    <glyph glyph-name="tehfinal" unicode="&#x62a;" horiz-adv-x="1364" arabic-form="final" 
d="M477 143c-78.667 0 -144.834 11.667 -198.501 35s-96.834 54 -129.501 92s-56 81 -70 129s-21 96.667 -21 146c0 28 2.16699 56.167 6.5 84.5s10.333 56.166 18 83.499s16.334 53.5 26.001 78.5s19.834 47.833 30.501 68.5l219 -114
c-14 -27.333 -26.333 -59.166 -37 -95.499s-16 -72.5 -16 -108.5c0 -20.667 2.16699 -40.167 6.5 -58.5s12.5 -34.333 24.5 -48s28.5 -24.5 49.5 -32.5s48.167 -12.333 81.5 -13c84 0 165.167 0.166992 243.5 0.5s159.5 0.5 243.5 0.5v590h247v-590h167v-248h-891zM593 1108
c0 18.667 3.33301 36 10 52s16 30 28 42s26 21.333 42 28s33 10 51 10c18.667 0 36 -3.33301 52 -10s30 -16 42 -28s21.5 -26 28.5 -42s10.5 -33.333 10.5 -52c0 -18 -3.5 -35 -10.5 -51s-16.5 -30 -28.5 -42s-26 -21.5 -42 -28.5s-33.333 -10.5 -52 -10.5
c-18 0 -35 3.5 -51 10.5s-30 16.5 -42 28.5s-21.333 26 -28 42s-10 33 -10 51zM295 1108c0 18.667 3.33301 36 10 52s16 30 28 42s26 21.333 42 28s33 10 51 10c18.667 0 36 -3.33301 52 -10s30 -16 42 -28s21.5 -26 28.5 -42s10.5 -33.333 10.5 -52
c0 -18 -3.5 -35 -10.5 -51s-16.5 -30 -28.5 -42s-26 -21.5 -42 -28.5s-33.333 -10.5 -52 -10.5c-18 0 -35 3.5 -51 10.5s-30 16.5 -42 28.5s-21.333 26 -28 42s-10 33 -10 51z" />
    <glyph glyph-name="tehinitial" unicode="&#x62a;" horiz-adv-x="597" arabic-form="initial" 
d="M-5 391l272.999 -0.000976562v590h247v-703c0.666992 -2 1 -4 1 -6v-5c0 -17.333 -3.16699 -33.5 -9.5 -48.5s-15.166 -28.167 -26.499 -39.5s-24.5 -20.166 -39.5 -26.499s-31.167 -9.5 -48.5 -9.5h-397v248zM320.999 1252c0 18.667 3.33301 36 10 52s16 30 28 42
s26 21.333 42 28s33 10 51 10c18.667 0 36 -3.33301 52 -10s30 -16 42 -28s21.5 -26 28.5 -42s10.5 -33.333 10.5 -52c0 -18 -3.5 -35 -10.5 -51s-16.5 -30 -28.5 -42s-26 -21.5 -42 -28.5s-33.333 -10.5 -52 -10.5c-18 0 -35 3.5 -51 10.5s-30 16.5 -42 28.5
s-21.333 26 -28 42s-10 33 -10 51zM22.999 1252c0 18.667 3.33301 36 10 52s16 30 28 42s26 21.333 42 28s33 10 51 10c18.667 0 36 -3.33301 52 -10s30 -16 42 -28s21.5 -26 28.5 -42s10.5 -33.333 10.5 -52c0 -18 -3.5 -35 -10.5 -51s-16.5 -30 -28.5 -42
s-26 -21.5 -42 -28.5s-33.333 -10.5 -52 -10.5c-18 0 -35 3.5 -51 10.5s-30 16.5 -42 28.5s-21.333 26 -28 42s-10 33 -10 51z" />
    <glyph glyph-name="tehmedial" unicode="&#x62a;" horiz-adv-x="605" arabic-form="medial" 
d="M-6 143v248h196v590h247v-590h177v-248h-620zM321 1252c0 18.667 3.33301 36 10 52s16 30 28 42s26 21.333 42 28s33 10 51 10c18.667 0 36 -3.33301 52 -10s30 -16 42 -28s21.5 -26 28.5 -42s10.5 -33.333 10.5 -52c0 -18 -3.5 -35 -10.5 -51s-16.5 -30 -28.5 -42
s-26 -21.5 -42 -28.5s-33.333 -10.5 -52 -10.5c-18 0 -35 3.5 -51 10.5s-30 16.5 -42 28.5s-21.333 26 -28 42s-10 33 -10 51zM23 1252c0 18.667 3.33301 36 10 52s16 30 28 42s26 21.333 42 28s33 10 51 10c18.667 0 36 -3.33301 52 -10s30 -16 42 -28s21.5 -26 28.5 -42
s10.5 -33.333 10.5 -52c0 -18 -3.5 -35 -10.5 -51s-16.5 -30 -28.5 -42s-26 -21.5 -42 -28.5s-33.333 -10.5 -52 -10.5c-18 0 -35 3.5 -51 10.5s-30 16.5 -42 28.5s-21.333 26 -28 42s-10 33 -10 51z" />
    <glyph glyph-name="thehisolated" unicode="&#x62b;" horiz-adv-x="1275" arabic-form="isolated" 
d="M1199 981l-0.00292969 -714.001c0 -17.333 -3.16699 -33.5 -9.5 -48.5s-15.166 -28.167 -26.499 -39.5s-24.5 -20.166 -39.5 -26.499s-31.167 -9.5 -48.5 -9.5h-601c-78.667 0 -144.667 11.667 -198 35s-96.333 54 -129 92s-56 81 -70 129s-21 96.667 -21 146
c0 28 2.16699 56.167 6.5 84.5s10.333 56.166 18 83.499s16.334 53.5 26.001 78.5s19.834 47.833 30.501 68.5l219 -114c-14.667 -27.333 -27.167 -59.166 -37.5 -95.499s-15.5 -72.5 -15.5 -108.5c0 -20.667 2.16699 -40.167 6.5 -58.5s12.5 -34.333 24.5 -48
s28.5 -24.5 49.5 -32.5s48.167 -12.333 81.5 -13c84 0 165.167 0.166992 243.5 0.5s159.5 0.5 243.5 0.5v590h247zM301.997 1145c0 18.667 3.33301 36 10 52s16 30 28 42s26 21.333 42 28s33 10 51 10c18.667 0 36 -3.33301 52 -10s30 -16 42 -28s21.5 -26 28.5 -42
s10.5 -33.333 10.5 -52c0 -18 -3.5 -35 -10.5 -51s-16.5 -30 -28.5 -42s-26 -21.333 -42 -28s-33.333 -10 -52 -10c-18 0 -35 3.33301 -51 10s-30 16 -42 28s-21.333 26 -28 42s-10 33 -10 51zM613.997 1145c0 18.667 3.5 36 10.5 52s16.5 30 28.5 42s26 21.333 42 28
s33 10 51 10c18.667 0 36 -3.33301 52 -10s30 -16 42 -28s21.333 -26 28 -42s10 -33.333 10 -52c0 -18 -3.33301 -35 -10 -51s-16 -30 -28 -42s-26 -21.333 -42 -28s-33.333 -10 -52 -10c-18 0 -35 3.33301 -51 10s-30 16 -42 28s-21.5 26 -28.5 42s-10.5 33 -10.5 51z
M458.997 1397c0 18.667 3.33301 36 10 52s16 30 28 42s26 21.333 42 28s33 10 51 10c18.667 0 36 -3.33301 52 -10s30 -16 42 -28s21.333 -26 28 -42s10 -33.333 10 -52c0 -18 -3.33301 -35 -10 -51s-16 -30 -28 -42s-26 -21.333 -42 -28s-33.333 -10 -52 -10
c-18 0 -35 3.33301 -51 10s-30 16 -42 28s-21.333 26 -28 42s-10 33 -10 51z" />
    <glyph glyph-name="thehfinal" unicode="&#x62b;" horiz-adv-x="1359" arabic-form="final" 
d="M477 143c-78.667 0 -144.834 11.667 -198.501 35s-96.834 54 -129.501 92s-56 81 -70 129s-21 96.667 -21 146c0 28 2.16699 56.167 6.5 84.5s10.333 56.166 18 83.499s16.334 53.5 26.001 78.5s19.834 47.833 30.501 68.5l219 -114
c-14 -27.333 -26.333 -59.166 -37 -95.499s-16 -72.5 -16 -108.5c0 -20.667 2.16699 -40.167 6.5 -58.5s12.5 -34.333 24.5 -48s28.5 -24.5 49.5 -32.5s48.167 -12.333 81.5 -13c84 0 165.167 0.166992 243.5 0.5s159.5 0.5 243.5 0.5v590h247v-590h167v-248h-891zM286 1142
c0 18.667 3.33301 36 10 52s16 30 28 42s26 21.333 42 28s33 10 51 10c18.667 0 36 -3.33301 52 -10s30 -16 42 -28s21.5 -26 28.5 -42s10.5 -33.333 10.5 -52c0 -18 -3.5 -35 -10.5 -51s-16.5 -30 -28.5 -42s-26 -21.333 -42 -28s-33.333 -10 -52 -10
c-18 0 -35 3.33301 -51 10s-30 16 -42 28s-21.333 26 -28 42s-10 33 -10 51zM598 1142c0 18.667 3.5 36 10.5 52s16.5 30 28.5 42s26 21.333 42 28s33 10 51 10s35 -3.33301 51 -10s30 -16 42 -28s21.5 -26 28.5 -42s10.5 -33.333 10.5 -52c0 -18 -3.5 -35 -10.5 -51
s-16.5 -30 -28.5 -42s-26 -21.333 -42 -28s-33 -10 -51 -10s-35 3.33301 -51 10s-30 16 -42 28s-21.5 26 -28.5 42s-10.5 33 -10.5 51zM443 1394c0 18.667 3.33301 36 10 52s16 30 28 42s26 21.333 42 28s33 10 51 10c18.667 0 36 -3.33301 52 -10s30 -16 42 -28
s21.333 -26 28 -42s10 -33.333 10 -52c0 -18 -3.33301 -35 -10 -51s-16 -30 -28 -42s-26 -21.333 -42 -28s-33.333 -10 -52 -10c-18 0 -35 3.33301 -51 10s-30 16 -42 28s-21.333 26 -28 42s-10 33 -10 51z" />
    <glyph glyph-name="thehinitial" unicode="&#x62b;" horiz-adv-x="592" arabic-form="initial" 
d="M-10 391l274 -0.000976562v590h247v-703c0.666992 -2 1 -4 1 -6v-5c0 -17.333 -3.33301 -33.5 -10 -48.5s-15.667 -28.167 -27 -39.5s-24.5 -20.166 -39.5 -26.499s-31.167 -9.5 -48.5 -9.5h-397v248zM321 1216c0 18.667 3.33301 36 10 52s16 30 28 42s26 21.333 42 28
s33 10 51 10c18.667 0 36 -3.33301 52 -10s30 -16 42 -28s21.5 -26 28.5 -42s10.5 -33.333 10.5 -52c0 -18 -3.5 -35 -10.5 -51s-16.5 -30 -28.5 -42s-26 -21.333 -42 -28s-33.333 -10 -52 -10c-18 0 -35 3.33301 -51 10s-30 16 -42 28s-21.333 26 -28 42s-10 33 -10 51z
M165 1468c0 18.667 3.5 36 10.5 52s16.5 30 28.5 42s26 21.333 42 28s33 10 51 10c18.667 0 36 -3.33301 52 -10s30 -16 42 -28s21.333 -26 28 -42s10 -33.333 10 -52c0 -18 -3.33301 -35 -10 -51s-16 -30 -28 -42s-26 -21.333 -42 -28s-33.333 -10 -52 -10
c-18 0 -35 3.33301 -51 10s-30 16 -42 28s-21.5 26 -28.5 42s-10.5 33 -10.5 51zM9 1216c0 18.667 3.33301 36 10 52s16 30 28 42s26 21.333 42 28s33 10 51 10c18.667 0 36 -3.33301 52 -10s30 -16 42 -28s21.333 -26 28 -42s10 -33.333 10 -52c0 -18 -3.33301 -35 -10 -51
s-16 -30 -28 -42s-26 -21.333 -42 -28s-33.333 -10 -52 -10c-18 0 -35 3.33301 -51 10s-30 16 -42 28s-21.333 26 -28 42s-10 33 -10 51z" />
    <glyph glyph-name="thehmedial" unicode="&#x62b;" horiz-adv-x="605" arabic-form="medial" 
d="M-6 143v248h196v590h247v-590h177v-248h-620zM17 1214c0 18.667 3.33301 36 10 52s16 30 28 42s26 21.333 42 28s33 10 51 10c18.667 0 36 -3.33301 52 -10s30 -16 42 -28s21.5 -26 28.5 -42s10.5 -33.333 10.5 -52c0 -18 -3.5 -35 -10.5 -51s-16.5 -30 -28.5 -42
s-26 -21.333 -42 -28s-33.333 -10 -52 -10c-18 0 -35 3.33301 -51 10s-30 16 -42 28s-21.333 26 -28 42s-10 33 -10 51zM329 1214c0 18.667 3.5 36 10.5 52s16.5 30 28.5 42s26 21.333 42 28s33 10 51 10c18.667 0 36 -3.33301 52 -10s30 -16 42 -28s21.333 -26 28 -42
s10 -33.333 10 -52c0 -18 -3.33301 -35 -10 -51s-16 -30 -28 -42s-26 -21.333 -42 -28s-33.333 -10 -52 -10c-18 0 -35 3.33301 -51 10s-30 16 -42 28s-21.5 26 -28.5 42s-10.5 33 -10.5 51zM174 1466c0 18.667 3.33301 36 10 52s16 30 28 42s26 21.333 42 28s33 10 51 10
c18.667 0 36 -3.33301 52 -10s30 -16 42 -28s21.333 -26 28 -42s10 -33.333 10 -52c0 -18 -3.33301 -35 -10 -51s-16 -30 -28 -42s-26 -21.333 -42 -28s-33.333 -10 -52 -10c-18 0 -35 3.33301 -51 10s-30 16 -42 28s-21.333 26 -28 42s-10 33 -10 51z" />
    <glyph glyph-name="jeemisolated" unicode="&#x62c;" horiz-adv-x="1250" arabic-form="isolated" 
d="M545 391h284.998c-4.66699 60.667 -15.834 112 -33.501 154s-39.667 76.667 -66 104s-56 48.333 -89 63s-67 25.5 -102 32.5s-70 11.167 -105 12.5s-67.833 2.33301 -98.5 3c-14.667 0 -29.5 0.166992 -44.5 0.5s-34.167 1.5 -57.5 3.5l21 247
c8.66699 -0.666992 18.334 -1.33398 29.001 -2.00098l33.5 -2l34.5 -2c11.333 -0.666992 22 -1.33398 32 -2.00098c46 -2 94.5 -5.83301 145.5 -11.5s101.5 -16 151.5 -31s98 -35.833 144 -62.5s87 -62.334 123 -107.001s65.667 -99.667 89 -165s37 -143.666 41 -234.999h87
v-248h-619c-41.333 -2.66699 -77.166 -9.66699 -107.499 -21s-55.5 -25.5 -75.5 -42.5s-35 -36.167 -45 -57.5s-15 -43 -15 -65c0 -31.333 10 -63.166 30 -95.499s50 -62.5 90 -90.5l-139 -205c-77.333 52.667 -134.833 113.5 -172.5 182.5s-56.5 138.833 -56.5 209.5
c0 52.667 10.833 104.167 32.5 154.5s53.334 95.333 95.001 135s92.5 72.334 152.5 98.001s128.333 40.5 205 44.5zM525.998 -124c0 18.667 3.33301 36 10 52s16 30 28 42s26 21.333 42 28s33 10 51 10c18.667 0 36 -3.33301 52 -10s30 -16 42 -28s21.5 -26 28.5 -42
s10.5 -33.333 10.5 -52c0 -18 -3.5 -35 -10.5 -51s-16.5 -30 -28.5 -42s-26 -21.5 -42 -28.5s-33.333 -10.5 -52 -10.5c-18 0 -35 3.5 -51 10.5s-30 16.5 -42 28.5s-21.333 26 -28 42s-10 33 -10 51z" />
    <glyph glyph-name="jeemfinal" unicode="&#x62c;" horiz-adv-x="1265" arabic-form="final" 
d="M546 391h284.998c-4.66699 60.667 -15.834 112 -33.501 154s-39.667 76.667 -66 104s-55.833 48.333 -88.5 63s-66.5 25.5 -101.5 32.5s-70.167 11.167 -105.5 12.5s-68.333 2.33301 -99 3c-14 0 -28.667 0.166992 -44 0.5s-34.666 1.5 -57.999 3.5l21 247
c8.66699 -0.666992 18.5 -1.33398 29.5 -2.00098l34 -2l34.5 -2c11.333 -0.666992 22 -1.33398 32 -2.00098c46 -2 94.333 -5.83301 145 -11.5s101 -16 151 -31s98 -35.833 144 -62.5s87 -62.334 123 -107.001s65.667 -99.667 89 -165s37 -143.666 41 -234.999h197v-248
h-729c-40.667 -2.66699 -76.167 -9.66699 -106.5 -21s-55.666 -25.5 -75.999 -42.5s-35.5 -36.167 -45.5 -57.5s-15 -43 -15 -65c0 -31.333 10.167 -63.166 30.5 -95.499s50.5 -62.5 90.5 -90.5l-139 -205c-77.333 52.667 -135 113.5 -173 182.5s-57 138.833 -57 209.5
c0 52.667 10.833 104.167 32.5 154.5s53.334 95.333 95.001 135s92.5 72.334 152.5 98.001s128.333 40.5 205 44.5zM525.998 -124c0 18.667 3.33301 36 10 52s16 30 28 42s26 21.333 42 28s33 10 51 10c18.667 0 36 -3.33301 52 -10s30 -16 42 -28s21.5 -26 28.5 -42
s10.5 -33.333 10.5 -52c0 -18 -3.5 -35 -10.5 -51s-16.5 -30 -28.5 -42s-26 -21.5 -42 -28.5s-33.333 -10.5 -52 -10.5c-18 0 -35 3.5 -51 10.5s-30 16.5 -42 28.5s-21.333 26 -28 42s-10 33 -10 51z" />
    <glyph glyph-name="jeeminitial" unicode="&#x62c;" horiz-adv-x="1081" arabic-form="initial" 
d="M102 1011c17.333 -1.33301 38.333 -2.66797 63 -4.00098s46.667 -2.66602 66 -3.99902c46 -2 94.5 -5.83301 145.5 -11.5s101.5 -16 151.5 -31s98 -35.833 144 -62.5s87 -62.334 123 -107.001s65.667 -99.667 89 -165s37 -143.666 41 -234.999h88v-248h-1027v248h691
c-4.66699 60.667 -15.834 112 -33.501 154s-39.667 76.667 -66 104s-55.833 48.333 -88.5 63s-66.5 25.5 -101.5 32.5s-70.167 11.167 -105.5 12.5s-68.333 2.33301 -99 3c-14 0 -28.667 0.166992 -44 0.5s-34.666 1.5 -57.999 3.5zM305 -124.002c0 18.667 3.33301 36 10 52
s16 30 28 42s26 21.333 42 28s33 10 51 10c18.667 0 36 -3.33301 52 -10s30 -16 42 -28s21.5 -26 28.5 -42s10.5 -33.333 10.5 -52c0 -18 -3.5 -35 -10.5 -51s-16.5 -30 -28.5 -42s-26 -21.5 -42 -28.5s-33.333 -10.5 -52 -10.5c-18 0 -35 3.5 -51 10.5s-30 16.5 -42 28.5
s-21.333 26 -28 42s-10 33 -10 51z" />
    <glyph glyph-name="jeemmedial" unicode="&#x62c;" horiz-adv-x="1121" arabic-form="medial" 
d="M154 1011c8.66699 -0.666992 18.5 -1.33203 29.5 -1.99902l34 -2l34.5 -2c11.333 -0.666992 22 -1.33398 32 -2.00098c46 -2 94.333 -5.83301 145 -11.5s101 -16 151 -31s98 -35.833 144 -62.5s87 -62.334 123 -107.001s65.667 -99.667 89 -165s37 -143.666 41 -234.999
h158v-248h-1153v248h747c-4.66699 60.667 -15.834 112 -33.501 154s-39.667 76.667 -66 104s-55.833 48.333 -88.5 63s-66.5 25.5 -101.5 32.5s-70.167 11.167 -105.5 12.5s-68.333 2.33301 -99 3c-14 0 -28.667 0.166992 -44 0.5s-34.666 1.5 -57.999 3.5zM305 -123.998
c0 18.667 3.33301 36 10 52s16 30 28 42s26 21.333 42 28s33 10 51 10c18.667 0 36 -3.33301 52 -10s30 -16 42 -28s21.5 -26 28.5 -42s10.5 -33.333 10.5 -52c0 -18 -3.5 -35 -10.5 -51s-16.5 -30 -28.5 -42s-26 -21.5 -42 -28.5s-33.333 -10.5 -52 -10.5
c-18 0 -35 3.5 -51 10.5s-30 16.5 -42 28.5s-21.333 26 -28 42s-10 33 -10 51z" />
    <glyph glyph-name="hahisolated" unicode="&#x62d;" horiz-adv-x="1250" arabic-form="isolated" 
d="M545 391h284.998c-4.66699 60.667 -15.834 112 -33.501 154s-39.667 76.667 -66 104s-56 48.333 -89 63s-67 25.5 -102 32.5s-70 11.167 -105 12.5s-67.833 2.33301 -98.5 3c-14.667 0 -29.5 0.166992 -44.5 0.5s-34.167 1.5 -57.5 3.5l21 247
c8.66699 -0.666992 18.334 -1.33398 29.001 -2.00098l33.5 -2l34.5 -2c11.333 -0.666992 22 -1.33398 32 -2.00098c46 -2 94.5 -5.83301 145.5 -11.5s101.5 -16 151.5 -31s98 -35.833 144 -62.5s87 -62.334 123 -107.001s65.667 -99.667 89 -165s37 -143.666 41 -234.999h87
v-248h-619c-41.333 -2.66699 -77.166 -9.66699 -107.499 -21s-55.5 -25.5 -75.5 -42.5s-35 -36.167 -45 -57.5s-15 -43 -15 -65c0 -31.333 10 -63.166 30 -95.499s50 -62.5 90 -90.5l-139 -205c-77.333 52.667 -134.833 113.5 -172.5 182.5s-56.5 138.833 -56.5 209.5
c0 52.667 10.833 104.167 32.5 154.5s53.334 95.333 95.001 135s92.5 72.334 152.5 98.001s128.333 40.5 205 44.5z" />
    <glyph glyph-name="hahfinal" unicode="&#x62d;" horiz-adv-x="1265" arabic-form="final" 
d="M546 391h284.998c-4.66699 60.667 -15.834 112 -33.501 154s-39.667 76.667 -66 104s-55.833 48.333 -88.5 63s-66.5 25.5 -101.5 32.5s-70.167 11.167 -105.5 12.5s-68.333 2.33301 -99 3c-14 0 -28.667 0.166992 -44 0.5s-34.666 1.5 -57.999 3.5l21 247
c8.66699 -0.666992 18.5 -1.33398 29.5 -2.00098l34 -2l34.5 -2c11.333 -0.666992 22 -1.33398 32 -2.00098c46 -2 94.333 -5.83301 145 -11.5s101 -16 151 -31s98 -35.833 144 -62.5s87 -62.334 123 -107.001s65.667 -99.667 89 -165s37 -143.666 41 -234.999h197v-248
h-729c-40.667 -2.66699 -76.167 -9.66699 -106.5 -21s-55.666 -25.5 -75.999 -42.5s-35.5 -36.167 -45.5 -57.5s-15 -43 -15 -65c0 -31.333 10.167 -63.166 30.5 -95.499s50.5 -62.5 90.5 -90.5l-139 -205c-77.333 52.667 -135 113.5 -173 182.5s-57 138.833 -57 209.5
c0 52.667 10.833 104.167 32.5 154.5s53.334 95.333 95.001 135s92.5 72.334 152.5 98.001s128.333 40.5 205 44.5z" />
    <glyph glyph-name="hahinitial" unicode="&#x62d;" horiz-adv-x="1081" arabic-form="initial" 
d="M102 1011c17.333 -1.33301 38.333 -2.66797 63 -4.00098s46.667 -2.66602 66 -3.99902c46 -2 94.5 -5.83301 145.5 -11.5s101.5 -16 151.5 -31s98 -35.833 144 -62.5s87 -62.334 123 -107.001s65.667 -99.667 89 -165s37 -143.666 41 -234.999h88v-248h-1027v248h691
c-4.66699 60.667 -15.834 112 -33.501 154s-39.667 76.667 -66 104s-55.833 48.333 -88.5 63s-66.5 25.5 -101.5 32.5s-70.167 11.167 -105.5 12.5s-68.333 2.33301 -99 3c-14 0 -28.667 0.166992 -44 0.5s-34.666 1.5 -57.999 3.5z" />
    <glyph glyph-name="hahmedial" unicode="&#x62d;" horiz-adv-x="1121" arabic-form="medial" 
d="M154 1011c8.66699 -0.666992 18.5 -1.33203 29.5 -1.99902l34 -2l34.5 -2c11.333 -0.666992 22 -1.33398 32 -2.00098c46 -2 94.333 -5.83301 145 -11.5s101 -16 151 -31s98 -35.833 144 -62.5s87 -62.334 123 -107.001s65.667 -99.667 89 -165s37 -143.666 41 -234.999
h158v-248h-1153v248h747c-4.66699 60.667 -15.834 112 -33.501 154s-39.667 76.667 -66 104s-55.833 48.333 -88.5 63s-66.5 25.5 -101.5 32.5s-70.167 11.167 -105.5 12.5s-68.333 2.33301 -99 3c-14 0 -28.667 0.166992 -44 0.5s-34.666 1.5 -57.999 3.5z" />
    <glyph glyph-name="khahisolated" unicode="&#x62e;" horiz-adv-x="1250" arabic-form="isolated" 
d="M545 391h284.998c-4.66699 60.667 -15.834 112 -33.501 154s-39.667 76.667 -66 104s-56 48.333 -89 63s-67 25.5 -102 32.5s-70 11.167 -105 12.5s-67.833 2.33301 -98.5 3c-14.667 0 -29.5 0.166992 -44.5 0.5s-34.167 1.5 -57.5 3.5l21 247
c8.66699 -0.666992 18.334 -1.33398 29.001 -2.00098l33.5 -2l34.5 -2c11.333 -0.666992 22 -1.33398 32 -2.00098c46 -2 94.5 -5.83301 145.5 -11.5s101.5 -16 151.5 -31s98 -35.833 144 -62.5s87 -62.334 123 -107.001s65.667 -99.667 89 -165s37 -143.666 41 -234.999h87
v-248h-619c-41.333 -2.66699 -77.166 -9.66699 -107.499 -21s-55.5 -25.5 -75.5 -42.5s-35 -36.167 -45 -57.5s-15 -43 -15 -65c0 -31.333 10 -63.166 30 -95.499s50 -62.5 90 -90.5l-139 -205c-77.333 52.667 -134.833 113.5 -172.5 182.5s-56.5 138.833 -56.5 209.5
c0 52.667 10.833 104.167 32.5 154.5s53.334 95.333 95.001 135s92.5 72.334 152.5 98.001s128.333 40.5 205 44.5zM391.998 1252c0 18.667 3.33301 36 10 52s16 30 28 42s26 21.333 42 28s33 10 51 10c18.667 0 36 -3.33301 52 -10s30 -16 42 -28s21.5 -26 28.5 -42
s10.5 -33.333 10.5 -52c0 -18 -3.5 -35 -10.5 -51s-16.5 -30 -28.5 -42s-26 -21.333 -42 -28s-33.333 -10 -52 -10c-18 0 -35 3.33301 -51 10s-30 16 -42 28s-21.333 26 -28 42s-10 33 -10 51z" />
    <glyph glyph-name="khahfinal" unicode="&#x62e;" horiz-adv-x="1265" arabic-form="final" 
d="M546 391h284.998c-4.66699 60.667 -15.834 112 -33.501 154s-39.667 76.667 -66 104s-55.833 48.333 -88.5 63s-66.5 25.5 -101.5 32.5s-70.167 11.167 -105.5 12.5s-68.333 2.33301 -99 3c-14 0 -28.667 0.166992 -44 0.5s-34.666 1.5 -57.999 3.5l21 247
c8.66699 -0.666992 18.5 -1.33398 29.5 -2.00098l34 -2l34.5 -2c11.333 -0.666992 22 -1.33398 32 -2.00098c46 -2 94.333 -5.83301 145 -11.5s101 -16 151 -31s98 -35.833 144 -62.5s87 -62.334 123 -107.001s65.667 -99.667 89 -165s37 -143.666 41 -234.999h197v-248
h-729c-40.667 -2.66699 -76.167 -9.66699 -106.5 -21s-55.666 -25.5 -75.999 -42.5s-35.5 -36.167 -45.5 -57.5s-15 -43 -15 -65c0 -31.333 10.167 -63.166 30.5 -95.499s50.5 -62.5 90.5 -90.5l-139 -205c-77.333 52.667 -135 113.5 -173 182.5s-57 138.833 -57 209.5
c0 52.667 10.833 104.167 32.5 154.5s53.334 95.333 95.001 135s92.5 72.334 152.5 98.001s128.333 40.5 205 44.5zM391.998 1252c0 18.667 3.33301 36 10 52s16 30 28 42s26 21.333 42 28s33 10 51 10c18.667 0 36 -3.33301 52 -10s30 -16 42 -28s21.5 -26 28.5 -42
s10.5 -33.333 10.5 -52c0 -18 -3.5 -35 -10.5 -51s-16.5 -30 -28.5 -42s-26 -21.333 -42 -28s-33.333 -10 -52 -10c-18 0 -35 3.33301 -51 10s-30 16 -42 28s-21.333 26 -28 42s-10 33 -10 51z" />
    <glyph glyph-name="khahinitial" unicode="&#x62e;" horiz-adv-x="1081" arabic-form="initial" 
d="M102 1011c17.333 -1.33301 38.333 -2.66797 63 -4.00098s46.667 -2.66602 66 -3.99902c46 -2 94.5 -5.83301 145.5 -11.5s101.5 -16 151.5 -31s98 -35.833 144 -62.5s87 -62.334 123 -107.001s65.667 -99.667 89 -165s37 -143.666 41 -234.999h88v-248h-1027v248h691
c-4.66699 60.667 -15.834 112 -33.501 154s-39.667 76.667 -66 104s-55.833 48.333 -88.5 63s-66.5 25.5 -101.5 32.5s-70.167 11.167 -105.5 12.5s-68.333 2.33301 -99 3c-14 0 -28.667 0.166992 -44 0.5s-34.666 1.5 -57.999 3.5zM243 1252c0 18.667 3.33301 36 10 52
s16 30 28 42s26 21.333 42 28s33 10 51 10c18.667 0 36 -3.33301 52 -10s30 -16 42 -28s21.5 -26 28.5 -42s10.5 -33.333 10.5 -52c0 -18 -3.5 -35 -10.5 -51s-16.5 -30 -28.5 -42s-26 -21.333 -42 -28s-33.333 -10 -52 -10c-18 0 -35 3.33301 -51 10s-30 16 -42 28
s-21.333 26 -28 42s-10 33 -10 51z" />
    <glyph glyph-name="khahmedial" unicode="&#x62e;" horiz-adv-x="1121" arabic-form="medial" 
d="M154 1011c8.66699 -0.666992 18.5 -1.33203 29.5 -1.99902l34 -2l34.5 -2c11.333 -0.666992 22 -1.33398 32 -2.00098c46 -2 94.333 -5.83301 145 -11.5s101 -16 151 -31s98 -35.833 144 -62.5s87 -62.334 123 -107.001s65.667 -99.667 89 -165s37 -143.666 41 -234.999
h158v-248h-1153v248h747c-4.66699 60.667 -15.834 112 -33.501 154s-39.667 76.667 -66 104s-55.833 48.333 -88.5 63s-66.5 25.5 -101.5 32.5s-70.167 11.167 -105.5 12.5s-68.333 2.33301 -99 3c-14 0 -28.667 0.166992 -44 0.5s-34.666 1.5 -57.999 3.5zM243 1252
c0 18.667 3.33301 36 10 52s16 30 28 42s26 21.333 42 28s33 10 51 10c18.667 0 36 -3.33301 52 -10s30 -16 42 -28s21.5 -26 28.5 -42s10.5 -33.333 10.5 -52c0 -18 -3.5 -35 -10.5 -51s-16.5 -30 -28.5 -42s-26 -21.333 -42 -28s-33.333 -10 -52 -10
c-18 0 -35 3.33301 -51 10s-30 16 -42 28s-21.333 26 -28 42s-10 33 -10 51z" />
    <glyph glyph-name="dalisolated" unicode="&#x62f;" horiz-adv-x="957" arabic-form="isolated" 
d="M148 1009c144.667 2 265.335 -12.499 362.002 -43.499s173.334 -77.167 230.001 -138.5c52 -63.333 89 -142 111 -236s33 -203.333 33 -328c0 -17.333 -3.33301 -33.5 -10 -48.5s-15.5 -28 -26.5 -39s-24.167 -19.833 -39.5 -26.5s-31.333 -10 -48 -10h-677v248h550
c-4.66699 61.333 -13.334 116.166 -26.001 164.499s-30.667 85.833 -54 112.5c-30.667 34.667 -78.334 60 -143.001 76s-151.334 23.333 -260.001 22z" />
    <glyph glyph-name="dalfinal" unicode="&#x62f;" horiz-adv-x="992" arabic-form="final" 
d="M85 144l0.00195312 247.999h549c-4 60.667 -12.333 114.5 -25 161.5s-30.667 83.833 -54 110.5c-15.333 17.333 -34.833 32.333 -58.5 45s-51.834 23 -84.501 31s-70.5 13.833 -113.5 17.5s-91.833 5.16699 -146.5 4.5l-2 247c74 0.666992 141 -2.16602 201 -8.49902
s114.167 -17 162.5 -32s91.333 -34.167 129 -57.5s70.5 -51.333 98.5 -84c45.333 -52 78.666 -113.667 99.999 -185s35 -155 41 -251h122v-248z" />
    <glyph glyph-name="thalisolated" unicode="&#x630;" horiz-adv-x="957" arabic-form="isolated" 
d="M148 1009c144.667 2 265.335 -12.499 362.002 -43.499s173.334 -77.167 230.001 -138.5c52 -63.333 89 -142 111 -236s33 -203.333 33 -328c0 -17.333 -3.33301 -33.5 -10 -48.5s-15.5 -28 -26.5 -39s-24.167 -19.833 -39.5 -26.5s-31.333 -10 -48 -10h-677v248h550
c-4.66699 61.333 -13.334 116.166 -26.001 164.499s-30.667 85.833 -54 112.5c-30.667 34.667 -78.334 60 -143.001 76s-151.334 23.333 -260.001 22zM243.001 1252c0 18.667 3.33301 36 10 52s16 30 28 42s26 21.333 42 28s33 10 51 10c18.667 0 36 -3.33301 52 -10
s30 -16 42 -28s21.5 -26 28.5 -42s10.5 -33.333 10.5 -52c0 -18 -3.5 -35 -10.5 -51s-16.5 -30 -28.5 -42s-26 -21.333 -42 -28s-33.333 -10 -52 -10c-18 0 -35 3.33301 -51 10s-30 16 -42 28s-21.333 26 -28 42s-10 33 -10 51z" />
    <glyph glyph-name="thalfinal" unicode="&#x630;" horiz-adv-x="997" arabic-form="final" 
d="M85 144l0.00195312 247.999h549c-4 60.667 -12.333 114.5 -25 161.5s-30.667 83.833 -54 110.5c-15.333 17.333 -34.833 32.333 -58.5 45s-51.834 23 -84.501 31s-70.5 13.833 -113.5 17.5s-91.833 5.16699 -146.5 4.5l-2 247c74 0.666992 141 -2.16602 201 -8.49902
s114.167 -17 162.5 -32s91.333 -34.167 129 -57.5s70.5 -51.333 98.5 -84c45.333 -52 78.666 -113.667 99.999 -185s35 -155 41 -251h122v-248zM243.002 1252c0 18.667 3.33301 36 10 52s16 30 28 42s26 21.333 42 28s33 10 51 10c18.667 0 36 -3.33301 52 -10
s30 -16 42 -28s21.5 -26 28.5 -42s10.5 -33.333 10.5 -52c0 -18 -3.5 -35 -10.5 -51s-16.5 -30 -28.5 -42s-26 -21.333 -42 -28s-33.333 -10 -52 -10c-18 0 -35 3.33301 -51 10s-30 16 -42 28s-21.333 26 -28 42s-10 33 -10 51z" />
    <glyph glyph-name="rehisolated" unicode="&#x631;" horiz-adv-x="655" arabic-form="isolated" 
d="M576 879c0 -62 1.49902 -125.5 4.49902 -190.5s4.5 -129.833 4.5 -194.5c0 -54 -1.66699 -109 -5 -165s-10.666 -111 -21.999 -165c-14 -70 -34.833 -135.333 -62.5 -196s-64.667 -113.5 -111 -158.5s-103.166 -80.5 -170.499 -106.5s-148 -39 -242 -39v248
c56 0 103.833 8.16699 143.5 24.5s73 38.5 100 66.5s48.5 61 64.5 99s28.167 78.833 36.5 122.5s13.666 89.167 15.999 136.5s3.5 94.333 3.5 141c0 62.667 -1.16699 126 -3.5 190s-3.5 126.333 -3.5 187h247z" />
    <glyph glyph-name="rehfinal" unicode="&#x631;" horiz-adv-x="719" arabic-form="final" 
d="M578 860c0.666992 -58.667 2.33398 -118.831 5.00098 -180.498s4 -123.5 4 -185.5c0 -20.667 -0.166992 -37.834 -0.5 -51.501s-0.833008 -30.834 -1.5 -51.501h143v-248h-174c-15.333 -66.667 -37.333 -129 -66 -187s-66 -108.667 -112 -152s-102 -77.5 -168 -102.5
s-144 -37.5 -234 -37.5v248c56 0 103.833 8.16699 143.5 24.5s73 38.5 100 66.5s48.5 61 64.5 99s28.167 78.833 36.5 122.5s13.666 89.167 15.999 136.5s3.5 94.333 3.5 141c0 62.667 -1.16699 126 -3.5 190s-3.5 126.333 -3.5 187h249z" />
    <glyph glyph-name="zainisolated" unicode="&#x632;" horiz-adv-x="624" arabic-form="isolated" 
d="M576 879c0 -62 1.49902 -125.5 4.49902 -190.5s4.5 -129.833 4.5 -194.5c0 -54 -1.66699 -109 -5 -165s-10.666 -111 -21.999 -165c-14 -70 -34.833 -135.333 -62.5 -196s-64.667 -113.5 -111 -158.5s-103.166 -80.5 -170.499 -106.5s-148 -39 -242 -39v248
c56 0 103.833 8.16699 143.5 24.5s73 38.5 100 66.5s48.5 61 64.5 99s28.167 78.833 36.5 122.5s13.666 89.167 15.999 136.5s3.5 94.333 3.5 141c0 62.667 -1.16699 126 -3.5 190s-3.5 126.333 -3.5 187h247zM309.999 1157c0 18.667 3.33301 36 10 52s16 30 28 42
s26 21.333 42 28s33 10 51 10c18.667 0 36 -3.33301 52 -10s30 -16 42 -28s21.5 -26 28.5 -42s10.5 -33.333 10.5 -52c0 -18 -3.5 -35 -10.5 -51s-16.5 -30 -28.5 -42s-26 -21.5 -42 -28.5s-33.333 -10.5 -52 -10.5c-18 0 -35 3.5 -51 10.5s-30 16.5 -42 28.5
s-21.333 26 -28 42s-10 33 -10 51z" />
    <glyph glyph-name="zainfinal" unicode="&#x632;" horiz-adv-x="724" arabic-form="final" 
d="M578 860c0.666992 -58.667 2.33398 -118.831 5.00098 -180.498s4 -123.5 4 -185.5c0 -20.667 -0.166992 -37.834 -0.5 -51.501s-0.833008 -30.834 -1.5 -51.501h143v-248h-174c-15.333 -66.667 -37.333 -129 -66 -187s-66 -108.667 -112 -152s-102 -77.5 -168 -102.5
s-144 -37.5 -234 -37.5v248c56 0 103.833 8.16699 143.5 24.5s73 38.5 100 66.5s48.5 61 64.5 99s28.167 78.833 36.5 122.5s13.666 89.167 15.999 136.5s3.5 94.333 3.5 141c0 62.667 -1.16699 126 -3.5 190s-3.5 126.333 -3.5 187h249zM312 1157
c0 18.667 3.33301 36 10 52s16 30 28 42s26 21.333 42 28s33 10 51 10c18.667 0 36 -3.33301 52 -10s30 -16 42 -28s21.5 -26 28.5 -42s10.5 -33.333 10.5 -52c0 -18 -3.5 -35 -10.5 -51s-16.5 -30 -28.5 -42s-26 -21.5 -42 -28.5s-33.333 -10.5 -52 -10.5
c-18 0 -35 3.5 -51 10.5s-30 16.5 -42 28.5s-21.333 26 -28 42s-10 33 -10 51z" />
    <glyph glyph-name="seenisolated" unicode="&#x633;" horiz-adv-x="1850" arabic-form="isolated" 
d="M302 604l0.00292969 -378.002c0 -28 5.16699 -52.167 15.5 -72.5s24.166 -37.166 41.499 -50.499s37.166 -23.333 59.499 -30s45.5 -10 69.5 -10s47.167 3.33301 69.5 10s42.166 16.667 59.499 30s31.166 30.166 41.499 50.499s15.5 44.5 15.5 72.5v755h249v-590h179v590
h247v-590h180v590h247v-714c0 -17.333 -3.16699 -33.5 -9.5 -48.5s-15.166 -28.167 -26.499 -39.5s-24.5 -20.166 -39.5 -26.499s-31.167 -9.5 -48.5 -9.5h-737c-9.33301 -54.667 -27.666 -102.5 -54.999 -143.5s-60.5 -75.167 -99.5 -102.5s-82 -47.833 -129 -61.5
s-94.833 -20.5 -143.5 -20.5c-54.667 0 -108 8.83301 -160 26.5s-98.333 43.834 -139 78.501s-73.334 77.5 -98.001 128.5s-37 110.167 -37 177.5v378h248z" />
    <glyph glyph-name="seenfinal" unicode="&#x633;" horiz-adv-x="1920" arabic-form="final" 
d="M917 143c-9.33301 -54.667 -27.4951 -102.501 -54.4951 -143.501s-60 -75.167 -99 -102.5s-82.167 -47.833 -129.5 -61.5s-95.333 -20.5 -144 -20.5c-54.667 0 -108 8.83301 -160 26.5s-98.333 43.834 -139 78.501s-73.334 77.5 -98.001 128.5s-37 110.167 -37 177.5v378
h248v-378c0 -28 5.16699 -52.167 15.5 -72.5s24.166 -37.166 41.499 -50.499s37.166 -23.333 59.499 -30s45.5 -10 69.5 -10s47.167 3.33301 69.5 10s42.166 16.667 59.499 30s31.166 30.166 41.499 50.499s15.5 44.5 15.5 72.5v755h249v-590h179v590h247v-590h180v590h247
v-590h148v-248h-1009z" />
    <glyph glyph-name="seeninitial" unicode="&#x633;" horiz-adv-x="1364" arabic-form="initial" 
d="M-12 391l206 -0.000976562v590h249v-590h179v590h247v-590h180v590h247v-714c0 -17.333 -3.33301 -33.5 -10 -48.5s-15.5 -28.167 -26.5 -39.5s-24.167 -20.166 -39.5 -26.499s-31.333 -9.5 -48 -9.5h-1184v248z" />
    <glyph glyph-name="seenmedial" unicode="&#x633;" horiz-adv-x="1399" arabic-form="medial" 
d="M-10 143v248h158v590h248v-590h179v590h248v-590h180v590h247v-590h157v-248h-1417z" />
    <glyph glyph-name="sheenisolated" unicode="&#x634;" horiz-adv-x="1850" arabic-form="isolated" 
d="M302 604l0.00292969 -378.002c0 -28 5.16699 -52.167 15.5 -72.5s24.166 -37.166 41.499 -50.499s37.166 -23.333 59.499 -30s45.5 -10 69.5 -10s47.167 3.33301 69.5 10s42.166 16.667 59.499 30s31.166 30.166 41.499 50.499s15.5 44.5 15.5 72.5v755h249v-590h179v590
h247v-590h180v590h247v-714c0 -17.333 -3.16699 -33.5 -9.5 -48.5s-15.166 -28.167 -26.499 -39.5s-24.5 -20.166 -39.5 -26.499s-31.167 -9.5 -48.5 -9.5h-737c-9.33301 -54.667 -27.666 -102.5 -54.999 -143.5s-60.5 -75.167 -99.5 -102.5s-82 -47.833 -129 -61.5
s-94.833 -20.5 -143.5 -20.5c-54.667 0 -108 8.83301 -160 26.5s-98.333 43.834 -139 78.501s-73.334 77.5 -98.001 128.5s-37 110.167 -37 177.5v378h248zM1090 1468c0 18.667 3.33301 36 10 52s16 30 28 42s26 21.333 42 28s33 10 51 10c18.667 0 36 -3.33301 52 -10
s30 -16 42 -28s21.5 -26 28.5 -42s10.5 -33.333 10.5 -52c0 -18 -3.5 -35 -10.5 -51s-16.5 -30 -28.5 -42s-26 -21.333 -42 -28s-33.333 -10 -52 -10c-18 0 -35 3.33301 -51 10s-30 16 -42 28s-21.333 26 -28 42s-10 33 -10 51zM933.003 1216c0 18.667 3.5 36 10.5 52
s16.5 30 28.5 42s26 21.333 42 28s33 10 51 10c18.667 0 36 -3.33301 52 -10s30 -16 42 -28s21.333 -26 28 -42s10 -33.333 10 -52c0 -18 -3.33301 -35 -10 -51s-16 -30 -28 -42s-26 -21.333 -42 -28s-33.333 -10 -52 -10c-18 0 -35 3.33301 -51 10s-30 16 -42 28
s-21.5 26 -28.5 42s-10.5 33 -10.5 51zM1246 1216c0 18.667 3.33301 36 10 52s16 30 28 42s26 21.333 42 28s33 10 51 10c18.667 0 36 -3.33301 52 -10s30 -16 42 -28s21.333 -26 28 -42s10 -33.333 10 -52c0 -18 -3.33301 -35 -10 -51s-16 -30 -28 -42s-26 -21.333 -42 -28
s-33.333 -10 -52 -10c-18 0 -35 3.33301 -51 10s-30 16 -42 28s-21.333 26 -28 42s-10 33 -10 51z" />
    <glyph glyph-name="sheenfinal" unicode="&#x634;" horiz-adv-x="1920" arabic-form="final" 
d="M917 143c-9.33301 -54.667 -27.4951 -102.501 -54.4951 -143.501s-60 -75.167 -99 -102.5s-82.167 -47.833 -129.5 -61.5s-95.333 -20.5 -144 -20.5c-54.667 0 -108 8.83301 -160 26.5s-98.333 43.834 -139 78.501s-73.334 77.5 -98.001 128.5s-37 110.167 -37 177.5v378
h248v-378c0 -28 5.16699 -52.167 15.5 -72.5s24.166 -37.166 41.499 -50.499s37.166 -23.333 59.499 -30s45.5 -10 69.5 -10s47.167 3.33301 69.5 10s42.166 16.667 59.499 30s31.166 30.166 41.499 50.499s15.5 44.5 15.5 72.5v755h249v-590h179v590h247v-590h180v590h247
v-590h148v-248h-1009zM1092 1468c0 18.667 3.5 36 10.5 52s16.5 30 28.5 42s26 21.333 42 28s33 10 51 10s35 -3.33301 51 -10s30 -16 42 -28s21.5 -26 28.5 -42s10.5 -33.333 10.5 -52c0 -18 -3.5 -35 -10.5 -51s-16.5 -30 -28.5 -42s-26 -21.333 -42 -28s-33 -10 -51 -10
s-35 3.33301 -51 10s-30 16 -42 28s-21.5 26 -28.5 42s-10.5 33 -10.5 51zM1248 1216c0 18.667 3.33301 36 10 52s16 30 28 42s26 21.333 42 28s33 10 51 10c18.667 0 36 -3.33301 52 -10s30 -16 42 -28s21.333 -26 28 -42s10 -33.333 10 -52c0 -18 -3.33301 -35 -10 -51
s-16 -30 -28 -42s-26 -21.333 -42 -28s-33.333 -10 -52 -10c-18 0 -35 3.33301 -51 10s-30 16 -42 28s-21.333 26 -28 42s-10 33 -10 51zM936.005 1216c0 18.667 3.33301 36 10 52s16 30 28 42s26 21.333 42 28s33 10 51 10c18.667 0 36 -3.33301 52 -10s30 -16 42 -28
s21.333 -26 28 -42s10 -33.333 10 -52c0 -18 -3.33301 -35 -10 -51s-16 -30 -28 -42s-26 -21.333 -42 -28s-33.333 -10 -52 -10c-18 0 -35 3.33301 -51 10s-30 16 -42 28s-21.333 26 -28 42s-10 33 -10 51z" />
    <glyph glyph-name="sheeninitial" unicode="&#x634;" horiz-adv-x="1364" arabic-form="initial" 
d="M-12 391l206 -0.000976562v590h249v-590h179v590h247v-590h180v590h247v-714c0 -17.333 -3.33301 -33.5 -10 -48.5s-15.5 -28.167 -26.5 -39.5s-24.167 -20.166 -39.5 -26.499s-31.333 -9.5 -48 -9.5h-1184v248zM608 1468c0 18.667 3.33301 36 10 52s16 30 28 42
s26 21.333 42 28s33 10 51 10c18.667 0 36 -3.33301 52 -10s30 -16 42 -28s21.5 -26 28.5 -42s10.5 -33.333 10.5 -52c0 -18 -3.5 -35 -10.5 -51s-16.5 -30 -28.5 -42s-26 -21.333 -42 -28s-33.333 -10 -52 -10c-18 0 -35 3.33301 -51 10s-30 16 -42 28s-21.333 26 -28 42
s-10 33 -10 51zM451 1216c0 18.667 3.5 36 10.5 52s16.5 30 28.5 42s26 21.333 42 28s33 10 51 10c18.667 0 36 -3.33301 52 -10s30 -16 42 -28s21.333 -26 28 -42s10 -33.333 10 -52c0 -18 -3.33301 -35 -10 -51s-16 -30 -28 -42s-26 -21.333 -42 -28s-33.333 -10 -52 -10
c-18 0 -35 3.33301 -51 10s-30 16 -42 28s-21.5 26 -28.5 42s-10.5 33 -10.5 51zM764 1216c0 18.667 3.33301 36 10 52s16 30 28 42s26 21.333 42 28s33 10 51 10c18.667 0 36 -3.33301 52 -10s30 -16 42 -28s21.333 -26 28 -42s10 -33.333 10 -52
c0 -18 -3.33301 -35 -10 -51s-16 -30 -28 -42s-26 -21.333 -42 -28s-33.333 -10 -52 -10c-18 0 -35 3.33301 -51 10s-30 16 -42 28s-21.333 26 -28 42s-10 33 -10 51z" />
    <glyph glyph-name="sheenmedial" unicode="&#x634;" horiz-adv-x="1399" arabic-form="medial" 
d="M-10 143v248h158v590h248v-590h179v590h248v-590h180v590h247v-590h157v-248h-1417zM411 1216c0 18.667 3.33301 36 10 52s16 30 28 42s26 21.333 42 28s33 10 51 10c18.667 0 36 -3.33301 52 -10s30 -16 42 -28s21.5 -26 28.5 -42s10.5 -33.333 10.5 -52
c0 -18 -3.5 -35 -10.5 -51s-16.5 -30 -28.5 -42s-26 -21.333 -42 -28s-33.333 -10 -52 -10c-18 0 -35 3.33301 -51 10s-30 16 -42 28s-21.333 26 -28 42s-10 33 -10 51zM723 1216c0 18.667 3.5 36 10.5 52s16.5 30 28.5 42s26 21.333 42 28s33 10 51 10
c18.667 0 36 -3.33301 52 -10s30 -16 42 -28s21.333 -26 28 -42s10 -33.333 10 -52c0 -18 -3.33301 -35 -10 -51s-16 -30 -28 -42s-26 -21.333 -42 -28s-33.333 -10 -52 -10c-18 0 -35 3.33301 -51 10s-30 16 -42 28s-21.5 26 -28.5 42s-10.5 33 -10.5 51zM568 1468
c0 18.667 3.33301 36 10 52s16 30 28 42s26 21.333 42 28s33 10 51 10c18.667 0 36 -3.33301 52 -10s30 -16 42 -28s21.333 -26 28 -42s10 -33.333 10 -52c0 -18 -3.33301 -35 -10 -51s-16 -30 -28 -42s-26 -21.333 -42 -28s-33.333 -10 -52 -10c-18 0 -35 3.33301 -51 10
s-30 16 -42 28s-21.333 26 -28 42s-10 33 -10 51z" />
    <glyph glyph-name="sadisolated" unicode="&#x635;" horiz-adv-x="1776" arabic-form="isolated" 
d="M305 604l0.00585938 -378c0 -28 5.16699 -52.167 15.5 -72.5s24.166 -37.166 41.499 -50.499s37.166 -23.333 59.499 -30s45.5 -10 69.5 -10s47.167 3.33301 69.5 10s42.166 16.667 59.499 30s31.166 30.166 41.499 50.499s15.5 44.5 15.5 72.5l-2 788h247v-121
c27.333 35.333 64.5 64.166 111.5 86.499s99.833 33.5 158.5 33.5l384 -4c16.667 0 32.5 -3.33301 47.5 -10s28.167 -15.5 39.5 -26.5s20.166 -24 26.499 -39s9.5 -30.833 9.5 -47.5v-610c0 -18 -2.83301 -35.167 -8.5 -51.5s-13.834 -30.5 -24.501 -42.5
s-23.667 -21.5 -39 -28.5s-32.333 -10.5 -51 -10.5h-658c-9.33301 -54.667 -27.666 -102.5 -54.999 -143.5s-60.5 -75.167 -99.5 -102.5s-82 -47.833 -129 -61.5s-94.833 -20.5 -143.5 -20.5c-54.667 0 -108 8.83301 -160 26.5s-98.333 43.834 -139 78.501
s-73.334 77.5 -98.001 128.5s-37 110.167 -37 177.5v378h248zM1187.01 766c-33.333 0 -65.5 -4.33105 -96.5 -12.998s-58.667 -21.667 -83 -39s-44.166 -38.833 -59.499 -64.5s-24 -55.834 -26 -90.501v-168h529v372c-90 1.33301 -155.833 2.16602 -197.5 2.49902
s-63.834 0.5 -66.501 0.5z" />
    <glyph glyph-name="sadfinal" unicode="&#x635;" horiz-adv-x="1840" arabic-form="final" 
d="M920 143c-9.33301 -54.667 -27.6611 -102.5 -54.9941 -143.5s-60.5 -75.167 -99.5 -102.5s-82 -47.833 -129 -61.5s-94.833 -20.5 -143.5 -20.5c-54.667 0 -108 8.83301 -160 26.5s-98.333 43.834 -139 78.501s-73.334 77.5 -98.001 128.5s-37 110.167 -37 177.5v378h248
v-378c0 -28 5.16699 -52.167 15.5 -72.5s24.166 -37.166 41.499 -50.499s37.166 -23.333 59.499 -30s45.5 -10 69.5 -10s47.167 3.33301 69.5 10s42.166 16.667 59.499 30s31.166 30.166 41.499 50.499s15.5 44.5 15.5 72.5l-2 788h247v-121
c27.333 35.333 64.5 64.166 111.5 86.499s99.833 33.5 158.5 33.5l384 -4c16.667 0 32.5 -3.33301 47.5 -10s28.167 -15.5 39.5 -26.5s20.166 -24 26.499 -39s9.5 -30.833 9.5 -47.5v-495h144v-248h-925zM1189 766c-33.333 0 -65.5 -4.33105 -96.5 -12.998
s-58.667 -21.667 -83 -39s-44.166 -38.833 -59.499 -64.5s-24 -55.834 -26 -90.501v-168h529v372c-90 1.33301 -155.833 2.16602 -197.5 2.49902s-63.834 0.5 -66.501 0.5z" />
    <glyph glyph-name="sadinitial" unicode="&#x635;" horiz-adv-x="1250" arabic-form="initial" 
d="M402 893c28 35.333 65.502 64.167 112.502 86.5s99.833 33.5 158.5 33.5l383 -4c16.667 0 32.5 -3.33301 47.5 -10s28.167 -15.5 39.5 -26.5s20.166 -24 26.499 -39s9.5 -30.833 9.5 -47.5v-610c0 -18 -2.83301 -35.167 -8.5 -51.5s-13.834 -30.5 -24.501 -42.5
s-23.667 -21.5 -39 -28.5s-32.333 -10.5 -51 -10.5h-1067v248h166v623h247v-121zM668.002 766.001c-33.333 0 -65.6689 -4.33105 -97.002 -12.998s-59.166 -21.667 -83.499 -39s-44.166 -38.833 -59.499 -64.5s-24 -55.834 -26 -90.501v-168h529v372
c-90 1.33301 -155.667 2.16602 -197 2.49902s-63.333 0.5 -66 0.5z" />
    <glyph glyph-name="sadmedial" unicode="&#x635;" horiz-adv-x="1319" arabic-form="medial" 
d="M-4 143l0.000976562 248.001h166v612h247v-110c28 35.333 65.5 64.166 112.5 86.499s99.5 33.5 157.5 33.5l384 -4c16.667 0 32.5 -3.33301 47.5 -10s28.167 -15.5 39.5 -26.5s20.166 -24 26.499 -39s9.5 -30.833 9.5 -47.5v-495h141v-248h-1331zM675.001 766.001
c-33.333 0 -65.6689 -4.33105 -97.002 -12.998s-59.166 -21.667 -83.499 -39s-44.166 -38.833 -59.499 -64.5s-24 -55.834 -26 -90.501v-168h529v372c-90 1.33301 -155.833 2.16602 -197.5 2.49902s-63.5 0.5 -65.5 0.5z" />
    <glyph glyph-name="dadisolated" unicode="&#x636;" horiz-adv-x="1776" arabic-form="isolated" 
d="M305 604l0.00585938 -378c0 -28 5.16699 -52.167 15.5 -72.5s24.166 -37.166 41.499 -50.499s37.166 -23.333 59.499 -30s45.5 -10 69.5 -10s47.167 3.33301 69.5 10s42.166 16.667 59.499 30s31.166 30.166 41.499 50.499s15.5 44.5 15.5 72.5l-2 788h247v-121
c27.333 35.333 64.5 64.166 111.5 86.499s99.833 33.5 158.5 33.5l384 -4c16.667 0 32.5 -3.33301 47.5 -10s28.167 -15.5 39.5 -26.5s20.166 -24 26.499 -39s9.5 -30.833 9.5 -47.5v-610c0 -18 -2.83301 -35.167 -8.5 -51.5s-13.834 -30.5 -24.501 -42.5
s-23.667 -21.5 -39 -28.5s-32.333 -10.5 -51 -10.5h-658c-9.33301 -54.667 -27.666 -102.5 -54.999 -143.5s-60.5 -75.167 -99.5 -102.5s-82 -47.833 -129 -61.5s-94.833 -20.5 -143.5 -20.5c-54.667 0 -108 8.83301 -160 26.5s-98.333 43.834 -139 78.501
s-73.334 77.5 -98.001 128.5s-37 110.167 -37 177.5v378h248zM1187.01 766c-33.333 0 -65.5 -4.33105 -96.5 -12.998s-58.667 -21.667 -83 -39s-44.166 -38.833 -59.499 -64.5s-24 -55.834 -26 -90.501v-168h529v372c-90 1.33301 -155.833 2.16602 -197.5 2.49902
s-63.834 0.5 -66.501 0.5zM1061.01 1252c0 18.667 3.33301 36 10 52s16 30 28 42s26 21.333 42 28s33 10 51 10c18.667 0 36 -3.33301 52 -10s30 -16 42 -28s21.5 -26 28.5 -42s10.5 -33.333 10.5 -52c0 -18 -3.5 -35 -10.5 -51s-16.5 -30 -28.5 -42s-26 -21.333 -42 -28
s-33.333 -10 -52 -10c-18 0 -35 3.33301 -51 10s-30 16 -42 28s-21.333 26 -28 42s-10 33 -10 51z" />
    <glyph glyph-name="dadfinal" unicode="&#x636;" horiz-adv-x="1840" arabic-form="final" 
d="M920 143c-9.33301 -54.667 -27.6611 -102.5 -54.9941 -143.5s-60.5 -75.167 -99.5 -102.5s-82 -47.833 -129 -61.5s-94.833 -20.5 -143.5 -20.5c-54.667 0 -108 8.83301 -160 26.5s-98.333 43.834 -139 78.501s-73.334 77.5 -98.001 128.5s-37 110.167 -37 177.5v378h248
v-378c0 -28 5.16699 -52.167 15.5 -72.5s24.166 -37.166 41.499 -50.499s37.166 -23.333 59.499 -30s45.5 -10 69.5 -10s47.167 3.33301 69.5 10s42.166 16.667 59.499 30s31.166 30.166 41.499 50.499s15.5 44.5 15.5 72.5l-2 788h247v-121
c27.333 35.333 64.5 64.166 111.5 86.499s99.833 33.5 158.5 33.5l384 -4c16.667 0 32.5 -3.33301 47.5 -10s28.167 -15.5 39.5 -26.5s20.166 -24 26.499 -39s9.5 -30.833 9.5 -47.5v-495h144v-248h-925zM1189 766c-33.333 0 -65.5 -4.33105 -96.5 -12.998
s-58.667 -21.667 -83 -39s-44.166 -38.833 -59.499 -64.5s-24 -55.834 -26 -90.501v-168h529v372c-90 1.33301 -155.833 2.16602 -197.5 2.49902s-63.834 0.5 -66.501 0.5zM1061 1252c0 18.667 3.33301 36 10 52s16 30 28 42s26 21.333 42 28s33 10 51 10
c18.667 0 36 -3.33301 52 -10s30 -16 42 -28s21.5 -26 28.5 -42s10.5 -33.333 10.5 -52c0 -18 -3.5 -35 -10.5 -51s-16.5 -30 -28.5 -42s-26 -21.333 -42 -28s-33.333 -10 -52 -10c-18 0 -35 3.33301 -51 10s-30 16 -42 28s-21.333 26 -28 42s-10 33 -10 51z" />
    <glyph glyph-name="dadinitial" unicode="&#x636;" horiz-adv-x="1255" arabic-form="initial" 
d="M407 893c28 35.333 65.502 64.167 112.502 86.5s99.833 33.5 158.5 33.5l383 -4c16.667 0 32.5 -3.33301 47.5 -10s28.167 -15.5 39.5 -26.5s20.166 -24 26.499 -39s9.5 -30.833 9.5 -47.5v-610c0 -18 -2.83301 -35.167 -8.5 -51.5s-13.834 -30.5 -24.501 -42.5
s-23.667 -21.5 -39 -28.5s-32.333 -10.5 -51 -10.5h-1067v248h166v623h247v-121zM673.002 766.001c-33.333 0 -65.6689 -4.33105 -97.002 -12.998s-59.166 -21.667 -83.499 -39s-44.166 -38.833 -59.499 -64.5s-24 -55.834 -26 -90.501v-168h529v372
c-90 1.33301 -155.667 2.16602 -197 2.49902s-63.333 0.5 -66 0.5zM540.999 1252c0 18.667 3.33301 36 10 52s16 30 28 42s26 21.333 42 28s33 10 51 10c18.667 0 36 -3.33301 52 -10s30 -16 42 -28s21.5 -26 28.5 -42s10.5 -33.333 10.5 -52c0 -18 -3.5 -35 -10.5 -51
s-16.5 -30 -28.5 -42s-26 -21.333 -42 -28s-33.333 -10 -52 -10c-18 0 -35 3.33301 -51 10s-30 16 -42 28s-21.333 26 -28 42s-10 33 -10 51z" />
    <glyph glyph-name="dadmedial" unicode="&#x636;" horiz-adv-x="1319" arabic-form="medial" 
d="M-9 143l0.000976562 248.001h166v612h247v-110c28 35.333 65.5 64.166 112.5 86.499s99.5 33.5 157.5 33.5l384 -4c16.667 0 32.5 -3.33301 47.5 -10s28.167 -15.5 39.5 -26.5s20.166 -24 26.499 -39s9.5 -30.833 9.5 -47.5v-495h141v-248h-1331zM670.001 766.001
c-33.333 0 -65.6689 -4.33105 -97.002 -12.998s-59.166 -21.667 -83.499 -39s-44.166 -38.833 -59.499 -64.5s-24 -55.834 -26 -90.501v-168h529v372c-90 1.33301 -155.833 2.16602 -197.5 2.49902s-63.5 0.5 -65.5 0.5zM540.998 1252c0 18.667 3.33301 36 10 52
s16 30 28 42s26 21.333 42 28s33 10 51 10c18.667 0 36 -3.33301 52 -10s30 -16 42 -28s21.5 -26 28.5 -42s10.5 -33.333 10.5 -52c0 -18 -3.5 -35 -10.5 -51s-16.5 -30 -28.5 -42s-26 -21.333 -42 -28s-33.333 -10 -52 -10c-18 0 -35 3.33301 -51 10s-30 16 -42 28
s-21.333 26 -28 42s-10 33 -10 51z" />
    <glyph glyph-name="tahisolated" unicode="&#x637;" horiz-adv-x="1260" arabic-form="isolated" 
d="M413 893c27.333 35.333 64.6689 64.167 112.002 86.5s100 33.5 158 33.5l384 -4c16.667 0 32.5 -3.33301 47.5 -10s28.167 -15.5 39.5 -26.5s20.166 -24 26.499 -39s9.5 -30.833 9.5 -47.5v-610c0 -18 -2.83301 -35.167 -8.5 -51.5s-13.834 -30.5 -24.501 -42.5
s-23.667 -21.5 -39 -28.5s-32.333 -10.5 -51 -10.5h-1001v248h100v966h247v-464zM679.003 766.001c-33.333 0 -65.6689 -4.33105 -97.002 -12.998s-59.166 -21.667 -83.499 -39s-44.166 -38.833 -59.499 -64.5s-24 -55.834 -26 -90.501v-168h529v372
c-90 1.33301 -155.833 2.16602 -197.5 2.49902s-63.5 0.5 -65.5 0.5z" />
    <glyph glyph-name="tahfinal" unicode="&#x637;" horiz-adv-x="1339" arabic-form="final" 
d="M88 143l0.00195312 248.001h95v966h247v-464c27.333 35.333 64.666 64.166 111.999 86.499s100 33.5 158 33.5l384 -4c16.667 0 32.5 -3.33301 47.5 -10s28.167 -15.5 39.5 -26.5s20.166 -24 26.499 -39s9.5 -30.833 9.5 -47.5v-495h140v-248h-1259zM696.002 766.001
c-33.333 0 -65.6689 -4.33105 -97.002 -12.998s-59.166 -21.667 -83.499 -39s-44.166 -38.833 -59.499 -64.5s-24 -55.834 -26 -90.501v-168h529v372c-90 1.33301 -155.833 2.16602 -197.5 2.49902s-63.5 0.5 -65.5 0.5z" />
    <glyph glyph-name="tahinitial" unicode="&#x637;" horiz-adv-x="1255" arabic-form="initial" 
d="M407 893c28 35.333 65.502 64.167 112.502 86.5s99.833 33.5 158.5 33.5l383 -4c16.667 0 32.5 -3.33301 47.5 -10s28.167 -15.5 39.5 -26.5s20.166 -24 26.499 -39s9.5 -30.833 9.5 -47.5v-610c0 -18 -2.83301 -35.167 -8.5 -51.5s-13.834 -30.5 -24.501 -42.5
s-23.667 -21.5 -39 -28.5s-32.333 -10.5 -51 -10.5h-1067v248h166v966h247v-464zM673.002 766.001c-33.333 0 -65.6689 -4.33105 -97.002 -12.998s-59.166 -21.667 -83.499 -39s-44.166 -38.833 -59.499 -64.5s-24 -55.834 -26 -90.501v-168h529v372
c-90 1.33301 -155.667 2.16602 -197 2.49902s-63.333 0.5 -66 0.5z" />
    <glyph glyph-name="tahmedial" unicode="&#x637;" horiz-adv-x="1314" arabic-form="medial" 
d="M-5 143l0.000976562 248.001h166v966h247v-464c28 35.333 65.5 64.166 112.5 86.499s99.5 33.5 157.5 33.5l384 -4c16.667 0 32.5 -3.33301 47.5 -10s28.167 -15.5 39.5 -26.5s20.166 -24 26.499 -39s9.5 -30.833 9.5 -47.5v-495h141v-248h-1331zM674.001 766.001
c-33.333 0 -65.6689 -4.33105 -97.002 -12.998s-59.166 -21.667 -83.499 -39s-44.166 -38.833 -59.499 -64.5s-24 -55.834 -26 -90.501v-168h529v372c-90 1.33301 -155.833 2.16602 -197.5 2.49902s-63.5 0.5 -65.5 0.5z" />
    <glyph glyph-name="zahisolated" unicode="&#x638;" horiz-adv-x="1260" arabic-form="isolated" 
d="M413 893c27.333 35.333 64.6689 64.167 112.002 86.5s100 33.5 158 33.5l384 -4c16.667 0 32.5 -3.33301 47.5 -10s28.167 -15.5 39.5 -26.5s20.166 -24 26.499 -39s9.5 -30.833 9.5 -47.5v-610c0 -18 -2.83301 -35.167 -8.5 -51.5s-13.834 -30.5 -24.501 -42.5
s-23.667 -21.5 -39 -28.5s-32.333 -10.5 -51 -10.5h-1001v248h100v966h247v-464zM679.003 766.001c-33.333 0 -65.6689 -4.33105 -97.002 -12.998s-59.166 -21.667 -83.499 -39s-44.166 -38.833 -59.499 -64.5s-24 -55.834 -26 -90.501v-168h529v372
c-90 1.33301 -155.833 2.16602 -197.5 2.49902s-63.5 0.5 -65.5 0.5zM561 1252c0 18.667 3.33301 36 10 52s16 30 28 42s26 21.333 42 28s33 10 51 10c18.667 0 36 -3.33301 52 -10s30 -16 42 -28s21.5 -26 28.5 -42s10.5 -33.333 10.5 -52c0 -18 -3.5 -35 -10.5 -51
s-16.5 -30 -28.5 -42s-26 -21.333 -42 -28s-33.333 -10 -52 -10c-18 0 -35 3.33301 -51 10s-30 16 -42 28s-21.333 26 -28 42s-10 33 -10 51z" />
    <glyph glyph-name="zahfinal" unicode="&#x638;" horiz-adv-x="1344" arabic-form="final" 
d="M88 143l0.000976562 248.001h95v966h247v-464c28 35.333 65.5 64.166 112.5 86.499s99.5 33.5 157.5 33.5l384 -4c16.667 0 32.5 -3.33301 47.5 -10s28.167 -15.5 39.5 -26.5s20.166 -24 26.499 -39s9.5 -30.833 9.5 -47.5v-495h141v-248h-1260zM696.001 766.001
c-33.333 0 -65.6689 -4.33105 -97.002 -12.998s-59.166 -21.667 -83.499 -39s-44.166 -38.833 -59.499 -64.5s-24 -55.834 -26 -90.501v-168h529v372c-90 1.33301 -155.833 2.16602 -197.5 2.49902s-63.5 0.5 -65.5 0.5zM560.998 1252c0 18.667 3.33301 36 10 52
s16 30 28 42s26 21.333 42 28s33 10 51 10c18.667 0 36 -3.33301 52 -10s30 -16 42 -28s21.5 -26 28.5 -42s10.5 -33.333 10.5 -52c0 -18 -3.5 -35 -10.5 -51s-16.5 -30 -28.5 -42s-26 -21.333 -42 -28s-33.333 -10 -52 -10c-18 0 -35 3.33301 -51 10s-30 16 -42 28
s-21.333 26 -28 42s-10 33 -10 51z" />
    <glyph glyph-name="zahinitial" unicode="&#x638;" horiz-adv-x="1250" arabic-form="initial" 
d="M402 893c28 35.333 65.502 64.167 112.502 86.5s99.833 33.5 158.5 33.5l383 -4c16.667 0 32.5 -3.33301 47.5 -10s28.167 -15.5 39.5 -26.5s20.166 -24 26.499 -39s9.5 -30.833 9.5 -47.5v-610c0 -18 -2.83301 -35.167 -8.5 -51.5s-13.834 -30.5 -24.501 -42.5
s-23.667 -21.5 -39 -28.5s-32.333 -10.5 -51 -10.5h-1067v248h166v966h247v-464zM668.002 766.001c-33.333 0 -65.6689 -4.33105 -97.002 -12.998s-59.166 -21.667 -83.499 -39s-44.166 -38.833 -59.499 -64.5s-24 -55.834 -26 -90.501v-168h529v372
c-90 1.33301 -155.667 2.16602 -197 2.49902s-63.333 0.5 -66 0.5zM520.999 1252c0 18.667 3.33301 36 10 52s16 30 28 42s26 21.333 42 28s33 10 51 10c18.667 0 36 -3.33301 52 -10s30 -16 42 -28s21.5 -26 28.5 -42s10.5 -33.333 10.5 -52c0 -18 -3.5 -35 -10.5 -51
s-16.5 -30 -28.5 -42s-26 -21.333 -42 -28s-33.333 -10 -52 -10c-18 0 -35 3.33301 -51 10s-30 16 -42 28s-21.333 26 -28 42s-10 33 -10 51z" />
    <glyph glyph-name="zahmedial" unicode="&#x638;" horiz-adv-x="1314" arabic-form="medial" 
d="M-4 143l0.00195312 248.001h166v966h247v-464c27.333 35.333 64.666 64.166 111.999 86.499s100 33.5 158 33.5l384 -4c16.667 0 32.5 -3.33301 47.5 -10s28.167 -15.5 39.5 -26.5s20.166 -24 26.499 -39s9.5 -30.833 9.5 -47.5v-495h138v-248h-1328zM675.002 766.001
c-33.333 0 -65.6689 -4.33105 -97.002 -12.998s-59.166 -21.667 -83.499 -39s-44.166 -38.833 -59.499 -64.5s-24 -55.834 -26 -90.501v-168h529v372c-90 1.33301 -155.833 2.16602 -197.5 2.49902s-63.5 0.5 -65.5 0.5zM520.999 1252c0 18.667 3.33301 36 10 52
s16 30 28 42s26 21.333 42 28s33 10 51 10c18.667 0 36 -3.33301 52 -10s30 -16 42 -28s21.5 -26 28.5 -42s10.5 -33.333 10.5 -52c0 -18 -3.5 -35 -10.5 -51s-16.5 -30 -28.5 -42s-26 -21.333 -42 -28s-33.333 -10 -52 -10c-18 0 -35 3.33301 -51 10s-30 16 -42 28
s-21.333 26 -28 42s-10 33 -10 51z" />
    <glyph glyph-name="ainisolated" unicode="&#x639;" horiz-adv-x="1131" arabic-form="isolated" 
d="M545 143c-36.667 -3.33301 -69.999 -10.8301 -99.999 -22.4971s-55.5 -25.834 -76.5 -42.501s-37.333 -35.334 -49 -56.001s-17.5 -42 -17.5 -64c0 -30.667 9.83301 -62.5 29.5 -95.5s50.167 -63.5 91.5 -91.5l-139 -205c-38 26 -71.333 54.5 -100 85.5
s-52.5 63.167 -71.5 96.5s-33.333 67.5 -43 102.5s-14.5 70.167 -14.5 105.5c0 38 5.16699 75.167 15.5 111.5s25.666 71 45.999 104s45.5 63.167 75.5 90.5s65 51 105 71l-32 56.5c-10.667 19.667 -20.167 39.667 -28.5 60s-15 41.166 -20 62.499s-7.5 43 -7.5 65
c0 55.333 10 109.166 30 161.499s48.5 98.833 85.5 139.5s82 73.334 135 98.001s112.5 37 178.5 37h375v-248h-375c-27.333 0 -52.166 -5.5 -74.499 -16.5s-41.5 -25.333 -57.5 -43s-28.333 -37.834 -37 -60.501s-13 -45.334 -13 -68.001
c0 -23.333 4.33301 -46.166 13 -68.499s21 -42.166 37 -59.499s35.167 -31.333 57.5 -42s47.166 -16 74.499 -16h404v-248h-497z" />
    <glyph glyph-name="ainfinal" unicode="&#x639;" horiz-adv-x="1156" arabic-form="final" 
d="M541 143c-41.333 -2.66699 -77.166 -9.67285 -107.499 -21.0059s-55.5 -25.5 -75.5 -42.5s-35 -36.167 -45 -57.5s-15 -43 -15 -65c0 -31.333 10 -63.166 30 -95.499s50 -62.5 90 -90.5l-139 -205c-77.333 52.667 -134.833 113.5 -172.5 182.5s-56.5 138.833 -56.5 209.5
c0 42 6.66699 83.5 20 124.5s33.166 79.167 59.499 114.5s58.666 67.166 96.999 95.499s82.5 50.5 132.5 66.5l-57.5 87.5l-56.5 87.5c-18 28.667 -31.5 58.334 -40.5 89.001s-13.5 60 -13.5 88c0 40.667 8 79.334 24 116.001s38.5 68.834 67.5 96.501s63.667 49.5 104 65.5
s84.5 24 132.5 24h216c48.667 0 93.334 -8 134.001 -24s75.667 -37.667 105 -65s52 -59.166 68 -95.499s24 -74.833 24 -115.5c0 -29.333 -4.5 -59.166 -13.5 -89.499s-23.167 -60.166 -42.5 -89.499l-93 -143h243v-248h-619zM627 399.994l87.999 134.501l87 134.5
c4.66699 7.33301 8.5 15 11.5 23s4.5 15 4.5 21c0 15.333 -7.5 28 -22.5 38s-35.167 15 -60.5 15h-215c-26 -1.33301 -46.333 -6.83301 -61 -16.5s-22 -21.834 -22 -36.501c0 -6 1.33301 -12.833 4 -20.5s6.33398 -15.5 11.001 -23.5z" />
    <glyph glyph-name="aininitial" unicode="&#x639;" horiz-adv-x="1061" arabic-form="initial" 
d="M199 391c-8.66699 11.333 -16.8311 24.334 -24.498 39.001s-14.5 30.167 -20.5 46.5s-10.667 33.166 -14 50.499s-5 34 -5 50c0 55.333 10.167 109.166 30.5 161.499s49.5 98.833 87.5 139.5s83.667 73.334 137 98.001s113 37 179 37h375v-248h-375
c-27.333 0 -52.333 -5.5 -75 -16.5s-42.334 -25.333 -59.001 -43s-29.667 -37.834 -39 -60.501s-14 -45.334 -14 -68.001c0 -23.333 4.66699 -46.166 14 -68.499s22.166 -42.166 38.499 -59.499s36 -31.333 59 -42s48.167 -16 75.5 -16h404v-248h-980v248h206z" />
    <glyph glyph-name="ainmedial" unicode="&#x639;" horiz-adv-x="1086" arabic-form="medial" 
d="M-5 391l262.001 -0.000976562l-46.5 72l-46.5 71c-20 30.667 -34.667 61.334 -44 92.001s-14 60.667 -14 90c0 38 7.83301 74.833 23.5 110.5s38 67.334 67 95.001s63.833 49.834 104.5 66.501s86.334 25 137.001 25h216c45.333 0 88.166 -7.33301 128.499 -22
s75.666 -35.334 105.999 -62.001s54.333 -58.334 72 -95.001s26.5 -77.334 26.5 -122.001c0 -28.667 -5.16699 -58.167 -15.5 -88.5s-24.833 -60.166 -43.5 -89.499l-24 -37l-21.5 -33.5l-22 -34l-24.5 -38.5h260v-248h-1101v248zM546.001 399.999l87.5 134.5l87.5 134.5
c12 19.333 18 35 18 47c0 8 -2.5 15.167 -7.5 21.5s-11.667 11.666 -20 15.999s-17.5 7.5 -27.5 9.5s-20 3 -30 3h-216c-22 0.666992 -41.5 -4.16602 -58.5 -14.499s-25.5 -22.166 -25.5 -35.499c0 -12.667 5.66699 -28.334 17 -47.001z" />
    <glyph glyph-name="ghainisolated" unicode="&#x63a;" horiz-adv-x="1131" arabic-form="isolated" 
d="M545 143c-36.667 -3.33301 -69.999 -10.8311 -99.999 -22.498s-55.5 -25.834 -76.5 -42.501s-37.333 -35.334 -49 -56.001s-17.5 -42 -17.5 -64c0 -30.667 9.83301 -62.5 29.5 -95.5s50.167 -63.5 91.5 -91.5l-139 -205c-38 26 -71.333 54.5 -100 85.5
s-52.5 63.167 -71.5 96.5s-33.333 67.5 -43 102.5s-14.5 70.167 -14.5 105.5c0 38 5.16699 75.167 15.5 111.5s25.666 71 45.999 104s45.5 63.167 75.5 90.5s65 51 105 71c-21.333 36 -40.5 74.833 -57.5 116.5s-25.5 84.167 -25.5 127.5
c0 55.333 9.66699 109.166 29 161.499s47.333 98.833 84 139.5s81.167 73.334 133.5 98.001s111.5 37 177.5 37h375v-248h-375c-27.333 0 -51.833 -5.5 -73.5 -16.5s-40.167 -25.333 -55.5 -43s-27.166 -37.834 -35.499 -60.501s-12.5 -45.334 -12.5 -68.001
c0 -23.333 4.16699 -46.166 12.5 -68.499s20.166 -42.166 35.499 -59.499s33.833 -31.333 55.5 -42s46.167 -16 73.5 -16h404v-248h-497zM476.001 1252c0 18.667 3.33301 36 10 52s16 30 28 42s26 21.333 42 28s33 10 51 10c18.667 0 36 -3.33301 52 -10s30 -16 42 -28
s21.5 -26 28.5 -42s10.5 -33.333 10.5 -52c0 -18 -3.5 -35 -10.5 -51s-16.5 -30 -28.5 -42s-26 -21.333 -42 -28s-33.333 -10 -52 -10c-18 0 -35 3.33301 -51 10s-30 16 -42 28s-21.333 26 -28 42s-10 33 -10 51z" />
    <glyph glyph-name="ghainfinal" unicode="&#x63a;" horiz-adv-x="1151" arabic-form="final" 
d="M541 143c-41.333 -2.66699 -77.166 -9.67285 -107.499 -21.0059s-55.5 -25.5 -75.5 -42.5s-35 -36.167 -45 -57.5s-15 -43 -15 -65c0 -31.333 10 -63.166 30 -95.499s50 -62.5 90 -90.5l-139 -205c-77.333 52.667 -134.833 113.5 -172.5 182.5s-56.5 138.833 -56.5 209.5
c0 42 6.66699 83.5 20 124.5s33.166 79.167 59.499 114.5s58.666 67.166 96.999 95.499s82.5 50.5 132.5 66.5l-57.5 87.5l-56.5 87.5c-18 28.667 -31.5 58.334 -40.5 89.001s-13.5 60 -13.5 88c0 40.667 8 79.334 24 116.001s38.5 68.834 67.5 96.501s63.667 49.5 104 65.5
s84.5 24 132.5 24h216c48.667 0 93.334 -8 134.001 -24s75.667 -37.667 105 -65s52 -59.166 68 -95.499s24 -74.833 24 -115.5c0 -29.333 -4.5 -59.166 -13.5 -89.499s-23.167 -60.166 -42.5 -89.499l-93 -143h243v-248h-619zM627 399.994l87.999 134.501l87 134.5
c4.66699 7.33301 8.5 15 11.5 23s4.5 15 4.5 21c0 15.333 -7.5 28 -22.5 38s-35.167 15 -60.5 15h-215c-26 -1.33301 -46.333 -6.83301 -61 -16.5s-22 -21.834 -22 -36.501c0 -6 1.33301 -12.833 4 -20.5s6.33398 -15.5 11.001 -23.5zM475.999 1252
c0 18.667 3.33301 36 10 52s16 30 28 42s26 21.333 42 28s33 10 51 10c18.667 0 36 -3.33301 52 -10s30 -16 42 -28s21.5 -26 28.5 -42s10.5 -33.333 10.5 -52c0 -18 -3.5 -35 -10.5 -51s-16.5 -30 -28.5 -42s-26 -21.333 -42 -28s-33.333 -10 -52 -10
c-18 0 -35 3.33301 -51 10s-30 16 -42 28s-21.333 26 -28 42s-10 33 -10 51z" />
    <glyph glyph-name="ghaininitial" unicode="&#x63a;" horiz-adv-x="1076" arabic-form="initial" 
d="M199 391c-8.66699 11.333 -16.8311 24.334 -24.498 39.001s-14.5 30.167 -20.5 46.5s-10.667 33.166 -14 50.499s-5 34 -5 50c0 55.333 10.167 109.166 30.5 161.499s49.5 98.833 87.5 139.5s83.667 73.334 137 98.001s113 37 179 37h375v-248h-375
c-27.333 0 -52.333 -5.5 -75 -16.5s-42.334 -25.333 -59.001 -43s-29.667 -37.834 -39 -60.501s-14 -45.334 -14 -68.001c0 -23.333 4.66699 -46.166 14 -68.499s22.166 -42.166 38.499 -59.499s36 -31.333 59 -42s48.167 -16 75.5 -16h404v-248h-980v248h206zM407.003 1252
c0 18.667 3.33301 36 10 52s16 30 28 42s26 21.333 42 28s33 10 51 10c18.667 0 36 -3.33301 52 -10s30 -16 42 -28s21.5 -26 28.5 -42s10.5 -33.333 10.5 -52c0 -18 -3.5 -35 -10.5 -51s-16.5 -30 -28.5 -42s-26 -21.333 -42 -28s-33.333 -10 -52 -10
c-18 0 -35 3.33301 -51 10s-30 16 -42 28s-21.333 26 -28 42s-10 33 -10 51z" />
    <glyph glyph-name="ghainmedial" unicode="&#x63a;" horiz-adv-x="1086" arabic-form="medial" 
d="M-5 391l262.001 -0.000976562l-46.5 72l-46.5 71c-20 30.667 -34.667 61.334 -44 92.001s-14 60.667 -14 90c0 38 7.83301 74.833 23.5 110.5s38 67.334 67 95.001s63.833 49.834 104.5 66.501s86.334 25 137.001 25h216c45.333 0 88.166 -7.33301 128.499 -22
s75.666 -35.334 105.999 -62.001s54.333 -58.334 72 -95.001s26.5 -77.334 26.5 -122.001c0 -28.667 -5.16699 -58.167 -15.5 -88.5s-24.833 -60.166 -43.5 -89.499l-24 -37l-21.5 -33.5l-22 -34l-24.5 -38.5h260v-248h-1101v248zM546.001 399.999l87.5 134.5l87.5 134.5
c12 19.333 18 35 18 47c0 8 -2.5 15.167 -7.5 21.5s-11.667 11.666 -20 15.999s-17.5 7.5 -27.5 9.5s-20 3 -30 3h-216c-22 0.666992 -41.5 -4.16602 -58.5 -14.499s-25.5 -22.166 -25.5 -35.499c0 -12.667 5.66699 -28.334 17 -47.001zM407.001 1252
c0 18.667 3.33301 36 10 52s16 30 28 42s26 21.333 42 28s33 10 51 10c18.667 0 36 -3.33301 52 -10s30 -16 42 -28s21.5 -26 28.5 -42s10.5 -33.333 10.5 -52c0 -18 -3.5 -35 -10.5 -51s-16.5 -30 -28.5 -42s-26 -21.333 -42 -28s-33.333 -10 -52 -10
c-18 0 -35 3.33301 -51 10s-30 16 -42 28s-21.333 26 -28 42s-10 33 -10 51z" />
    <glyph glyph-name="fehisolated" unicode="&#x641;" horiz-adv-x="1419" arabic-form="isolated" 
d="M567 391c-12.667 29.333 -21.666 59.499 -26.999 90.499s-8 62.833 -8 95.5c0 55.333 8.66699 109.166 26 161.499s43 98.833 77 139.5s76.167 73.334 126.5 98.001s108.5 37 174.5 37h256c21.333 0 41.166 -4.16699 59.499 -12.5s34.333 -19.5 48 -33.5
s24.5 -30.5 32.5 -49.5s12 -38.833 12 -59.5l1 -591c0 -17.333 -3.33301 -33.5 -10 -48.5s-15.5 -28.167 -26.5 -39.5s-24.167 -20.166 -39.5 -26.499s-31.333 -9.5 -48 -9.5h-758c-77.333 0 -142.666 11.5 -195.999 34.5s-96.5 53.333 -129.5 91s-56.833 80.667 -71.5 129
s-22 97.5 -22 147.5c0 28 2.33301 56.167 7 84.5s10.667 56.166 18 83.499s16 53.5 26 78.5s20.333 47.833 31 68.5l219 -114c-14 -27.333 -26.333 -59.166 -37 -95.499s-16 -72.5 -16 -108.5c0 -20 2.16699 -39.167 6.5 -57.5s12.166 -34.333 23.499 -48
s27.333 -24.667 48 -33s47.667 -12.833 81 -13.5c2 0.666992 4 1 6 1h6h104zM794.001 491.999c10.667 -28.667 27.6689 -52.667 51.002 -72s53.666 -29 90.999 -29h161v374h-161c-27.333 0 -50.833 -5.5 -70.5 -16.5s-35.834 -25.5 -48.501 -43.5
s-22.167 -38.167 -28.5 -60.5s-9.5 -44.833 -9.5 -67.5c0 -28.667 5 -57 15 -85zM821.003 1252c0 18.667 3.33301 36 10 52s16 30 28 42s26 21.333 42 28s33 10 51 10c18.667 0 36 -3.33301 52 -10s30 -16 42 -28s21.5 -26 28.5 -42s10.5 -33.333 10.5 -52
c0 -18 -3.5 -35 -10.5 -51s-16.5 -30 -28.5 -42s-26 -21.333 -42 -28s-33.333 -10 -52 -10c-18 0 -35 3.33301 -51 10s-30 16 -42 28s-21.333 26 -28 42s-10 33 -10 51z" />
    <glyph glyph-name="fehfinal" unicode="&#x641;" horiz-adv-x="1483" arabic-form="final" 
d="M465 143c-77.333 0 -142.665 11.5 -195.998 34.5s-96.5 53.333 -129.5 91s-56.833 80.667 -71.5 129s-22 97.5 -22 147.5c0 28 2.33301 56.167 7 84.5s10.667 56.166 18 83.499s16 53.5 26 78.5s20.333 47.833 31 68.5l219 -114c-14 -27.333 -26.333 -59.166 -37 -95.499
s-16 -72.5 -16 -108.5c0 -20 2.16699 -39.167 6.5 -57.5s12.166 -34.333 23.499 -48s27.333 -24.667 48 -33s47.667 -12.833 81 -13.5c2 0.666992 4 1 6 1h6h104c-12.667 29.333 -21.667 59.5 -27 90.5s-8 62.833 -8 95.5c0 55.333 8.66699 109.166 26 161.499
s43 98.833 77 139.5s76.167 73.334 126.5 98.001s108.5 37 174.5 37h256c21.333 0 41.166 -4.16699 59.499 -12.5s34.333 -19.5 48 -33.5s24.5 -30.5 32.5 -49.5s12 -38.833 12 -59.5v-467h147v-248h-1028zM796.001 492c10.667 -28.667 27.6689 -52.667 51.002 -72
s53.666 -29 90.999 -29h161v374h-161c-27.333 0 -50.833 -5.5 -70.5 -16.5s-35.834 -25.5 -48.501 -43.5s-22.167 -38.167 -28.5 -60.5s-9.5 -44.833 -9.5 -67.5c0 -28.667 5 -57 15 -85zM821.003 1252c0 18.667 3.33301 36 10 52s16 30 28 42s26 21.333 42 28s33 10 51 10
c18.667 0 36 -3.33301 52 -10s30 -16 42 -28s21.5 -26 28.5 -42s10.5 -33.333 10.5 -52c0 -18 -3.5 -35 -10.5 -51s-16.5 -30 -28.5 -42s-26 -21.333 -42 -28s-33.333 -10 -52 -10c-18 0 -35 3.33301 -51 10s-30 16 -42 28s-21.333 26 -28 42s-10 33 -10 51z" />
    <glyph glyph-name="fehinitial" unicode="&#x641;" horiz-adv-x="1037" arabic-form="initial" 
d="M-6 143v247.999h195c-12 29.333 -20.833 59.5 -26.5 90.5s-8.5 62.833 -8.5 95.5c0 55.333 8.66699 109.166 26 161.499s43.166 98.833 77.499 139.5s76.666 73.334 126.999 98.001s108.5 37 174.5 37h256c20.667 0 40.334 -4.16699 59.001 -12.5s34.667 -19.5 48 -33.5
s24 -30.5 32 -49.5s12 -38.833 12 -59.5l1 -591c0 -17.333 -3.16699 -33.5 -9.5 -48.5s-15.166 -28.167 -26.499 -39.5s-24.5 -20.166 -39.5 -26.499s-30.833 -9.5 -47.5 -9.5h-850zM417 491.999c10 -28.667 26.833 -52.668 50.5 -72.001s54.167 -29 91.5 -29h160v374h-160
c-27.333 0 -50.833 -5.5 -70.5 -16.5s-36 -25.5 -49 -43.5s-22.667 -38.167 -29 -60.5s-9.5 -44.833 -9.5 -67.5c0 -29.333 5.33301 -57.666 16 -84.999zM428 1252c0 18.667 3.33301 36 10 52s16 30 28 42s26 21.333 42 28s33 10 51 10c18.667 0 36 -3.33301 52 -10
s30 -16 42 -28s21.5 -26 28.5 -42s10.5 -33.333 10.5 -52c0 -18 -3.5 -35 -10.5 -51s-16.5 -30 -28.5 -42s-26 -21.333 -42 -28s-33.333 -10 -52 -10c-18 0 -35 3.33301 -51 10s-30 16 -42 28s-21.333 26 -28 42s-10 33 -10 51z" />
    <glyph glyph-name="fehmedial" unicode="&#x641;" horiz-adv-x="1076" arabic-form="medial" 
d="M-10 143l0.00292969 248h176c-12 29.333 -20.833 59.5 -26.5 90.5s-8.5 62.833 -8.5 95.5c0 55.333 8.66699 109.166 26 161.499s43.166 98.833 77.499 139.5s76.666 73.334 126.999 98.001s108.5 37 174.5 37h256c21.333 0 41.166 -4.16699 59.499 -12.5
s34.333 -19.5 48 -33.5s24.5 -30.5 32.5 -49.5s12 -38.833 12 -59.5v-467h145v-248h-1099zM394.003 492c10 -28.667 26.833 -52.668 50.5 -72.001s54.167 -29 91.5 -29h161v374h-161c-27.333 0 -50.833 -5.5 -70.5 -16.5s-36 -25.5 -49 -43.5s-22.667 -38.167 -29 -60.5
s-9.5 -44.833 -9.5 -67.5c0 -29.333 5.33301 -57.666 16 -84.999zM428.003 1252c0 18.667 3.33301 36 10 52s16 30 28 42s26 21.333 42 28s33 10 51 10c18.667 0 36 -3.33301 52 -10s30 -16 42 -28s21.5 -26 28.5 -42s10.5 -33.333 10.5 -52c0 -18 -3.5 -35 -10.5 -51
s-16.5 -30 -28.5 -42s-26 -21.333 -42 -28s-33.333 -10 -52 -10c-18 0 -35 3.33301 -51 10s-30 16 -42 28s-21.333 26 -28 42s-10 33 -10 51z" />
    <glyph glyph-name="qafisolated" unicode="&#x642;" horiz-adv-x="1419" arabic-form="isolated" 
d="M567 391c-12.667 29.333 -21.666 59.499 -26.999 90.499s-8 62.833 -8 95.5c0 55.333 8.66699 109.166 26 161.499s43 98.833 77 139.5s76.167 73.334 126.5 98.001s108.5 37 174.5 37h256c21.333 0 41.166 -4.16699 59.499 -12.5s34.333 -19.5 48 -33.5
s24.5 -30.5 32.5 -49.5s12 -38.833 12 -59.5l1 -591c0 -17.333 -3.33301 -33.5 -10 -48.5s-15.5 -28.167 -26.5 -39.5s-24.167 -20.166 -39.5 -26.499s-31.333 -9.5 -48 -9.5h-758c-77.333 0 -142.666 11.5 -195.999 34.5s-96.5 53.333 -129.5 91s-56.833 80.667 -71.5 129
s-22 97.5 -22 147.5c0 28 2.33301 56.167 7 84.5s10.667 56.166 18 83.499s16 53.5 26 78.5s20.333 47.833 31 68.5l219 -114c-14 -27.333 -26.333 -59.166 -37 -95.499s-16 -72.5 -16 -108.5c0 -20 2.16699 -39.167 6.5 -57.5s12.166 -34.333 23.499 -48
s27.333 -24.667 48 -33s47.667 -12.833 81 -13.5c2 0.666992 4 1 6 1h6h104zM794.001 491.999c10.667 -28.667 27.6689 -52.667 51.002 -72s53.666 -29 90.999 -29h161v374h-161c-27.333 0 -50.833 -5.5 -70.5 -16.5s-35.834 -25.5 -48.501 -43.5
s-22.167 -38.167 -28.5 -60.5s-9.5 -44.833 -9.5 -67.5c0 -28.667 5 -57 15 -85zM677.003 1252c0 18.667 3.33301 36 10 52s16 30 28 42s26 21.333 42 28s33 10 51 10c18.667 0 36 -3.33301 52 -10s30 -16 42 -28s21.5 -26 28.5 -42s10.5 -33.333 10.5 -52
c0 -18 -3.5 -35 -10.5 -51s-16.5 -30 -28.5 -42s-26 -21.5 -42 -28.5s-33.333 -10.5 -52 -10.5c-18 0 -35 3.5 -51 10.5s-30 16.5 -42 28.5s-21.333 26 -28 42s-10 33 -10 51zM975.003 1252c0 18.667 3.33301 36 10 52s16 30 28 42s26 21.333 42 28s33 10 51 10
c18.667 0 36 -3.33301 52 -10s30 -16 42 -28s21.5 -26 28.5 -42s10.5 -33.333 10.5 -52c0 -18 -3.5 -35 -10.5 -51s-16.5 -30 -28.5 -42s-26 -21.5 -42 -28.5s-33.333 -10.5 -52 -10.5c-18 0 -35 3.5 -51 10.5s-30 16.5 -42 28.5s-21.333 26 -28 42s-10 33 -10 51z" />
    <glyph glyph-name="qaffinal" unicode="&#x642;" horiz-adv-x="1483" arabic-form="final" 
d="M465 143c-77.333 0 -142.665 11.5 -195.998 34.5s-96.5 53.333 -129.5 91s-56.833 80.667 -71.5 129s-22 97.5 -22 147.5c0 28 2.33301 56.167 7 84.5s10.667 56.166 18 83.499s16 53.5 26 78.5s20.333 47.833 31 68.5l219 -114c-14 -27.333 -26.333 -59.166 -37 -95.499
s-16 -72.5 -16 -108.5c0 -20 2.16699 -39.167 6.5 -57.5s12.166 -34.333 23.499 -48s27.333 -24.667 48 -33s47.667 -12.833 81 -13.5c2 0.666992 4 1 6 1h6h104c-12.667 29.333 -21.667 59.5 -27 90.5s-8 62.833 -8 95.5c0 55.333 8.66699 109.166 26 161.499
s43 98.833 77 139.5s76.167 73.334 126.5 98.001s108.5 37 174.5 37h256c21.333 0 41.166 -4.16699 59.499 -12.5s34.333 -19.5 48 -33.5s24.5 -30.5 32.5 -49.5s12 -38.833 12 -59.5v-467h147v-248h-1028zM796.001 492c10.667 -28.667 27.6689 -52.667 51.002 -72
s53.666 -29 90.999 -29h161v374h-161c-27.333 0 -50.833 -5.5 -70.5 -16.5s-35.834 -25.5 -48.501 -43.5s-22.167 -38.167 -28.5 -60.5s-9.5 -44.833 -9.5 -67.5c0 -28.667 5 -57 15 -85zM677.003 1252c0 18.667 3.33301 36 10 52s16 30 28 42s26 21.333 42 28s33 10 51 10
c18.667 0 36 -3.33301 52 -10s30 -16 42 -28s21.5 -26 28.5 -42s10.5 -33.333 10.5 -52c0 -18 -3.5 -35 -10.5 -51s-16.5 -30 -28.5 -42s-26 -21.5 -42 -28.5s-33.333 -10.5 -52 -10.5c-18 0 -35 3.5 -51 10.5s-30 16.5 -42 28.5s-21.333 26 -28 42s-10 33 -10 51z
M975.003 1252c0 18.667 3.33301 36 10 52s16 30 28 42s26 21.333 42 28s33 10 51 10c18.667 0 36 -3.33301 52 -10s30 -16 42 -28s21.5 -26 28.5 -42s10.5 -33.333 10.5 -52c0 -18 -3.5 -35 -10.5 -51s-16.5 -30 -28.5 -42s-26 -21.5 -42 -28.5s-33.333 -10.5 -52 -10.5
c-18 0 -35 3.5 -51 10.5s-30 16.5 -42 28.5s-21.333 26 -28 42s-10 33 -10 51z" />
    <glyph glyph-name="qafinitial" unicode="&#x642;" horiz-adv-x="1037" arabic-form="initial" 
d="M-6 143v247.999h195c-12 29.333 -20.833 59.5 -26.5 90.5s-8.5 62.833 -8.5 95.5c0 55.333 8.66699 109.166 26 161.499s43.166 98.833 77.499 139.5s76.666 73.334 126.999 98.001s108.5 37 174.5 37h256c20.667 0 40.334 -4.16699 59.001 -12.5s34.667 -19.5 48 -33.5
s24 -30.5 32 -49.5s12 -38.833 12 -59.5l1 -591c0 -17.333 -3.16699 -33.5 -9.5 -48.5s-15.166 -28.167 -26.499 -39.5s-24.5 -20.166 -39.5 -26.499s-30.833 -9.5 -47.5 -9.5h-850zM417 491.999c10 -28.667 26.833 -52.668 50.5 -72.001s54.167 -29 91.5 -29h160v374h-160
c-27.333 0 -50.833 -5.5 -70.5 -16.5s-36 -25.5 -49 -43.5s-22.667 -38.167 -29 -60.5s-9.5 -44.833 -9.5 -67.5c0 -29.333 5.33301 -57.666 16 -84.999zM285 1252c0 18.667 3.33301 36 10 52s16 30 28 42s26 21.333 42 28s33 10 51 10c18.667 0 36 -3.33301 52 -10
s30 -16 42 -28s21.5 -26 28.5 -42s10.5 -33.333 10.5 -52c0 -18 -3.5 -35 -10.5 -51s-16.5 -30 -28.5 -42s-26 -21.5 -42 -28.5s-33.333 -10.5 -52 -10.5c-18 0 -35 3.5 -51 10.5s-30 16.5 -42 28.5s-21.333 26 -28 42s-10 33 -10 51zM583 1252c0 18.667 3.33301 36 10 52
s16 30 28 42s26 21.333 42 28s33 10 51 10c18.667 0 36 -3.33301 52 -10s30 -16 42 -28s21.5 -26 28.5 -42s10.5 -33.333 10.5 -52c0 -18 -3.5 -35 -10.5 -51s-16.5 -30 -28.5 -42s-26 -21.5 -42 -28.5s-33.333 -10.5 -52 -10.5c-18 0 -35 3.5 -51 10.5s-30 16.5 -42 28.5
s-21.333 26 -28 42s-10 33 -10 51z" />
    <glyph glyph-name="qafmedial" unicode="&#x642;" horiz-adv-x="1086" arabic-form="medial" 
d="M-10 143l0.00292969 248h176c-12 29.333 -20.833 59.5 -26.5 90.5s-8.5 62.833 -8.5 95.5c0 55.333 8.66699 109.166 26 161.499s43.166 98.833 77.499 139.5s76.666 73.334 126.999 98.001s108.5 37 174.5 37h256c21.333 0 41.166 -4.16699 59.499 -12.5
s34.333 -19.5 48 -33.5s24.5 -30.5 32.5 -49.5s12 -38.833 12 -59.5v-467h147v-248h-1101zM394.003 492c10.667 -28.667 27.6699 -52.667 51.0029 -72s53.666 -29 90.999 -29h161v374h-161c-27.333 0 -50.833 -5.5 -70.5 -16.5s-35.834 -25.5 -48.501 -43.5
s-22.167 -38.167 -28.5 -60.5s-9.5 -44.833 -9.5 -67.5c0 -14 1.16699 -28.167 3.5 -42.5s6.16602 -28.5 11.499 -42.5zM285.006 1252c0 18.667 3.33301 36 10 52s16 30 28 42s26 21.333 42 28s33 10 51 10c18.667 0 36 -3.33301 52 -10s30 -16 42 -28s21.5 -26 28.5 -42
s10.5 -33.333 10.5 -52c0 -18 -3.5 -35 -10.5 -51s-16.5 -30 -28.5 -42s-26 -21.5 -42 -28.5s-33.333 -10.5 -52 -10.5c-18 0 -35 3.5 -51 10.5s-30 16.5 -42 28.5s-21.333 26 -28 42s-10 33 -10 51zM583.006 1252c0 18.667 3.33301 36 10 52s16 30 28 42s26 21.333 42 28
s33 10 51 10c18.667 0 36 -3.33301 52 -10s30 -16 42 -28s21.5 -26 28.5 -42s10.5 -33.333 10.5 -52c0 -18 -3.5 -35 -10.5 -51s-16.5 -30 -28.5 -42s-26 -21.5 -42 -28.5s-33.333 -10.5 -52 -10.5c-18 0 -35 3.5 -51 10.5s-30 16.5 -42 28.5s-21.333 26 -28 42
s-10 33 -10 51z" />
    <glyph glyph-name="kafisolated" unicode="&#x643;" horiz-adv-x="1300" arabic-form="isolated" 
d="M1202 1357l-0.00292969 -1090c0 -17.333 -3.16699 -33.5 -9.5 -48.5s-15.166 -28.167 -26.499 -39.5s-24.5 -20.166 -39.5 -26.499s-31.167 -9.5 -48.5 -9.5h-601c-78.667 0 -144.667 11.667 -198 35s-96.333 54 -129 92s-56 81 -70 129s-21 96.667 -21 146
c0 28 2.16699 56.167 6.5 84.5s10.333 56.166 18 83.499s16.334 53.5 26.001 78.5s19.834 47.833 30.501 68.5l219 -114c-14.667 -27.333 -27.167 -59.166 -37.5 -95.499s-15.5 -72.5 -15.5 -108.5c0 -20.667 2.16699 -40.167 6.5 -58.5s12.5 -34.333 24.5 -48
s28.5 -24.5 49.5 -32.5s48.167 -12.333 81.5 -13c84 0 165.167 0.166992 243.5 0.5s159.5 0.5 243.5 0.5v966h247zM484.997 974.999c-2 8.66699 -3.66699 17.498 -5 26.498s-2 17.833 -2 26.5c0 28 5 55.167 15 81.5s25 50 45 71s44.667 37.833 74 50.5s63.333 19 102 19
h128v-167l-128 1c-24 0 -41.667 -5.83301 -53 -17.5s-17 -24.5 -17 -38.5c0 -13.333 5 -25.166 15 -35.499s26 -16.166 48 -17.499h151v-168h-432v168h59z" />
    <glyph glyph-name="arabickaffinal" unicode="&#x643;" horiz-adv-x="1364" arabic-form="final" 
d="M480 143c-78.667 0 -144.834 11.667 -198.501 35s-96.834 54 -129.501 92s-56 81 -70 129s-21 96.667 -21 146c0 28 2.16699 56.167 6.5 84.5s10.333 56.166 18 83.499s16.334 53.5 26.001 78.5s19.834 47.833 30.501 68.5l219 -114
c-14 -27.333 -26.333 -59.166 -37 -95.499s-16 -72.5 -16 -108.5c0 -20.667 2.16699 -40.167 6.5 -58.5s12.5 -34.333 24.5 -48s28.5 -24.5 49.5 -32.5s48.167 -12.333 81.5 -13c84 0 165.167 0.166992 243.5 0.5s159.5 0.5 243.5 0.5v966h247v-966h174v-248h-898zM485 975
c-2 8.66699 -3.66699 17.498 -5 26.498s-2 17.833 -2 26.5c0 28 5 55.167 15 81.5s25 50 45 71s44.667 37.833 74 50.5s63.333 19 102 19h128v-167l-128 1c-24 0 -41.667 -5.83301 -53 -17.5s-17 -24.5 -17 -38.5c0 -13.333 5 -25.166 15 -35.499s26 -16.166 48 -17.499h151
v-168h-432v168h59z" />
    <glyph glyph-name="kafinitial" unicode="&#x643;" horiz-adv-x="1250" arabic-form="initial" 
d="M-10 391l943.998 0.00195312v82c0 30.667 -1 54.5 -3 71.5s-6.5 29.5 -13.5 37.5s-17.333 13 -31 15s-32.5 3 -56.5 3c-84.667 0 -168.667 0.333008 -252 1s-167.666 1 -252.999 1c-30.667 0 -57.167 4.83301 -79.5 14.5s-40.833 22.5 -55.5 38.5s-25.667 34.5 -33 55.5
s-11 43.5 -11 67.5c0 21.333 2.83301 43.166 8.5 65.499s13.834 44.833 24.501 67.5c34.667 70 80.167 131.667 136.5 185s119 98.166 188 134.499s141.833 63.666 218.5 81.999s152 27.5 226 27.5h12c5.33301 0 10.666 -0.166992 15.999 -0.5s10.333 -0.5 15 -0.5h11
l-8 -248c-52.667 4.66699 -106.5 3.5 -161.5 -3.5s-107.667 -20.5 -158 -40.5s-96.833 -46.5 -139.5 -79.5s-77.667 -72.833 -105 -119.5h334c81.333 0 149 -2.33301 203 -7s97 -18 129 -40s54.5 -56 67.5 -102s19.5 -110 19.5 -192v-112
c0 -19.333 -0.166992 -39.5 -0.5 -60.5s-0.5 -43.5 -0.5 -67.5c0 -17.333 -3.16699 -33.5 -9.5 -48.5s-15.166 -28.167 -26.499 -39.5s-24.5 -20.166 -39.5 -26.499s-30.833 -9.5 -47.5 -9.5h-1069v248z" />
    <glyph glyph-name="kafmedial" unicode="&#x643;" horiz-adv-x="1329" arabic-form="medial" 
d="M-8 391l945.001 0.00292969v82c0 30.667 -1 54.5 -3 71.5s-6.5 29.5 -13.5 37.5s-17.5 13 -31.5 15s-33 3 -57 3c-84.667 0 -168.667 0.333008 -252 1s-167.333 1 -252 1c-30.667 0 -57.334 4.83301 -80.001 14.5s-41.334 22.5 -56.001 38.5s-25.5 34.5 -32.5 55.5
s-10.5 43.5 -10.5 67.5c0 43.333 11 87.666 33 132.999c34.667 70 80.167 131.667 136.5 185s119 98.166 188 134.499s141.667 63.666 218 81.999s151.5 27.5 225.5 27.5h12c5.33301 0 10.666 -0.166992 15.999 -0.5s10.333 -0.5 15 -0.5h12l-9 -248
c-49.333 7.33301 -100.333 8 -153 2s-104.167 -19 -154.5 -39s-97.666 -47.167 -141.999 -81.5s-82.166 -75.833 -113.499 -124.5h333c81.333 0 149 -2.33301 203 -7s97 -18 129 -40s54.667 -56 68 -102s20 -110 20 -192v-116h160v-248h-1354v248z" />
    <glyph glyph-name="lamisolated" unicode="&#x644;" horiz-adv-x="1027" arabic-form="isolated" 
d="M320 604l0.00488281 -378c0 -28 5.33301 -52.167 16 -72.5s24.667 -37.166 42 -50.499s37.166 -23.333 59.499 -30s45.166 -10 68.499 -10c24 0 47.167 3.33301 69.5 10s42.166 16.667 59.499 30s31.166 30.166 41.499 50.499s15.5 44.5 15.5 72.5v1131h249v-1131
c0 -67.333 -12.5 -126.5 -37.5 -177.5s-57.833 -93.833 -98.5 -128.5s-87.167 -60.834 -139.5 -78.501s-105.5 -26.5 -159.5 -26.5c-54.667 0 -108 8.83301 -160 26.5s-98.333 43.834 -139 78.501s-73.334 77.5 -98.001 128.5s-37 110.167 -37 177.5v378h248z" />
    <glyph glyph-name="lamfinal" unicode="&#x644;" horiz-adv-x="1106" arabic-form="final" 
d="M936 143c-9.33301 -54.667 -27.6621 -102.501 -54.9951 -143.501s-60.5 -75.167 -99.5 -102.5s-82.167 -47.833 -129.5 -61.5s-95.333 -20.5 -144 -20.5c-54.667 0 -108 8.83301 -160 26.5s-98.167 43.834 -138.5 78.501s-72.833 77.5 -97.5 128.5s-37 110.167 -37 177.5
v378h248v-378c0 -28 5.16699 -52.167 15.5 -72.5s24.166 -37.166 41.499 -50.499s37.166 -23.333 59.499 -30s45.166 -10 68.499 -10c24 0 47.167 3.33301 69.5 10s42.166 16.667 59.499 30s31.166 30.166 41.499 50.499s15.5 44.5 15.5 72.5v1131h249v-966h178v-248h-185z
" />
    <glyph glyph-name="laminitial" unicode="&#x644;" horiz-adv-x="516" arabic-form="initial" 
d="M-10 391l187 -0.00195312v966h247v-1079c2 -18 0 -35.167 -6 -51.5s-14.667 -30.666 -26 -42.999s-25 -22.166 -41 -29.499s-33 -11 -51 -11h-310v248z" />
    <glyph glyph-name="lammedial" unicode="&#x644;" horiz-adv-x="605" arabic-form="medial" 
d="M-6 143v248h192v966h247v-966h178v-248h-617z" />
    <glyph glyph-name="meemisolated" unicode="&#x645;" horiz-adv-x="1230" arabic-form="isolated" 
d="M345 609c0.666992 46.667 11.666 94.332 32.999 142.999s50.5 92.5 87.5 131.5s80.333 70.667 130 95s102.5 35.833 158.5 34.5l147.5 -2l147.5 -2c16.667 0 32.5 -3.33301 47.5 -10s28.167 -15.5 39.5 -26.5s20.166 -24 26.499 -39s9.5 -30.833 9.5 -47.5v-619
c0 -17.333 -3.16699 -33.5 -9.5 -48.5s-15.166 -28.167 -26.499 -39.5s-24.5 -20.166 -39.5 -26.499s-30.833 -9.5 -47.5 -9.5h-590c-24 0 -45.5 -1.16699 -64.5 -3.5s-35.333 -7.83301 -49 -16.5s-24.167 -21 -31.5 -37s-11 -37.333 -11 -64v-354h-248v354
c0 54 7.33301 101.667 22 143s34.834 76.5 60.501 105.5s56.167 52.667 91.5 71s74 31.5 116 39.5v228zM593.999 389.998l329.999 0.00292969v373l-103 1.5c-23.333 0.333008 -40.166 0.666016 -50.499 0.999023s-16.166 0.5 -17.499 0.5h-2c-20 0 -39.5 -4.33301 -58.5 -13
s-35.833 -20.334 -50.5 -35.001s-26.334 -31.834 -35.001 -51.501s-13 -40.5 -13 -62.5v-214z" />
    <glyph glyph-name="meemfinal" unicode="&#x645;" horiz-adv-x="1309" arabic-form="final" 
d="M348 609c0 31.333 4.99902 63.333 14.999 96s23.833 64 41.5 94s39 58.333 64 85s52.667 49.667 83 69s62.833 34.333 97.5 45s70.667 15.667 108 15l146.5 -2l147.5 -2c16.667 0 32.5 -3.33301 47.5 -10s28.167 -15.5 39.5 -26.5s20.166 -24 26.499 -39
s9.5 -30.833 9.5 -47.5v-495h147v-248h-860c-24 0 -45.5 -1.16699 -64.5 -3.5s-35.333 -7.83301 -49 -16.5s-24.167 -21 -31.5 -37s-11 -37.333 -11 -64v-354h-248v354c0 54 7.33301 101.667 22 143s34.834 76.5 60.501 105.5s56.334 52.667 92.001 71s74.5 31.5 116.5 39.5
v228zM595.999 390c56.667 0 111.332 0.169922 163.999 0.50293s108 0.5 166 0.5v372l-103 1.5c-23.333 0.333008 -40.166 0.666016 -50.499 0.999023s-16.166 0.5 -17.499 0.5h-2c-20 0 -39.5 -4.33301 -58.5 -13s-35.833 -20.334 -50.5 -35.001
s-26.334 -31.834 -35.001 -51.501s-13 -40.5 -13 -62.5v-214z" />
    <glyph glyph-name="meeminitial" unicode="&#x645;" horiz-adv-x="1057" arabic-form="initial" 
d="M-9 391h164.002v218c0 48 10.667 96.333 32 145s50.5 92.5 87.5 131.5s80.333 70.5 130 94.5s103.167 35 160.5 33l146 -2l148 -2c16.667 0 32.5 -3.33301 47.5 -10s28.167 -15.5 39.5 -26.5s20.166 -24 26.499 -39s9.5 -30.833 9.5 -47.5v-610
c0 -18 -2.83301 -35.167 -8.5 -51.5s-13.834 -30.5 -24.501 -42.5s-23.667 -21.5 -39 -28.5s-32.333 -10.5 -51 -10.5h-868v248zM403.002 391h331.001v372c-34.667 0.666992 -64 1.16699 -88 1.5s-41.667 0.5 -53 0.5c-8 0 -14.167 0.166992 -18.5 0.5s-7.5 0.5 -9.5 0.5h-4
h-2c-19.333 0 -38.5 -4.5 -57.5 -13.5s-35.833 -20.833 -50.5 -35.5s-26.334 -31.167 -35.001 -49.5s-13 -37.5 -13 -57.5v-219z" />
    <glyph glyph-name="meemmedial" unicode="&#x645;" horiz-adv-x="1116" arabic-form="medial" 
d="M-8 143l0.000976562 248h160v218c0 47.333 10.5 95.5 31.5 144.5s50 93 87 132s80.333 70.5 130 94.5s103.167 35 160.5 33l147 -2l148 -2c16.667 0 32.5 -3.33301 47.5 -10s28.167 -15.5 39.5 -26.5s20.166 -24 26.499 -39s9.5 -30.833 9.5 -47.5v-495h147v-248h-1134z
M400.001 391h331.001v372c-34.667 0.666992 -64 1.16699 -88 1.5s-41.667 0.5 -53 0.5c-8 0 -14.167 0.166992 -18.5 0.5s-7.5 0.5 -9.5 0.5h-4h-2c-19.333 0 -38.5 -4.5 -57.5 -13.5s-35.833 -20.833 -50.5 -35.5s-26.334 -31.167 -35.001 -49.5s-13 -37.5 -13 -57.5v-219z
" />
    <glyph glyph-name="noonisolated" unicode="&#x646;" horiz-adv-x="982" arabic-form="isolated" 
d="M305 604l0.00488281 -378c0 -28 5.16699 -52.167 15.5 -72.5s24.166 -37.166 41.499 -50.499s37.166 -23.333 59.499 -30s45.5 -10 69.5 -10s47.167 3.33301 69.5 10s42.166 16.667 59.499 30s31.166 30.166 41.499 50.499s15.5 44.5 15.5 72.5v742h249v-742
c0 -67.333 -12.5 -126.5 -37.5 -177.5s-57.833 -93.833 -98.5 -128.5s-87.167 -60.834 -139.5 -78.501s-105.5 -26.5 -159.5 -26.5c-54.667 0 -108 8.83301 -160 26.5s-98.333 43.834 -139 78.501s-73.334 77.5 -98.001 128.5s-37 110.167 -37 177.5v378h248zM360.005 1173
c0 18.667 3.33301 36 10 52s16 30 28 42s26 21.333 42 28s33 10 51 10c18.667 0 36 -3.33301 52 -10s30 -16 42 -28s21.5 -26 28.5 -42s10.5 -33.333 10.5 -52c0 -18 -3.5 -35 -10.5 -51s-16.5 -30 -28.5 -42s-26 -21.333 -42 -28s-33.333 -10 -52 -10
c-18 0 -35 3.33301 -51 10s-30 16 -42 28s-21.333 26 -28 42s-10 33 -10 51z" />
    <glyph glyph-name="noonfinal" unicode="&#x646;" horiz-adv-x="1066" arabic-form="final" 
d="M920 143c-9.33301 -54.667 -27.4951 -102.501 -54.4951 -143.501s-60 -75.167 -99 -102.5s-82.167 -47.833 -129.5 -61.5s-95.333 -20.5 -144 -20.5c-54.667 0 -108 8.83301 -160 26.5s-98.333 43.834 -139 78.501s-73.334 77.5 -98.001 128.5s-37 110.167 -37 177.5v378
h248v-378c0 -28 5.16699 -52.167 15.5 -72.5s24.166 -37.166 41.499 -50.499s37.166 -23.333 59.499 -30s45.5 -10 69.5 -10s47.167 3.33301 69.5 10s42.166 16.667 59.499 30s31.166 30.166 41.499 50.499s15.5 44.5 15.5 72.5v742h249v-577h148v-248h-156zM365.005 1168
c0 18.667 3.33301 36 10 52s16 30 28 42s26 21.333 42 28s33 10 51 10c18.667 0 36 -3.33301 52 -10s30 -16 42 -28s21.5 -26 28.5 -42s10.5 -33.333 10.5 -52c0 -18 -3.5 -35 -10.5 -51s-16.5 -30 -28.5 -42s-26 -21.333 -42 -28s-33.333 -10 -52 -10
c-18 0 -35 3.33301 -51 10s-30 16 -42 28s-21.333 26 -28 42s-10 33 -10 51z" />
    <glyph glyph-name="nooninitial" unicode="&#x646;" horiz-adv-x="595" arabic-form="initial" 
d="M-8 391l274 -0.000976562v590h247v-703c0.666992 -2 1 -4 1 -6v-5c0 -17.333 -3.33301 -33.5 -10 -48.5s-15.667 -28.167 -27 -39.5s-24.5 -20.166 -39.5 -26.499s-31.167 -9.5 -48.5 -9.5h-397v248zM184 1252c0 18.667 3.33301 36 10 52s16 30 28 42s26 21.333 42 28
s33 10 51 10c18.667 0 36 -3.33301 52 -10s30 -16 42 -28s21.5 -26 28.5 -42s10.5 -33.333 10.5 -52c0 -18 -3.5 -35 -10.5 -51s-16.5 -30 -28.5 -42s-26 -21.333 -42 -28s-33.333 -10 -52 -10c-18 0 -35 3.33301 -51 10s-30 16 -42 28s-21.333 26 -28 42s-10 33 -10 51z
" />
    <glyph glyph-name="noonmedial" unicode="&#x646;" horiz-adv-x="605" arabic-form="medial" 
d="M190 391v590h247v-586h178v-249l-621 -3v248h196zM184 1252c0 18.667 3.33301 36 10 52s16 30 28 42s26 21.333 42 28s33 10 51 10c18.667 0 36 -3.33301 52 -10s30 -16 42 -28s21.5 -26 28.5 -42s10.5 -33.333 10.5 -52c0 -18 -3.5 -35 -10.5 -51s-16.5 -30 -28.5 -42
s-26 -21.333 -42 -28s-33.333 -10 -52 -10c-18 0 -35 3.33301 -51 10s-30 16 -42 28s-21.333 26 -28 42s-10 33 -10 51z" />
    <glyph glyph-name="hehisolated" unicode="&#x647;" horiz-adv-x="962" arabic-form="isolated" 
d="M735 1013c20.667 0 40.168 -3.83398 58.501 -11.501s34.5 -18.334 48.5 -32.001s25 -29.834 33 -48.501s12 -39 12 -61l1 -567c0 -30 -9.5 -56.333 -28.5 -79s-42.833 -37 -71.5 -43c-49.333 -13.333 -100.333 -23.333 -153 -30s-105.667 -10 -159 -10
c-22.667 0 -48.167 0.333008 -76.5 1s-57 2.33398 -86 5.00098s-57.5 7.33398 -85.5 14.001s-53.5 16 -76.5 28s-42.167 27.333 -57.5 46s-25 41.334 -29 68.001v308c0 56.667 10.667 110 32 160s50.666 93.667 87.999 131s80.833 66.833 130.5 88.5
s103.167 32.5 160.5 32.5h259zM476.001 378.999c54 0 108.332 4.66699 162.999 14v372c-26.667 0 -53.667 0.166992 -81 0.5s-54.666 0.5 -81.999 0.5c-22 0 -43 -4.5 -63 -13.5s-37.5 -21 -52.5 -36s-26.667 -32.5 -35 -52.5s-12.5 -41 -12.5 -63l1 -209
c30.667 -6.66699 57.167 -10.5 79.5 -11.5s46.5 -1.5 72.5 -1.5h10z" />
    <glyph glyph-name="hehfinal" unicode="&#x647;" horiz-adv-x="1032" arabic-form="final" 
d="M1042 143l-290 0.000976562c-19.333 0 -36.666 3.5 -51.999 10.5s-28.333 16.5 -39 28.5s-18.834 26 -24.501 42s-8.5 33 -8.5 51l-2 490c-28 0 -55.5 0.166992 -82.5 0.5s-54.5 0.5 -82.5 0.5c-22 0 -42.833 -4.5 -62.5 -13.5s-37 -21 -52 -36
s-26.833 -32.5 -35.5 -52.5s-13 -41 -13 -63l1 -208c12 -2 27.833 -4.33301 47.5 -7s40 -5 61 -7s41.333 -3.66699 61 -5s35.5 -2 47.5 -2v-248c-25.333 0 -54.666 1.33301 -87.999 4s-67 6.16699 -101 10.5s-66.833 9.33301 -98.5 15s-58.834 11.834 -81.501 18.501l2 -1
c-28 6 -51.333 20.333 -70 43s-28 49 -28 79v308c0 56.667 10.667 110 32 160s50.5 93.667 87.5 131s80.5 66.833 130.5 88.5s103.333 32.5 160 32.5h259c20 0 39.167 -3.83301 57.5 -11.5s34.5 -18.334 48.5 -32.001s25.167 -29.334 33.5 -47.001s12.5 -36.5 12.5 -56.5
l3 -475h167v-248z" />
    <glyph glyph-name="hehinitial" unicode="&#x647;" horiz-adv-x="1389" arabic-form="initial" 
d="M-13 143l0.00195312 247.998h153c-2.66699 18.667 -4.16699 38.834 -4.5 60.501s-0.5 40.834 -0.5 57.501c0 60 10.167 117.667 30.5 173s47.833 105 82.5 149s74.667 80.833 120 110.5s93 49.167 143 58.5c20.667 3.33301 43.167 5.83301 67.5 7.5s50.5 2.5 78.5 2.5
c45.333 0 92.666 -3.5 141.999 -10.5s98.166 -19.833 146.499 -38.5s94.5 -44.167 138.5 -76.5s83 -74 117 -125s61.667 -112 83 -183s33.333 -154.833 36 -251.5l1 -179zM641.002 640.998c0 30.667 -6.00195 56.168 -18.002 76.501s-26.667 32.833 -44 37.5
c-21.333 2 -42.166 -2 -62.499 -12s-39.166 -24.333 -56.499 -43s-32.333 -40.667 -45 -66s-22.334 -52 -29.001 -80v1c-0.666992 -6 -1.16699 -12.167 -1.5 -18.5s-0.5 -12.166 -0.5 -17.499c0 -14.667 1.5 -29.167 4.5 -43.5s7.83301 -27.5 14.5 -39.5
s15.5 -21.667 26.5 -29s24.5 -11.333 40.5 -12c20.667 3.33301 41.334 12.666 62.001 27.999s39 34.166 55 56.499s29 47.5 39 75.5s15 56.667 15 86zM1071 392.999c-3.33301 46 -10.5 86.3301 -21.5 120.997s-24.833 64.667 -41.5 90s-35.5 46.5 -56.5 63.5
s-43.5 31.167 -67.5 42.5c1.33301 -11.333 2.5 -22.666 3.5 -33.999s1.5 -22.666 1.5 -33.999c0 -44 -5.16699 -87.167 -15.5 -129.5s-25.833 -82.166 -46.5 -119.499h244z" />
    <glyph glyph-name="hehmedial" unicode="&#x647;" horiz-adv-x="1463" arabic-form="medial" 
d="M-11 143l0.000976562 248.001h165c-5.33301 19.333 -9.5 39.333 -12.5 60s-4.5 40 -4.5 58c0 60 10.167 117.667 30.5 173s47.833 105 82.5 149s74.667 80.833 120 110.5s93 49.167 143 58.5c20.667 3.33301 43.167 5.83301 67.5 7.5s50.166 2.5 77.499 2.5
c43.333 0 88.833 -3.16699 136.5 -9.5s94.834 -18 141.501 -35s91.5 -40.333 134.5 -70s81.833 -67.334 116.5 -113.001s63.667 -100.667 87 -165s38.666 -139.833 45.999 -226.5h153v-248h-1484zM569.001 757.001c-19.333 0 -38.501 -5.66504 -57.501 -16.998
s-36.5 -26.333 -52.5 -45s-30 -40.167 -42 -64.5s-21.333 -49.833 -28 -76.5c-3.33301 -16.667 -5 -31 -5 -43c0 -14.667 1.66699 -28.667 5 -42s8.5 -25.333 15.5 -36s16 -19.5 27 -26.5s24.5 -10.833 40.5 -11.5c20.667 3.33301 41.334 12.666 62.001 27.999
s39 34.166 55 56.499s29 47.5 39 75.5s15 56.667 15 86c0 32 -5.66699 58.333 -17 79s-26.333 32.667 -45 36zM1073 392.003c-3.33301 46 -10.499 86.5 -21.499 121.5s-24.833 65.167 -41.5 90.5s-35.5 46.5 -56.5 63.5s-43.5 31.167 -67.5 42.5c4 -22 6 -44.667 6 -68
c0 -44 -5.33301 -87.5 -16 -130.5s-26.334 -82.833 -47.001 -119.5h244z" />
    <glyph glyph-name="wawisolated" unicode="&#x648;" horiz-adv-x="982" arabic-form="isolated" 
d="M731 1013c21.333 0 41.1709 -3.99805 59.5039 -11.998s34.333 -18.833 48 -32.5s24.5 -29.834 32.5 -48.501s12 -38.667 12 -60c-0.666992 -16 -0.833984 -37.5 -0.500977 -64.5s0.5 -56.833 0.5 -89.5c0 -32 0.166992 -65.333 0.5 -100s0.333008 -67 0 -97
s-1 -56.333 -2 -79s-2.16699 -38.667 -3.5 -48c-4.66699 -140 -21.5 -256.167 -50.5 -348.5s-69.167 -165.833 -120.5 -220.5s-113 -93.167 -185 -115.5s-153 -33.5 -243 -33.5v248c99.333 0 176.166 19 230.499 57s87.833 96.333 100.5 175
c-32.667 -4.66699 -69.334 -8.83398 -110.001 -12.501s-81.834 -3 -123.501 2s-82.167 15.833 -121.5 32.5s-74 42.667 -104 78s-53.333 82 -70 140s-23 130.333 -19 217c0 56.667 10.667 110 32 160s50.5 93.667 87.5 131s80.5 66.833 130.5 88.5s103.333 32.5 160 32.5
h259zM638.005 765.002c-28 0 -55.665 0.167969 -82.998 0.500977s-55 0.5 -83 0.5c-22 0 -42.833 -4.5 -62.5 -13.5s-37 -21 -52 -36s-26.833 -32.5 -35.5 -52.5s-13 -41 -13 -63c-2.66699 -47.333 -1.83398 -86.5 2.49902 -117.5s13.166 -55.667 26.499 -74
s31.333 -31.5 54 -39.5s50.667 -13 84 -15c36 0.666992 65 2.66699 87 6s38.833 10.166 50.5 20.499s19.5 25.333 23.5 45s6 46.167 6 79.5z" />
    <glyph glyph-name="wawfinal" unicode="&#x648;" horiz-adv-x="1037" arabic-form="final" 
d="M859 143c-15.333 -66 -37.3281 -128.166 -65.9951 -186.499s-66 -109.166 -112 -152.499s-102 -77.5 -168 -102.5s-144 -37.5 -234 -37.5v248c99.333 0 176.166 19 230.499 57s87.833 96.333 100.5 175c-32.667 -4.66699 -69.334 -8.83398 -110.001 -12.501
s-81.834 -3 -123.501 2s-82.167 15.833 -121.5 32.5s-74 42.667 -104 78s-53.333 82 -70 140s-23 130.333 -19 217c0 56.667 10.667 110 32 160s50.5 93.667 87.5 131s80.5 66.833 130.5 88.5s103.333 32.5 160 32.5h259c21.333 0 41.166 -4 59.499 -12
s34.333 -18.833 48 -32.5s24.5 -29.834 32.5 -48.501s12 -38.667 12 -60c0 -24 0.333008 -49 1 -75s1.66699 -53.667 3 -83c1.33301 -32 2.66602 -66 3.99902 -102s2 -71.333 2 -106c0 -17.333 -0.166992 -34.5 -0.5 -51.5s-0.833008 -34.167 -1.5 -51.5h154v-248h-186z
M638.005 765.001c-28 0 -55.665 0.167969 -82.998 0.500977s-55 0.5 -83 0.5c-22 0 -42.833 -4.5 -62.5 -13.5s-37 -21 -52 -36s-26.833 -32.5 -35.5 -52.5s-13 -41 -13 -63c-2.66699 -47.333 -1.83398 -86.5 2.49902 -117.5s13.166 -55.667 26.499 -74
s31.333 -31.5 54 -39.5s50.667 -13 84 -15c36 0.666992 65 2.66699 87 6s38.833 10.166 50.5 20.499s19.5 25.333 23.5 45s6 46.167 6 79.5z" />
    <glyph glyph-name="alefmaksuraisolated" unicode="&#x649;" horiz-adv-x="1148" arabic-form="isolated" 
d="M342 417c-13.333 -16.667 -24.3301 -35.3359 -32.9971 -56.0029s-14.334 -41.5 -17.001 -62.5s-1.66699 -41.5 3 -61.5s13.667 -37.5 27 -52.5s31.5 -26.667 54.5 -35s51.5 -11.833 85.5 -10.5h286c34 0 57 7.66699 69 23s18 33.333 18 54
c0 19.333 -3.5 35.833 -10.5 49.5s-17 25.5 -30 35.5s-28.833 18.833 -47.5 26.5s-39.334 15.5 -62.001 23.5c-37.333 12.667 -73.833 26.334 -109.5 41.001s-67.334 34 -95.001 58s-50 54.667 -67 92s-25.5 85 -25.5 143c0 66.667 11.833 123.667 35.5 171
s54.834 86.166 93.501 116.499s82.5 52.5 131.5 66.5s98.5 21 148.5 21s100.167 -6.83301 150.5 -20.5s95.833 -31.5 136.5 -53.5l-120 -217c-25.333 13.333 -52.833 24 -82.5 32s-58.5 12 -86.5 12c-21.333 0 -41.666 -2.16699 -60.999 -6.5s-36.333 -11.5 -51 -21.5
s-26.334 -23.5 -35.001 -40.5s-13 -38.5 -13 -64.5c0 -12.667 3.66699 -23.667 11 -33s17 -17.5 29 -24.5s25.5 -13.333 40.5 -19s30.5 -11.167 46.5 -16.5l72 -25c24 -8.66699 47.167 -19.167 69.5 -31.5s43.5 -27.166 63.5 -44.499s38.333 -38.333 55 -63
c19.333 -30 34.333 -62.833 45 -98.5s16 -71.5 16 -107.5c0 -40 -6.66699 -79.5 -20 -118.5s-34 -74 -62 -105s-63.333 -56 -106 -75s-93 -28.5 -151 -28.5l-282 2c-78 0 -143.833 11.667 -197.5 35s-96.834 53.833 -129.501 91.5s-56.167 80.5 -70.5 128.5
s-21.5 97 -21.5 147c0 28 2.16699 52.167 6.5 72.5s10.166 39.333 17.499 57s15.833 34.834 25.5 51.501s19.834 35.334 30.501 56.001z" />
    <glyph glyph-name="alefmaksurafinal" unicode="&#x649;" horiz-adv-x="1493" arabic-form="final" 
d="M341 746c-14 -26.667 -26.1729 -58.3311 -36.5059 -94.998s-15.5 -72.667 -15.5 -108c0.666992 -20.667 3.16699 -40.334 7.5 -59.001s12.5 -35 24.5 -49s29.167 -25 51.5 -33s51.5 -12 87.5 -12l238 1v261c0 57.333 8 108.5 24 153.5s39.5 82.833 70.5 113.5
s68.833 54 113.5 70s96 24 154 24l178 -4c17.333 0 33.333 -3.5 48 -10.5s27.5 -16.333 38.5 -28s19.667 -25.167 26 -40.5s9.5 -31.333 9.5 -48v-491h148v-248h-272c-17.333 0 -33.333 3.16699 -48 9.5s-27.667 15.166 -39 26.499s-20.166 24.5 -26.499 39.5
s-9.5 31.167 -9.5 48.5v497c-9.33301 0.666992 -18.833 1.16699 -28.5 1.5s-19.167 0.5 -28.5 0.5c-21.333 0 -39.166 -2 -53.499 -6s-25.666 -10.5 -33.999 -19.5s-14.333 -20.667 -18 -35s-5.5 -32.166 -5.5 -53.499l1 -376c0 -18 -2.83301 -35.167 -8.5 -51.5
s-13.834 -30.5 -24.501 -42.5s-23.667 -21.5 -39 -28.5s-32.666 -10.5 -51.999 -10.5h-362c-77.333 0 -142.666 11.5 -195.999 34.5s-96.5 53.333 -129.5 91s-56.833 80.667 -71.5 129s-22 97.5 -22 147.5c0 28 2.16699 56.167 6.5 84.5s10.333 56.166 18 83.499
s16.334 53.5 26.001 78.5s19.834 47.833 30.501 68.5z" />
    <glyph glyph-name="yehisolated" unicode="&#x64a;" horiz-adv-x="1148" arabic-form="isolated" 
d="M342 417c-13.333 -16.667 -24.3301 -35.3359 -32.9971 -56.0029s-14.334 -41.5 -17.001 -62.5s-1.66699 -41.5 3 -61.5s13.667 -37.5 27 -52.5s31.5 -26.667 54.5 -35s51.5 -11.833 85.5 -10.5h286c34 0 57 7.66699 69 23s18 33.333 18 54
c0 19.333 -3.5 35.833 -10.5 49.5s-17 25.5 -30 35.5s-28.833 18.833 -47.5 26.5s-39.334 15.5 -62.001 23.5c-37.333 12.667 -73.833 26.334 -109.5 41.001s-67.334 34 -95.001 58s-50 54.667 -67 92s-25.5 85 -25.5 143c0 66.667 11.833 123.667 35.5 171
s54.834 86.166 93.501 116.499s82.5 52.5 131.5 66.5s98.5 21 148.5 21s100.167 -6.83301 150.5 -20.5s95.833 -31.5 136.5 -53.5l-120 -217c-25.333 13.333 -52.833 24 -82.5 32s-58.5 12 -86.5 12c-21.333 0 -41.666 -2.16699 -60.999 -6.5s-36.333 -11.5 -51 -21.5
s-26.334 -23.5 -35.001 -40.5s-13 -38.5 -13 -64.5c0 -12.667 3.66699 -23.667 11 -33s17 -17.5 29 -24.5s25.5 -13.333 40.5 -19s30.5 -11.167 46.5 -16.5l72 -25c24 -8.66699 47.167 -19.167 69.5 -31.5s43.5 -27.166 63.5 -44.499s38.333 -38.333 55 -63
c19.333 -30 34.333 -62.833 45 -98.5s16 -71.5 16 -107.5c0 -40 -6.66699 -79.5 -20 -118.5s-34 -74 -62 -105s-63.333 -56 -106 -75s-93 -28.5 -151 -28.5l-282 2c-78 0 -143.833 11.667 -197.5 35s-96.834 53.833 -129.501 91.5s-56.167 80.5 -70.5 128.5
s-21.5 97 -21.5 147c0 28 2.16699 52.167 6.5 72.5s10.166 39.333 17.499 57s15.833 34.834 25.5 51.501s19.834 35.334 30.501 56.001zM320.003 -350.002c0 18.667 3.33301 36 10 52s16 30 28 42s26 21.333 42 28s33 10 51 10c18.667 0 36 -3.33301 52 -10s30 -16 42 -28
s21.5 -26 28.5 -42s10.5 -33.333 10.5 -52c0 -18 -3.5 -35 -10.5 -51s-16.5 -30 -28.5 -42s-26 -21.5 -42 -28.5s-33.333 -10.5 -52 -10.5c-18 0 -35 3.5 -51 10.5s-30 16.5 -42 28.5s-21.333 26 -28 42s-10 33 -10 51zM618.003 -350.002c0 18.667 3.33301 36 10 52
s16 30 28 42s26 21.333 42 28s33 10 51 10c18.667 0 36 -3.33301 52 -10s30 -16 42 -28s21.5 -26 28.5 -42s10.5 -33.333 10.5 -52c0 -18 -3.5 -35 -10.5 -51s-16.5 -30 -28.5 -42s-26 -21.5 -42 -28.5s-33.333 -10.5 -52 -10.5c-18 0 -35 3.5 -51 10.5s-30 16.5 -42 28.5
s-21.333 26 -28 42s-10 33 -10 51z" />
    <glyph glyph-name="yehfinal" unicode="&#x64a;" horiz-adv-x="1493" arabic-form="final" 
d="M341 746c-14 -26.667 -26.1729 -58.3311 -36.5059 -94.998s-15.5 -72.667 -15.5 -108c0.666992 -20.667 3.16699 -40.334 7.5 -59.001s12.5 -35 24.5 -49s29.167 -25 51.5 -33s51.5 -12 87.5 -12l238 1v261c0 57.333 8 108.5 24 153.5s39.5 82.833 70.5 113.5
s68.833 54 113.5 70s96 24 154 24l178 -4c17.333 0 33.333 -3.5 48 -10.5s27.5 -16.333 38.5 -28s19.667 -25.167 26 -40.5s9.5 -31.333 9.5 -48v-491h148v-248h-272c-17.333 0 -33.333 3.16699 -48 9.5s-27.667 15.166 -39 26.499s-20.166 24.5 -26.499 39.5
s-9.5 31.167 -9.5 48.5v497c-9.33301 0.666992 -18.833 1.16699 -28.5 1.5s-19.167 0.5 -28.5 0.5c-21.333 0 -39.166 -2 -53.499 -6s-25.666 -10.5 -33.999 -19.5s-14.333 -20.667 -18 -35s-5.5 -32.166 -5.5 -53.499l1 -376c0 -18 -2.83301 -35.167 -8.5 -51.5
s-13.834 -30.5 -24.501 -42.5s-23.667 -21.5 -39 -28.5s-32.666 -10.5 -51.999 -10.5h-362c-77.333 0 -142.666 11.5 -195.999 34.5s-96.5 53.333 -129.5 91s-56.833 80.667 -71.5 129s-22 97.5 -22 147.5c0 28 2.16699 56.167 6.5 84.5s10.333 56.166 18 83.499
s16.334 53.5 26.001 78.5s19.834 47.833 30.501 68.5zM567.994 -123.997c0 18.667 3.33301 36 10 52s16 30 28 42s26 21.333 42 28s33 10 51 10c18.667 0 36 -3.33301 52 -10s30 -16 42 -28s21.5 -26 28.5 -42s10.5 -33.333 10.5 -52c0 -18 -3.5 -35 -10.5 -51
s-16.5 -30 -28.5 -42s-26 -21.5 -42 -28.5s-33.333 -10.5 -52 -10.5c-18 0 -35 3.5 -51 10.5s-30 16.5 -42 28.5s-21.333 26 -28 42s-10 33 -10 51zM269.994 -123.997c0 18.667 3.33301 36 10 52s16 30 28 42s26 21.333 42 28s33 10 51 10c18.667 0 36 -3.33301 52 -10
s30 -16 42 -28s21.5 -26 28.5 -42s10.5 -33.333 10.5 -52c0 -18 -3.5 -35 -10.5 -51s-16.5 -30 -28.5 -42s-26 -21.5 -42 -28.5s-33.333 -10.5 -52 -10.5c-18 0 -35 3.5 -51 10.5s-30 16.5 -42 28.5s-21.333 26 -28 42s-10 33 -10 51z" />
    <glyph glyph-name="yehinitial" unicode="&#x64a;" horiz-adv-x="704" arabic-form="initial" 
d="M-10 391l384.999 -0.000976562v590h247v-703c0.666992 -2 1 -4 1 -6v-5c0 -17.333 -3.16699 -33.5 -9.5 -48.5s-15.166 -28.167 -26.499 -39.5s-24.5 -20.166 -39.5 -26.499s-31.167 -9.5 -48.5 -9.5h-509v248zM313.999 -124.001c0 18.667 3.33301 36 10 52s16 30 28 42
s26 21.333 42 28s33 10 51 10c18.667 0 36 -3.33301 52 -10s30 -16 42 -28s21.5 -26 28.5 -42s10.5 -33.333 10.5 -52c0 -18 -3.5 -35 -10.5 -51s-16.5 -30 -28.5 -42s-26 -21.5 -42 -28.5s-33.333 -10.5 -52 -10.5c-18 0 -35 3.5 -51 10.5s-30 16.5 -42 28.5
s-21.333 26 -28 42s-10 33 -10 51zM15.999 -124.001c0 18.667 3.33301 36 10 52s16 30 28 42s26 21.333 42 28s33 10 51 10c18.667 0 36 -3.33301 52 -10s30 -16 42 -28s21.5 -26 28.5 -42s10.5 -33.333 10.5 -52c0 -18 -3.5 -35 -10.5 -51s-16.5 -30 -28.5 -42
s-26 -21.5 -42 -28.5s-33.333 -10.5 -52 -10.5c-18 0 -35 3.5 -51 10.5s-30 16.5 -42 28.5s-21.333 26 -28 42s-10 33 -10 51z" />
    <glyph glyph-name="yehmedial" unicode="&#x64a;" horiz-adv-x="580" arabic-form="medial" 
d="M175 391v590h247v-590h178v-248h-621v248h196zM305 -124c0 18.667 3.33301 36 10 52s16 30 28 42s26 21.333 42 28s33 10 51 10c18.667 0 36 -3.33301 52 -10s30 -16 42 -28s21.5 -26 28.5 -42s10.5 -33.333 10.5 -52c0 -18 -3.5 -35 -10.5 -51s-16.5 -30 -28.5 -42
s-26 -21.5 -42 -28.5s-33.333 -10.5 -52 -10.5c-18 0 -35 3.5 -51 10.5s-30 16.5 -42 28.5s-21.333 26 -28 42s-10 33 -10 51zM7 -124c0 18.667 3.33301 36 10 52s16 30 28 42s26 21.333 42 28s33 10 51 10c18.667 0 36 -3.33301 52 -10s30 -16 42 -28s21.5 -26 28.5 -42
s10.5 -33.333 10.5 -52c0 -18 -3.5 -35 -10.5 -51s-16.5 -30 -28.5 -42s-26 -21.5 -42 -28.5s-33.333 -10.5 -52 -10.5c-18 0 -35 3.5 -51 10.5s-30 16.5 -42 28.5s-21.333 26 -28 42s-10 33 -10 51z" />
    <glyph glyph-name="space" unicode=" " horiz-adv-x="435" 
 />
    <glyph glyph-name="exclam" unicode="!" horiz-adv-x="637" 
d="M167 1247c0 12.667 2.5 24.834 7.5 36.501s11.667 21.667 20 30s18.166 15 29.499 20s23.666 7.5 36.999 7.5h125c12.667 0 24.834 -2.5 36.501 -7.5s21.667 -11.667 30 -20s15 -18.333 20 -30s7.5 -23.834 7.5 -36.501l-44 -622c0 -13.333 -2.5 -25.666 -7.5 -36.999
s-11.667 -21.166 -20 -29.499s-18.333 -15 -30 -20s-23.834 -7.5 -36.501 -7.5h-37c-13.333 0 -25.666 2.5 -36.999 7.5s-21.166 11.667 -29.499 20s-15 18.166 -20 29.499s-7.5 23.666 -7.5 36.999zM481 296c0 -22 -4 -42.5 -12 -61.5s-19 -35.5 -33 -49.5
s-30.5 -25.167 -49.5 -33.5s-39.5 -12.5 -61.5 -12.5s-42.5 4.16699 -61.5 12.5s-35.5 19.5 -49.5 33.5s-25 30.5 -33 49.5s-12 39.5 -12 61.5c0 21.333 4 41.5 12 60.5s19 35.5 33 49.5s30.5 25.167 49.5 33.5s39.5 12.5 61.5 12.5s42.5 -4.16699 61.5 -12.5
s35.5 -19.5 49.5 -33.5s25 -30.5 33 -49.5s12 -39.167 12 -60.5z" />
    <glyph glyph-name="quotedbl" unicode="&#x22;" horiz-adv-x="620" 
d="M501 1541l11.0029 -384.002c0 -12.667 -3.5 -23.667 -10.5 -33s-16 -17 -27 -23s-23.333 -10.5 -37 -13.5s-26.834 -4.5 -39.501 -4.5l-68 363c0 12.667 2.5 24.834 7.5 36.501s11.667 21.834 20 30.501s18.166 15.5 29.499 20.5s23.666 7.5 36.999 7.5h77zM251.003 1541
l11.0029 -384.002c0 -12.667 -3.5 -23.667 -10.5 -33s-16 -17 -27 -23s-23.333 -10.5 -37 -13.5s-26.834 -4.5 -39.501 -4.5l-68 363c0 12.667 2.5 24.834 7.5 36.501s11.667 21.834 20 30.501s18.166 15.5 29.499 20.5s23.666 7.5 36.999 7.5h77z" />
    <glyph glyph-name="numbersign" unicode="#" 
d="M497 1393l-50 -348h173l50 348h170l-50 -348h168l-23 -163h-169l-31 -218h170l-23 -163h-169l-51 -353h-170l51 353h-173l-51 -353h-169l50 353h-168l23 163h168l31 218h-169l23 163h170l49 348h170zM424 882l-32 -218h174l31 218h-173z" />
    <glyph glyph-name="dollar" unicode="$" 
d="M528 1535l0.00195312 -123.004c115.333 -5.33301 205.666 -36.666 270.999 -93.999c72 -64 108 -154.667 108 -272h-228c0 65.333 -14.333 112.333 -43 141c-22.667 22.667 -58.667 36 -108 40v-337l22 -7c139.333 -40 238 -89 296 -147s87 -137.333 87 -238
c0 -117.333 -40 -210.333 -120 -279c-72 -63.333 -167 -97.666 -285 -102.999v-173h-81v172c-126 8 -223.167 43.833 -291.5 107.5s-102.5 155.834 -102.5 276.501l1 31h242c-3.33301 -76 11 -132.333 43 -169c26 -27.333 62 -44.666 108 -51.999v373
c-126 40 -217.667 85.667 -275 137c-61.333 56 -92 130.667 -92 224c0 113.333 37 203.333 111 270c65.333 58 150.666 90.333 255.999 97v125h81zM528.002 307.996c46 4.66699 83.333 20.001 112 46.001c35.333 30.667 53 73 53 127c0 46 -15.667 84 -47 114
c-24.667 23.333 -64 43.666 -118 60.999v-348zM447.002 1225c-37.333 -5.33301 -67.667 -18.001 -91 -38.001c-33.333 -28 -50 -67 -50 -117c0 -41.333 19 -76.666 57 -105.999c20.667 -16 48.667 -31.333 84 -46v307z" />
    <glyph glyph-name="percent" unicode="%" horiz-adv-x="829" 
d="M719 1446l-419 -1391l-238 -127l418 1391zM640 361c18.667 0 36.334 -3.66699 53.001 -11s31.167 -17.166 43.5 -29.499s22.166 -27 29.499 -44s11 -34.833 11 -53.5s-3.66699 -36.334 -11 -53.001s-17.166 -31.167 -29.499 -43.5s-26.833 -22 -43.5 -29
s-34.334 -10.5 -53.001 -10.5s-36.167 3.5 -52.5 10.5s-30.666 16.667 -42.999 29s-22 26.833 -29 43.5s-10.5 34.334 -10.5 53.001s3.5 36.5 10.5 53.5s16.667 31.667 29 44s26.666 22.166 42.999 29.499s33.833 11 52.5 11zM147 1265c18.667 0 36.334 -3.5 53.001 -10.5
s31.167 -16.667 43.5 -29s22 -26.833 29 -43.5s10.5 -34.334 10.5 -53.001s-3.5 -36.334 -10.5 -53.001s-16.667 -31.167 -29 -43.5s-26.833 -22.166 -43.5 -29.499s-34.334 -11 -53.001 -11s-36.334 3.66699 -53.001 11s-31.167 17.166 -43.5 29.499
s-22.166 26.833 -29.499 43.5s-11 34.334 -11 53.001s3.66699 36.334 11 53.001s17.166 31.167 29.499 43.5s26.833 22 43.5 29s34.334 10.5 53.001 10.5z" />
    <glyph glyph-name="ampersand" unicode="&#x26;" horiz-adv-x="1287" 
d="M258 1119c0 94.667 30.002 169.833 90.002 225.5s141.667 83.5 245 83.5c95.333 0 171 -27.167 227 -81.5s84 -127.5 84 -219.5c0 -68.667 -23.667 -130.334 -71 -185.001c-32.667 -39.333 -80 -78 -142 -116l189 -230l17 34c28.667 61.333 46 122.333 52 183h220
c-8 -85.333 -33 -172.333 -75 -261c-22 -46 -46.333 -88.333 -73 -127l228 -275h-295l-87 104c-48.667 -42 -93.334 -72.667 -134.001 -92c-59.333 -27.333 -136.333 -41 -231 -41c-124 0 -222.5 32.333 -295.5 97s-109.5 152.334 -109.5 263.001c0 94 28 173.667 84 239
c39.333 46.667 101.666 95.667 186.999 147l-7 8c-32 38 -57.167 79 -75.5 123s-27.5 84.333 -27.5 121zM537.002 325.999c40 0 79.001 11 117.001 33c24 14 50.333 33.333 79 58l-78 94l-160 198c-32 -22.667 -59 -45 -81 -67c-44.667 -45.333 -67 -94.333 -67 -147
c0 -53.333 17 -95 51 -125c33.333 -29.333 79.666 -44 138.999 -44zM485.003 1138c0 -18 3.5 -36.6689 10.5 -56.002s17.167 -36.666 30.5 -51.999l51 -63c23.333 16.667 44 33.667 62 51c36.667 37.333 55 74 55 110c0 34.667 -9.16699 61.834 -27.5 81.501
s-43.833 29.5 -76.5 29.5c-33.333 0 -59.333 -9 -78 -27c-18 -17.333 -27 -42 -27 -74z" />
    <glyph glyph-name="quotesingle" unicode="'" horiz-adv-x="390" 
d="M251 1541l11.0029 -384.002c0 -12.667 -3.5 -23.667 -10.5 -33s-16 -17 -27 -23s-23.333 -10.5 -37 -13.5s-26.834 -4.5 -39.501 -4.5l-68 363c0 12.667 2.5 24.834 7.5 36.501s11.667 21.834 20 30.501s18.166 15.5 29.499 20.5s23.666 7.5 36.999 7.5h77z" />
    <glyph glyph-name="parenleft" unicode="(" horiz-adv-x="612" 
d="M64 577c0 144 26.501 283.999 79.501 419.999s138.5 285.667 256.5 449h178c-88 -141.333 -151.167 -280 -189.5 -416s-57.5 -287 -57.5 -453c0.666992 -166 20.167 -317 58.5 -453s101.166 -274.333 188.499 -415h-178c-118 162.667 -203.333 312.334 -256 449.001
c-53.333 135.333 -80 275 -80 419z" />
    <glyph glyph-name="parenright" unicode=")" horiz-adv-x="612" 
d="M548 577c0 -144 -26.333 -284 -79 -420s-138.667 -285.333 -258 -448h-176c87.333 141.333 150.333 280 189 416s57.667 286.667 57 452c-0.666992 166 -20.167 317.167 -58.5 453.5s-100.833 274.833 -187.5 415.5h176c119.333 -163.333 205 -313 257 -449
c53.333 -136 80 -276 80 -420z" />
    <glyph glyph-name="asterisk" unicode="*" horiz-adv-x="891" 
d="M444 976l-152 -219l-121 81l171 213l-247 68l44 138l239 -82v257h134v-257l236 82l48 -138l-251 -68l173 -211l-119 -88z" />
    <glyph glyph-name="plus" unicode="+" horiz-adv-x="1041" 
d="M418 499h-347v205h347v346h205v-346h346v-205h-346v-346h-205v346z" />
    <glyph glyph-name="comma" unicode="," horiz-adv-x="495" 
d="M114 150l-0.000976562 259h267v-223c0 -92.667 -21.667 -166.334 -65 -221.001s-110.666 -93 -201.999 -115v96c60 20 100.333 49.333 121 88c15.333 26.667 24.333 65.334 27 116.001h-148z" />
    <glyph glyph-name="hyphenminus" unicode="-" horiz-adv-x="593" 
d="M48 767h497v-235h-497v235z" />
    <glyph glyph-name="period" unicode="." horiz-adv-x="497" 
d="M254 398c18.667 0 36.334 -3.5 53.001 -10.5s31.167 -16.833 43.5 -29.5s22.166 -27.334 29.499 -44.001s11 -34.334 11 -53.001s-3.66699 -36.167 -11 -52.5s-17.166 -30.666 -29.499 -42.999s-26.833 -22 -43.5 -29s-34.334 -10.5 -53.001 -10.5
s-36.334 3.5 -53.001 10.5s-31.167 16.667 -43.5 29s-22 26.666 -29 42.999s-10.5 33.833 -10.5 52.5s3.5 36.334 10.5 53.001s16.667 31.334 29 44.001s26.833 22.5 43.5 29.5s34.334 10.5 53.001 10.5z" />
    <glyph glyph-name="slash" unicode="/" horiz-adv-x="658" 
d="M658 1446l-420 -1391l-238 -127l419 1391z" />
    <glyph glyph-name="zero" unicode="0" horiz-adv-x="1019" 
d="M59 721c-0.666992 52 2.16602 104.503 8.49902 157.503s17 103.833 32 152.5s34.167 94.167 57.5 136.5s51.833 79 85.5 110s72.5 55.5 116.5 73.5s94 27 150 27s106 -9 150 -27s82.667 -42.5 116 -73.5s61.666 -67.667 84.999 -110s42.333 -87.833 57 -136.5
s25.334 -99.334 32.001 -152.001s10 -105.334 10 -158.001c0 -52 -3.33301 -104.333 -10 -157s-17.334 -103.334 -32.001 -152.001s-33.667 -94.334 -57 -137.001s-51.666 -79.667 -84.999 -111s-72 -56 -116 -74s-94 -27 -150 -27s-106 9 -150 27s-82.833 42.5 -116.5 73.5
s-62.167 67.667 -85.5 110s-42.5 88 -57.5 137s-25.667 99.833 -32 152.5s-9.16602 105.334 -8.49902 158.001zM339 721.003c0 -150 14 -260.501 42 -331.501s70.667 -106.5 128 -106.5c58 0 101 35.833 129 107.5s42 181.834 42 330.501c0 149.333 -14 260 -42 332
s-71 108 -129 108c-57.333 0 -100 -35.667 -128 -107s-42 -182.333 -42 -333z" />
    <glyph glyph-name="one" unicode="1" horiz-adv-x="1019" 
d="M457 87v986l-113.5 -78l-109.5 -76l-80 191l295 247h276v-1270h-268z" />
    <glyph glyph-name="two" unicode="2" horiz-adv-x="1019" 
d="M935 87l-804.998 -0.00292969l-29 212c28.667 30 60.667 61.833 96 95.5l107.5 104.5l107 110.5c35 37.667 66.5 75.667 94.5 114s51.333 76.333 70 114s29.667 74.834 33 111.501c-2.66699 41.333 -11.834 75.5 -27.501 102.5s-35.5 47.833 -59.5 62.5
s-51 23.667 -81 27s-61 1.83301 -93 -4.5s-63.5 -16.666 -94.5 -30.999s-59.167 -32.166 -84.5 -53.499l-89 202c67.333 44 133.333 76 198 96s131.667 30 201 30c62.667 0 119.667 -10.667 171 -32s95.166 -50.166 131.499 -86.499s64.5 -78.333 84.5 -126
s30 -97.834 30 -150.501c0 -44.667 -7.33301 -88 -22 -130s-34.5 -82.667 -59.5 -122s-53.5 -77.333 -85.5 -114s-65.5 -72 -100.5 -106l-104.5 -97l-97 -88h508v-241z" />
    <glyph glyph-name="three" unicode="3" horiz-adv-x="1019" 
d="M132 1314c38.667 20.667 83.501 36.835 134.501 48.502s103 17.667 156 18s105.167 -5.33398 156.5 -17.001s97.166 -30.334 137.499 -56.001s72.833 -58.667 97.5 -99s37 -89.166 37 -146.499c0 -56.667 -17.333 -111 -52 -163s-87 -96.333 -157 -133
c83.333 -38 144.833 -84.333 184.5 -139s59.5 -120.334 59.5 -197.001c0 -65.333 -13.5 -121.5 -40.5 -168.5s-62.667 -85.333 -107 -115s-94.666 -51.334 -150.999 -65.001s-114 -20.167 -173 -19.5s-116.833 8.16699 -173.5 22.5s-107 34.833 -151 61.5l58 182
c24.667 -18 53.667 -31.667 87 -41s67.666 -14.666 102.999 -15.999s70 1 104 7s64.333 15.833 91 29.5s48.334 30.667 65.001 51s25 44.166 25 71.499c0 24 -7.33301 48.167 -22 72.5s-36.834 46.166 -66.501 65.499s-67 35.333 -112 48s-97.5 19.334 -157.5 20.001
l-10 187c30.667 4 64.834 11.167 102.501 21.5s73.334 24.166 107.001 41.499s62.334 37.833 86.001 61.5s36.5 51.167 38.5 82.5c-2.66699 29.333 -11 54 -25 74s-31.667 35.833 -53 47.5s-45.333 19.334 -72 23.001s-53.834 4.33398 -81.501 2.00098
s-54.834 -7.5 -81.501 -15.5s-50.334 -18 -71.001 -30z" />
    <glyph glyph-name="four" unicode="4" horiz-adv-x="1019" 
d="M565 87v288h-532v235l613 763h173v-750h122v-248h-122v-288h-254zM566 623l4 353l-291 -353h287z" />
    <glyph glyph-name="five" unicode="5" horiz-adv-x="1019" 
d="M212 295c53.333 -19.333 106.833 -27.999 160.5 -25.999s101.834 12.167 144.501 30.5s77.167 43.5 103.5 75.5s39.5 68 39.5 108c0 46.667 -11 83.167 -33 109.5s-51.667 46 -89 59s-80.833 21 -130.5 24s-102.5 4.5 -158.5 4.5h-67l-2 677h673v-231h-441v-204
c81.333 -1.33301 154 -12 218 -32s118.167 -48.667 162.5 -86s78 -83 101 -137s34.167 -115.333 33.5 -184c0.666992 -66 -11.333 -123.833 -36 -173.5s-58 -91.667 -100 -126s-90.167 -61.333 -144.5 -81s-110.833 -32.334 -169.5 -38.001s-117.334 -4.5 -176.001 3.5
s-113 22 -163 42z" />
    <glyph glyph-name="six" unicode="6" horiz-adv-x="1019" 
d="M87 529c0 75.333 12.5 152.332 37.5 230.999s60.5 155.334 106.5 230.001s101.5 145.167 166.5 211.5s137.5 124.833 217.5 175.5c8 -9.33301 18 -21.833 30 -37.5l37 -48l36.5 -46.5l26.5 -33c-148.667 -96.667 -252.667 -202 -312 -316
c15.333 4 31.666 7.16699 48.999 9.5s34.333 3.5 51 3.5c50 0 99.167 -9 147.5 -27s91.833 -44.5 130.5 -79.5s69.834 -78.5 93.501 -130.5s35.5 -111.667 35.5 -179c0 -62.667 -10.5 -120.167 -31.5 -172.5s-50.333 -97.5 -88 -135.5s-82.5 -67.5 -134.5 -88.5
s-109.333 -31.5 -172 -31.5c-68.667 0 -129.5 11.333 -182.5 34s-97.667 54.5 -134 95.5s-63.833 90 -82.5 147s-28 119.5 -28 187.5zM538 300.999c26.667 0 50.502 6 71.502 18s38.667 27 53 45s25.333 37.333 33 58s11.5 40 11.5 58
c-3.33301 28.667 -12.333 54.667 -27 78s-32.834 43.5 -54.501 60.5s-45.834 30.167 -72.501 39.5s-54 14 -82 14c-21.333 0 -42.5 -3 -63.5 -9s-40.833 -15.333 -59.5 -28c-10 -36 -13.167 -73.833 -9.5 -113.5s13.5 -76 29.5 -109s38.333 -60.167 67 -81.5
s63 -31.333 103 -30z" />
    <glyph glyph-name="seven" unicode="7" horiz-adv-x="1019" 
d="M236 139l375 992h-529v226h814l-9 -212l-417 -1094z" />
    <glyph glyph-name="eight" unicode="8" horiz-adv-x="1019" 
d="M509 1378c57.333 0 109.336 -10.501 156.003 -31.501s86.5 -48.333 119.5 -82s58.5 -71.834 76.5 -114.501s27 -86 27 -130c0 -50 -12.333 -97.833 -37 -143.5s-64.334 -84.5 -119.001 -116.5c76.667 -37.333 132.334 -82.666 167.001 -135.999s52 -114.666 52 -183.999
c0 -56.667 -10.5 -108 -31.5 -154s-50.833 -86 -89.5 -120c-40 -33.333 -86.833 -58.833 -140.5 -76.5s-113.834 -26.5 -180.501 -26.5c-68.667 0 -129.834 8.83301 -183.501 26.5s-100.5 42.5 -140.5 74.5c-38 34 -67.167 74.5 -87.5 121.5s-30.5 98.5 -30.5 154.5
c0 33.333 4.66699 65.166 14 95.499s22.5 58.5 39.5 84.5s37.5 49.833 61.5 71.5s50.333 40.167 79 55.5c-51.333 36 -89 78.833 -113 128.5s-36 100.5 -36 152.5c0 44.667 8.66699 88 26 130s42.666 79.333 75.999 112s74.833 58.834 124.5 78.501s106.5 29.5 170.5 29.5z
M502.003 614.999c-28.667 0 -53.833 -5.16797 -75.5 -15.501s-39.667 -23.666 -54 -39.999s-25 -35 -32 -56s-10.5 -42.167 -10.5 -63.5c0 -20 3.16699 -39.667 9.5 -59s16 -36.666 29 -51.999s29.167 -27.833 48.5 -37.5s42 -14.834 68 -15.501
c29.333 -0.666992 56 1.66602 80 6.99902s44.5 14.833 61.5 28.5s30.167 32 39.5 55s14 52.167 14 87.5c0 4.66699 -0.833008 11.834 -2.5 21.501s-4.66699 20.5 -9 32.5s-10.5 24.333 -18.5 37s-18.667 24.167 -32 34.5s-29.5 18.833 -48.5 25.5s-41.5 10 -67.5 10z
M352.004 1016c0 -21.333 6.33398 -42.166 19.001 -62.499s27.667 -38.333 45 -54s35.166 -27.667 53.499 -36s33.5 -10.5 45.5 -6.5h-1c14 5.33301 28.833 12.5 44.5 21.5s30 20 43 33s23.833 27.833 32.5 44.5s13 35 13 55c0 21.333 -4.33301 40.666 -13 57.999
s-20.167 32 -34.5 44s-31 21.333 -50 28s-38.5 10 -58.5 10c-18 0 -35.333 -2.83301 -52 -8.5s-31.5 -14 -44.5 -25s-23.333 -25 -31 -42s-11.5 -36.833 -11.5 -59.5z" />
    <glyph glyph-name="nine" unicode="9" horiz-adv-x="1019" 
d="M926 907c0 -75.333 -12.6631 -152.335 -37.9961 -231.002s-61 -155.167 -107 -229.5s-101.667 -144.666 -167 -210.999s-138 -124.833 -218 -175.5c-28.667 38.667 -54.834 72 -78.501 100s-40.5 48.667 -50.5 62c148 97.333 251.667 203 311 317
c-15.333 -4 -31.5 -7.16699 -48.5 -9.5s-33.5 -3.5 -49.5 -3.5c-50 0 -99.167 9 -147.5 27s-91.833 44.667 -130.5 80s-69.834 78.833 -93.501 130.5s-35.5 111.167 -35.5 178.5c0 62.667 10.5 120.334 31.5 173.001s50.167 98 87.5 136s82.166 67.5 134.499 88.5
s109.5 31.5 171.5 31.5c68.667 0 129.667 -11.5 183 -34.5s98.166 -55 134.499 -96s63.833 -89.833 82.5 -146.5s28 -119 28 -187zM474.004 1135c-28 0 -52.832 -6 -74.499 -18s-39.667 -26.833 -54 -44.5s-24.833 -37 -31.5 -58s-9.33398 -40.5 -8.00098 -58.5
c2.66699 -28.667 11.167 -54.834 25.5 -78.501s32.333 -43.834 54 -60.501s46 -29.667 73 -39s54.5 -14 82.5 -14c44 0 85 12.333 123 37c3.33301 13.333 5.83301 27.333 7.5 42s2.5 29.334 2.5 44.001c0 32.667 -4.5 64 -13.5 94s-22 56.333 -39 79
s-37.833 40.834 -62.5 54.501s-53 20.5 -85 20.5z" />
    <glyph glyph-name="colon" unicode=":" horiz-adv-x="624" 
d="M310 1053c24 0 46.5 -4.66699 67.5 -14s39.333 -22 55 -38s28.167 -34.667 37.5 -56s14 -44.333 14 -69c0 -23.333 -4.66699 -45.5 -14 -66.5s-21.833 -39.333 -37.5 -55s-34 -28.167 -55 -37.5s-43.5 -14 -67.5 -14s-46.5 4.66699 -67.5 14s-39.5 21.833 -55.5 37.5
s-28.5 34 -37.5 55s-13.5 43.167 -13.5 66.5c0 24.667 4.5 47.667 13.5 69s21.5 40 37.5 56s34.5 28.667 55.5 38s43.5 14 67.5 14zM310 555c24 0 46.5 -4.5 67.5 -13.5s39.333 -21.5 55 -37.5s28.167 -34.5 37.5 -55.5s14 -43.5 14 -67.5s-4.66699 -46.667 -14 -68
s-21.833 -39.833 -37.5 -55.5s-34 -28.167 -55 -37.5s-43.5 -14 -67.5 -14s-46.5 4.66699 -67.5 14s-39.5 21.833 -55.5 37.5s-28.5 34.167 -37.5 55.5s-13.5 44 -13.5 68s4.5 46.5 13.5 67.5s21.5 39.5 37.5 55.5s34.5 28.5 55.5 37.5s43.5 13.5 67.5 13.5z" />
    <glyph glyph-name="semicolon" unicode=";" horiz-adv-x="593" 
d="M164 150l0.00195312 260h267v-194c0 -104 -21.333 -185.5 -64 -244.5s-108.334 -97.833 -197.001 -116.5v96c56 17.333 94 45 114 83c13.333 26 21.666 64.667 24.999 116h-145zM164.002 1063h266v-259h-266v259z" />
    <glyph glyph-name="less" unicode="&#x3c;" horiz-adv-x="1041" 
d="M68 516v171l905 383v-197l-643 -271l643 -272v-197z" />
    <glyph glyph-name="equal" unicode="=" horiz-adv-x="810" 
d="M60 515l66 205l621 -3l-66 -205zM60 139l66 205l621 -3l-66 -205z" />
    <glyph glyph-name="greater" unicode="&#x3e;" horiz-adv-x="1041" 
d="M973 516l-905 -383v197l643 272l-643 271v197l905 -383v-171z" />
    <glyph glyph-name="question" unicode="?" horiz-adv-x="1088" 
d="M549 1240c-64 0 -111.835 -17.6709 -143.502 -53.0039s-48.5 -90 -50.5 -164h-248c4 134 45 238.833 123 314.5s184.333 113.5 319 113.5c135.333 0 242.666 -34 321.999 -102s119 -159.667 119 -275c0 -61.333 -18.333 -119.166 -55 -173.499s-98 -113.833 -184 -178.5
c-34 -25.333 -57.5 -52.666 -70.5 -81.999s-18.5 -67.666 -16.5 -114.999h-232c-2 82 11.833 151 41.5 207s80.834 109.667 153.501 161c34.667 24.667 59.334 50.5 74.001 77.5s22 61.5 22 103.5c0 50.667 -15.667 91.334 -47 122.001
c-31.333 29.333 -73.666 44 -126.999 44zM417.998 398.996h261v-249h-261v249z" />
    <glyph glyph-name="at" unicode="@" horiz-adv-x="1737" 
d="M1170 552c59.333 0 109.502 33.165 150.502 99.498s61.5 147.833 61.5 244.5c0 118.667 -46.333 219.167 -139 301.5s-206 123.5 -340 123.5c-144.667 0 -267.167 -51.667 -367.5 -155s-150.5 -229.333 -150.5 -378c0 -149.333 48.667 -275.666 146 -378.999
s216.666 -155 357.999 -155c88 0 169.833 14.333 245.5 43s131.5 66 167.5 112h157c-51.333 -89.333 -128.333 -161.166 -231 -215.499s-213 -81.5 -331 -81.5c-192.667 0 -355.167 65.333 -487.5 196s-198.5 290.667 -198.5 480c0 188.667 66 348.5 198 479.5
s293.667 196.5 485 196.5c177.333 0 326.833 -55 448.5 -165s182.5 -244.333 182.5 -403c0 -134 -45.5 -251.167 -136.5 -351.5s-196.833 -150.5 -317.5 -150.5c-38 0 -66.333 17.333 -85 52c-8 13.333 -12.667 27.333 -14 42c-58 -62.667 -121.333 -94 -190 -94
c-84 0 -153.333 31 -208 93s-81.667 140.333 -81 235c-0.666992 116 37.5 216 114.5 300s168.833 126 275.5 126c82 -0.666992 147.333 -36.667 196 -108l18 83h173l-116 -519c-3.33301 -14.667 -3.33301 -27 0 -37s8.66602 -15 15.999 -15zM897.002 971.998
c-56 0 -104.833 -24.332 -146.5 -72.999s-62.5 -105.334 -62.5 -170.001c0 -50 12.667 -88.5 38 -115.5s61 -40.5 107 -40.5c47.333 0 90 18.667 128 56s63.333 85.333 76 144s6 106.5 -20 143.5s-66 55.5 -120 55.5z" />
    <glyph glyph-name="A" unicode="A" horiz-adv-x="1287" 
d="M36 150l452 1279h310l453 -1279h-284l-86 260h-485l-85 -260h-275zM639 1144l-169 -514h340z" />
    <glyph glyph-name="B" unicode="B" horiz-adv-x="1287" 
d="M136 150v1279h619c123.333 0 219.833 -28.5 289.5 -85.5s104.5 -136.5 104.5 -238.5c0 -106 -39 -186.667 -117 -242c-12.667 -9.33301 -27 -17.666 -43 -24.999c30 -11.333 56.667 -25.333 80 -42c82 -56 123 -138 123 -246c0 -130.667 -40.5 -230 -121.5 -298
s-199.167 -102 -354.5 -102h-580zM391 712.999v-340.999h325c69.333 0 121.5 15 156.5 45s52.5 75.667 52.5 137c0 53.333 -17.833 93.166 -53.5 119.499s-89.167 39.5 -160.5 39.5h-320zM391 1209l0.000976562 -281h306c66.667 0 116.5 12.5 149.5 37.5
s49.5 62.5 49.5 112.5c0 44 -17.333 76.833 -52 98.5s-87.334 32.5 -158.001 32.5h-295z" />
    <glyph glyph-name="C" unicode="C" horiz-adv-x="1287" 
d="M1219 598c-16 -148 -73.833 -265.501 -173.5 -352.501s-226.167 -130.5 -379.5 -130.5c-180 0 -323 60 -429 180s-159 282.333 -159 487c0 209.333 53 375.333 159 498s249 184 429 184c151.333 0 277 -41.167 377 -123.5s158.667 -193.5 176 -333.5h-268
c-8.66699 68.667 -38.334 123.334 -89.001 164.001s-115.334 61 -194.001 61c-99.333 0 -177 -39.5 -233 -118.5s-84 -188.833 -84 -329.5c0 -136.667 28 -243.667 84 -321s133.667 -116 233 -116c78.667 0 143.334 22.5 194.001 67.5s80.334 106.167 89.001 183.5h268z" />
    <glyph glyph-name="D" unicode="D" horiz-adv-x="1287" 
d="M136 150v1279h547c176 0 309.667 -51.667 401 -155s137 -254.333 137 -453c0 -219.333 -47.5 -386 -142.5 -500s-234.167 -171 -417.5 -171h-525zM403 370l225 0.000976562c108.667 0 190.167 36.667 244.5 110s81.5 183.333 81.5 330
c0 133.333 -25.333 233.166 -76 299.499s-126.667 99.5 -228 99.5h-247v-839z" />
    <glyph glyph-name="E" unicode="E" horiz-adv-x="1188" 
d="M136 150v1279h941v-227h-674v-272h625v-220h-625v-333h704v-227h-971z" />
    <glyph glyph-name="F" unicode="F" horiz-adv-x="1088" 
d="M136 150v1279h910v-227h-643v-291h560v-220h-560v-541h-267z" />
    <glyph glyph-name="G" unicode="G" horiz-adv-x="1386" 
d="M686 115c-186.667 0 -334.667 60.001 -444 180.001s-164 282.333 -164 487c0 209.333 56.833 375.333 170.5 498s267.5 184 461.5 184c155.333 0 283.333 -38.833 384 -116.5s159.334 -182.834 176.001 -315.501h-268c-6.66699 56 -37.834 105 -93.501 147
s-117.167 63 -184.5 63c-116 0 -206.833 -40.167 -272.5 -120.5s-98.5 -191.833 -98.5 -334.5c0 -145.333 31.333 -256 94 -332c62.667 -75.333 154.667 -113 276 -113c103.333 0 184 39.667 242 119c32 44.667 55.333 97 70 157v3h-301v220h536v-690h-178l-26 165l-16 -21
c-90 -120 -211.333 -180 -364 -180z" />
    <glyph glyph-name="H" unicode="H" horiz-adv-x="1287" 
d="M126 150v1279h267v-479h500v479h268v-1279h-268v579h-500v-579h-267z" />
    <glyph glyph-name="I" unicode="I" horiz-adv-x="495" 
d="M114 150v1279h267v-1279h-267z" />
    <glyph glyph-name="J" unicode="J" 
d="M596 1429h266.999v-920c0 -130 -34.833 -228.167 -104.5 -294.5s-172.167 -99.5 -307.5 -99.5c-144.667 0 -250.667 36.5 -318 109.5s-98.666 185.833 -93.999 338.5v77h254v-77c-2 -77.333 9.5 -134.833 34.5 -172.5s65.167 -56.5 120.5 -56.5
c52.667 0 90.5 13.667 113.5 41s34.5 72 34.5 134v920z" />
    <glyph glyph-name="K" unicode="K" horiz-adv-x="1287" 
d="M155 150v1279h267v-530l490 530h341l-511 -523l545 -756h-350l-385 563l-130 -133v-430h-267z" />
    <glyph glyph-name="L" unicode="L" horiz-adv-x="1088" 
d="M136 150v1279h267v-1052h636v-227h-903z" />
    <glyph glyph-name="M" unicode="M" horiz-adv-x="1484" 
d="M372 150h-249v1279h391l233 -1014l230 1014h386v-1279h-249v1075l-240 -1075h-262l-240 1099v-1099z" />
    <glyph glyph-name="N" unicode="N" horiz-adv-x="1287" 
d="M372 150h-249v1279h280l513 -897v897h250v-1279h-266l-528 921v-921z" />
    <glyph glyph-name="O" unicode="O" horiz-adv-x="1386" 
d="M693 115c-188 0 -337.5 60 -448.5 180s-166.5 282.333 -166.5 487c0 209.333 55.5 375.333 166.5 498s260.5 184 448.5 184c188.667 0 338.334 -61.333 449.001 -184s166 -288.667 166 -498c0 -204.667 -55.333 -367 -166 -487s-260.334 -180 -449.001 -180zM693 342
c108.667 0 193.836 39 255.503 117s92.5 186.333 92.5 325c0 142 -30.833 253 -92.5 333s-146.834 120 -255.501 120s-193.834 -40 -255.501 -120s-92.5 -191 -92.5 -333c0 -138.667 30.667 -247 92 -325s146.666 -117 255.999 -117z" />
    <glyph glyph-name="P" unicode="P" horiz-adv-x="1188" 
d="M136 150l-0.000976562 1279h535c145.333 0 256 -34.167 332 -102.5s114 -167.5 114 -297.5c0 -138 -38 -242.833 -114 -314.5s-186.667 -107.5 -332 -107.5c-103.333 0.666992 -192.666 0 -267.999 -2v-455h-267zM402.999 827l223 -0.000976562
c74.667 0 130.667 16.5 168 49.5s56 82.833 56 149.5c0 60.667 -18.667 106.334 -56 137.001s-93.333 46 -168 46h-223v-382z" />
    <glyph glyph-name="Q" unicode="Q" horiz-adv-x="1386" 
d="M1176 57l-153.001 142c-91.333 -56 -201.333 -84 -330 -84c-188 0 -337.5 60 -448.5 180s-166.5 282.333 -166.5 487c0 209.333 55.5 375.333 166.5 498s260.5 184 448.5 184c188.667 0 338.334 -61.333 449.001 -184s166 -288.667 166 -498
c0 -184.667 -45 -334.667 -135 -450l139 -131zM704.999 492l135.003 143l140 -127c40.667 71.333 61 163.333 61 276c0 142 -30.833 253 -92.5 333s-146.834 120 -255.501 120s-193.834 -40 -255.501 -120s-92.5 -191 -92.5 -333c0 -138.667 30.667 -247 92 -325
s146.666 -117 255.999 -117c53.333 -0.666992 101 9 143 29z" />
    <glyph glyph-name="R" unicode="R" horiz-adv-x="1287" 
d="M136 150l0.000976562 1279h644c122 0 220.333 -32.667 295 -98s112 -151.333 112 -258c0 -122.667 -41.667 -212.667 -125 -270c-22 -14.667 -47 -27.334 -75 -38.001c16 -6 30.333 -13 43 -21c73.333 -43.333 111.333 -116.333 114 -219l6 -210
c1.33301 -41.333 5.66602 -70.833 12.999 -88.5s22 -31.5 44 -41.5v-34h-295c-7.33301 13.333 -13.5 41.833 -18.5 85.5s-7.83301 90.834 -8.5 141.501l-2 118c-1.33301 57.333 -18.333 98.166 -51 122.499s-87 36.5 -163 36.5h-266v-505h-267zM403.001 870.001h309.999
c68.667 0 120.334 14.167 155.001 42.5s52 70.833 52 127.5c0 56 -16.5 98.167 -49.5 126.5s-82.167 42.5 -147.5 42.5h-320v-339z" />
    <glyph glyph-name="S" unicode="S" horiz-adv-x="1188" 
d="M829 1045c-4.66699 61.333 -31.335 109.832 -80.002 145.499s-112 53.5 -190 53.5c-68 0 -121.167 -15 -159.5 -45s-57.5 -71.667 -57.5 -125c0 -38 20 -67.667 60 -89c39.333 -20.667 123 -45.334 251 -74.001c186.667 -41.333 311.334 -89.333 374.001 -144
c62.667 -54 94 -140.667 94 -260c0 -120 -47.333 -215.333 -142 -286s-222.667 -106 -384 -106c-162 0 -288.5 37.5 -379.5 112.5s-139.5 181.5 -145.5 319.5h257c2.66699 -68 27.334 -120.333 74.001 -157s111.334 -55 194.001 -55c85.333 0 152 13.833 200 41.5
s72 65.834 72 114.501c0 48 -17.333 83.333 -52 106c-33.333 22.667 -105.333 46.334 -216 71.001c-202.667 45.333 -338.334 94.333 -407.001 147c-68 52 -102 133.333 -102 244c0 124 45 222.5 135 295.5s211.667 109.5 365 109.5c143.333 0 259.833 -37.833 349.5 -113.5
s139.5 -177.5 149.5 -305.5h-260z" />
    <glyph glyph-name="T" unicode="T" horiz-adv-x="1088" 
d="M412 150v1052h-387v227h1040v-227h-386v-1052h-267z" />
    <glyph glyph-name="U" unicode="U" horiz-adv-x="1287" 
d="M1161 632c0 -182.667 -40.333 -314.5 -121 -395.5s-212.334 -121.5 -395.001 -121.5c-175.333 0 -305.166 42.167 -389.499 126.5s-126.833 214.5 -127.5 390.5v797h267v-806c0 -91.333 20.667 -160 62 -206s104 -69 188 -69c89.333 0 153 21.167 191 63.5
s57 112.833 57 211.5v806h268v-797z" />
    <glyph glyph-name="V" unicode="V" horiz-adv-x="1188" 
d="M34 1429h284l281 -977l280 977h275l-433 -1279h-254z" />
    <glyph glyph-name="W" unicode="W" horiz-adv-x="1682" 
d="M385 150l-356 1279h278l213 -936l183 936h284l186 -928l212 928h270l-356 -1279h-254l-205 1007l-201 -1007h-254z" />
    <glyph glyph-name="X" unicode="X" horiz-adv-x="1188" 
d="M25 150l414 647l-386 632h316l225 -413l233 413h308l-389 -612l417 -667h-319l-251 440l-252 -440h-316z" />
    <glyph glyph-name="Y" unicode="Y" horiz-adv-x="1188" 
d="M473 631l-446 798h318l266 -555l249 555h303l-423 -793v-486h-267v481z" />
    <glyph glyph-name="Z" unicode="Z" horiz-adv-x="1088" 
d="M44 374l663 828h-641v227h978v-211l-675 -841h673v-227h-998v224z" />
    <glyph glyph-name="bracketleft" unicode="[" horiz-adv-x="593" 
d="M112 -202v1640h439v-172h-216v-1297h216v-171h-439z" />
    <glyph glyph-name="backslash" unicode="\" horiz-adv-x="495" 
d="M345 115l-403 1349h209l402 -1349h-208z" />
    <glyph glyph-name="bracketright" unicode="]" horiz-adv-x="593" 
d="M481 -202h-438v171h215v1297h-215v172h438v-1640z" />
    <glyph glyph-name="asciicircum" unicode="^" horiz-adv-x="1041" 
d="M611 1391l319 -663h-198l-212 464l-211 -464h-199l320 663h181z" />
    <glyph glyph-name="underscore" unicode="_" 
d="M0 -73v92h991v-92h-991z" />
    <glyph glyph-name="grave" unicode="`" horiz-adv-x="593" 
d="M221 1227l-261 258h273l168 -258h-180z" />
    <glyph glyph-name="a" unicode="a" 
d="M343 126c-88 0 -158.667 24.998 -212 74.998s-80 116 -80 198c0 86 24.167 155 72.5 207s118.5 84.667 210.5 98l165 23c42.667 6 78.334 15.667 107.001 29c12 6 21.333 16.5 28 31.5s9 30.5 7 46.5c-3.33301 26.667 -17 47.334 -41 62.001c-28 18 -68.667 27 -122 27
c-48 0 -85.333 -11.5 -112 -34.5s-40.667 -55.833 -42 -98.5h-240c5.33301 110.667 43.166 193.667 113.499 249s173.166 83 308.499 83c118 0 211 -24.833 279 -74.5s102 -117.5 102 -203.5v-529c0 -42 3.5 -71.667 10.5 -89s21.167 -30.666 42.5 -39.999v-35h-270
c-11.333 38 -18.666 75.333 -21.999 112l-1 2c-78 -92.667 -179.333 -139 -304 -139zM643 499.998l-0.000976562 108.001c-29.333 -16 -67.666 -29 -114.999 -39l-92 -17c-43.333 -8 -76.333 -22.833 -99 -44.5s-34 -49.167 -34 -82.5c0 -38 10.167 -67.667 30.5 -89
s48.5 -32 84.5 -32c80.667 0 144.667 28 192 84c9.33301 11.333 17 27.666 23 48.999c6.66699 21.333 10 42.333 10 63z" />
    <glyph glyph-name="b" unicode="b" horiz-adv-x="1088" 
d="M109 1429h249v-456l6 7c67.333 94.667 156 142 266 142c120 0 216.5 -44.333 289.5 -133s109.5 -205.667 109.5 -351c0 -153.333 -36.5 -277 -109.5 -371s-169.5 -141 -289.5 -141c-110 0 -198.667 44 -266 132l-11 14v-122h-244v1279zM559 331
c66.667 0 119.001 25.002 157.001 75.002s57 119.667 57 209c0 91.333 -19 162.666 -57 213.999s-90.333 77 -157 77s-118.834 -26.333 -156.501 -79s-56.5 -126 -56.5 -220c0 -86.667 19 -154.334 57 -203.001c36.667 -48.667 88.667 -73 156 -73z" />
    <glyph glyph-name="c" unicode="c" 
d="M934 501c-13.333 -118 -57.332 -210 -131.999 -276s-172 -99 -292 -99c-143.333 0 -254 42.5 -332 127.5s-117 206.5 -117 364.5c0 154 40.5 276.5 121.5 367.5s190.167 136.5 327.5 136.5c122 0 221.833 -33.667 299.5 -101s119.167 -155.666 124.5 -264.999h-255
c-2 46.667 -18.5 84.5 -49.5 113.5s-70.833 43.5 -119.5 43.5c-62.667 0 -110.334 -25.167 -143.001 -75.5s-49 -123.5 -49 -219.5c0 -94 16.333 -165.5 49 -214.5s80.334 -73.5 143.001 -73.5c45.333 0 83.666 15.667 114.999 47s49.333 72.666 54 123.999h255z" />
    <glyph glyph-name="d" unicode="d" horiz-adv-x="1088" 
d="M464 126c-120.667 0 -217.999 47 -291.999 141s-111 217.667 -111 371c0 145.333 36.833 262.333 110.5 351s170.5 133 290.5 133c107.333 0 193.666 -45.333 258.999 -136l11 -14v457h249v-1279h-242v121l-4 -6c-68.667 -92.667 -159 -139 -271 -139zM531.001 906
c-66.667 0 -118.832 -25.6689 -156.499 -77.002s-56.5 -122.666 -56.5 -213.999c0 -89.333 18.667 -159 56 -209s89.333 -75 156 -75c67.333 0 119.833 26.333 157.5 79s56.5 126 56.5 220c0 86.667 -18.833 154.334 -56.5 203.001s-89.834 73 -156.501 73z" />
    <glyph glyph-name="e" unicode="e" 
d="M491 126c-144 0 -254.998 44.333 -332.998 133s-117 215 -117 379c0 151.333 39.667 269.833 119 355.5s189.666 128.5 330.999 128.5c144 0 255 -43.667 333 -131s117 -211.666 117 -372.999c1.33301 -18.667 0 -37.334 -4 -56.001h-645
c6 -75.333 22.667 -131.333 50 -168c34.667 -46.667 92.667 -70 174 -70c37.333 0 72.166 10.667 104.499 32s51.833 47.333 58.5 78h254c-22 -96.667 -72 -172.167 -150 -226.5s-175.333 -81.5 -292 -81.5zM681.002 721c-5.33301 56.667 -20.333 101 -45 133
c-32 42 -81.667 63 -149 63c-64 0 -113 -24.667 -147 -74c-20.667 -31.333 -35.667 -72 -45 -122h386z" />
    <glyph glyph-name="f" unicode="f" horiz-adv-x="593" 
d="M405 922v-772.002h-249v772h-139v175h139v79c0 90.667 24.167 158.334 72.5 203.001s121.833 67 220.5 67c44 0.666992 83 -1.33301 117 -6v-199h-79c-32.667 0 -54.5 -6.66699 -65.5 -20s-16.5 -40.666 -16.5 -81.999v-42h161v-175h-161z" />
    <glyph glyph-name="g" unicode="g" horiz-adv-x="1088" 
d="M543 -47c70 0 120.334 17.001 151.001 51.001s46 90.333 46 169v116l-20 -30c-54.667 -76 -133.667 -114 -237 -114c-123.333 0 -222.833 44.167 -298.5 132.5s-113.5 205.166 -113.5 350.499c0 148 36.833 267.333 110.5 358s170.5 136 290.5 136
c106.667 0 189 -38.667 247 -116c11.333 -14.667 21.666 -30.667 30.999 -48v139h235v-897c0 -149.333 -37 -259.5 -111 -330.5s-189.333 -106.5 -346 -106.5c-128.667 0 -231 25 -307 75s-116.667 119.333 -122 208h272c2 -32 16.833 -55.5 44.5 -70.5
s70.167 -22.5 127.5 -22.5zM535.001 906.001c-64.667 0 -115.333 -24.833 -152 -74.5s-55 -118.5 -55 -206.5c0 -86.667 18.333 -154.167 55 -202.5s87 -72.5 151 -72.5c65.333 0 116.5 24.667 153.5 74s55.5 117.333 55.5 204c0 87.333 -18.5 155.5 -55.5 204.5
s-87.833 73.5 -152.5 73.5z" />
    <glyph glyph-name="h" unicode="h" horiz-adv-x="1088" 
d="M116 150l-0.000976562 1279h249v-453l20 28c62 78.667 151.333 118 268 118c100 0 178.333 -29.667 235 -89s85 -141.333 85 -246v-637h-250v592c0 58 -12.667 101.167 -38 129.5s-64 42.5 -116 42.5c-65.333 0 -115.666 -19.667 -150.999 -59s-53 -96.333 -53 -171v-534
h-249z" />
    <glyph glyph-name="i" unicode="i" horiz-adv-x="495" 
d="M125 150v947h250v-947h-250zM123 1438h254v-231h-254v231z" />
    <glyph glyph-name="j" unicode="j" horiz-adv-x="495" 
d="M121 1097l250 -0.000976562v-1051c0 -102.667 -22.167 -174.5 -66.5 -215.5s-121.5 -61.5 -231.5 -61.5l-68 1v199l31 -1c33.333 0 55.833 5.33301 67.5 16s17.5 31.334 17.5 62.001v1051zM119 1438h254v-231h-254v231z" />
    <glyph glyph-name="k" unicode="k" 
d="M123 150v1279h249v-691l312 359h308l-342 -359l350 -588h-296l-228 407l-104 -109v-298h-249z" />
    <glyph glyph-name="l" unicode="l" horiz-adv-x="495" 
d="M123 150v1279h249v-1279h-249z" />
    <glyph glyph-name="m" unicode="m" horiz-adv-x="1584" 
d="M114 150v947h237v-153c11.333 26.667 25.333 50.667 42 72c55.333 70.667 135.333 106 240 106c84 0 152.667 -28.333 206 -85c20.667 -21.333 37 -45 49 -71l31 50c51.333 70.667 126.333 106 225 106c102.667 0 183 -30.5 241 -91.5s87 -145.5 87 -253.5v-627h-250v556
c0 70.667 -11.5 123 -34.5 157s-58.833 51 -107.5 51c-52.667 0 -92.667 -16.167 -120 -48.5s-41 -78.5 -41 -138.5v-577h-250v597c0 56.667 -12.167 98.667 -36.5 126s-61.833 41 -112.5 41c-50 0 -88.5 -16.167 -115.5 -48.5s-40.5 -78.5 -40.5 -138.5v-577h-250z" />
    <glyph glyph-name="n" unicode="n" horiz-adv-x="1088" 
d="M116 150l-0.000976562 947h237v-141c10 17.333 20.667 33.333 32 48c62 78.667 151.333 118 268 118c100 0 178.333 -29.667 235 -89s85 -141.333 85 -246v-637h-250v592c0 58 -12.667 101.167 -38 129.5s-64 42.5 -116 42.5c-65.333 0 -115.666 -19.667 -150.999 -59
s-53 -96.333 -53 -171v-534h-249z" />
    <glyph glyph-name="o" unicode="o" horiz-adv-x="1088" 
d="M545 126c-148 0 -265.667 44.333 -353 133s-131 208.334 -131 359.001c0 154 43.667 276.5 131 367.5s205 136.5 353 136.5c148.667 0 266.5 -45.5 353.5 -136.5s130.5 -213.5 130.5 -367.5c0 -150.667 -43.5 -270.334 -130.5 -359.001s-204.833 -133 -353.5 -133z
M545 334c74 0 130.5 24.5 169.5 73.5s58.5 120.167 58.5 213.5c0 95.333 -19.5 167.833 -58.5 217.5s-95.5 74.5 -169.5 74.5c-74.667 0 -131.167 -24.833 -169.5 -74.5s-57.5 -122.167 -57.5 -217.5c0 -93.333 19.167 -164.5 57.5 -213.5s94.833 -73.5 169.5 -73.5z" />
    <glyph glyph-name="p" unicode="p" horiz-adv-x="1088" 
d="M110 1097h237.999v-141l17 24c66.667 94.667 155.334 142 266.001 142c120 0 216.333 -44.333 289 -133s109 -205.667 109 -351c0 -153.333 -36.333 -277 -109 -371s-169 -141 -289 -141c-110 0 -198.667 44 -266 132l-5 7v-486h-250v1318zM558.999 331
c66.667 0 119.001 25.002 157.001 75.002s57 119.667 57 209c0 91.333 -18.833 162.666 -56.5 213.999s-89.834 77 -156.501 77s-118.667 -26.333 -156 -79s-56 -126 -56 -220c0 -86.667 18.667 -154.334 56 -203.001s89 -73 155 -73z" />
    <glyph glyph-name="q" unicode="q" horiz-adv-x="1088" 
d="M465 126c-120.667 0 -218.17 44.167 -292.503 132.5s-111.5 204.833 -111.5 349.5c0 154.667 38.333 279 115 373s177.334 141 302.001 141c102.667 0 185.334 -45.333 248.001 -136c10.667 -14.667 19.667 -29.667 27 -45v156h230v-1318h-250v482
c-67.333 -90.667 -156.666 -135.667 -267.999 -135zM531.997 906c-67.333 0 -119.834 -25.6689 -157.501 -77.002s-56.5 -122.666 -56.5 -213.999c0 -89.333 18.833 -159 56.5 -209s89.834 -75 156.501 -75c67.333 0 120 26.333 158 79s57 126 57 220
c0 86.667 -19 154.334 -57 203.001s-90.333 73 -157 73z" />
    <glyph glyph-name="r" unicode="r" horiz-adv-x="693" 
d="M114 150l-0.000976562 947h237v-170c9.33301 18.667 19.333 36.667 30 54c58.667 94 134.334 141 227.001 141l57 -1v-255c-22 2 -47 3 -75 3c-76 0 -132.667 -18.833 -170 -56.5s-56 -94.5 -56 -170.5v-492h-250z" />
    <glyph glyph-name="s" unicode="s" 
d="M652 813c0 36.667 -15.167 66.001 -45.5 88.001s-70.5 33 -120.5 33c-48 0 -85.5 -8.33301 -112.5 -25s-40.5 -39.667 -40.5 -69c0 -20.667 15.333 -38.667 46 -54c30.667 -14.667 84.334 -30.667 161.001 -48c153.333 -34 255.666 -71.333 306.999 -112
c52 -40.667 78 -104.667 78 -192c0 -92.667 -37.667 -167.167 -113 -223.5s-174.333 -84.5 -297 -84.5c-145.333 0 -257.333 27.833 -336 83.5s-120.667 136.834 -126 243.501h254c2 -43.333 21.333 -77.333 58 -102s86.667 -37 150 -37c50 0 89 8.5 117 25.5
s42 40.833 42 71.5c0 21.333 -13.667 39.666 -41 54.999c-27.333 14.667 -75 29.334 -143 44.001c-160 36 -267 74 -321 114c-54 39.333 -81 100.666 -81 183.999c0 94 35 169.833 105 227.5s162 86.5 276 86.5c128.667 0 232.5 -28.333 311.5 -85
s118.5 -131.334 118.5 -224.001h-247z" />
    <glyph glyph-name="t" unicode="t" horiz-adv-x="593" 
d="M551 145c-42 -3.33301 -93.333 -5 -154 -5c-88.667 0 -152.167 15.667 -190.5 47s-57.5 83 -57.5 155v580h-132v175h132v254h249v-254h153v-175h-153v-538c0 -22 6.66699 -36.5 20 -43.5s40.333 -10.5 81 -10.5h52v-185z" />
    <glyph glyph-name="u" unicode="u" horiz-adv-x="1088" 
d="M367 1097v-593.002c0 -58 12.5 -100.833 37.5 -128.5s63.167 -41.5 114.5 -41.5c65.333 0 115.333 19.667 150 59s52 96 52 170v534h250v-947h-238v142c-8.66699 -17.333 -19 -33.666 -31 -48.999c-61.333 -78 -150.333 -117 -267 -117c-100 0 -178 29.333 -234 88
s-84 140.334 -84 245.001v638h250z" />
    <glyph glyph-name="v" unicode="v" 
d="M23 1097h276l202 -706l204 706h262l-341 -947h-261z" />
    <glyph glyph-name="w" unicode="w" horiz-adv-x="1386" 
d="M292 150l-275 947h265l151 -696l142 696h250l140 -697l154 697h251l-274 -947h-255l-145 705l-149 -705h-255z" />
    <glyph glyph-name="x" unicode="x" 
d="M27 150l322 484l-309 463h301l159 -280l159 280h292l-308 -468l321 -479h-307l-165 289l-164 -289h-301z" />
    <glyph glyph-name="y" unicode="y" 
d="M960 1097l-338.999 -967c-54.667 -159.333 -101.334 -259.333 -140.001 -300s-108 -61 -208 -61l-119 3v200c6 -2.66699 22 -4 48 -4c66.667 0 110 13.667 130 41c12.667 17.333 25.667 53.333 39 108l-354 980h276l206 -703l200 703h261z" />
    <glyph glyph-name="z" unicode="z" horiz-adv-x="891" 
d="M36 344l479 548l6 7h-450v198h762v-205l-473 -538h495v-204h-819v194z" />
    <glyph glyph-name="braceleft" unicode="{" horiz-adv-x="693" 
d="M651 -201c-138 -9.33301 -239 8.83691 -303 54.5039s-96 122.167 -96 229.5v231c0 93.333 -8.66699 151.666 -26 174.999s-64.333 40 -141 50v158c76.667 10 123.667 26.667 141 50s26 81.666 26 174.999v231c0 107.333 32 183.833 96 229.5s165 64.167 303 55.5v-160
c-80.667 4 -130.5 -3.33301 -149.5 -22s-28.5 -70.334 -28.5 -155.001v-232c0 -92.667 -27.667 -159.667 -83 -201c-26 -19.333 -61.333 -36.333 -106 -51c44.667 -12.667 80 -29 106 -49c55.333 -41.333 83 -108.333 83 -201v-232c0 -84.667 9.5 -136.334 28.5 -155.001
s68.833 -25.667 149.5 -21v-160z" />
    <glyph glyph-name="bar" unicode="|" horiz-adv-x="499" 
d="M150 -295v1781h199v-1781h-199z" />
    <glyph glyph-name="braceright" unicode="}" horiz-adv-x="693" 
d="M43 -201v159.996c80.667 -4.66699 130.334 2.33301 149.001 21s28 70.334 28 155.001v232c0 92.667 28 159.667 84 201c25.333 20 60.333 36.333 105 49c-44.667 14.667 -79.667 31.667 -105 51c-56 41.333 -84 108.333 -84 201v232
c0 84.667 -9.33301 136.334 -28 155.001s-68.334 26 -149.001 22v160c138 8.66699 238.833 -9.83301 302.5 -55.5s95.5 -122.167 95.5 -229.5v-231c0 -93.333 8.66699 -151.666 26 -174.999s64.333 -40 141 -50v-158c-76.667 -10 -123.667 -26.667 -141 -50
s-26 -81.666 -26 -174.999v-231c0 -107.333 -32 -184 -96 -230c-63.333 -45.333 -164 -63.333 -302 -54z" />
    <glyph glyph-name="asciitilde" unicode="~" horiz-adv-x="1041" 
d="M109 598c20 47.333 49.999 85.167 89.999 113.5s84 42.5 132 42.5c30 0 62 -5.16699 96 -15.5s77.667 -27.833 131 -52.5c36 -16.667 67.833 -30.167 95.5 -40.5s47.167 -15.5 58.5 -15.5c27.333 0 53.333 10.5 78 31.5s50.334 54.5 77.001 100.5l65 -159
c-26 -47.333 -59 -85 -99 -113s-81 -42 -123 -42c-32 0 -65 5.83301 -99 17.5s-76.667 32.5 -128 62.5c-24 13.333 -50.333 23.833 -79 31.5s-55.667 11.5 -81 11.5c-28 0 -56.333 -12.667 -85 -38s-50 -56.333 -64 -93z" />
    <glyph glyph-name="delete" horiz-adv-x="1392" 
d="M498 520c0 -73.333 -16.332 -132.333 -48.999 -177c-26.667 -37.333 -62.334 -61.333 -107.001 -72c-24 -6 -51.667 -9 -83 -9h-183v510h175c40 0 70.333 -2.33301 91 -7c64.667 -15.333 110 -56.333 136 -123c13.333 -36 20 -76.667 20 -122zM428.001 521
c0 97.333 -30 157.667 -90 181c-18 6.66699 -47 10 -87 10h-108v-390h109c59.333 0 101 12 125 36c34 34 51 88.333 51 163zM940.001 262.001h-381v510h368v-60h-301v-156h282v-60h-282v-174h314v-60zM1322 262.001h-318v510h68v-450h250v-60z" />
    <glyph glyph-name="copyright" unicode="&#xa9;" horiz-adv-x="1313" 
d="M657 1466c193.333 0 354.5 -64.167 483.5 -192.5s193.5 -289.833 193.5 -484.5c0 -193.333 -64.333 -354.333 -193 -483s-290 -193 -484 -193c-194.667 0 -356 64.333 -484 193s-192 289.667 -192 483c0 194.667 64.167 356.167 192.5 484.5s289.5 192.5 483.5 192.5z
M1139 789c0 148 -45.667 271.167 -137 369.5s-206.333 147.5 -345 147.5c-138 0 -252.667 -49.167 -344 -147.5s-137 -221.5 -137 -369.5c0 -147.333 45.833 -270 137.5 -368s206.167 -147 343.5 -147c138 0 252.833 49 344.5 147s137.5 220.667 137.5 368zM1002 687
c-16.667 -87.333 -53.833 -156.332 -111.5 -206.999s-127.5 -76 -209.5 -76c-110.667 0 -199.834 35 -267.501 105s-101.5 162.333 -101.5 277c0 119.333 33.333 214.166 100 284.499s156.334 105.5 269.001 105.5c88 0 161 -24.833 219 -74.5s92 -116.5 102 -200.5h-159
c-4.66699 36.667 -21.5 65.667 -50.5 87s-66.167 32 -111.5 32c-58 0 -103.333 -20.667 -136 -62s-49 -98.333 -49 -171c0 -70 16.667 -125.333 50 -166s78.333 -61 135 -61c42.667 0 78.5 11.333 107.5 34s47.167 53.667 54.5 93h159z" />
    <glyph glyph-name="guillemotleft" unicode="&#xab;" horiz-adv-x="880" 
d="M763 22h-72l-164 192.5l-164 192.5l164.5 189.5l164.5 189.5h64l-217 -378zM461 22h-68l-163 192.5l-164 192.5l164.5 189.5l165.5 189.5h65l-219 -378z" />
    <glyph glyph-name="registered" unicode="&#xae;" horiz-adv-x="1313" 
d="M656 1465c194 0 355.168 -64.167 483.501 -192.5s192.5 -289.5 192.5 -483.5c0 -193.333 -64.167 -354.166 -192.5 -482.499s-289.5 -192.5 -483.5 -192.5s-355 64.167 -483 192.5s-192 289.166 -192 482.499c0 194 64.167 355.167 192.5 483.5
s289.166 192.5 482.499 192.5zM1140 789c0 148.667 -45.832 272.334 -137.499 371.001s-207.167 148 -346.5 148c-138.667 0 -253.834 -49.333 -345.501 -148s-137.5 -222.334 -137.5 -371.001c0 -148 46 -271.167 138 -369.5s207 -147.5 345 -147.5
c138.667 0 254 49.167 346 147.5s138 221.5 138 369.5zM367.002 426l-0.000976562 728h283c92.667 0 163.167 -17.5 211.5 -52.5s72.5 -86.5 72.5 -154.5c0 -78 -22.333 -134.333 -67 -169c-25.333 -19.333 -58.666 -33.333 -99.999 -42l179 -310h-180l-168 300h-72v-300
h-159zM526.001 851h124c42 0 73.167 7.83301 93.5 23.5s30.5 39.167 30.5 70.5c0 28.667 -10.167 50 -30.5 64s-51.5 21 -93.5 21h-124v-179z" />
    <glyph glyph-name="dagger" unicode="&#xb0;" horiz-adv-x="1024" 
d="M509 1094l456 -457l-456 -456l-457 456zM128 637l381 -380l380 380l-380 381zM509 855l217 -218l-217 -217l-217 217z" />
    <glyph glyph-name="daggerdbl" unicode="&#xb1;" horiz-adv-x="901" 
d="M450 1043l201 -146l201 -145l-77 -237l-76 -236h-497l-77 236l-77 237l201 145zM592 430l141 103l-54 167l-54 166h-350l-54 -166l-54 -167l142 -103l141 -102zM528 727l79 -56l-31 -92l-29 -92h-193l-60 184l78 56l78 57z" />
    <glyph glyph-name="paragraph" unicode="&#xb6;" horiz-adv-x="891" 
d="M830 1379h-105.999v-1229h-80v1229h-173v-1229h-82v690c-103.333 4 -184 33 -242 87c-57.333 54 -86 124.333 -86 211c0 43.333 8.16699 83.333 24.5 120s38.5 69 66.5 97c31.333 26.667 67.666 47.167 108.999 61.5s87 21.5 137 21.5h432v-59z" />
    <glyph glyph-name="nonbreakingspace" unicode="&#xb7;" horiz-adv-x="1082" 
d="M549 98l-198 219l198 199l201 -199zM1025 581l-214 -205l-198 205l198 198zM549 1056l196 -215l-196 -198l-198 198zM74 581l212 198l198 -198l-198 -198z" />
    <glyph glyph-name="periodcentered" unicode="&#xba;" horiz-adv-x="983" 
d="M253 1047h454l114 -197l113 -196l-113 -197l-114 -197h-454l-114 197l-113 197l113 196zM298 968l-182 -314l91 -158l91 -157h364l90 157l91 158l-91 157l-90 157h-364zM361 859h238l59 -102l59 -103l-118 -206h-238l-118 206l59 103z" />
    <glyph glyph-name="guillemotright" unicode="&#xbb;" horiz-adv-x="880" 
d="M335 408l-108 189l-109 189h65l163.5 -189.5l165.5 -189.5l-165 -193l-163 -192h-74zM632 408l-109.5 189l-109.5 189h65l165.5 -189.5l164.5 -189.5l-163 -193l-164 -192h-68z" />
    <glyph glyph-name="questiondown" unicode="&#xbf;" horiz-adv-x="774" 
d="M77 979h675v-675h-675v675z" />
    <glyph glyph-name="multiply" unicode="&#xd7;" horiz-adv-x="1041" 
d="M520 457l-304 -304l-145 144l305 305l-305 304l145 144l304 -304l305 304l144 -144l-304 -304l304 -305l-144 -144z" />
    <glyph glyph-name="agrave" unicode="&#xe0;" 
d="M343 126c-88 0 -158.667 24.998 -212 74.998s-80 116 -80 198c0 86 24.167 155 72.5 207s118.5 84.667 210.5 98l165 23c42.667 6 78.334 15.667 107.001 29c12 6 21.333 16.5 28 31.5s9 30.5 7 46.5c-3.33301 26.667 -17 47.334 -41 62.001c-28 18 -68.667 27 -122 27
c-48 0 -85.333 -11.5 -112 -34.5s-40.667 -55.833 -42 -98.5h-240c5.33301 110.667 43.166 193.667 113.499 249s173.166 83 308.499 83c118 0 211 -24.833 279 -74.5s102 -117.5 102 -203.5v-529c0 -42 3.5 -71.667 10.5 -89s21.167 -30.666 42.5 -39.999v-35h-270
c-11.333 38 -18.666 75.333 -21.999 112l-1 2c-78 -92.667 -179.333 -139 -304 -139zM643 499.998l-0.000976562 108.001c-29.333 -16 -67.666 -29 -114.999 -39l-92 -17c-43.333 -8 -76.333 -22.833 -99 -44.5s-34 -49.167 -34 -82.5c0 -38 10.167 -67.667 30.5 -89
s48.5 -32 84.5 -32c80.667 0 144.667 28 192 84c9.33301 11.333 17 27.666 23 48.999c6.66699 21.333 10 42.333 10 63zM428.999 1227l-261 258h273l168 -258h-180z" />
    <glyph glyph-name="aacute" unicode="&#xe1;" 
d="M343 126c-88 0 -158.667 24.998 -212 74.998s-80 116 -80 198c0 86 24.167 155 72.5 207s118.5 84.667 210.5 98l165 23c42.667 6 78.334 15.667 107.001 29c12 6 21.333 16.5 28 31.5s9 30.5 7 46.5c-3.33301 26.667 -17 47.334 -41 62.001c-28 18 -68.667 27 -122 27
c-48 0 -85.333 -11.5 -112 -34.5s-40.667 -55.833 -42 -98.5h-240c5.33301 110.667 43.166 193.667 113.499 249s173.166 83 308.499 83c118 0 211 -24.833 279 -74.5s102 -117.5 102 -203.5v-529c0 -42 3.5 -71.667 10.5 -89s21.167 -30.666 42.5 -39.999v-35h-270
c-11.333 38 -18.666 75.333 -21.999 112l-1 2c-78 -92.667 -179.333 -139 -304 -139zM643 499.998l-0.000976562 108.001c-29.333 -16 -67.666 -29 -114.999 -39l-92 -17c-43.333 -8 -76.333 -22.833 -99 -44.5s-34 -49.167 -34 -82.5c0 -38 10.167 -67.667 30.5 -89
s48.5 -32 84.5 -32c80.667 0 144.667 28 192 84c9.33301 11.333 17 27.666 23 48.999c6.66699 21.333 10 42.333 10 63zM318.999 1227l191 258h273l-284 -258h-180z" />
    <glyph glyph-name="ccedilla" unicode="&#xe7;" 
d="M934 501c-13.333 -118 -57.332 -210 -131.999 -276c-73.333 -64.667 -168.333 -97.667 -285 -99l-47 -72l49 6c47.333 0 85.333 -12.833 114 -38.5s43 -59.5 43 -101.5c0 -54 -20 -96.833 -60 -128.5s-94 -47.5 -162 -47.5c-32.667 0 -67.334 4.16699 -104.001 12.5
s-70 19.833 -100 34.5l39 83c28.667 -9.33301 55.167 -16.5 79.5 -21.5s43.5 -7.5 57.5 -7.5c23.333 0 43.166 6.83301 59.499 20.5s24.5 30.167 24.5 49.5s-6.5 34.833 -19.5 46.5s-29.833 17.5 -50.5 17.5c-9.33301 0 -20.166 -1.16699 -32.499 -3.5
s-25.166 -5.83301 -38.499 -10.5l-38 36l87 131c-100 14.667 -180 55 -240 121c-78 85.333 -117 207 -117 365c0 154 40.5 276.5 121.5 367.5s190.167 136.5 327.5 136.5c122 0 221.833 -33.667 299.5 -101s119.167 -155.666 124.5 -264.999h-255
c-2 46.667 -18.5 84.5 -49.5 113.5s-70.833 43.5 -119.5 43.5c-62.667 0 -110.334 -25.167 -143.001 -75.5s-49 -123.5 -49 -219.5c0 -94 16.333 -165.5 49 -214.5s80.334 -73.5 143.001 -73.5c45.333 0 83.666 15.667 114.999 47s49.333 72.666 54 123.999h255z" />
    <glyph glyph-name="egrave" unicode="&#xe8;" 
d="M491 126c-144 0 -254.998 44.333 -332.998 133s-117 215 -117 379c0 151.333 39.667 269.833 119 355.5s189.666 128.5 330.999 128.5c144 0 255 -43.667 333 -131s117 -211.666 117 -372.999c1.33301 -18.667 0 -37.334 -4 -56.001h-645
c6 -75.333 22.667 -131.333 50 -168c34.667 -46.667 92.667 -70 174 -70c37.333 0 72.166 10.667 104.499 32s51.833 47.333 58.5 78h254c-22 -96.667 -72 -172.167 -150 -226.5s-175.333 -81.5 -292 -81.5zM681.002 721c-5.33301 56.667 -20.333 101 -45 133
c-32 42 -81.667 63 -149 63c-64 0 -113 -24.667 -147 -74c-20.667 -31.333 -35.667 -72 -45 -122h386zM444.002 1227l-261 258h273l168 -258h-180z" />
    <glyph glyph-name="eacute" unicode="&#xe9;" 
d="M491 126c-144 0 -254.998 44.333 -332.998 133s-117 215 -117 379c0 151.333 39.667 269.833 119 355.5s189.666 128.5 330.999 128.5c144 0 255 -43.667 333 -131s117 -211.666 117 -372.999c1.33301 -18.667 0 -37.334 -4 -56.001h-645
c6 -75.333 22.667 -131.333 50 -168c34.667 -46.667 92.667 -70 174 -70c37.333 0 72.166 10.667 104.499 32s51.833 47.333 58.5 78h254c-22 -96.667 -72 -172.167 -150 -226.5s-175.333 -81.5 -292 -81.5zM681.002 721c-5.33301 56.667 -20.333 101 -45 133
c-32 42 -81.667 63 -149 63c-64 0 -113 -24.667 -147 -74c-20.667 -31.333 -35.667 -72 -45 -122h386zM403.002 1227l168 258h273l-261 -258h-180z" />
    <glyph glyph-name="ecircumflex" unicode="&#xea;" 
d="M491 126c-144 0 -254.998 44.333 -332.998 133s-117 215 -117 379c0 151.333 39.667 269.833 119 355.5s189.666 128.5 330.999 128.5c144 0 255 -43.667 333 -131s117 -211.666 117 -372.999c1.33301 -18.667 0 -37.334 -4 -56.001h-645
c6 -75.333 22.667 -131.333 50 -168c34.667 -46.667 92.667 -70 174 -70c37.333 0 72.166 10.667 104.499 32s51.833 47.333 58.5 78h254c-22 -96.667 -72 -172.167 -150 -226.5s-175.333 -81.5 -292 -81.5zM620.002 1485l202 -258h-200l-113 145l-113 -145h-200l202 258
h222zM681.002 721c-5.33301 56.667 -20.333 101 -45 133c-32 42 -81.667 63 -149 63c-64 0 -113 -24.667 -147 -74c-20.667 -31.333 -35.667 -72 -45 -122h386z" />
    <glyph glyph-name="ocircumflex" unicode="&#xf4;" horiz-adv-x="1088" 
d="M545 126c-148 0 -265.667 44.333 -353 133s-131 208.334 -131 359.001c0 154 43.667 276.5 131 367.5s205 136.5 353 136.5c148.667 0 266.5 -45.5 353.5 -136.5s130.5 -213.5 130.5 -367.5c0 -150.667 -43.5 -270.334 -130.5 -359.001s-204.833 -133 -353.5 -133z
M545 334c74 0 130.5 24.5 169.5 73.5s58.5 120.167 58.5 213.5c0 95.333 -19.5 167.833 -58.5 217.5s-95.5 74.5 -169.5 74.5c-74.667 0 -131.167 -24.833 -169.5 -74.5s-57.5 -122.167 -57.5 -217.5c0 -93.333 19.167 -164.5 57.5 -213.5s94.833 -73.5 169.5 -73.5z
M656 1485l202 -258h-200l-113 145l-113 -145h-201l202 258h223z" />
    <glyph glyph-name="divide" unicode="&#xf7;" horiz-adv-x="1041" 
d="M71 705h898v-207h-898v207zM520 1131c44 0 81.5 -15.333 112.5 -46s46.5 -68 46.5 -112s-15.5 -81.333 -46.5 -112s-68.5 -46 -112.5 -46s-81.333 15.333 -112 46s-46 68 -46 112s15.333 81.333 46 112s68 46 112 46zM520 388c44 0 81.5 -15.333 112.5 -46
s46.5 -68 46.5 -112s-15.5 -81.333 -46.5 -112s-68.5 -46 -112.5 -46s-81.333 15.333 -112 46s-46 68 -46 112s15.333 81.333 46 112s68 46 112 46z" />
    </font>
</defs>
</svg>
