<?xml version="1.0" standalone="no"?>
<!DOCTYPE svg PUBLIC "-//W3C//DTD SVG 1.1//EN" "http://www.w3.org/Graphics/SVG/1.1/DTD/svg11.dtd" >
<svg xmlns="http://www.w3.org/2000/svg" xmlns:xlink="http://www.w3.org/1999/xlink" version="1.1">
<metadata>
Created by FontForge 20170731 at Mon May  5 20:25:41 2014
 By ,,,
(c) 2005-2014 HacenType, All Rights Reserved.
</metadata>
<defs>
<font id="HacenAlgeria" horiz-adv-x="1149" >
  <font-face 
    font-family="Hacen Algeria"
    font-weight="400"
    font-stretch="normal"
    units-per-em="2048"
    panose-1="2 0 5 0 0 0 0 0 0 0"
    ascent="1638"
    descent="-410"
    bbox="-145 -720 2153 2134"
    underline-thickness="150"
    underline-position="-525"
    unicode-range="U+0020-FED8"
  />
<missing-glyph horiz-adv-x="1024" 
d="M100 0v1434h824v-1434h-824zM150 50h724v1334h-724v-1334zM325 1148q31 28 58 43q53 30 112 30q92 0 148 -47.5t56 -127.5q0 -49 -23 -98.5t-87 -129.5q-63 -80 -99 -132t-36 -99q0 -38 24 -133h-32q-35 97 -35 148q0 76 81.5 218t81.5 217q0 57 -33 90t-91 33
q-38 0 -69 -17q-26 -15 -56 -40v45zM389 334l57 58q11 10 20 10q10 0 22 -11l56 -60q9 -11 9 -20q0 -11 -10 -22l-56 -62q-14 -14 -21 -14q-11 0 -20 10l-61 71q-7 9 -7 18q0 10 11 22z" />
    <glyph glyph-name="uniFC5E" unicode="&#x651;&#x64c;" horiz-adv-x="484" arabic-form="isolated" 
d="M396 1846q13 -15 22.5 -33t17.5 -36q11 -32 13 -66v-13q0 -27 -6 -50q-8 -30 -26.5 -50.5t-47.5 -24.5q-9 -1 -17 -1q-13 0 -21 4q-14 7 -31 19q-4 -11 -11 -25t-18.5 -28t-27.5 -25.5t-38 -16.5q-16 -4 -29 -4q-15 0 -27 6q-23 9 -36.5 29t-19 47.5t-5.5 54.5q-1 2 -1 5
q0 23 4 43q4 22 9 33q0 -1 1 -1t4 3q5 4 10.5 10t10.5 10q2 2 3 2t1 -1q-5 -21 -6 -47q-1 -6 -1 -12q0 -20 5 -38q5 -23 19 -37q10 -11 27 -11q6 0 13 1q28 5 41 23t18 40.5t6.5 45.5t6.5 39q0 -1 1 -1q2 0 4 2q3 4 7.5 9t8.5 10q2 2 3 2t2 -1q-1 -7 -1 -15q0 -21 7 -39
q9 -24 26 -37q15 -13 36 -13q1 0 2 1q21 0 43 20q3 7 3 15q0 4 -1 8q-2 13 -8.5 26t-15 25t-17.5 21q11 20 19.5 37.5t17.5 34.5zM425 1928q-7 -12 -21 -28.5t-33 -34t-42 -33t-48 -26t-50 -12.5q-5 -1 -11 -1q-19 0 -37 7q-23 10 -25 27q-1 5 -1 10q0 12 4 26q5 19 11 36
q3 7 3 13q0 8 -5 14q-8 9 -34 9h-2q-29 -1 -91 -18q20 23 46.5 37.5t53.5 18.5q11 2 21 2q15 0 28 -3q23 -6 36 -21q10 -13 10 -34v-6q-2 -26 -24 -62q48 17 89.5 38t75.5 53q-43 9 -63 27t-23 40q-1 5 -1 10q0 17 9 35q11 23 31 41.5t46 30.5q24 10 48 10h4q22 -2 30 -21
q7 -18 7 -40v-3q-1 -24 -6.5 -46.5t-9.5 -31.5l40 -10l-18 -65zM403 2065q-5 5 -12 6.5t-12 1.5h-3q-12 0 -20 -7q-10 -8 -10 -18q-1 -3 -1 -5q0 -7 5 -11q5 -7 14 -12t21.5 -9.5t25.5 -9.5q2 17 2 30q0 11 -2 21.5t-8 14.5v-2z" />
    <glyph glyph-name="uniFC5F" unicode="&#x651;&#x64d;" horiz-adv-x="425" arabic-form="isolated" 
d="M370 2050q12 -15 21.5 -33.5t16.5 -36.5q10 -32 11 -66v-7q0 -30 -7 -56q-9 -29 -28 -49t-48 -24q-7 -1 -14 -1q-15 0 -24 5q-14 7 -31 20q-4 -11 -11.5 -25t-19 -27.5t-28 -24.5t-38.5 -16q-14 -3 -26 -3q-17 0 -30 6q-23 10 -35.5 31t-17.5 48q-5 25 -5 49q0 2 1 5
q0 26 4 48.5t10 32.5q0 -1 1 -1t4 3l10 10t11 10q2 2 3 2t1 -1q-6 -21 -8 -48q-1 -8 -1 -15q0 -19 4 -35q5 -23 19 -37q10 -12 28 -12q5 0 11 1q29 4 42.5 21t19 39.5t7 46t7.5 39.5q0 -1 2 -1q1 0 3 2q4 3 8.5 8.5t8.5 9.5q1 2 3 2q1 0 2 -1q-1 -10 -1 -19q0 -18 5 -34
q8 -25 24 -38.5t37 -13.5q22 0 45 20q4 7 4 15q0 4 -1 8q-2 12 -8 25t-14.5 25.5t-16.5 21.5q11 20 20 37t19 34zM391 1684l-350 -141l33 75l350 141zM381 1579l-350 -141l33 75l350 141z" />
    <glyph glyph-name="uniFC60" unicode="&#x651;&#x64e;" horiz-adv-x="425" arabic-form="isolated" 
d="M398 1823q5 -8 6 -12v-3q0 -3 -1 -6q-1 -4 -1 -8q-1 -1 -1 -2q0 -4 4 -12q12 -32 15 -66v-17q0 -24 -5 -46q-8 -30 -26 -51t-47 -26q-9 -1 -17 -1q-13 0 -22 4q-14 7 -31 18q-4 -11 -10.5 -25.5t-18 -28.5t-27 -25.5t-37.5 -16.5q-21 -6 -38 -6q-10 0 -18 3
q-22 5 -35 19.5t-17.5 35t-4.5 40.5q0 21 4.5 39.5t9.5 29.5q0 -1 1 -1t4 3q4 4 9 10t10 11q3 2 4 2t1 -1q-5 -21 -7 -40q-1 -6 -1 -12q0 -11 3 -20q4 -14 17 -19q7 -3 17 -3q9 0 21 2q28 5 41 23t17.5 40.5t5.5 46t6 39.5q0 -1 1 -1q2 0 4 2q3 4 7 9l8 10q2 2 4 2q1 0 2 -1
q-1 -7 -1 -14q0 -22 8 -40q9 -24 26 -36q15 -12 34 -12h4q21 1 42 21q3 7 3 15q0 4 -1 8q-2 13 -8.5 25.5t-15.5 24.5t-18 21q5 10 14.5 15.5t20 10t20 9.5t15.5 13zM401 1903l-340 -193l17 91l340 193z" />
    <glyph glyph-name="uniFC61" unicode="&#x651;&#x64f;" horiz-adv-x="437" arabic-form="isolated" 
d="M372 1846q13 -15 22.5 -33t17.5 -36q11 -32 13 -66v-13q0 -27 -6 -50q-8 -30 -26.5 -50.5t-47.5 -24.5q-9 -1 -17 -1q-13 0 -21 4q-14 7 -31 19q-4 -11 -11 -25t-18.5 -28t-27.5 -25.5t-38 -16.5q-16 -4 -29 -4q-15 0 -27 6q-23 9 -36.5 29t-19 47.5t-5.5 54.5q-1 2 -1 5
q0 23 4 43q4 22 9 33q0 -1 1 -1t4 3q5 4 10.5 10t10.5 10q2 2 3 2t1 -1q-5 -21 -6 -47q-1 -6 -1 -12q0 -20 5 -38q5 -23 19 -37q10 -11 27 -11q6 0 13 1q28 5 41 23t18 40.5t6.5 45.5t6.5 39q0 -1 1 -1q2 0 4 2q3 4 7.5 9t8.5 10q2 2 3 2t2 -1q-1 -7 -1 -15q0 -21 7 -39
q9 -24 26 -37q15 -13 36 -13q1 0 2 1q21 0 43 20q3 7 3 15q0 4 -1 8q-2 13 -8.5 26t-15 25t-17.5 21q11 20 19.5 37.5t17.5 34.5zM347 1915q-11 -18 -37 -41t-61.5 -43.5t-76.5 -33.5q-36 -12 -72 -12h-11q-57 4 -75 4q-13 0 -13 1t1 1q60 20 103 34t77 28t61.5 31t54.5 43
q-46 8 -67.5 26.5t-24.5 40.5q-1 5 -1 10q0 17 9 35q12 23 33 42t49 31q25 10 51 10h4q23 -1 31 -20q8 -18 8 -41v-2q-1 -25 -7 -48t-10 -33l43 -10l-19 -63zM322 2054q-5 5 -11.5 6.5t-11.5 1.5h-4q-14 0 -22 -7q-10 -8 -11 -19v-3q0 -18 19 -26q21 -10 50 -18q2 16 2 30
q0 11 -2 22t-9 14v-1z" />
    <glyph glyph-name="uniFC62" unicode="&#x651;&#x650;" horiz-adv-x="425" arabic-form="isolated" 
d="M385 1972q12 -15 21.5 -33.5t16.5 -36.5q10 -32 11 -66v-7q0 -30 -7 -56q-9 -29 -28 -49t-48 -24q-7 -1 -14 -1q-15 0 -24 5q-14 7 -31 20q-4 -11 -11.5 -25t-19 -27.5t-28 -24.5t-38.5 -16q-14 -3 -26 -3q-17 0 -30 6q-23 10 -35.5 31t-17.5 48q-5 25 -5 49q0 2 1 5
q0 26 4 48t10 33q0 -1 1 -1t4 3l10 10t11 10q2 2 3 2t1 -1q-6 -21 -8 -48q-1 -8 -1 -15q0 -19 4 -35q5 -23 19 -37q10 -12 28 -12q5 0 11 1q29 4 42.5 21t19 39.5t7 46t7.5 39.5q0 -1 2 -1q1 0 3 2q4 3 8.5 8.5t8.5 9.5q1 2 3 2q1 0 2 -1q-1 -10 -1 -19q0 -18 5 -34
q8 -25 24 -38.5t37 -13.5q22 0 45 20q4 7 4 15q0 4 -1 8q-2 12 -8 25t-14.5 25.5t-16.5 21.5q11 20 20 37t19 34zM422 1590l-340 -193l17 91l340 193z" />
    <glyph glyph-name="afii57409" unicode="&#x621;" horiz-adv-x="812" arabic-form="isolated" 
d="M712 144l-589 -45l-23 150l214 16q-39 51 -80 110t-69.5 120t-36.5 122q-3 14 -3 28q0 45 21 86q16 34 41 59t56.5 42t69 27t78.5 15q38 5 76 5q29 0 59 -3q68 -6 128 -15l-47 -147q-45 8 -93 13q-23 2 -44 2q-23 0 -45 -3q-26 -3 -46 -13t-30 -30t-10 -43q0 -17 6 -36
q12 -46 39.5 -95.5t64 -99.5t69.5 -93q7 -8 13.5 -17t13.5 -17l145 11z" />
    <glyph glyph-name="afii57410" unicode="&#x622;" horiz-adv-x="638" arabic-form="isolated" 
d="M406 1367v-1226h-214v1226h214zM121 1557l417 60l-21 -107l-417 -60z" />
    <glyph glyph-name="afii57411" unicode="&#x623;" horiz-adv-x="523" arabic-form="isolated" 
d="M366 1367v-1226h-214v1226h214zM423 1515l-311 -26l-12 85l89 5q-18 24 -30 39t-16 29q-3 8 -3 17q0 6 1 13q3 15 15 40q14 32 44 46.5t68 19.5q19 2 38 2h25q31 -3 58 -8l-21 -81q-21 4 -43 6q-11 1 -21 1t-20 -1q-36 -4 -41 -15q-2 -4 -2 -9q0 -8 7 -18q9 -16 27 -34
t29 -36l107 10z" />
    <glyph glyph-name="afii57412" unicode="&#x624;" horiz-adv-x="979" arabic-form="isolated" 
d="M878 134q-5 -83 -23 -147t-48 -112t-70 -82.5t-89 -57.5q-49 -24 -102 -37t-109 -19t-115 -7t-119 -1v150q48 0 93.5 0.5t87.5 4.5t78 11.5t65 21.5q28 13 51 35t41 54t29 76.5t15 103.5q-94 1 -168 9.5t-131.5 24.5t-100.5 40t-74 56q-34 35 -52.5 76.5t-27 90
t-9.5 104.5v120q1 73 18.5 133.5t46.5 108t67.5 82t82.5 56.5q80 39 171 39h9q94 0 177 -42q43 -22 81 -55.5t65.5 -79t43.5 -102.5t16 -124v-460l-6 -71h6zM663 665q0 95 -33.5 154.5t-83.5 85.5q-28 13 -54 14q-24 0 -53 -13q-51 -26 -86.5 -89.5t-37.5 -169.5
q-1 -36 -1 -68q0 -17 1 -32q0 -46 5 -84.5t16 -68.5t31 -51q31 -32 101 -48t195 -17v387zM664 1185l-307 -20l-8 107l57 3q-22 29 -33.5 50t-15.5 38q-2 10 -2 19q0 7 1 14q3 15 10 34q10 27 30 48t48 35.5t61.5 21.5t69.5 7q29 0 46.5 -2.5t34.5 -6.5l-18 -104
q-39 14 -68 14q-11 0 -21 -2q-36 -7 -48 -37q-7 -16 -7 -33q0 -13 5 -26q9 -30 50 -57l120 11z" />
    <glyph glyph-name="afii57413" unicode="&#x625;" horiz-adv-x="523" arabic-form="isolated" 
d="M372 1367v-1226h-214v1226h214zM423 -229l-311 -26l-12 85l89 5q-18 24 -30 39t-16 29q-3 8 -3 17q0 6 1 13q3 15 15 40q14 32 44 46.5t68 19.5q19 2 38 2h25q31 -3 58 -8l-21 -81q-21 4 -43 6q-11 1 -21 1t-20 -1q-36 -4 -41 -15q-2 -4 -2 -9q0 -8 7 -18q9 -16 27 -34
t29 -36l107 10z" />
    <glyph glyph-name="afii57414" unicode="&#x626;" horiz-adv-x="1370" arabic-form="isolated" 
d="M1187 877q-50 11 -90 11h-14q-49 0 -92 -12q-50 -15 -89 -41q-42 -28 -70 -67t-39 -87q88 -23 158.5 -55t124.5 -70.5t92 -81.5t61 -89q24 -48 33 -96q4 -28 4 -56q0 -20 -2 -40q-5 -48 -24 -93t-51 -87q-36 -47 -86 -85.5t-113 -66t-138 -41.5q-66 -13 -140 -13h-20
q-26 1 -50.5 3t-49.5 7q-94 17 -179 59.5t-148 113.5q-60 66 -93 155q-31 82 -31 184v19q1 27 3 54t7 54l214 -17q-5 -26 -7 -49t-3 -44v-14q0 -82 23 -145q24 -69 69 -117q39 -45 90 -71t107 -36q14 -2 27.5 -3.5t27.5 -1.5h16q93 0 164 33q77 36 121 93q42 54 50 121
q2 13 2 27q0 19 -3 38q-6 33 -23 65q-18 35 -49.5 68t-78 62t-108.5 52.5t-141 39.5l-78 15l1 58q0 19 2.5 37t6.5 35q17 74 61.5 135.5t110.5 106.5q70 47 159 72q82 22 177 22h15q73 -2 149 -18zM415 664l-307 -20l-8 107l57 3q-22 29 -33.5 50t-15.5 38q-2 10 -2 19
q0 7 1 14q3 15 10 34q10 27 30 48t48 35.5t61.5 21.5t69.5 7q29 0 46.5 -2.5t34.5 -6.5l-18 -104q-39 14 -68 14q-11 0 -21 -2q-36 -7 -48 -37q-7 -16 -7 -33q0 -13 5 -26q9 -30 50 -57l120 11z" />
    <glyph glyph-name="afii57415" unicode="&#x627;" horiz-adv-x="414" arabic-form="isolated" 
d="M314 1367v-1226h-214v1226h214z" />
    <glyph glyph-name="afii57416" unicode="&#x628;" horiz-adv-x="1443" arabic-form="isolated" 
d="M623 -169q0 23 9 43t24 35t34.5 23.5t41.5 8.5t42 -8.5t35 -23.5t23.5 -35t8.5 -43t-8.5 -42.5t-23.5 -34t-35 -23t-42 -8.5t-41.5 8.5t-34.5 23t-24 34t-9 42.5zM315 768v-370q0 -29 10 -52.5t27 -40.5q24 -24 48 -24h645q23 0 47 24q17 17 27 40.5t10 52.5v577h214
v-577q0 -52 -20.5 -98t-55.5 -81q-41 -42 -98 -65.5t-125 -23.5h-643q-69 0 -126 23.5t-98 65.5q-35 35 -55.5 81t-20.5 98h-1v370h215z" />
    <glyph glyph-name="afii57417" unicode="&#x629;" horiz-adv-x="979" arabic-form="isolated" 
d="M878 398q0 -52 -20.5 -98t-55.5 -81q-42 -42 -98.5 -65.5t-125.5 -23.5q-140 4 -237.5 38.5t-151.5 89.5q-34 35 -52.5 76.5t-27 90t-9.5 104.5v38q0 39 1 82q1 73 18.5 133.5t46.5 108t67.5 82t82.5 56.5q42 20 87 30q41 9 83 9h9q94 0 177 -42q43 -22 81 -55.5
t65.5 -79t43.5 -102.5t16 -124v-267zM315 647q-1 -36 -1 -68q0 -17 1 -32q0 -46 5 -84.5t16 -68.5t31 -51q16 -17 47.5 -31.5t74.5 -22.5q16 -3 34.5 -6t36.5 -3t35.5 5.5t31.5 19.5q17 17 27 40.5t10 52.5h-1v267q0 95 -33.5 154.5t-82.5 85.5q-30 13 -55 14q-24 0 -53 -13
q-25 -13 -47 -35t-39 -54.5t-27 -74.5t-11 -95zM513 1364q0 23 9 43t24 35t35 23.5t43 8.5q22 0 41.5 -8.5t34 -23.5t23 -35t8.5 -43t-8.5 -42.5t-23 -34t-34 -23t-41.5 -8.5q-23 0 -43 8.5t-35 23t-24 34t-9 42.5zM252 1364q0 23 9 43t24 35t34.5 23.5t41.5 8.5t42 -8.5
t35 -23.5t23.5 -35t8.5 -43t-8.5 -42.5t-23.5 -34t-35 -23t-42 -8.5t-41.5 8.5t-34.5 23t-24 34t-9 42.5z" />
    <glyph glyph-name="afii57418" unicode="&#x62a;" horiz-adv-x="1443" arabic-form="isolated" 
d="M742 1190q0 23 9 43t24 35t35 23.5t43 8.5q22 0 41.5 -8.5t34 -23.5t23 -35t8.5 -43t-8.5 -42.5t-23 -34t-34 -23t-41.5 -8.5q-23 0 -43 8.5t-35 23t-24 34t-9 42.5zM481 1190q0 23 9 43t24 35t34.5 23.5t41.5 8.5t42 -8.5t35 -23.5t23.5 -35t8.5 -43t-8.5 -42.5
t-23.5 -34t-35 -23t-42 -8.5t-41.5 8.5t-34.5 23t-24 34t-9 42.5zM315 768v-370q0 -29 10 -52.5t27 -40.5q24 -24 48 -24h645q23 0 47 24q17 17 27 40.5t10 52.5v577h214v-577q0 -52 -20.5 -98t-55.5 -81q-41 -42 -98 -65.5t-125 -23.5h-643q-69 0 -126 23.5t-98 65.5
q-35 35 -55.5 81t-20.5 98h-1v370h215z" />
    <glyph glyph-name="afii57419" unicode="&#x62b;" horiz-adv-x="1443" arabic-form="isolated" 
d="M771 1200q0 23 9 43t24 35t35 23.5t43 8.5q22 0 41.5 -8.5t34 -23.5t23 -35t8.5 -43t-8.5 -42.5t-23 -34t-34 -23t-41.5 -8.5q-23 0 -43 8.5t-35 23t-24 34t-9 42.5zM607 1458q0 23 9 43t24 35t34.5 23.5t41.5 8.5t42 -8.5t35 -23.5t23.5 -35t8.5 -43t-8.5 -42.5
t-23.5 -34t-35 -23t-42 -8.5t-41.5 8.5t-34.5 23t-24 34t-9 42.5zM442 1200q0 23 9 43t24 35t34.5 23.5t41.5 8.5t42 -8.5t35 -23.5t23.5 -35t8.5 -43t-8.5 -42.5t-23.5 -34t-35 -23t-42 -8.5t-41.5 8.5t-34.5 23t-24 34t-9 42.5zM315 768v-370q0 -29 10 -52.5t27 -40.5
q24 -24 48 -24h645q23 0 47 24q17 17 27 40.5t10 52.5v577h214v-577q0 -52 -20.5 -98t-55.5 -81q-41 -42 -98 -65.5t-125 -23.5h-643q-69 0 -126 23.5t-98 65.5q-35 35 -55.5 81t-20.5 98h-1v370h215z" />
    <glyph glyph-name="afii57420" unicode="&#x62c;" horiz-adv-x="1135" arabic-form="isolated" 
d="M265 1041q101 22 185 22q13 0 26 -1q94 -4 167.5 -32t130 -78.5t98.5 -119.5q60 -97 94 -225t58 -274q4 -24 4 -43q0 -13 -2 -23q-5 -25 -19.5 -36t-34.5 -12h-7q-17 0 -35 4q-23 4 -45 10.5t-40 10.5q-25 5 -55.5 9.5t-64.5 7.5q-36 3 -74 4h-14q-32 0 -61 -3
q-37 -5 -71 -15t-62 -29q-54 -31 -86 -81t-40 -108q-3 -20 -3 -39q0 -53 22 -103q14 -33 37 -62.5t57 -52.5q35 -24 82 -41t107 -23q35 -4 76 -4q27 0 58 2q73 4 161 23l62 -143q-121 -26 -225 -31q-31 -1 -60 -1q-70 0 -131 8q-87 12 -157 39t-124 65t-91 82.5t-58 95.5
q-21 48 -27 99q-3 22 -3 45q0 28 4 56q12 86 63 162.5t138 126.5q32 20 64.5 33.5t62 21.5t53.5 12.5t39 6.5q54 8 110 8h28q70 -3 133 -11q-20 110 -48 204t-72 165q-25 40 -57.5 70t-75 46.5t-95.5 19.5h-17q-47 0 -104 -12zM545 -21q0 23 9 43t24 35t34.5 23.5t41.5 8.5
t42 -8.5t35 -23.5t23.5 -35t8.5 -43t-8.5 -42.5t-23.5 -34t-35 -23t-42 -8.5t-41.5 8.5t-34.5 23t-24 34t-9 42.5z" />
    <glyph glyph-name="afii57421" unicode="&#x62d;" horiz-adv-x="1135" arabic-form="isolated" 
d="M269 1041q101 22 185 22q13 0 26 -1q94 -4 167.5 -32t130 -78.5t98.5 -119.5q60 -97 94 -225t58 -274q4 -24 4 -43q0 -13 -2 -23q-5 -25 -19.5 -36t-34.5 -12h-7q-17 0 -35 4q-23 4 -45 10.5t-40 10.5q-25 5 -55.5 9.5t-64.5 7.5q-36 3 -74 4h-14q-32 0 -61 -3
q-37 -5 -71 -15t-62 -29q-54 -31 -86 -81t-40 -108q-3 -20 -3 -39q0 -53 22 -103q14 -33 37 -62.5t57 -52.5q35 -24 82 -41t107 -23q35 -4 76 -4q27 0 58 2q73 4 161 23l62 -143q-121 -26 -225 -31q-31 -1 -60 -1q-70 0 -131 8q-87 12 -157 39t-124 65t-91 82.5t-58 95.5
q-21 48 -27 99q-3 22 -3 45q0 28 4 56q12 86 63 162.5t138 126.5q32 20 64.5 33.5t62 21.5t53.5 12.5t39 6.5q54 8 110 8h28q70 -3 133 -11q-20 110 -48 204t-72 165q-25 40 -57.5 70t-75 46.5t-95.5 19.5h-17q-47 0 -104 -12z" />
    <glyph glyph-name="afii57422" unicode="&#x62e;" horiz-adv-x="1135" arabic-form="isolated" 
d="M269 1041q101 22 185 22q13 0 26 -1q94 -4 167.5 -32t130 -78.5t98.5 -119.5q60 -97 94 -225t58 -274q4 -24 4 -43q0 -13 -2 -23q-5 -25 -19.5 -36t-34.5 -12h-7q-17 0 -35 4q-23 4 -45 10.5t-40 10.5q-25 5 -55.5 9.5t-64.5 7.5q-36 3 -74 4h-14q-32 0 -61 -3
q-37 -5 -71 -15t-62 -29q-54 -31 -86 -81t-40 -108q-3 -20 -3 -39q0 -53 22 -103q14 -33 37 -62.5t57 -52.5q35 -24 82 -41t107 -23q35 -4 76 -4q27 0 58 2q73 4 161 23l62 -143q-121 -26 -225 -31q-31 -1 -60 -1q-70 0 -131 8q-87 12 -157 39t-124 65t-91 82.5t-58 95.5
q-21 48 -27 99q-3 22 -3 45q0 28 4 56q12 86 63 162.5t138 126.5q32 20 64.5 33.5t62 21.5t53.5 12.5t39 6.5q54 8 110 8h28q70 -3 133 -11q-20 110 -48 204t-72 165q-25 40 -57.5 70t-75 46.5t-95.5 19.5h-17q-47 0 -104 -12zM395 1318q0 23 9 43t24 35t34.5 23.5t41.5 8.5
t42 -8.5t35 -23.5t23.5 -35t8.5 -43t-8.5 -42.5t-23.5 -34t-35 -23t-42 -8.5t-41.5 8.5t-34.5 23t-24 34t-9 42.5z" />
    <glyph glyph-name="afii57423" unicode="&#x62f;" horiz-adv-x="895" arabic-form="isolated" 
d="M250 1069l3 -1l-1 1h-1q0 1 3 1q27 -1 66.5 -4t85.5 -14.5t95 -33t95 -60t85.5 -97t66 -142t37.5 -195.5q4 -51 4 -108q0 -70 -7 -151l-3 -37q-27 -13 -50.5 -23t-47.5 -19t-51.5 -17t-61.5 -15q-56 -11 -115 -16q-50 -4 -100 -4h-20q-61 1 -120 8.5t-113 20.5l71 142
q78 -20 168 -21q7 -1 15 -1q81 0 155 15q17 5 32.5 8t29.5 9q4 58 4 108q0 79 -9 141q-14 102 -43.5 169t-68.5 104t-78.5 55.5t-75 22.5t-57.5 5q-15 0 -26.5 1t-25.5 4z" />
    <glyph glyph-name="afii57424" unicode="&#x630;" horiz-adv-x="895" arabic-form="isolated" 
d="M250 1069l3 -1l-1 1h-1q0 1 3 1q27 -1 66.5 -4t85.5 -14.5t95 -33t95 -60t85.5 -97t66 -142t37.5 -195.5q4 -51 4 -108q0 -70 -7 -151l-3 -37q-27 -13 -50.5 -23t-47.5 -19t-51.5 -17t-61.5 -15q-56 -11 -115 -16q-50 -4 -100 -4h-20q-61 1 -120 8.5t-113 20.5l71 142
q78 -20 168 -21q7 -1 15 -1q81 0 155 15q17 5 32.5 8t29.5 9q4 58 4 108q0 79 -9 141q-14 102 -43.5 169t-68.5 104t-78.5 55.5t-75 22.5t-57.5 5q-15 0 -26.5 1t-25.5 4zM353 1356q0 23 9 43t24 35t34.5 23.5t41.5 8.5t42 -8.5t35 -23.5t23.5 -35t8.5 -43t-8.5 -42.5
t-23.5 -34t-35 -23t-42 -8.5t-41.5 8.5t-34.5 23t-24 34t-9 42.5z" />
    <glyph glyph-name="afii57425" unicode="&#x631;" horiz-adv-x="629" arabic-form="isolated" 
d="M529 977v-843q-5 -83 -23 -147t-47.5 -112t-70 -82.5t-89.5 -57.5q-49 -24 -102 -37t-109 -19t-114.5 -7t-118.5 -1v150q48 0 93.5 0.5t87 4.5t77.5 11.5t65 21.5q28 13 52 35.5t41.5 56t28.5 79t14 106.5v841h215z" />
    <glyph glyph-name="afii57426" unicode="&#x632;" horiz-adv-x="629" arabic-form="isolated" 
d="M529 977v-843q-5 -83 -23 -147t-47.5 -112t-70 -82.5t-89.5 -57.5q-49 -24 -102 -37t-109 -19t-114.5 -7t-118.5 -1v150q48 0 93.5 0.5t87 4.5t77.5 11.5t65 21.5q28 13 52 35.5t41.5 56t28.5 79t14 106.5v841h215zM299 1325q0 23 9 43t24 35t34.5 23.5t41.5 8.5t42 -8.5
t35 -23.5t23.5 -35t8.5 -43t-8.5 -42.5t-23.5 -34t-35 -23t-42 -8.5t-41.5 8.5t-34.5 23t-24 34t-9 42.5z" />
    <glyph glyph-name="afii57427" unicode="&#x633;" horiz-adv-x="2079" arabic-form="isolated" 
d="M1979 398q0 -52 -20.5 -98t-55.5 -81q-42 -42 -98.5 -65.5t-125.5 -23.5h-92q-57 0 -105.5 16t-86.5 45q-39 -29 -87.5 -45t-105.5 -16h-97q-45 0 -87 11v-11q-5 -92 -29 -161t-60.5 -119.5t-81.5 -84.5t-91 -54q-41 -18 -82 -27q-20 -5 -40 -7t-40 -3h-59q-34 1 -73 7.5
t-81.5 20.5t-84.5 40q-38 23 -71.5 56.5t-60 81.5t-43.5 111t-21 145v624h214v-620q3 -63 14 -110t27.5 -81.5t38 -57.5t44.5 -37q19 -11 39 -17.5t38.5 -9.5t35.5 -3h30q6 0 13 1t15 3q9 2 17.5 4.5t16.5 5.5q28 12 55.5 35t50 59t38 87.5t18.5 120.5v837h215v-579
q0 -10 -1 -15q2 -23 12 -43t25 -35q24 -24 48 -24h99q24 0 48 24q15 15 25 35t12 43q-1 5 -1 15v579h215v-594q4 -47 36 -78q24 -24 48 -24h94q24 0 48 24q17 17 27 40.5t10 52.5h-1v579h215v-579z" />
    <glyph glyph-name="afii57428" unicode="&#x634;" horiz-adv-x="2079" arabic-form="isolated" 
d="M1979 398q0 -52 -20.5 -98t-55.5 -81q-42 -42 -98.5 -65.5t-125.5 -23.5h-92q-57 0 -105.5 16t-86.5 45q-39 -29 -87.5 -45t-105.5 -16h-97q-45 0 -87 11v-11q-5 -92 -29 -161t-60.5 -119.5t-81.5 -84.5t-91 -54q-41 -18 -82 -27q-20 -5 -40 -7t-40 -3h-59q-34 1 -73 7.5
t-81.5 20.5t-84.5 40q-38 23 -71.5 56.5t-60 81.5t-43.5 111t-21 145v624h214v-620q3 -63 14 -110t27.5 -81.5t38 -57.5t44.5 -37q19 -11 39 -17.5t38.5 -9.5t35.5 -3h30q6 0 13 1t15 3q9 2 17.5 4.5t16.5 5.5q28 12 55.5 35t50 59t38 87.5t18.5 120.5v837h215v-579
q0 -10 -1 -15q2 -23 12 -43t25 -35q24 -24 48 -24h99q24 0 48 24q15 15 25 35t12 43q-1 5 -1 15v579h215v-594q4 -47 36 -78q24 -24 48 -24h94q24 0 48 24q17 17 27 40.5t10 52.5h-1v579h215v-579zM1458 1200q0 23 9 43t24 35t35 23.5t43 8.5q22 0 41.5 -8.5t34 -23.5
t23 -35t8.5 -43t-8.5 -42.5t-23 -34t-34 -23t-41.5 -8.5q-23 0 -43 8.5t-35 23t-24 34t-9 42.5zM1294 1458q0 23 9 43t24 35t34.5 23.5t41.5 8.5t42 -8.5t35 -23.5t23.5 -35t8.5 -43t-8.5 -42.5t-23.5 -34t-35 -23t-42 -8.5t-41.5 8.5t-34.5 23t-24 34t-9 42.5zM1129 1200
q0 23 9 43t24 35t34.5 23.5t41.5 8.5t42 -8.5t35 -23.5t23.5 -35t8.5 -43t-8.5 -42.5t-23.5 -34t-35 -23t-42 -8.5t-41.5 8.5t-34.5 23t-24 34t-9 42.5z" />
    <glyph glyph-name="afii57429" unicode="&#x635;" horiz-adv-x="2046" arabic-form="isolated" 
d="M1018 130q-5 -92 -29 -161t-60.5 -119.5t-81.5 -84.5t-91 -54q-41 -18 -82 -27q-20 -5 -40 -7t-40 -3h-59q-34 1 -73 7.5t-81.5 20.5t-84.5 40q-38 23 -71.5 56.5t-60 81.5t-43.5 111t-21 145v624l214 -3v-617q3 -63 14 -110t27.5 -81.5t38 -57.5t44.5 -37
q19 -11 39 -17.5t38.5 -9.5t35.5 -3h30q6 0 13 1t15 3q9 2 17.5 4.5t16.5 5.5q28 12 55.5 35t50 59t38 87.5t18.5 120.5v839h214v-122l1 1q72 111 157 143q58 23 118.5 35.5t122.5 16.5q19 1 38 1q43 0 87 -5q61 -7 118 -27q60 -20 111 -53t88.5 -79t60 -106t24.5 -135v-18
q0 -8 1 -16v-217q0 -52 -20.5 -98t-55.5 -81q-41 -42 -98 -65.5t-125 -23.5h-629zM1019 281h629q23 0 47 24q17 17 27 40.5t10 52.5v202q0 11 -0.5 22.5t-0.5 23.5q-2 50 -14.5 89.5t-34.5 69.5t-51 50t-63 32q-30 10 -64 14q-23 3 -46 3q-12 0 -24 -1q-38 -2 -77 -10.5
t-77 -23.5q-53 -20 -100.5 -51.5t-83 -73.5t-56.5 -93.5t-21 -111.5v-258z" />
    <glyph glyph-name="afii57430" unicode="&#x636;" horiz-adv-x="2046" arabic-form="isolated" 
d="M1018 130q-5 -92 -29 -161t-60.5 -119.5t-81.5 -84.5t-91 -54q-41 -18 -82 -27q-20 -5 -40 -7t-40 -3h-59q-34 1 -73 7.5t-81.5 20.5t-84.5 40q-38 23 -71.5 56.5t-60 81.5t-43.5 111t-21 145v624l214 -3v-617q3 -63 14 -110t27.5 -81.5t38 -57.5t44.5 -37
q19 -11 39 -17.5t38.5 -9.5t35.5 -3h30q6 0 13 1t15 3q9 2 17.5 4.5t16.5 5.5q28 12 55.5 35t50 59t38 87.5t18.5 120.5v839h214v-122l1 1q72 111 157 143q58 23 118.5 35.5t122.5 16.5q19 1 38 1q43 0 87 -5q61 -7 118 -27q60 -20 111 -53t88.5 -79t60 -106t24.5 -135v-18
q0 -8 1 -16v-217q0 -52 -20.5 -98t-55.5 -81q-41 -42 -98 -65.5t-125 -23.5h-629zM1019 281h629q23 0 47 24q17 17 27 40.5t10 52.5v202q0 11 -0.5 22.5t-0.5 23.5q-2 50 -14.5 89.5t-34.5 69.5t-51 50t-63 32q-30 10 -64 14q-23 3 -46 3q-12 0 -24 -1q-38 -2 -77 -10.5
t-77 -23.5q-53 -20 -100.5 -51.5t-83 -73.5t-56.5 -93.5t-21 -111.5v-258zM1131 1350q0 23 9 43t24 35t34.5 23.5t41.5 8.5t42 -8.5t35 -23.5t23.5 -35t8.5 -43t-8.5 -42.5t-23.5 -34t-35 -23t-42 -8.5t-41.5 8.5t-34.5 23t-24 34t-9 42.5z" />
    <glyph glyph-name="afii57431" unicode="&#x637;" horiz-adv-x="1489" arabic-form="isolated" 
d="M536 130v-2q-29 -1 -58 -1q-15 0 -30 1q-46 0 -95 2h-253v151h64q23 0 47 24q17 17 27 40.5t10 52.5v972h215v-512q72 111 157 143q58 23 118.5 35.5t122.5 16.5q19 1 38 1q43 0 87 -5q61 -7 118 -27q60 -20 111 -53t88.5 -79t60 -106t24.5 -135v-18q0 -8 1 -16v-217
q0 -52 -20.5 -98t-55.5 -81q-41 -42 -98 -65.5t-125 -23.5h-554zM462 394q0 -30 -7.5 -58.5t-21.5 -54.5h658q23 0 47 24q17 17 27 40.5t10 52.5v202q0 11 -0.5 22.5t-0.5 23.5q-2 50 -14.5 89.5t-34.5 69.5t-51 50t-63 32q-30 10 -64 14q-23 3 -46 3q-12 0 -24 -1
q-38 -2 -77 -10.5t-77 -23.5q-53 -20 -100.5 -51.5t-82.5 -73.5t-55.5 -93.5t-20.5 -111.5v-145h-2z" />
    <glyph glyph-name="afii57432" unicode="&#x638;" horiz-adv-x="1489" arabic-form="isolated" 
d="M536 130v-2q-29 -1 -58 -1q-15 0 -30 1q-46 0 -95 2h-253v151h64q23 0 47 24q17 17 27 40.5t10 52.5v972h215v-512q72 111 157 143q58 23 118.5 35.5t122.5 16.5q19 1 38 1q43 0 87 -5q61 -7 118 -27q60 -20 111 -53t88.5 -79t60 -106t24.5 -135v-18q0 -8 1 -16v-217
q0 -52 -20.5 -98t-55.5 -81q-41 -42 -98 -65.5t-125 -23.5h-554zM462 394q0 -30 -7.5 -58.5t-21.5 -54.5h658q23 0 47 24q17 17 27 40.5t10 52.5v202q0 11 -0.5 22.5t-0.5 23.5q-2 50 -14.5 89.5t-34.5 69.5t-51 50t-63 32q-30 10 -64 14q-23 3 -46 3q-12 0 -24 -1
q-38 -2 -77 -10.5t-77 -23.5q-53 -20 -100.5 -51.5t-82.5 -73.5t-55.5 -93.5t-20.5 -111.5v-145h-2zM676 1331q0 23 9 43t24 35t34.5 23.5t41.5 8.5t42 -8.5t35 -23.5t23.5 -35t8.5 -43t-8.5 -42.5t-23.5 -34t-35 -23t-42 -8.5t-41.5 8.5t-34.5 23t-24 34t-9 42.5z" />
    <glyph glyph-name="afii57433" unicode="&#x639;" horiz-adv-x="1113" arabic-form="isolated" 
d="M328 347q-18 29 -35 61.5t-30 69.5t-21 79t-8 89v2q3 108 37 186.5t88.5 129.5t124 76t143.5 25h1q72 0 140.5 -26t122 -76.5t86.5 -125.5t33 -174h-215q0 58 -14.5 105t-38 79.5t-54 50t-63.5 17.5h-1q-30 0 -60.5 -16.5t-55.5 -49.5t-41.5 -84t-18.5 -120v-1
q0 -72 23.5 -130.5t52.5 -106.5q27 5 57.5 6t59.5 1q63 0 123.5 -6.5t111 -15t86.5 -17.5t51 -13l-92 -136q-11 3 -38 9.5t-64 13t-82 11.5t-92 5q-27 0 -55 -2t-53.5 -7.5t-48 -13.5t-38.5 -20l-7 -4q-63 -36 -96 -97t-33 -130q0 -54 21 -105.5t67 -92t118.5 -65
t175.5 -24.5q48 0 102 5.5t116 19.5l62 -143q-158 -33 -285 -33q-134 0 -236.5 31t-175.5 82q-92 64 -135.5 148t-43.5 175q0 52 14.5 104.5t43.5 99.5t71.5 86.5t98.5 67.5z" />
    <glyph glyph-name="afii57434" unicode="&#x63a;" horiz-adv-x="1113" arabic-form="isolated" 
d="M328 347q-18 29 -35 61.5t-30 69.5t-21 79t-8 89v2q3 108 37 186.5t88.5 129.5t124 76t143.5 25h1q72 0 140.5 -26t122 -76.5t86.5 -125.5t33 -174h-215q0 58 -14.5 105t-38 79.5t-54 50t-63.5 17.5h-1q-30 0 -60.5 -16.5t-55.5 -49.5t-41.5 -84t-18.5 -120v-1
q0 -72 23.5 -130.5t52.5 -106.5q27 5 57.5 6t59.5 1q63 0 123.5 -6.5t111 -15t86.5 -17.5t51 -13l-92 -136q-11 3 -38 9.5t-64 13t-82 11.5t-92 5q-27 0 -55 -2t-53.5 -7.5t-48 -13.5t-38.5 -20l-7 -4q-63 -36 -96 -97t-33 -130q0 -54 21 -105.5t67 -92t118.5 -65
t175.5 -24.5q48 0 102 5.5t116 19.5l62 -143q-158 -33 -285 -33q-134 0 -236.5 31t-175.5 82q-92 64 -135.5 148t-43.5 175q0 52 14.5 104.5t43.5 99.5t71.5 86.5t98.5 67.5zM517 1331q0 23 9 43t24 35t34.5 23.5t41.5 8.5t42 -8.5t35 -23.5t23.5 -35t8.5 -43t-8.5 -42.5
t-23.5 -34t-35 -23t-42 -8.5t-41.5 8.5t-34.5 23t-24 34t-9 42.5z" />
    <glyph glyph-name="afii57441" unicode="&#x641;" horiz-adv-x="1444" arabic-form="isolated" 
d="M315 398q0 -29 10 -52.5t27 -40.5q24 -24 48 -24h235q-27 34 -41.5 73.5t-21 85t-6.5 98.5q-1 10 -1 21q0 43 2 90q1 73 18.5 133.5t46.5 108t67.5 82t82.5 56.5q42 20 87 30q41 9 83 9h9q94 0 177 -42q43 -22 81 -55.5t65.5 -79t43.5 -102.5t16 -124v-267
q0 -52 -20.5 -98t-55.5 -81q-42 -42 -98.5 -65.5t-125.5 -23.5h-643q-69 0 -126 23.5t-98 65.5q-35 35 -55.5 81t-20.5 98h-1v370h215v-370zM1046 281q23 0 47 24q17 17 27 40.5t10 52.5h-1v267q0 95 -33.5 154.5t-82.5 85.5q-30 13 -55 14q-24 0 -53 -13q-25 -13 -47 -35
t-39 -54.5t-27 -74.5t-11 -95q-1 -36 -1 -68q0 -17 1 -32q0 -46 5 -84.5t16 -68.5t31 -51q12 -13 24 -23t29.5 -17.5t43 -13t64.5 -8.5h52zM842 1275q0 23 9 43t24 35t35 23.5t43 8.5q22 0 41.5 -8.5t34 -23.5t23 -35t8.5 -43t-8.5 -42.5t-23 -34t-34 -23t-41.5 -8.5
q-23 0 -43 8.5t-35 23t-24 34t-9 42.5z" />
    <glyph glyph-name="afii57442" unicode="&#x642;" horiz-adv-x="1362" arabic-form="isolated" 
d="M1262 134q-5 -83 -23 -147t-48 -112t-70 -82.5t-89 -57.5q-60 -29 -126 -42t-136 -18q-66 0 -125 1t-113 7.5t-104 19.5t-99 36q-49 24 -89 58t-70 82.5t-48 112t-22 146.5l214 6q3 -62 14 -108t28.5 -80t41 -56.5t52.5 -36.5q28 -13 64 -20.5t77 -11t86.5 -4.5t92.5 -1
q42 4 77 11.5t64 21.5q28 13 51.5 35t41 54t28.5 76.5t15 103.5q-94 1 -168 9.5t-131.5 24.5t-100.5 40t-74 56q-34 35 -52.5 76.5t-27 90t-9.5 104.5v38q0 39 1 82q1 73 18 133.5t46 108t68 82t83 56.5q79 39 170 39h9q94 0 177 -42q43 -22 81 -55.5t65.5 -79t43.5 -102.5
t16 -124v-531zM1047 665q0 95 -33.5 154.5t-83.5 85.5q-28 13 -54 14q-24 0 -53 -13q-51 -26 -86.5 -89.5t-37.5 -169.5q-1 -36 -1 -68q0 -17 1 -32q0 -46 5 -84.5t16 -68.5t31 -51q31 -32 101 -48t195 -17v387zM879 1275q0 23 9 43t24 35t35 23.5t43 8.5q22 0 41.5 -8.5
t34 -23.5t23 -35t8.5 -43t-8.5 -42.5t-23 -34t-34 -23t-41.5 -8.5q-23 0 -43 8.5t-35 23t-24 34t-9 42.5zM618 1275q0 23 9 43t24 35t34.5 23.5t41.5 8.5t42 -8.5t35 -23.5t23.5 -35t8.5 -43t-8.5 -42.5t-23.5 -34t-35 -23t-42 -8.5t-41.5 8.5t-34.5 23t-24 34t-9 42.5z" />
    <glyph glyph-name="afii57443" unicode="&#x643;" horiz-adv-x="1443" arabic-form="isolated" 
d="M315 774v-376q0 -29 10 -52.5t27 -40.5q24 -24 47 -24h647q22 0 46 24q17 17 27 40.5t10 52.5v969h214v-969q0 -52 -20.5 -98t-55.5 -81q-41 -42 -98 -65.5t-125 -23.5h-643q-69 0 -126 23.5t-98 65.5q-35 35 -55.5 81t-20.5 98h-1v376h215zM951 696l-440 -34l-17 112
l160 12q-29 38 -52.5 70t-35.5 63q-11 29 -11 59v5q1 33 21 73q24 51 73 75t110 32q29 3 58 3q21 0 43 -1q51 -5 96 -12l-35 -110q-34 6 -70 10q-17 1 -32 1q-18 0 -34 -2q-20 -2 -34.5 -9t-22.5 -23q-11 -22 -11 -42q0 -3 1 -5q1 -22 12.5 -44.5t31.5 -47.5t44 -57
q5 -6 10 -12.5t10 -12.5l109 8z" />
    <glyph glyph-name="afii57444" unicode="&#x644;" horiz-adv-x="1119" arabic-form="isolated" 
d="M314 140q3 -63 14 -110t27.5 -81.5t38 -57.5t44.5 -37q19 -11 39 -17.5t38.5 -9.5t35.5 -3h30q6 0 13 1t15 3q9 2 17.5 4.5t16.5 5.5q28 12 55.5 35t50 59t38 87.5t18.5 120.5v1229h214v-1233q-4 -93 -28 -163.5t-60.5 -122t-82 -85.5t-92.5 -54q-41 -18 -82 -27
q-20 -5 -40 -7t-40 -3h-59q-34 1 -73 7.5t-81.5 20.5t-84.5 40q-38 23 -71.5 56.5t-60 81.5t-43.5 111t-21 145z" />
    <glyph glyph-name="afii57445" unicode="&#x645;" horiz-adv-x="1070" arabic-form="isolated" 
d="M-9 -244q50 0 85 18.5t57.5 50t34.5 74.5t17.5 92t6 101.5t0.5 104.5v468q0 67 16 124t43.5 102.5t65.5 79t82 55.5q41 21 85.5 31.5t90.5 10.5h9q91 0 171 -39q44 -22 82.5 -56.5t67.5 -82t46 -108t19 -133.5v-343q0 -29 -5.5 -56t-18.5 -52q-20 -42 -57.5 -78
t-82.5 -54q-62 -28 -130 -28q-41 0 -83 10h-4l-183 49q-1 -62 -7 -122.5t-21.5 -115t-43.5 -101t-73.5 -80.5t-111.5 -53t-158 -19v150zM407 257l256 -67q5 -1 10 -1q8 0 15 3q12 4 22.5 12.5t19 19.5t13.5 22q13 26 13 60l-1 341q-2 106 -37.5 169.5t-86.5 89.5
q-29 13 -53 13q-26 -1 -54 -14q-50 -26 -83.5 -85.5t-33.5 -154.5v-408z" />
    <glyph glyph-name="afii57446" unicode="&#x646;" horiz-adv-x="1326" arabic-form="isolated" 
d="M327 439q-5 -26 -7 -49t-3 -44v-14q0 -82 23 -145q24 -69 68 -117q40 -45 91 -71t107 -36q14 -2 27.5 -3.5t27.5 -1.5h15q98 0 171 36q79 38 122 100q9 12 16 25t13 27q5 14 8.5 28t5.5 28v775h214v-747l-1 -40q-4 -43 -21 -84q-8 -20 -18.5 -39.5t-23.5 -38.5
q-35 -50 -85.5 -91t-115 -70.5t-142.5 -45.5q-69 -14 -147 -14h-19q-25 1 -49.5 3t-48.5 7q-95 17 -180 59.5t-148 113.5q-60 66 -93 155q-31 82 -31 184v19q1 27 3 54t7 54zM549 1177q0 24 9 45t25 36.5t37 24.5t44 9t43.5 -9t36 -24.5t24.5 -36.5t9 -45t-9 -44.5
t-24.5 -36t-36 -24t-43.5 -8.5t-44 8.5t-37 24t-25 36t-9 44.5z" />
    <glyph glyph-name="afii57470" unicode="&#x647;" horiz-adv-x="979" arabic-form="isolated" 
d="M879 398q0 -52 -20.5 -98t-55.5 -81q-42 -42 -98.5 -65.5t-125.5 -23.5q-140 4 -237.5 38.5t-151.5 89.5q-34 35 -52.5 76.5t-27 90t-9.5 104.5v38q0 39 1 82q1 73 18.5 133.5t46.5 108t67.5 82t82.5 56.5q42 20 87 30q41 9 83 9h9q94 0 177 -42q43 -22 81 -55.5
t65.5 -79t43.5 -102.5t16 -124v-267zM316 647q-1 -36 -1 -68q0 -17 1 -32q0 -46 5 -84.5t16 -68.5t31 -51q16 -17 47.5 -31.5t74.5 -22.5q16 -3 34.5 -6t36.5 -3t35.5 5.5t31.5 19.5q17 17 27 40.5t10 52.5h-1v267q0 95 -33.5 154.5t-82.5 85.5q-30 13 -55 14q-24 0 -53 -13
q-25 -13 -47 -35t-39 -54.5t-27 -74.5t-11 -95z" />
    <glyph glyph-name="afii57448" unicode="&#x648;" horiz-adv-x="979" arabic-form="isolated" 
d="M879 134q-5 -83 -23 -147t-48 -112t-70 -82.5t-89 -57.5q-49 -24 -102 -37t-109 -19t-115 -7t-119 -1v150q48 0 93.5 0.5t87.5 4.5t78 11.5t65 21.5q28 13 51 35t41 54t29 76.5t15 103.5q-94 1 -168 9.5t-131.5 24.5t-100.5 40t-74 56q-34 35 -52.5 76.5t-27 90
t-9.5 104.5v120q1 73 18.5 133.5t46.5 108t67.5 82t82.5 56.5q80 39 171 39h9q94 0 177 -42q43 -22 81 -55.5t65.5 -79t43.5 -102.5t16 -124v-460l-6 -71h6zM664 665q0 95 -33.5 154.5t-83.5 85.5q-28 13 -54 14q-24 0 -53 -13q-51 -26 -86.5 -89.5t-37.5 -169.5
q-1 -36 -1 -68q0 -17 1 -32q0 -46 5 -84.5t16 -68.5t31 -51q31 -32 101 -48t195 -17v387z" />
    <glyph glyph-name="afii57449" unicode="&#x649;" horiz-adv-x="1332" arabic-form="isolated" 
d="M1149 877q-50 11 -90 11h-14q-49 0 -92 -12q-50 -15 -89 -41q-42 -28 -70 -67t-39 -87q88 -23 158.5 -55t124.5 -70.5t92 -81.5t61 -89q24 -48 33 -96q4 -28 4 -56q0 -20 -2 -40q-5 -48 -24 -93t-51 -87q-36 -47 -86 -85.5t-113 -66t-138 -41.5q-66 -13 -140 -13h-20
q-26 1 -50.5 3t-49.5 7q-94 17 -179 59.5t-148 113.5q-60 66 -93 155q-31 82 -31 184v19q1 27 3 54t7 54l214 -17q-5 -26 -7 -49t-3 -44v-14q0 -82 23 -145q24 -69 69 -117q39 -45 90 -71t107 -36q14 -2 27.5 -3.5t27.5 -1.5h16q93 0 164 33q77 36 121 93q42 54 50 121
q2 13 2 27q0 19 -3 38q-6 33 -23 65q-18 35 -49.5 68t-78 62t-108.5 52.5t-141 39.5l-78 15l1 58q0 19 2.5 37t6.5 35q17 74 61.5 135.5t110.5 106.5q70 47 159 72q82 22 177 22h15q73 -2 149 -18z" />
    <glyph glyph-name="afii57450" unicode="&#x64a;" horiz-adv-x="1332" arabic-form="isolated" 
d="M1149 877q-50 11 -90 11h-14q-49 0 -92 -12q-50 -15 -89 -41q-42 -28 -70 -67t-39 -87q88 -23 158.5 -55t124.5 -70.5t92 -81.5t61 -89q24 -48 33 -96q4 -28 4 -56q0 -20 -2 -40q-5 -48 -24 -93t-51 -87q-36 -47 -86 -85.5t-113 -66t-138 -41.5q-66 -13 -140 -13h-20
q-26 1 -50.5 3t-49.5 7q-94 17 -179 59.5t-148 113.5q-60 66 -93 155q-31 82 -31 184v19q1 27 3 54t7 54l214 -17q-5 -26 -7 -49t-3 -44v-14q0 -82 23 -145q24 -69 69 -117q39 -45 90 -71t107 -36q14 -2 27.5 -3.5t27.5 -1.5h16q93 0 164 33q77 36 121 93q42 54 50 121
q2 13 2 27q0 19 -3 38q-6 33 -23 65q-18 35 -49.5 68t-78 62t-108.5 52.5t-141 39.5l-78 15l1 58q0 19 2.5 37t6.5 35q17 74 61.5 135.5t110.5 106.5q70 47 159 72q82 22 177 22h15q73 -2 149 -18zM706 -451q0 23 9 43t24 35t35 23.5t43 8.5q22 0 41.5 -8.5t34 -23.5t23 -35
t8.5 -43t-8.5 -42.5t-23 -34t-34 -23t-41.5 -8.5q-23 0 -43 8.5t-35 23t-24 34t-9 42.5zM445 -451q0 23 9 43t24 35t34.5 23.5t41.5 8.5t42 -8.5t35 -23.5t23.5 -35t8.5 -43t-8.5 -42.5t-23.5 -34t-35 -23t-42 -8.5t-41.5 8.5t-34.5 23t-24 34t-9 42.5z" />
    <glyph glyph-name="uniFDFA" unicode="&#xfdfa;" horiz-adv-x="2188" arabic-form="isolated" 
d="M285 68q-21 33 -21 73q0 22 10 46t25.5 43.5t34.5 32t37 12.5q7 0 20 -9q34 -16 54 -16q31 0 55 31l8 10l8 10q9 8 25 43l12 25q2 2 3.5 4.5l4.5 7.5q-9 3 -12 6l-35 10q-102 34 -131 152l-6 29l-4 20v3q0 2 -2 7l-4 2l-6 -8q-67 -94 -148 -94q-21 0 -43 4t-39 10.5
t-28 14.5t-11 16q0 39 68 98q35 29 72 52t78 39l28 10l8 4q4 0 7 2v27q0 4 -3 8l39 63q2 -6 2 -9v-5l2 -27q13 -177 43 -248q34 -66 111 -86q-2 11 -2 17t-2 8l-6 82q-2 12 -3.5 32.5t-4.5 49.5q-6 46 -6 78l36 88v-21l9 -78l6 -65l4 -47l6 -58l4 -47q2 -14 3 -26t3 -23
q8 -2 14 -2t9 -2l55 -4l88 -4h45q208 0 342 82l4 8l10 31q14 37 25 37q6 0 6 -15v-14l-4 -16q-2 -8 -2 -14v-11q9 -12 24 -24.5t32 -22.5t34 -16.5t29 -6.5q50 0 84 88v13l-4 37l-4 43l-4 53q-2 5 -2.5 19.5t-2.5 37.5l-4 57q-2 19 -3 35.5t-1 30.5q-5 -2 -9 -2h-5
q-32 0 -59.5 11t-49.5 31.5t-37 48.5t-20 61h-2q-2 -5 -3 -8t-1 -5q-32 -116 -80 -133v-4h53q18 0 35 -6t29.5 -16.5t20 -25t7.5 -30.5q0 -69 -71 -108l-43 -25q-137 -82 -258 -82q-48 0 -87 13t-66.5 36.5t-42.5 56.5t-15 74q0 29 7.5 64t24.5 74q-60 18 -75 86h-4l-7 -13
q-46 -90 -104 -90q-98 0 -98 154q-5 -3 -7 -4.5t-4 -3.5l-18 -17q-6 -5 -10 -8.5t-6 -5.5q-11 -11 -29.5 -17t-46.5 -6q-111 0 -111 37q0 16 12 38.5t35 53.5q17 23 80 54l31 14q27 12 31 12q14 6 23.5 12t17.5 11v22l37 70v-51l2 -35l2 -43l2 -47v-49l2 -17l2 -26
q6 -62 59 -62q58 0 86 47l6 11q2 3 2 4q0 2 2 4l-2 4v4q0 2 -2 4l-4 41l-10 68l-10 67l-4 33v5q0 4 -2 9l39 76q2 -5 2 -9v-5l8 -41l10 -60l10 -61q3 -17 5.5 -33.5t4.5 -32.5q4 -23 6.5 -37t4.5 -22l4 -18v-7q16 -41 69 -41q41 0 46 25v2q0 33 -21 105l-18 59l-17 53
l-12 43q0 2 -1 7.5t-3 13.5l24 65q5 -14 11.5 -38.5t17.5 -59.5q53 -171 53 -225q0 -24 -7 -48.5t-17.5 -44.5t-23.5 -32.5t-25 -12.5h-9q-3 0 -8 2q-8 -17 -11 -36.5t-3 -40.5q0 -70 49 -111t135 -41q154 0 281 92l10 6l2 2v5q0 13 -111 28q-23 3 -36.5 4.5t-16.5 3.5
l-16.5 3t-7.5 1q-17 5 -17 19v8l4 8l7 19q7 17 20 30q8 5 18 9.5t21 9.5q28 12 45.5 22.5t28 24t14.5 31t4 43.5v38q0 17 -2 31l-4 60l-6 86l-8 76l-9 79q-6 66 -12 97l37 110q2 -12 2 -20q0 -7 2 -10l10 -95l15 -118l10 -86q21 -177 57 -244q20 -32 51 -51.5t74 -24.5
q-2 17 -3 34t-1 34v22q0 12 -2 23l-2 43v39l41 90q6 -56 6 -72l2 -68q0 -2 6 -75v-22q0 -11 2 -25l2 -21q5 2 9.5 3t7.5 1q45 15 57 21q14 7 51 37l15 10q3 -3 5.5 -4.5t4.5 -3.5q37 -29 69 -46t60 -20q40 38 80 71.5t82 61.5q82 55 112 55q42 0 86 -32q49 -31 49 -58
q0 -33 -30 -82q-16 -23 -31 -39t-31 -24q-43 -23 -108.5 -34t-155.5 -11q-17 0 -35 1t-37 3q-47 -94 -75 -94q-9 0 -9 12q0 11 6 25t17 32l12 25q2 2 4 4.5t4 7.5q-5 2 -8.5 3t-5.5 3l-20 11q-20 9 -36.5 18t-27.5 19q-51 -34 -61 -37l-37 -11l-10 -4h-9v-26l5 -47l2 -60
q12 -178 55 -239q44 -62 162 -68v4q-39 27 -39 86q0 83 57 152t127 69q25 0 51 -7.5t48.5 -19.5t38.5 -27t20 -30v-14q-47 20 -105 20q-34 0 -67 -7.5t-59 -19.5t-42 -27t-16 -30q0 -30 53 -86q28 -26 49.5 -39.5t36.5 -13.5h4q3 0 7 2q2 0 6 1l12 3q160 37 246 80l-33 -73
q-213 -109 -385 -109q-186 0 -244 137l-4 12q-56 -133 -115 -133q-60 0 -135 90q-149 -114 -385 -114q-48 0 -86.5 2.5t-70.5 7.5q2 -5 2 -8v-4l4 -25q8 -60 20.5 -101.5t32.5 -64.5q17 -20 50.5 -35.5t84.5 -29.5q53 -14 109 -20.5t116 -6.5q218 0 336 62q32 77 58 77
q8 0 8 -16q0 -26 -17 -68q-2 -6 -3 -10.5t-3 -9.5q9 -29 53 -29q65 0 101 27q6 9 6 12l12 37q28 76 47 82h2q9 0 9 -12v-15q0 -26 -13 -61l-4 -12l-2 -7q48 -28 90 -28q15 0 15 14q0 16 -11 47l-6 25l33 71q27 -65 27 -108q0 -60 -25.5 -95.5t-67.5 -35.5q-35 0 -81 29
q-2 2 -5 3.5t-8 4.5q-46 -54 -119 -54q-94 0 -100 54q-60 -35 -153 -53.5t-218 -18.5q-110 0 -186.5 15.5t-125.5 51t-74 92t-31 138.5v18q-65 -104 -95 -120q23 -51 23 -82q0 -44 -21.5 -73.5t-56.5 -29.5q-14 0 -27 3t-24 10l-41 18q-11 5 -17.5 9t-11.5 7
q-56 -104 -135 -104h-19q-7 0 -14 -2l-10 -4l-6 -2l-16 -4h-7q-2 0 -6 4v6q2 5 9 9t18 9q17 8 29 13t18 8l25 10q8 5 15 10.5t15 10.5l17 12l16 12q4 4 19 12q5 5 9 8.5t7 6.5zM453 105q0 14 -10.5 30t-32.5 33q-41 35 -78 35q-27 0 -27 -25q0 -22 48 -55q46 -31 81 -31h9
q10 0 10 13zM365 639l-6 76q-31 -11 -60.5 -24.5t-58.5 -30.5q-57 -34 -57 -48q0 -4 2 -6l4 -2l6 -6q9 -6 41 -6q76 0 129 47zM402 1092l-2 80q-5 -2 -8 -3t-5 -1l-28 -15l-41 -16q-70 -31 -70 -49q0 -23 55 -23q23 0 48 6.5t51 20.5zM506 1577q-2 -8 -2 -14v-10
q0 -50 35 -50q23 0 39 31q-2 5 -2 7v5l-2 19v5q0 4 -2 9l20 27l6 -43l2 -15q3 -32 29 -32q23 0 23 20v10l-3 19l-4 16v8l15 23q14 -41 14 -78q0 -65 -45 -65q-19 0 -41 16q-40 -31 -53 -31q-49 0 -49 53q0 29 6 58zM951 1546q3 -29 5.5 -59.5t4.5 -62.5l6 -87l6 -86l6 -92
l4 -53v-5q0 -3 2 -9l-2 -23q-9 -112 -24 -127q-2 8 -2 12v7l-9 59l-8 80l-10 88l-8 90l-10 102l-4 56zM1266 1376l6 52l418 188l-10 -47zM1610 1153q-34 14 -51 34.5t-17 49.5q0 60 56 90l53 31q78 45 171 88.5t200 85.5l-19 -49l-22 -10q-79 -31 -149.5 -63.5t-133.5 -67.5
q-125 -67 -125 -91q0 -15 47 -45l6 -4zM1737 969q14 -2 24 -2h19q92 0 172 18q81 22 90 45v4q0 15 -35 33q-17 11 -31.5 16t-25.5 5q-30 0 -100 -39q-35 -20 -63 -40t-50 -40zM932 266l57 70l99 -72l53 68l100 -76l-53 -63l-98 71l-58 -71zM2030 111l-14 43q-42 -54 -76 -54
q-15 0 -28 7.5t-22.5 20.5t-15.5 29t-6 34q0 48 31 106q33 59 57 59q32 0 70 -59q39 -59 39 -106q0 -118 -86 -236q-86 -119 -172 -119q-20 0 -48 8t-65 23q-72 28 -82 47v6q2 2 3.5 3t6.5 1h2q9 -3 21 -6l20 -6l35 -10q14 -5 26.5 -6.5t24.5 -1.5q133 0 279 217zM1913 215
q16 -35 64 -35q11 0 17 6t11 17q-15 63 -53 63q-14 0 -24 -12.5t-15 -38.5zM1231 -115q8 -8 17 -8q30 0 30 29q0 28 23 31v-45q0 -45 -53 -45q-8 0 -14.5 2.5t-14.5 7.5q-33 -33 -62 -33q-16 0 -30 14l-13 13q-8 8 -16 8t-23 -6.5t-36 -20.5q-35 -23 -72 -34t-72 -11h-33
q-69 0 -69 17q0 16 67 16h39q64 0 123 35q61 39 82 39q22 0 49 -27q8 -4 11 -6h8q29 3 32 27v8q0 14 19 24l4 2q8 0 8 -12v-4q0 -3 -2 -6q-2 -2 -2 -10v-5z" />
    <glyph glyph-name="uniFE86" unicode="&#x622;" horiz-adv-x="991" arabic-form="final" 
d="M1020 130h-142q-5 -82 -23.5 -145t-48 -111t-70 -82t-88.5 -57q-49 -24 -102 -37t-109 -19t-115 -7t-119 -1v150q48 0 93.5 0.5t87.5 4.5t78 11.5t65 21.5q28 13 51 35t41 54t29 76.5t15 103.5q-94 1 -168 9.5t-131.5 24.5t-100.5 40t-74 56q-34 35 -52.5 76.5t-27 90
t-9.5 104.5v120q1 73 18.5 133.5t46.5 108t67.5 82t82.5 56.5q80 39 171 39h9q94 0 177 -42q43 -22 81 -55.5t65.5 -79t43.5 -102.5t16 -124v-384h142v-151zM663 665q0 95 -33.5 154.5t-83.5 85.5q-28 13 -54 14q-24 0 -53 -13q-51 -26 -86.5 -89.5t-37.5 -169.5
q-1 -36 -1 -68q0 -17 1 -32q0 -46 5 -84.5t16 -68.5t31 -51q31 -32 101 -48t195 -17v387zM664 1185l-307 -20l-8 107l57 3q-22 29 -33.5 50t-15.5 38q-2 10 -2 19q0 7 1 14q3 15 10 34q10 27 30 48t48 35.5t61.5 21.5t69.5 7q29 0 46.5 -2.5t34.5 -6.5l-18 -104
q-39 14 -68 14q-11 0 -21 -2q-36 -7 -48 -37q-7 -16 -7 -33q0 -13 5 -26q9 -30 50 -57l120 11z" />
    <glyph glyph-name="uniFE8A" unicode="&#x623;" horiz-adv-x="1254" arabic-form="final" 
d="M366 463q-52 -153 -52 -270v-17q4 -123 50 -208q26 -48 60.5 -82t76.5 -57q39 -21 81.5 -32t84.5 -12h10q70 0 134 26q68 27 114 82q21 24 34 53q11 24 15 52q1 8 1 16q0 20 -6 40q-8 31 -29 63t-61 66q-32 27 -77.5 54t-107.5 55l111 128l4 -1l2 -1q32 -13 61 -26
t56 -25q41 -19 78.5 -34.5t78 -27t88 -18t109.5 -6.5v-151q-34 0 -64 1.5t-57 3.5q7 -14 12 -27.5t8 -27.5q8 -33 8 -63q0 -16 -2 -31q-6 -45 -23 -84q-21 -46 -54 -84q-39 -47 -89 -81.5t-108.5 -57.5t-121.5 -34q-59 -10 -119 -10h-11q-76 2 -150.5 20.5t-141.5 55.5
q-64 35 -117 85.5t-89 118.5q-28 52 -44.5 114.5t-18.5 135.5v18q0 65 12 138q13 83 46 177zM488 651l-307 -20l-8 107l57 3q-22 29 -33.5 50t-15.5 38q-2 10 -2 19q0 7 1 14q3 15 10 34q10 27 30 48t48 35.5t61.5 21.5t69.5 7q29 0 46.5 -2.5t34.5 -6.5l-18 -104
q-39 14 -68 14q-11 0 -21 -2q-36 -7 -48 -37q-7 -16 -7 -33q0 -13 5 -26q9 -30 50 -57l120 11z" />
    <glyph glyph-name="uniFE8C" unicode="&#x624;" horiz-adv-x="671" arabic-form="final" 
d="M451 977v-579q0 -10 -1 -15q2 -23 12 -43t25 -35q24 -24 48 -24h166v-151h-165q-57 0 -105.5 16t-87.5 45q-38 -29 -86.5 -45t-105.5 -16h-181v151h182q24 0 48 24q31 31 36 78v594h215zM482 1185l-307 -20l-8 107l57 3q-22 29 -33.5 50t-15.5 38q-2 10 -2 19q0 7 1 14
q3 15 10 34q10 27 30 48t48 35.5t61.5 21.5t69.5 7q29 0 46.5 -2.5t34.5 -6.5l-18 -104q-39 14 -68 14q-11 0 -21 -2q-36 -7 -48 -37q-7 -16 -7 -33q0 -13 5 -26q9 -30 50 -57l120 11z" />
    <glyph glyph-name="uniFE90" unicode="&#x625;" horiz-adv-x="1484" arabic-form="final" 
d="M623 -169q0 23 9 43t24 35t34.5 23.5t41.5 8.5t42 -8.5t35 -23.5t23.5 -35t8.5 -43t-8.5 -42.5t-23.5 -34t-35 -23t-42 -8.5t-41.5 8.5t-34.5 23t-24 34t-9 42.5zM1345 972v-574q0 -10 -1 -15q2 -23 12 -43t25 -35q24 -24 48 -24h85v-151h-84q-57 0 -105.5 16t-87.5 45
q-38 -29 -86.5 -45t-105.5 -16h-644q-69 0 -126 23.5t-98 65.5q-35 35 -55.5 81t-20.5 98h-1v376h215v-376q0 -29 10 -52.5t27 -40.5q24 -24 47 -24h647q24 0 48 24q31 31 36 78v589h215z" />
    <glyph glyph-name="uniFE92" unicode="&#x626;" horiz-adv-x="671" arabic-form="final" 
d="M212 -169q0 23 9 43t24 35t34.5 23.5t41.5 8.5t42 -8.5t35 -23.5t23.5 -35t8.5 -43t-8.5 -42.5t-23.5 -34t-35 -23t-42 -8.5t-41.5 8.5t-34.5 23t-24 34t-9 42.5zM451 977v-579q0 -10 -1 -15q2 -23 12 -43t25 -35q24 -24 48 -24h166v-151h-165q-57 0 -105.5 16t-87.5 45
q-38 -29 -86.5 -45t-105.5 -16h-181v151h182q24 0 48 24q31 31 36 78v594h215z" />
    <glyph glyph-name="uniFE94" unicode="&#x626;" horiz-adv-x="1031" arabic-form="initial" 
d="M878 521q0 -12 -0.5 -23.5t-1.5 -22.5v-77h-1q0 -29 10 -52.5t27 -40.5q11 -11 24 -18t25 -7v1h99v-151h-99q-65 0 -119 21t-96 59q-35 -31 -74 -50q-83 -42 -177 -42h-9q-42 0 -83 9q-45 10 -87 30q-44 22 -82.5 56.5t-67.5 82t-46.5 107.5t-18.5 134q-1 43 -1 82v38
q1 56 9.5 104.5t27 90t52.5 76.5q36 36 87 62.5t122 42.5t165 22q54 3 117 3q46 0 97 -2l101 -4v-531zM663 565v343q-125 -1 -195 -17.5t-101 -47.5q-20 -21 -31 -51t-16 -68.5t-5 -84.5q-1 -15 -1 -32q0 -32 1 -68q1 -53 11 -95t27 -74.5t39 -54.5t47 -35q29 -13 53 -13
q25 1 55 14q43 23 74.5 72t39.5 127v85h2zM565 1339q0 23 9 43t24 35t35 23.5t43 8.5q22 0 41.5 -8.5t34 -23.5t23 -35t8.5 -43t-8.5 -42.5t-23 -34t-34 -23t-41.5 -8.5q-23 0 -43 8.5t-35 23t-24 34t-9 42.5zM304 1339q0 23 9 43t24 35t34.5 23.5t41.5 8.5t42 -8.5
t35 -23.5t23.5 -35t8.5 -43t-8.5 -42.5t-23.5 -34t-35 -23t-42 -8.5t-41.5 8.5t-34.5 23t-24 34t-9 42.5z" />
    <glyph glyph-name="uniFE96" unicode="&#x626;" horiz-adv-x="1484" arabic-form="medial" 
d="M742 1190q0 23 9 43t24 35t35 23.5t43 8.5q22 0 41.5 -8.5t34 -23.5t23 -35t8.5 -43t-8.5 -42.5t-23 -34t-34 -23t-41.5 -8.5q-23 0 -43 8.5t-35 23t-24 34t-9 42.5zM481 1190q0 23 9 43t24 35t34.5 23.5t41.5 8.5t42 -8.5t35 -23.5t23.5 -35t8.5 -43t-8.5 -42.5
t-23.5 -34t-35 -23t-42 -8.5t-41.5 8.5t-34.5 23t-24 34t-9 42.5zM1345 972v-574q0 -10 -1 -15q2 -23 12 -43t25 -35q24 -24 48 -24h85v-151h-84q-57 0 -105.5 16t-87.5 45q-38 -29 -86.5 -45t-105.5 -16h-644q-69 0 -126 23.5t-98 65.5q-35 35 -55.5 81t-20.5 98h-1v376
h215v-376q0 -29 10 -52.5t27 -40.5q24 -24 47 -24h647q24 0 48 24q31 31 36 78v589h215z" />
    <glyph glyph-name="uniFE98" unicode="&#x627;" horiz-adv-x="671" arabic-form="final" 
d="M337 1319q0 23 9 43t24 35t35 23.5t43 8.5q22 0 41.5 -8.5t34 -23.5t23 -35t8.5 -43t-8.5 -42.5t-23 -34t-34 -23t-41.5 -8.5q-23 0 -43 8.5t-35 23t-24 34t-9 42.5zM76 1319q0 23 9 43t24 35t34.5 23.5t41.5 8.5t42 -8.5t35 -23.5t23.5 -35t8.5 -43t-8.5 -42.5
t-23.5 -34t-35 -23t-42 -8.5t-41.5 8.5t-34.5 23t-24 34t-9 42.5zM451 977v-579q0 -10 -1 -15q2 -23 12 -43t25 -35q24 -24 48 -24h166v-151h-165q-57 0 -105.5 16t-87.5 45q-38 -29 -86.5 -45t-105.5 -16h-181v151h182q24 0 48 24q31 31 36 78v594h215z" />
    <glyph glyph-name="uniFE9B" unicode="&#x628;" horiz-adv-x="699" arabic-form="final" 
d="M381 1200q0 23 9 43t24 35t35 23.5t43 8.5q22 0 41.5 -8.5t34 -23.5t23 -35t8.5 -43t-8.5 -42.5t-23 -34t-34 -23t-41.5 -8.5q-23 0 -43 8.5t-35 23t-24 34t-9 42.5zM217 1458q0 23 9 43t24 35t34.5 23.5t41.5 8.5t42 -8.5t35 -23.5t23.5 -35t8.5 -43t-8.5 -42.5
t-23.5 -34t-35 -23t-42 -8.5t-41.5 8.5t-34.5 23t-24 34t-9 42.5zM52 1200q0 23 9 43t24 35t34.5 23.5t41.5 8.5t42 -8.5t35 -23.5t23.5 -35t8.5 -43t-8.5 -42.5t-23.5 -34t-35 -23t-42 -8.5t-41.5 8.5t-34.5 23t-24 34t-9 42.5zM531 977v-579q0 -52 -20.5 -98t-55.5 -81
q-42 -42 -98.5 -65.5t-125.5 -23.5h-261v151h262q24 0 48 24q17 17 27 40.5t10 52.5h-1v579h215z" />
    <glyph glyph-name="uniFE9C" unicode="&#x628;" horiz-adv-x="671" arabic-form="initial" 
d="M400 1200q0 23 9 43t24 35t35 23.5t43 8.5q22 0 41.5 -8.5t34 -23.5t23 -35t8.5 -43t-8.5 -42.5t-23 -34t-34 -23t-41.5 -8.5q-23 0 -43 8.5t-35 23t-24 34t-9 42.5zM236 1458q0 23 9 43t24 35t34.5 23.5t41.5 8.5t42 -8.5t35 -23.5t23.5 -35t8.5 -43t-8.5 -42.5
t-23.5 -34t-35 -23t-42 -8.5t-41.5 8.5t-34.5 23t-24 34t-9 42.5zM71 1200q0 23 9 43t24 35t34.5 23.5t41.5 8.5t42 -8.5t35 -23.5t23.5 -35t8.5 -43t-8.5 -42.5t-23.5 -34t-35 -23t-42 -8.5t-41.5 8.5t-34.5 23t-24 34t-9 42.5zM451 977v-579q0 -10 -1 -15q2 -23 12 -43
t25 -35q24 -24 48 -24h166v-151h-165q-57 0 -105.5 16t-87.5 45q-38 -29 -86.5 -45t-105.5 -16h-181v151h182q24 0 48 24q31 31 36 78v594h215z" />
    <glyph glyph-name="uniFE9E" unicode="&#x628;" horiz-adv-x="1154" arabic-form="medial" 
d="M1180 129h-59q-53 0 -91 6.5t-65 17.5t-45.5 27t-33 36t-27.5 44t-29 50q-23 4 -49.5 7.5t-55.5 6.5q-36 3 -74 4h-14q-32 0 -61 -3q-37 -5 -71 -15t-62 -29q-54 -31 -86 -81t-40 -108q-3 -20 -3 -39q0 -53 22 -103q14 -33 37 -62.5t57 -52.5q35 -24 82 -41t107 -23
q35 -4 76 -4q27 0 58 2q73 4 161 23l62 -143q-121 -26 -225 -31q-31 -1 -60 -1q-70 0 -131 8q-87 12 -157 39t-124 65t-91 82.5t-58 95.5q-21 48 -27 99q-3 22 -3 45q0 28 4 56q12 86 63 162.5t138 126.5q32 20 64.5 33.5t62 21.5t53.5 12.5t39 6.5q54 8 110 8h28
q70 -3 133 -11q-20 110 -48 204t-72 165q-25 40 -57.5 70t-75 46.5t-95.5 19.5h-17q-47 0 -104 -12l-61 144q101 22 185 22q13 0 26 -1q94 -4 167.5 -32t130 -78.5t98.5 -119.5q60 -97 94 -225t58 -274q6 -34 14 -56.5t20 -36t27.5 -19t35.5 -5.5v1h59v-151zM519 -8
q0 23 9 43t24 35t34.5 23.5t41.5 8.5t42 -8.5t35 -23.5t23.5 -35t8.5 -43t-8.5 -42.5t-23.5 -34t-35 -23t-42 -8.5t-41.5 8.5t-34.5 23t-24 34t-9 42.5z" />
    <glyph glyph-name="uniFEA0" unicode="&#x629;" horiz-adv-x="1002" arabic-form="final" 
d="M126 1041q101 22 185 22q13 0 26 -1q94 -4 167.5 -32t130 -78.5t98.5 -119.5q33 -53 57 -115.5t43 -132.5t33 -146.5t27 -156.5h139v-151h-1062v151h707q-12 73 -25 142.5t-29.5 132.5t-37.5 117.5t-49 99.5q-25 40 -57.5 70t-75 46.5t-95.5 19.5h-17q-47 0 -104 -12z
M324 -169q0 23 9 43t24 35t34.5 23.5t41.5 8.5t42 -8.5t35 -23.5t23.5 -35t8.5 -43t-8.5 -42.5t-23.5 -34t-35 -23t-42 -8.5t-41.5 8.5t-34.5 23t-24 34t-9 42.5z" />
    <glyph glyph-name="uniFEA3" unicode="&#x62a;" horiz-adv-x="981" arabic-form="final" 
d="M101 1041q101 22 185 22q13 0 26 -1q94 -4 167.5 -32t130 -78.5t98.5 -119.5q36 -58 62 -128t45.5 -149t34.5 -165.5t29 -176.5v-7q0 -11 -4 -22q-7 -15 -20 -26t-31.5 -18.5t-40.5 -8.5q-4 -1 -11 -1h-802v151h682q-12 73 -25 142.5t-29.5 132.5t-37.5 117.5t-49 99.5
q-25 40 -57.5 70t-75 46.5t-95.5 19.5h-17q-47 0 -104 -12z" />
    <glyph glyph-name="uniFEA4" unicode="&#x62a;" horiz-adv-x="1002" arabic-form="initial" 
d="M126 1041q101 22 185 22q13 0 26 -1q94 -4 167.5 -32t130 -78.5t98.5 -119.5q33 -53 57 -115.5t43 -132.5t33 -146.5t27 -156.5h139v-151h-1062v151h707q-12 73 -25 142.5t-29.5 132.5t-37.5 117.5t-49 99.5q-25 40 -57.5 70t-75 46.5t-95.5 19.5h-17q-47 0 -104 -12z
" />
    <glyph glyph-name="uniFEA6" unicode="&#x62a;" horiz-adv-x="1154" arabic-form="medial" 
d="M1184 129h-59q-53 0 -91 6.5t-65 17.5t-45.5 27t-33 36t-27.5 44t-29 50q-23 4 -49.5 7.5t-55.5 6.5q-36 3 -74 4h-14q-32 0 -61 -3q-37 -5 -71 -15t-62 -29q-54 -31 -86 -81t-40 -108q-3 -20 -3 -39q0 -53 22 -103q14 -33 37 -62.5t57 -52.5q35 -24 82 -41t107 -23
q35 -4 76 -4q27 0 58 2q73 4 161 23l62 -143q-121 -26 -225 -31q-31 -1 -60 -1q-70 0 -131 8q-87 12 -157 39t-124 65t-91 82.5t-58 95.5q-21 48 -27 99q-3 22 -3 45q0 28 4 56q12 86 63 162.5t138 126.5q32 20 64.5 33.5t62 21.5t53.5 12.5t39 6.5q54 8 110 8h28
q70 -3 133 -11q-20 110 -48 204t-72 165q-25 40 -57.5 70t-75 46.5t-95.5 19.5h-17q-47 0 -104 -12l-61 144q101 22 185 22q13 0 26 -1q94 -4 167.5 -32t130 -78.5t98.5 -119.5q60 -97 94 -225t58 -274q6 -34 14 -56.5t20 -36t27.5 -19t35.5 -5.5v1h59v-151zM433 1324
q0 23 9 43t24 35t34.5 23.5t41.5 8.5t42 -8.5t35 -23.5t23.5 -35t8.5 -43t-8.5 -42.5t-23.5 -34t-35 -23t-42 -8.5t-41.5 8.5t-34.5 23t-24 34t-9 42.5z" />
    <glyph glyph-name="uniFEA8" unicode="&#x62b;" horiz-adv-x="1002" arabic-form="final" 
d="M126 1041q101 22 185 22q13 0 26 -1q94 -4 167.5 -32t130 -78.5t98.5 -119.5q33 -53 57 -115.5t43 -132.5t33 -146.5t27 -156.5h139v-151h-1062v151h707q-12 73 -25 142.5t-29.5 132.5t-37.5 117.5t-49 99.5q-25 40 -57.5 70t-75 46.5t-95.5 19.5h-17q-47 0 -104 -12z
M264 1350q0 23 9 43t24 35t34.5 23.5t41.5 8.5t42 -8.5t35 -23.5t23.5 -35t8.5 -43t-8.5 -42.5t-23.5 -34t-35 -23t-42 -8.5t-41.5 8.5t-34.5 23t-24 34t-9 42.5z" />
    <glyph glyph-name="uniFEAA" unicode="&#x62b;" horiz-adv-x="923" arabic-form="initial" 
d="M267 1069l2 -1v2h2q26 -1 65.5 -4t85 -14t94.5 -32.5t94.5 -59.5t85 -95t66.5 -139t38 -192q6 -55 6 -118t-6 -135h153v-151h-853v151h488q5 73 5 135q0 69 -6 125q-11 106 -37 176t-64.5 110t-84 60t-95.5 27t-98 11z" />
    <glyph glyph-name="uniFEAC" unicode="&#x62b;" horiz-adv-x="923" arabic-form="medial" 
d="M267 1069l2 -1v2h2q26 -1 65.5 -4t85 -14t94.5 -32.5t94.5 -59.5t85 -95t66.5 -139t38 -192q6 -55 6 -118t-6 -135h153v-151h-853v151h488q5 73 5 135q0 69 -6 125q-11 106 -37 176t-64.5 110t-84 60t-95.5 27t-98 11zM323 1344q0 23 9 43t24 35t34.5 23.5t41.5 8.5
t42 -8.5t35 -23.5t23.5 -35t8.5 -43t-8.5 -42.5t-23.5 -34t-35 -23t-42 -8.5t-41.5 8.5t-34.5 23t-24 34t-9 42.5z" />
    <glyph glyph-name="uniFEB0" unicode="&#x62c;" horiz-adv-x="678" arabic-form="final" 
d="M549 977v-696h159v-151h-159q-5 -82 -23 -145t-48 -111t-70 -82t-89 -57q-49 -24 -102 -37t-109 -19t-114.5 -7t-118.5 -1v150q48 0 93.5 0.5t87 4.5t77.5 11.5t65 21.5q28 13 52 35.5t41.5 56t28.5 79t14 106.5v841h215zM317 1330q0 23 9 43t24 35t34.5 23.5t41.5 8.5
t42 -8.5t35 -23.5t23.5 -35t8.5 -43t-8.5 -42.5t-23.5 -34t-35 -23t-42 -8.5t-41.5 8.5t-34.5 23t-24 34t-9 42.5z" />
    <glyph glyph-name="uniFEB2" unicode="&#x62c;" horiz-adv-x="2123" arabic-form="initial" 
d="M1979 383q4 -47 36 -78q24 -24 48 -24h90v-151h-89q-57 0 -105.5 16t-86.5 45q-39 -29 -87.5 -45t-105.5 -16h-92q-57 0 -105.5 16t-86.5 45q-39 -29 -87.5 -45t-105.5 -16h-97q-48 0 -87 10v-10q-5 -92 -29 -161t-60.5 -119.5t-81.5 -84.5t-91 -54q-41 -18 -82 -27
q-20 -5 -40 -7t-40 -3h-59q-34 1 -73 7.5t-81.5 20.5t-84.5 40q-38 23 -71.5 56.5t-60 81.5t-43.5 111t-21 145v624h214v-620q3 -63 14 -110t27.5 -81.5t38 -57.5t44.5 -37q19 -11 39 -17.5t38.5 -9.5t35.5 -3h30q6 0 13 1t15 3q9 2 17.5 4.5t16.5 5.5q28 12 55.5 35t50 59
t38 87.5t18.5 120.5v837h215v-579q0 -10 -1 -15q2 -23 12 -43t25 -35q24 -24 48 -24h99q24 0 48 24q15 15 25 35t12 43q-1 5 -1 15v579h215v-594q4 -47 36 -78q24 -24 48 -24h94q24 0 48 24q15 15 25 35t12 43q-1 5 -1 15v579h215v-594z" />
    <glyph glyph-name="uniFEB3" unicode="&#x62c;" horiz-adv-x="1438" arabic-form="medial" 
d="M1338 398q0 -52 -20.5 -98t-55.5 -81q-42 -42 -98.5 -65.5t-125.5 -23.5h-92q-57 0 -105.5 16t-86.5 45q-39 -29 -87.5 -45t-105.5 -16h-97q-57 0 -105.5 16t-87.5 45q-38 -29 -86.5 -45t-105.5 -16h-109v151h110q24 0 48 24q31 31 36 78v594h215v-579q0 -10 -1 -15
q2 -23 12 -43t25 -35q24 -24 48 -24h99q24 0 48 24q15 15 25 35t12 43q-1 5 -1 15v579h215v-594q4 -47 36 -78q24 -24 48 -24h94q24 0 48 24q17 17 27 40.5t10 52.5h-1v579h215v-579z" />
    <glyph glyph-name="uniFEB6" unicode="&#x62d;" horiz-adv-x="2123" arabic-form="final" 
d="M1979 383q4 -47 36 -78q24 -24 48 -24h90v-151h-89q-57 0 -105.5 16t-86.5 45q-39 -29 -87.5 -45t-105.5 -16h-92q-57 0 -105.5 16t-86.5 45q-39 -29 -87.5 -45t-105.5 -16h-97q-48 0 -87 10v-10q-5 -92 -29 -161t-60.5 -119.5t-81.5 -84.5t-91 -54q-41 -18 -82 -27
q-20 -5 -40 -7t-40 -3h-59q-34 1 -73 7.5t-81.5 20.5t-84.5 40q-38 23 -71.5 56.5t-60 81.5t-43.5 111t-21 145v624h214v-620q3 -63 14 -110t27.5 -81.5t38 -57.5t44.5 -37q19 -11 39 -17.5t38.5 -9.5t35.5 -3h30q6 0 13 1t15 3q9 2 17.5 4.5t16.5 5.5q28 12 55.5 35t50 59
t38 87.5t18.5 120.5v837h215v-579q0 -10 -1 -15q2 -23 12 -43t25 -35q24 -24 48 -24h99q24 0 48 24q15 15 25 35t12 43q-1 5 -1 15v579h215v-594q4 -47 36 -78q24 -24 48 -24h94q24 0 48 24q15 15 25 35t12 43q-1 5 -1 15v579h215v-594zM1454 1200q0 23 9 43t24 35t35 23.5
t43 8.5q22 0 41.5 -8.5t34 -23.5t23 -35t8.5 -43t-8.5 -42.5t-23 -34t-34 -23t-41.5 -8.5q-23 0 -43 8.5t-35 23t-24 34t-9 42.5zM1290 1458q0 23 9 43t24 35t34.5 23.5t41.5 8.5t42 -8.5t35 -23.5t23.5 -35t8.5 -43t-8.5 -42.5t-23.5 -34t-35 -23t-42 -8.5t-41.5 8.5
t-34.5 23t-24 34t-9 42.5zM1125 1200q0 23 9 43t24 35t34.5 23.5t41.5 8.5t42 -8.5t35 -23.5t23.5 -35t8.5 -43t-8.5 -42.5t-23.5 -34t-35 -23t-42 -8.5t-41.5 8.5t-34.5 23t-24 34t-9 42.5z" />
    <glyph glyph-name="uniFEB7" unicode="&#x62d;" horiz-adv-x="1438" arabic-form="initial" 
d="M1338 398q0 -52 -20.5 -98t-55.5 -81q-42 -42 -98.5 -65.5t-125.5 -23.5h-92q-57 0 -105.5 16t-86.5 45q-39 -29 -87.5 -45t-105.5 -16h-97q-57 0 -105.5 16t-87.5 45q-38 -29 -86.5 -45t-105.5 -16h-109v151h110q24 0 48 24q31 31 36 78v594h215v-579q0 -10 -1 -15
q2 -23 12 -43t25 -35q24 -24 48 -24h99q24 0 48 24q15 15 25 35t12 43q-1 5 -1 15v579h215v-594q4 -47 36 -78q24 -24 48 -24h94q24 0 48 24q17 17 27 40.5t10 52.5h-1v579h215v-579zM808 1200q0 23 9 43t24 35t35 23.5t43 8.5q22 0 41.5 -8.5t34 -23.5t23 -35t8.5 -43
t-8.5 -42.5t-23 -34t-34 -23t-41.5 -8.5q-23 0 -43 8.5t-35 23t-24 34t-9 42.5zM644 1458q0 23 9 43t24 35t34.5 23.5t41.5 8.5t42 -8.5t35 -23.5t23.5 -35t8.5 -43t-8.5 -42.5t-23.5 -34t-35 -23t-42 -8.5t-41.5 8.5t-34.5 23t-24 34t-9 42.5zM479 1200q0 23 9 43t24 35
t34.5 23.5t41.5 8.5t42 -8.5t35 -23.5t23.5 -35t8.5 -43t-8.5 -42.5t-23.5 -34t-35 -23t-42 -8.5t-41.5 8.5t-34.5 23t-24 34t-9 42.5z" />
    <glyph glyph-name="uniFEB8" unicode="&#x62d;" horiz-adv-x="1502" arabic-form="medial" 
d="M1338 383q4 -47 36 -78q24 -24 48 -24h110v-151h-109q-57 0 -105.5 16t-86.5 45q-39 -29 -87.5 -45t-105.5 -16h-92q-57 0 -105.5 16t-86.5 45q-39 -29 -87.5 -45t-105.5 -16h-97q-57 0 -105.5 16t-87.5 45q-38 -29 -86.5 -45t-105.5 -16h-109v151h110q24 0 48 24
q31 31 36 78v594h215v-579q0 -10 -1 -15q2 -23 12 -43t25 -35q24 -24 48 -24h99q24 0 48 24q15 15 25 35t12 43q-1 5 -1 15v579h215v-594q4 -47 36 -78q24 -24 48 -24h94q24 0 48 24q15 15 25 35t12 43q-1 5 -1 15v579h215v-594zM808 1200q0 23 9 43t24 35t35 23.5t43 8.5
q22 0 41.5 -8.5t34 -23.5t23 -35t8.5 -43t-8.5 -42.5t-23 -34t-34 -23t-41.5 -8.5q-23 0 -43 8.5t-35 23t-24 34t-9 42.5zM644 1458q0 23 9 43t24 35t34.5 23.5t41.5 8.5t42 -8.5t35 -23.5t23.5 -35t8.5 -43t-8.5 -42.5t-23.5 -34t-35 -23t-42 -8.5t-41.5 8.5t-34.5 23
t-24 34t-9 42.5zM479 1200q0 23 9 43t24 35t34.5 23.5t41.5 8.5t42 -8.5t35 -23.5t23.5 -35t8.5 -43t-8.5 -42.5t-23.5 -34t-35 -23t-42 -8.5t-41.5 8.5t-34.5 23t-24 34t-9 42.5z" />
    <glyph glyph-name="uniFEBB" unicode="&#x62e;" horiz-adv-x="1394" arabic-form="final" 
d="M441 130v-2q-29 -1 -58 -1q-15 0 -30 1q-46 0 -95 2h-288v151h99q23 0 47 24q17 17 27 40.5t10 52.5v616h215v-156q72 111 157 143q58 23 118.5 35.5t122.5 16.5q19 1 38 1q43 0 87 -5q61 -7 118 -27q60 -20 111 -53t88.5 -79t60 -106t24.5 -135v-18q0 -8 1 -16v-217
q0 -52 -20.5 -98t-55.5 -81q-41 -42 -98 -65.5t-125 -23.5h-554zM367 394q0 -30 -7.5 -58.5t-21.5 -54.5h658q23 0 47 24q17 17 27 40.5t10 52.5v202q0 11 -0.5 22.5t-0.5 23.5q-2 50 -14.5 89.5t-34.5 69.5t-51 50t-63 32q-30 10 -64 14q-23 3 -46 3q-12 0 -24 -1
q-38 -2 -77 -10.5t-77 -23.5q-53 -20 -100.5 -51.5t-82.5 -73.5t-55.5 -93.5t-20.5 -111.5v-145h-2z" />
    <glyph glyph-name="uniFEBC" unicode="&#x62e;" horiz-adv-x="1363" arabic-form="initial" 
d="M1393 130h-1423v151h99q23 0 47 24q17 17 27 40.5t10 52.5v616h215v-156q72 111 157 143q58 23 118.5 35.5t122.5 16.5q19 1 38 1q43 0 87 -5q61 -7 118 -27q60 -20 111 -53t88.5 -79t60 -106t24.5 -135v-18q0 -8 1 -16v-217q0 -32 -8 -61.5t-22 -55.5h129v-151zM367 394
q0 -30 -7.5 -58.5t-21.5 -54.5h658q23 0 47 24q17 17 27 40.5t10 52.5v202q0 11 -0.5 22.5t-0.5 23.5q-2 50 -14.5 89.5t-34.5 69.5t-51 50t-63 32q-30 10 -64 14q-23 3 -46 3q-12 0 -24 -1q-38 -2 -77 -10.5t-77 -23.5q-53 -20 -100.5 -51.5t-82.5 -73.5t-55.5 -93.5
t-20.5 -111.5v-145h-2z" />
    <glyph glyph-name="uniFEBE" unicode="&#x62e;" horiz-adv-x="2022" arabic-form="medial" 
d="M2052 130h-1034q-5 -92 -29 -161t-60.5 -119.5t-81.5 -84.5t-91 -54q-41 -18 -82 -27q-20 -5 -40 -7t-40 -3h-59q-34 1 -73 7.5t-81.5 20.5t-84.5 40q-38 23 -71.5 56.5t-60 81.5t-43.5 111t-21 145v624l214 -3v-617q3 -63 14 -110t27.5 -81.5t38 -57.5t44.5 -37
q19 -11 39 -17.5t38.5 -9.5t35.5 -3h30q6 0 13 1t15 3q9 2 17.5 4.5t16.5 5.5q28 12 55.5 35t50 59t38 87.5t18.5 120.5v839h214v-122l1 1q72 111 157 143q58 23 118.5 35.5t122.5 16.5q19 1 38 1q43 0 87 -5q61 -7 118 -27q60 -20 111 -53t88.5 -79t60 -106t24.5 -135v-18
q0 -8 1 -16v-217q0 -32 -8 -61.5t-22 -55.5h136v-151zM1019 281h629q23 0 47 24q17 17 27 40.5t10 52.5v202q0 11 -0.5 22.5t-0.5 23.5q-2 50 -14.5 89.5t-34.5 69.5t-51 50t-63 32q-30 10 -64 14q-23 3 -46 3q-12 0 -24 -1q-38 -2 -77 -10.5t-77 -23.5
q-53 -20 -100.5 -51.5t-83 -73.5t-56.5 -93.5t-21 -111.5v-258zM1001 1324q0 23 9 43t24 35t34.5 23.5t41.5 8.5t42 -8.5t35 -23.5t23.5 -35t8.5 -43t-8.5 -42.5t-23.5 -34t-35 -23t-42 -8.5t-41.5 8.5t-34.5 23t-24 34t-9 42.5z" />
    <glyph glyph-name="uniFEC0" unicode="&#x62f;" horiz-adv-x="1363" arabic-form="final" 
d="M1393 130h-1423v151h99q23 0 47 24q17 17 27 40.5t10 52.5v616h215v-156q72 111 157 143q58 23 118.5 35.5t122.5 16.5q19 1 38 1q43 0 87 -5q61 -7 118 -27q60 -20 111 -53t88.5 -79t60 -106t24.5 -135v-18q0 -8 1 -16v-217q0 -32 -8 -61.5t-22 -55.5h129v-151zM367 394
q0 -30 -7.5 -58.5t-21.5 -54.5h658q23 0 47 24q17 17 27 40.5t10 52.5v202q0 11 -0.5 22.5t-0.5 23.5q-2 50 -14.5 89.5t-34.5 69.5t-51 50t-63 32q-30 10 -64 14q-23 3 -46 3q-12 0 -24 -1q-38 -2 -77 -10.5t-77 -23.5q-53 -20 -100.5 -51.5t-82.5 -73.5t-55.5 -93.5
t-20.5 -111.5v-145h-2zM389 1337q0 23 9 43t24 35t34.5 23.5t41.5 8.5t42 -8.5t35 -23.5t23.5 -35t8.5 -43t-8.5 -42.5t-23.5 -34t-35 -23t-42 -8.5t-41.5 8.5t-34.5 23t-24 34t-9 42.5z" />
    <glyph glyph-name="uniFEC3" unicode="&#x630;" horiz-adv-x="1394" arabic-form="final" 
d="M441 130v-2q-29 -1 -58 -1q-15 0 -30 1q-46 0 -95 2h-288v151h99q23 0 47 24q17 17 27 40.5t10 52.5v972h215v-512q72 111 157 143q58 23 118.5 35.5t122.5 16.5q19 1 38 1q43 0 87 -5q61 -7 118 -27q60 -20 111 -53t88.5 -79t60 -106t24.5 -135v-18q0 -8 1 -16v-217
q0 -52 -20.5 -98t-55.5 -81q-41 -42 -98 -65.5t-125 -23.5h-554zM367 394q0 -30 -7.5 -58.5t-21.5 -54.5h658q23 0 47 24q17 17 27 40.5t10 52.5v202q0 11 -0.5 22.5t-0.5 23.5q-2 50 -14.5 89.5t-34.5 69.5t-51 50t-63 32q-30 10 -64 14q-23 3 -46 3q-12 0 -24 -1
q-38 -2 -77 -10.5t-77 -23.5q-53 -20 -100.5 -51.5t-82.5 -73.5t-55.5 -93.5t-20.5 -111.5v-145h-2z" />
    <glyph glyph-name="uniFEC6" unicode="&#x631;" horiz-adv-x="1463" arabic-form="final" 
d="M1493 130h-1393v151h69q23 0 47 24q17 17 27 40.5t10 52.5v969h215v-509q72 111 157 143q58 23 118.5 35.5t122.5 16.5q19 1 38 1q43 0 87 -5q61 -7 118 -27q60 -20 111 -53t88.5 -79t60 -106t24.5 -135v-18q0 -8 1 -16v-217q0 -32 -8 -61.5t-22 -55.5h129v-151zM467 394
q0 -30 -7.5 -58.5t-21.5 -54.5h658q23 0 47 24q17 17 27 40.5t10 52.5v202q0 11 -0.5 22.5t-0.5 23.5q-2 50 -14.5 89.5t-34.5 69.5t-51 50t-63 32q-30 10 -64 14q-23 3 -46 3q-12 0 -24 -1q-38 -2 -77 -10.5t-77 -23.5q-53 -20 -100.5 -51.5t-82.5 -73.5t-55.5 -93.5
t-20.5 -111.5v-145h-2zM691 1318q0 23 9 43t24 35t34.5 23.5t41.5 8.5t42 -8.5t35 -23.5t23.5 -35t8.5 -43t-8.5 -42.5t-23.5 -34t-35 -23t-42 -8.5t-41.5 8.5t-34.5 23t-24 34t-9 42.5z" />
    <glyph glyph-name="uniFEC8" unicode="&#x632;" horiz-adv-x="1363" arabic-form="final" 
d="M1393 130h-1423v151h99q23 0 47 24q17 17 27 40.5t10 52.5v969h215v-509q72 111 157 143q58 23 118.5 35.5t122.5 16.5q19 1 38 1q43 0 87 -5q61 -7 118 -27q60 -20 111 -53t88.5 -79t60 -106t24.5 -135v-18q0 -8 1 -16v-217q0 -32 -8 -61.5t-22 -55.5h129v-151zM367 394
q0 -30 -7.5 -58.5t-21.5 -54.5h658q23 0 47 24q17 17 27 40.5t10 52.5v202q0 11 -0.5 22.5t-0.5 23.5q-2 50 -14.5 89.5t-34.5 69.5t-51 50t-63 32q-30 10 -64 14q-23 3 -46 3q-12 0 -24 -1q-38 -2 -77 -10.5t-77 -23.5q-53 -20 -100.5 -51.5t-82.5 -73.5t-55.5 -93.5
t-20.5 -111.5v-145h-2zM601 1331q0 23 9 43t24 35t34.5 23.5t41.5 8.5t42 -8.5t35 -23.5t23.5 -35t8.5 -43t-8.5 -42.5t-23.5 -34t-35 -23t-42 -8.5t-41.5 8.5t-34.5 23t-24 34t-9 42.5z" />
    <glyph glyph-name="uniFECB" unicode="&#x633;" horiz-adv-x="997" arabic-form="final" 
d="M897 130h-927v151h215q-22 27 -35.5 58.5t-21 67t-10 75.5t-2.5 84v40q0 21 1 43v1q3 108 37 186.5t88.5 130t124 76.5t143.5 25h1q72 0 140.5 -26t122.5 -77t87 -126.5t33 -173.5h-215q0 58 -14.5 105t-38.5 80t-54.5 51t-62.5 18h-1q-31 0 -61.5 -17t-55.5 -50.5
t-41.5 -84.5t-18.5 -119v-1q-1 -20 -1 -38v-35q0 -70 5.5 -122.5t30.5 -88.5t77 -56t145 -26h309v-151z" />
    <glyph glyph-name="uniFECC" unicode="&#x633;" horiz-adv-x="973" arabic-form="initial" 
d="M1003 130h-1033v151h215q-22 27 -35.5 58.5t-21 67t-10 75.5t-2.5 84v40q0 21 1 43v1q3 108 37 186.5t88.5 130t124 76.5t143.5 25h1q72 0 140.5 -26t122.5 -77t87 -126.5t33 -173.5h-215q0 58 -14.5 105t-38.5 80t-54.5 51t-62.5 18h-1q-31 0 -61.5 -17t-55.5 -50.5
t-41.5 -84.5t-18.5 -119v-1q-1 -20 -1 -38v-35q0 -70 5.5 -122.5t30.5 -88.5t77 -56t145 -26h415v-151z" />
    <glyph glyph-name="uniFECE" unicode="&#x633;" horiz-adv-x="1041" arabic-form="medial" 
d="M1071 130h-59q-97 0 -175.5 20t-143 54t-117 80t-95.5 99q-67 -34 -108.5 -89.5t-51.5 -121.5q-3 -20 -3 -40q0 -52 21 -103q14 -33 38 -62.5t57 -52.5q35 -24 82 -41t108 -24q36 -4 78 -4q27 0 56 2q74 4 162 23l63 -143q-122 -26 -226 -31q-31 -1 -60 -1q-70 0 -131 8
q-88 12 -158.5 39t-124.5 65t-91 83t-58 96q-21 48 -27 99q-3 23 -3 46q0 28 4 56q12 86 63 162.5t139 126.5q16 11 35 22.5t40 23.5q-21 34 -40 68t-38 67q-28 51 -55.5 98t-56.5 85l-20 26q15 36 25 54.5t21 33.5q21 28 51 57q40 37 93.5 70.5t116.5 54.5t133 27
q18 2 38 2q51 0 103 -12q38 -9 74 -25t66.5 -39t54.5 -52.5t38 -65.5q17 -43 17 -87q0 -22 -4 -44q-13 -66 -55 -123q-26 -35 -60 -67.5t-72.5 -61.5t-80.5 -56t-83 -51q33 -42 70.5 -79t81.5 -64t96 -42.5t113 -15.5v1h59v-151zM507 711q25 -46 50 -88q60 37 113.5 77.5
t85.5 85.5q24 33 33 70q3 14 3 28q0 23 -9 47q-12 30 -37 50.5t-57 28.5q-20 4 -40 4q-13 0 -26 -1q-34 -5 -66 -18t-61 -32.5t-52 -40.5q-11 -11 -20 -21.5t-17 -21.5q26 -38 50.5 -80.5t49.5 -87.5zM389 1421q0 23 9 43t24 35t34.5 23.5t41.5 8.5t42 -8.5t35 -23.5
t23.5 -35t8.5 -43t-8.5 -42.5t-23.5 -34t-35 -23t-42 -8.5t-41.5 8.5t-34.5 23t-24 34t-9 42.5z" />
    <glyph glyph-name="uniFED0" unicode="&#x634;" horiz-adv-x="973" arabic-form="final" 
d="M1003 130h-1033v151h215q-22 27 -35.5 58.5t-21 67t-10 75.5t-2.5 84v40q0 21 1 43v1q3 108 37 186.5t88.5 130t124 76.5t143.5 25h1q72 0 140.5 -26t122.5 -77t87 -126.5t33 -173.5h-215q0 58 -14.5 105t-38.5 80t-54.5 51t-62.5 18h-1q-31 0 -61.5 -17t-55.5 -50.5
t-41.5 -84.5t-18.5 -119v-1q-1 -20 -1 -38v-35q0 -70 5.5 -122.5t30.5 -88.5t77 -56t145 -26h415v-151zM352 1338q0 23 9 43t24 35t34.5 23.5t41.5 8.5t42 -8.5t35 -23.5t23.5 -35t8.5 -43t-8.5 -42.5t-23.5 -34t-35 -23t-42 -8.5t-41.5 8.5t-34.5 23t-24 34t-9 42.5z" />
    <glyph glyph-name="uniFED2" unicode="&#x634;" horiz-adv-x="1450" arabic-form="initial" 
d="M315 398q0 -29 10 -52.5t27 -40.5q24 -24 48 -24h220q-27 34 -41.5 73.5t-21 85t-6.5 98.5q-1 10 -1 21q0 43 2 90q1 73 18.5 133.5t46.5 108t67.5 82t82.5 56.5q40 19 86.5 29t94.5 10t94.5 -9.5t87.5 -29.5q44 -22 82.5 -56.5t67.5 -82t46 -108t19 -133.5q1 -59 1 -112
q0 -52 -6.5 -97.5t-21 -85t-41.5 -73.5h203v-151h-1079q-69 0 -126 23.5t-98 65.5q-35 35 -55.5 81t-20.5 98h-1v370h215v-370zM1131 647q-1 53 -11 95t-27 74.5t-39 54.5t-47 35q-11 6 -26 9t-30 4h-5q-13 0 -27 -3q-16 -3 -29 -10q-25 -13 -47 -35t-39 -54.5t-27 -74.5
t-11 -95q-1 -36 -1 -68q0 -17 1 -32q0 -46 5 -84.5t16 -68.5t31 -51q10 -12 21 -22.5t25.5 -19t34.5 -13.5t49 -5q30 0 50 5t34.5 13.5t25 19t21.5 22.5q20 21 31 51t16 68.5t6 84.5v32q0 32 -1 68zM842 1275q0 23 9 43t24 35t35 23.5t43 8.5q22 0 41.5 -8.5t34 -23.5
t23 -35t8.5 -43t-8.5 -42.5t-23 -34t-34 -23t-41.5 -8.5q-23 0 -43 8.5t-35 23t-24 34t-9 42.5z" />
    <glyph glyph-name="uniFED3" unicode="&#x634;" horiz-adv-x="981" arabic-form="medial" 
d="M387 1344q0 23 9 43t24 35t34.5 23.5t41.5 8.5t42 -8.5t35 -23.5t23.5 -35t8.5 -43t-8.5 -42.5t-23.5 -34t-35 -23t-42 -8.5t-41.5 8.5t-34.5 23t-24 34t-9 42.5zM911 398q0 -52 -20.5 -98t-55.5 -81q-42 -42 -98.5 -65.5t-125.5 -23.5h-641v151h232q-27 34 -41.5 73.5
t-21 85t-6.5 98.5q-1 10 -1 21q0 43 2 90q1 73 18.5 133.5t46.5 108t67.5 82t82.5 56.5q42 20 87 30q41 9 83 9h9q94 0 177 -42q43 -22 81 -55.5t65.5 -79t43.5 -102.5t16 -124v-267zM613 281q23 0 47 24q17 17 27 40.5t10 52.5h-1v267q0 95 -33.5 154.5t-82.5 85.5
q-30 13 -55 14q-24 0 -53 -13q-25 -13 -47 -35t-39 -54.5t-27 -74.5t-11 -95q-1 -36 -1 -68q0 -17 1 -32q0 -46 5 -84.5t16 -68.5t31 -51q12 -13 24 -23t29.5 -17.5t43 -13t64.5 -8.5h52z" />
    <glyph glyph-name="uniFED6" unicode="&#x635;" horiz-adv-x="1340" arabic-form="final" 
d="M1262 281h108v-151h-108q-5 -82 -23.5 -145t-48 -111t-70 -82t-88.5 -57q-60 -29 -126 -42t-136 -18q-66 0 -125 1t-113 7.5t-104 19.5t-99 36q-49 24 -89 58t-70 82.5t-48 112t-22 146.5l214 6q3 -62 14 -108t28.5 -80t41 -56.5t52.5 -36.5q28 -13 64 -20.5t77 -11
t86.5 -4.5t92.5 -1q42 4 77 11.5t64 21.5q28 13 51.5 35t41 54t28.5 76.5t15 103.5q-94 1 -168 9.5t-131.5 24.5t-100.5 40t-74 56q-34 35 -52.5 76.5t-27 90t-9.5 104.5v38q0 39 1 82q1 73 18 133.5t46 108t68 82t83 56.5q79 39 170 39h9q94 0 177 -42q43 -22 81 -55.5
t65.5 -79t43.5 -102.5t16 -124v-384zM1047 665q0 95 -33.5 154.5t-83.5 85.5q-28 13 -54 14q-24 0 -53 -13q-51 -26 -86.5 -89.5t-37.5 -169.5q-1 -36 -1 -68q0 -17 1 -32q0 -46 5 -84.5t16 -68.5t31 -51q31 -32 101 -48t195 -17v387zM879 1275q0 23 9 43t24 35t35 23.5
t43 8.5q22 0 41.5 -8.5t34 -23.5t23 -35t8.5 -43t-8.5 -42.5t-23 -34t-34 -23t-41.5 -8.5q-23 0 -43 8.5t-35 23t-24 34t-9 42.5zM618 1275q0 23 9 43t24 35t34.5 23.5t41.5 8.5t42 -8.5t35 -23.5t23.5 -35t8.5 -43t-8.5 -42.5t-23.5 -34t-35 -23t-42 -8.5t-41.5 8.5
t-34.5 23t-24 34t-9 42.5z" />
    <glyph glyph-name="uniFED7" unicode="&#x635;" horiz-adv-x="981" arabic-form="initial" 
d="M493 1339q0 23 9 43t24 35t35 23.5t43 8.5q22 0 41.5 -8.5t34 -23.5t23 -35t8.5 -43t-8.5 -42.5t-23 -34t-34 -23t-41.5 -8.5q-23 0 -43 8.5t-35 23t-24 34t-9 42.5zM232 1339q0 23 9 43t24 35t34.5 23.5t41.5 8.5t42 -8.5t35 -23.5t23.5 -35t8.5 -43t-8.5 -42.5
t-23.5 -34t-35 -23t-42 -8.5t-41.5 8.5t-34.5 23t-24 34t-9 42.5zM911 398q0 -52 -20.5 -98t-55.5 -81q-42 -42 -98.5 -65.5t-125.5 -23.5h-641v151h232q-27 34 -41.5 73.5t-21 85t-6.5 98.5q-1 10 -1 21q0 43 2 90q1 73 18.5 133.5t46.5 108t67.5 82t82.5 56.5q42 20 87 30
q41 9 83 9h9q94 0 177 -42q43 -22 81 -55.5t65.5 -79t43.5 -102.5t16 -124v-267zM613 281q23 0 47 24q17 17 27 40.5t10 52.5h-1v267q0 95 -33.5 154.5t-82.5 85.5q-30 13 -55 14q-24 0 -53 -13q-25 -13 -47 -35t-39 -54.5t-27 -74.5t-11 -95q-1 -36 -1 -68q0 -17 1 -32
q0 -46 5 -84.5t16 -68.5t31 -51q12 -13 24 -23t29.5 -17.5t43 -13t64.5 -8.5h52z" />
    <glyph glyph-name="uniFED8" unicode="&#x635;" horiz-adv-x="1027" arabic-form="medial" 
d="M513 1331q0 23 9 43t24 35t35 23.5t43 8.5q22 0 41.5 -8.5t34 -23.5t23 -35t8.5 -43t-8.5 -42.5t-23 -34t-34 -23t-41.5 -8.5q-23 0 -43 8.5t-35 23t-24 34t-9 42.5zM252 1331q0 23 9 43t24 35t34.5 23.5t41.5 8.5t42 -8.5t35 -23.5t23.5 -35t8.5 -43t-8.5 -42.5
t-23.5 -34t-35 -23t-42 -8.5t-41.5 8.5t-34.5 23t-24 34t-9 42.5zM697 1029q44 -22 82.5 -56.5t67.5 -82t46 -108t19 -133.5q1 -59 1 -112q0 -52 -6.5 -97.5t-21 -85t-41.5 -73.5h213v-151h-1087v151h217q-27 34 -41.5 73.5t-21 85t-6.5 98.5q-1 10 -1 21q0 43 2 90
q1 73 18.5 133.5t46.5 108t67.5 82t82.5 56.5q40 19 86.5 29t94.5 10t94.5 -9.5t87.5 -29.5zM698 647q-1 53 -11 95t-27 74.5t-39 54.5t-47 35q-11 6 -26 9t-30 4h-5q-13 0 -27 -3q-16 -3 -29 -10q-25 -13 -47 -35t-39 -54.5t-27 -74.5t-11 -95q-1 -36 -1 -68q0 -17 1 -32
q0 -46 5 -84.5t16 -68.5t31 -51q10 -12 21 -22.5t25.5 -19t34.5 -13.5t49 -5q30 0 50 5t34.5 13.5t25 19t21.5 22.5q20 21 31 51t16 68.5t6 84.5v32q0 32 -1 68z" />
    <glyph glyph-name="uniFEDB" unicode="&#x636;" horiz-adv-x="1234" arabic-form="final" 
d="M-30 281h882v-1q17 0 35 20q32 30 32 79v171q-8 44 -48.5 74t-100.5 49.5t-133.5 29.5t-147 14.5t-140.5 4.5h-232l-26 50q-43 83 -43 155q0 46 15.5 86t44.5 75q27 35 64.5 63.5t82.5 51.5q72 38 159 64t174.5 41.5t168.5 22.5t142 7v-151q-50 0 -115.5 -5t-136 -17
t-139.5 -32t-124 -50q-28 -14 -50.5 -31t-38.5 -37q-31 -39 -31 -88q0 -13 1.5 -26.5t6.5 -27.5q66 0 152 -2t177.5 -11t181.5 -28.5t163.5 -53.5t124 -85t63.5 -125v-189q0 -48 -19.5 -90.5t-51.5 -74.5q-38 -39 -92.5 -61.5t-118.5 -22.5h-882v151z" />
    <glyph glyph-name="uniFEDC" unicode="&#x636;" horiz-adv-x="1213" arabic-form="initial" 
d="M-30 281h882v-1q17 0 35 20q32 30 32 79v171q-8 44 -48.5 74t-100.5 49.5t-133.5 29.5t-147 14.5t-140.5 4.5h-232l-26 50q-43 83 -43 155q0 46 15.5 86t44.5 75q27 35 64.5 63.5t82.5 51.5q72 38 159 64t174.5 41.5t168.5 22.5t142 7v-151q-50 0 -115.5 -5t-136 -17
t-139.5 -32t-124 -50q-28 -14 -50.5 -31t-38.5 -37q-31 -39 -31 -88q0 -13 1.5 -26.5t6.5 -27.5q66 0 152 -2t177.5 -11t181.5 -28.5t163.5 -53.5t124 -85t63.5 -125v-189q0 -26 -6 -50.5t-17 -47.5h132v-151h-1273v151z" />
    <glyph glyph-name="uniFEDE" unicode="&#x636;" horiz-adv-x="1134" arabic-form="medial" 
d="M314 140q3 -63 14 -110t27.5 -81.5t38 -57.5t44.5 -37q19 -11 39 -17.5t38.5 -9.5t35.5 -3h30q6 0 13 1t15 3q9 2 17.5 4.5t16.5 5.5q28 12 55.5 35t50 59t38 87.5t18.5 120.5v1229h214v-1088h145v-151h-146q-5 -92 -29 -161t-60.5 -119.5t-81.5 -84.5t-91 -54
q-41 -18 -82 -27q-20 -5 -40 -7t-40 -3h-59q-34 1 -73 7.5t-81.5 20.5t-84.5 40q-38 23 -71.5 56.5t-60 81.5t-43.5 111t-21 145z" />
    <glyph glyph-name="uniFEE0" unicode="&#x637;" horiz-adv-x="601" arabic-form="final" 
d="M402 1369v-971q0 -10 -1 -15q2 -23 12 -43t25 -35q24 -24 48 -24h145v-151h-144q-57 0 -105.5 16t-87.5 45q-38 -29 -86.5 -45t-105.5 -16h-132v151h133q24 0 48 24q31 31 36 78v986h215z" />
    <glyph glyph-name="uniFEE2" unicode="&#x637;" horiz-adv-x="1068" arabic-form="initial" 
d="M-3 -244q50 0 85 18.5t57.5 50t34.5 74.5t17.5 92t6 101.5t0.5 104.5v468q0 67 16 124t43.5 102.5t65.5 79t82 55.5q41 21 85.5 31.5t90.5 10.5h9q91 0 171 -39q44 -22 82.5 -56.5t67.5 -82t46 -108t19 -133.5v-343q0 -7 -0.5 -13t-0.5 -12h123v-151h-194
q-20 -21 -43.5 -37.5t-48.5 -26.5q-62 -28 -130 -28q-41 0 -83 10h-4l-183 49q-1 -62 -7 -122.5t-21.5 -115t-43.5 -101t-73.5 -80.5t-111.5 -53t-158 -19v150zM413 257l256 -67q5 -1 10 -1q8 0 15 3q12 4 22.5 12.5t19 19.5t13.5 22q13 26 13 60l-1 341q-2 106 -37.5 169.5
t-86.5 89.5q-29 13 -53 13q-26 -1 -54 -14q-50 -26 -83.5 -85.5t-33.5 -154.5v-408z" />
    <glyph glyph-name="uniFEE3" unicode="&#x637;" horiz-adv-x="967" arabic-form="medial" 
d="M88 281v384q0 67 16 124t43.5 102.5t65.5 79t82 55.5q41 21 85.5 31.5t91.5 10.5h9q42 0 83 -9q45 -10 87 -30q44 -22 82.5 -56.5t67.5 -82t46 -108t19 -133.5v-1l1 -342q0 -59 -24 -108q-14 -26 -32 -49t-44 -43q-58 -49 -130 -62q-32 -6 -64 -6q-41 0 -84 10h-3
l-309 82h-207v151h118zM304 257l201 -54q32 -11 57 -11q6 0 12 1q28 3 45.5 18.5t25.5 40.5t8 54l-1 341q-1 53 -11 95t-27 74.5t-39 54.5t-47 35q-29 13 -54 13q-26 -2 -54 -14q-50 -26 -83 -85.5t-33 -154.5v-408z" />
    <glyph glyph-name="uniFEE6" unicode="&#x638;" horiz-adv-x="1310" arabic-form="final" 
d="M549 1177q0 24 9 45t25 36.5t37 24.5t44 9t43.5 -9t36 -24.5t24.5 -36.5t9 -45t-9 -44.5t-24.5 -36t-36 -24t-43.5 -8.5t-44 8.5t-37 24t-25 36t-9 44.5zM1226 281h114v-151h-127q-4 -12 -9 -24q-8 -20 -18.5 -39.5t-23.5 -38.5q-35 -50 -85.5 -91t-115 -70.5
t-142.5 -45.5q-69 -14 -147 -14h-19q-25 1 -49.5 3t-48.5 7q-95 17 -180 59.5t-148 113.5q-60 66 -93 155q-31 82 -31 184v19q1 27 3 54t7 54l214 -17q-5 -26 -7 -49t-3 -44v-14q0 -82 23 -145q24 -69 68 -117q40 -45 91 -71t107 -36q14 -2 27.5 -3.5t27.5 -1.5h15
q98 0 171 36q79 38 122 100q9 12 16 25t13 27q5 14 8.5 28t5.5 28v775h214v-696z" />
    <glyph glyph-name="uniFEE7" unicode="&#x638;" horiz-adv-x="631" arabic-form="initial" 
d="M308 1318q0 23 9 43t24 35t34.5 23.5t41.5 8.5t42 -8.5t35 -23.5t23.5 -35t8.5 -43t-8.5 -42.5t-23.5 -34t-35 -23t-42 -8.5t-41.5 8.5t-34.5 23t-24 34t-9 42.5zM531 977v-579q0 -52 -20.5 -98t-55.5 -81q-42 -42 -98.5 -65.5t-125.5 -23.5h-261v151h262q24 0 48 24
q17 17 27 40.5t10 52.5h-1v579h215z" />
    <glyph glyph-name="uniFEE8" unicode="&#x638;" horiz-adv-x="671" arabic-form="medial" 
d="M224 1337q0 23 9 43t24 35t34.5 23.5t41.5 8.5t42 -8.5t35 -23.5t23.5 -35t8.5 -43t-8.5 -42.5t-23.5 -34t-35 -23t-42 -8.5t-41.5 8.5t-34.5 23t-24 34t-9 42.5zM451 977v-579q0 -10 -1 -15q2 -23 12 -43t25 -35q24 -24 48 -24h166v-151h-165q-57 0 -105.5 16t-87.5 45
q-38 -29 -86.5 -45t-105.5 -16h-181v151h182q24 0 48 24q31 31 36 78v594h215z" />
    <glyph glyph-name="uniFEEB" unicode="&#x639;" horiz-adv-x="1495" arabic-form="final" 
d="M809 130q-48 -48 -105.5 -70t-117.5 -22q-43 0 -82 10l-313 82h-221v151h133v384q0 99 33 174.5t87 126.5t123.5 77t143.5 26q14 0 27 -1t27 -3q23 1 48 1h52q72 0 154 -6t163.5 -25t157.5 -55.5t135.5 -97.5t97.5 -150.5t43 -214.5v-138q0 -52 -22 -97.5t-60 -79
t-89.5 -53t-109.5 -19.5h-305zM318 257l256 -67q3 -1 9 -1q16 0 31.5 11.5t27.5 28t19 35.5q6 17 6 30v4l-1 349q-2 61 -16 111.5t-38 85.5t-55.5 54.5t-66.5 19.5q-31 0 -62 -17t-55.5 -49.5t-39.5 -79.5t-15 -107v-408zM880 281l234 -1q11 0 23 8.5t22 22.5t16 32t6 36
l-1 175q-9 90 -44 152.5t-86.5 103t-114.5 62.5t-128 32q32 -49 51.5 -112.5t21.5 -142.5v-368z" />
    <glyph glyph-name="uniFEEC" unicode="&#x639;" horiz-adv-x="1471" arabic-form="initial" 
d="M1501 130h-692q-48 -48 -105.5 -70t-117.5 -22q-43 0 -82 10l-313 82h-221v151h133v384q0 99 33 174.5t87 126.5t123.5 77t143.5 26q14 0 27 -1t27 -3q23 1 48 1h52q72 0 154 -6t163.5 -25t157.5 -55.5t135.5 -97.5t97.5 -150.5t43 -214.5v-138q0 -52 -23 -98h129v-151z
M318 257l256 -67q3 -1 9 -1q16 0 31.5 11.5t27.5 28t19 35.5q6 17 6 30v4l-1 349q-2 61 -16 111.5t-38 85.5t-55.5 54.5t-66.5 19.5q-31 0 -62 -17t-55.5 -49.5t-39.5 -79.5t-15 -107v-408zM880 281l234 -1q11 0 23 8.5t22 22.5t16 32t6 36l-1 175q-9 90 -44 152.5
t-86.5 103t-114.5 62.5t-128 32q32 -49 51.5 -112.5t21.5 -142.5v-368z" />
    <glyph glyph-name="uniFEEE" unicode="&#x639;" horiz-adv-x="991" arabic-form="medial" 
d="M1021 130h-142q-5 -82 -23.5 -145t-48 -111t-70 -82t-88.5 -57q-49 -24 -102 -37t-109 -19t-115 -7t-119 -1v150q48 0 93.5 0.5t87.5 4.5t78 11.5t65 21.5q28 13 51 35t41 54t29 76.5t15 103.5q-94 1 -168 9.5t-131.5 24.5t-100.5 40t-74 56q-34 35 -52.5 76.5t-27 90
t-9.5 104.5v120q1 73 18.5 133.5t46.5 108t67.5 82t82.5 56.5q80 39 171 39h9q94 0 177 -42q43 -22 81 -55.5t65.5 -79t43.5 -102.5t16 -124v-384h142v-151zM664 665q0 95 -33.5 154.5t-83.5 85.5q-28 13 -54 14q-24 0 -53 -13q-51 -26 -86.5 -89.5t-37.5 -169.5
q-1 -36 -1 -68q0 -17 1 -32q0 -46 5 -84.5t16 -68.5t31 -51q31 -32 101 -48t195 -17v387z" />
    <glyph glyph-name="uniFEF2" unicode="&#x63a;" horiz-adv-x="1254" arabic-form="final" 
d="M368 463q-52 -153 -52 -270v-17q4 -123 50 -208q26 -48 60.5 -82t76.5 -57q39 -21 81.5 -32t84.5 -12h10q70 0 134 26q68 27 114 82q21 24 34 53q11 24 15 52q1 8 1 16q0 20 -6 40q-8 31 -29 63t-61 66q-32 27 -77.5 54t-107.5 55l111 128l4 -1l2 -1q32 -13 61 -26
t56 -25q41 -19 78.5 -34.5t78 -27t88 -18t109.5 -6.5v-151q-34 0 -64 1.5t-57 3.5q7 -14 12 -27.5t8 -27.5q8 -33 8 -63q0 -16 -2 -31q-6 -45 -23 -84q-21 -46 -54 -84q-39 -47 -89 -81.5t-108.5 -57.5t-121.5 -34q-59 -10 -119 -10h-11q-76 2 -150.5 20.5t-141.5 55.5
q-64 35 -117 85.5t-89 118.5q-28 52 -44.5 114.5t-18.5 135.5v18q0 65 12 138q13 83 46 177zM704 -612q0 23 9 43t24 35t35 23.5t43 8.5q22 0 41.5 -8.5t34 -23.5t23 -35t8.5 -43t-8.5 -42.5t-23 -34t-34 -23t-41.5 -8.5q-23 0 -43 8.5t-35 23t-24 34t-9 42.5zM443 -612
q0 23 9 43t24 35t34.5 23.5t41.5 8.5t42 -8.5t35 -23.5t23.5 -35t8.5 -43t-8.5 -42.5t-23.5 -34t-35 -23t-42 -8.5t-41.5 8.5t-34.5 23t-24 34t-9 42.5z" />
    <glyph glyph-name="uniFEF3" unicode="&#x63a;" horiz-adv-x="631" arabic-form="initial" 
d="M217 -201q0 23 9 43t24 35t35 23.5t43 8.5q22 0 41.5 -8.5t34 -23.5t23 -35t8.5 -43t-8.5 -42.5t-23 -34t-34 -23t-41.5 -8.5q-23 0 -43 8.5t-35 23t-24 34t-9 42.5zM-44 -201q0 23 9 43t24 35t34.5 23.5t41.5 8.5t42 -8.5t35 -23.5t23.5 -35t8.5 -43t-8.5 -42.5
t-23.5 -34t-35 -23t-42 -8.5t-41.5 8.5t-34.5 23t-24 34t-9 42.5zM531 977v-579q0 -52 -20.5 -98t-55.5 -81q-42 -42 -98.5 -65.5t-125.5 -23.5h-261v151h262q24 0 48 24q17 17 27 40.5t10 52.5h-1v579h215z" />
    <glyph glyph-name="uniFEF4" unicode="&#x63a;" horiz-adv-x="671" arabic-form="medial" 
d="M351 -175q0 23 9 43t24 35t35 23.5t43 8.5q22 0 41.5 -8.5t34 -23.5t23 -35t8.5 -43t-8.5 -42.5t-23 -34t-34 -23t-41.5 -8.5q-23 0 -43 8.5t-35 23t-24 34t-9 42.5zM90 -175q0 23 9 43t24 35t34.5 23.5t41.5 8.5t42 -8.5t35 -23.5t23.5 -35t8.5 -43t-8.5 -42.5
t-23.5 -34t-35 -23t-42 -8.5t-41.5 8.5t-34.5 23t-24 34t-9 42.5zM451 977v-579q0 -10 -1 -15q2 -23 12 -43t25 -35q24 -24 48 -24h166v-151h-165q-57 0 -105.5 16t-87.5 45q-38 -29 -86.5 -45t-105.5 -16h-181v151h182q24 0 48 24q31 31 36 78v594h215z" />
    <glyph glyph-name="uniFEF6" unicode="&#x641;" horiz-adv-x="1058" arabic-form="final" 
d="M411 1367v-1086h247q23 0 47 24q17 17 27.5 40.5t10.5 52.5v969h214v-969q0 -32 -8 -61.5t-22 -55.5h161v-151h-1042v151h151v1086h214zM24 1557l417 60l-21 -107l-417 -60z" />
    <glyph glyph-name="uniFEF7" unicode="&#x641;" horiz-adv-x="1014" arabic-form="initial" 
d="M368 1367v-1086h247q23 0 47 24q17 17 27.5 40.5t10.5 52.5v969h214v-969q0 -52 -20.5 -98t-55.5 -81q-42 -42 -99 -65.5t-125 -23.5h-611v151h151v1086h214zM414 1522l-311 -26l-12 85l89 5q-18 24 -30 39t-16 29q-3 8 -3 17q0 6 1 13q3 15 15 40q14 32 44 46.5t68 19.5
q19 2 38 2h25q31 -3 58 -8l-21 -81q-21 4 -43 6q-11 1 -21 1t-20 -1q-36 -4 -41 -15q-2 -4 -2 -9q0 -8 7 -18q9 -16 27 -34t29 -36l107 10z" />
    <glyph glyph-name="uniFEF8" unicode="&#x641;" horiz-adv-x="1028" arabic-form="medial" 
d="M381 1367v-1086h247q23 0 47 24q17 17 27.5 40.5t10.5 52.5v969h214v-969q0 -32 -8 -61.5t-22 -55.5h161v-151h-1042v151h151v1086h214zM427 1528l-311 -26l-12 85l89 5q-18 24 -30 39t-16 29q-3 8 -3 17q0 6 1 13q3 15 15 40q14 32 44 46.5t68 19.5q19 2 38 2h25
q31 -3 58 -8l-21 -81q-21 4 -43 6q-11 1 -21 1t-20 -1q-36 -4 -41 -15q-2 -4 -2 -9q0 -8 7 -18q9 -16 27 -34t29 -36l107 10z" />
    <glyph glyph-name="uniFEFA" unicode="&#x642;" horiz-adv-x="1037" arabic-form="final" 
d="M390 1367v-1086h247q23 0 47 24q17 17 27.5 40.5t10.5 52.5v969h214v-969q0 -32 -8 -61.5t-22 -55.5h161v-151h-1042v151h151v1086h214zM339 -229l-311 -26l-12 85l89 5q-18 24 -30 39t-16 29q-3 8 -3 17q0 6 1 13q3 15 15 40q14 32 44 46.5t68 19.5q19 2 38 2h25
q31 -3 58 -8l-21 -81q-21 4 -43 6q-11 1 -21 1t-20 -1q-36 -4 -41 -15q-2 -4 -2 -9q0 -8 7 -18q9 -16 27 -34t29 -36l107 10z" />
    <glyph glyph-name="uniFEFB" unicode="&#x642;" horiz-adv-x="1027" arabic-form="initial" 
d="M381 1367v-1086h247q23 0 47 24q17 17 27.5 40.5t10.5 52.5v969h214v-969q0 -52 -20.5 -98t-55.5 -81q-42 -42 -99 -65.5t-125 -23.5h-611v151h151v1086h214z" />
    <glyph glyph-name="uniFEFC" unicode="&#x642;" horiz-adv-x="1028" arabic-form="medial" 
d="M381 1367v-1086h247q23 0 47 24q17 17 27.5 40.5t10.5 52.5v969h214v-969q0 -32 -8 -61.5t-22 -55.5h161v-151h-1042v151h151v1086h214z" />
    <glyph glyph-name=".notdef" horiz-adv-x="1024" 
d="M100 0v1434h824v-1434h-824zM150 50h724v1334h-724v-1334zM325 1148q31 28 58 43q53 30 112 30q92 0 148 -47.5t56 -127.5q0 -49 -23 -98.5t-87 -129.5q-63 -80 -99 -132t-36 -99q0 -38 24 -133h-32q-35 97 -35 148q0 76 81.5 218t81.5 217q0 57 -33 90t-91 33
q-38 0 -69 -17q-26 -15 -56 -40v45zM389 334l57 58q11 10 20 10q10 0 22 -11l56 -60q9 -11 9 -20q0 -11 -10 -22l-56 -62q-14 -14 -21 -14q-11 0 -20 10l-61 71q-7 9 -7 18q0 10 11 22z" />
    <glyph glyph-name=".null" horiz-adv-x="0" 
 />
    <glyph glyph-name="nonmarkingreturn" horiz-adv-x="508" 
 />
    <glyph glyph-name="space" unicode=" " horiz-adv-x="508" 
 />
    <glyph glyph-name="afii57388" unicode="&#x60c;" horiz-adv-x="573" 
d="M315 539v-1l35 -27q-77 -91 -77 -150q0 -11 2 -20q18 6 37 6q22 0 42 -8.5t35 -23.5t23.5 -35t8.5 -43t-8.5 -42.5t-23.5 -34t-35 -23t-42 -8.5t-41.5 8.5t-34.5 23t-24 34.5q-17 29 -17 81q0 30 6 69q15 104 114 194z" />
    <glyph glyph-name="afii57403" unicode="&#x61b;" horiz-adv-x="618" 
d="M205 249q0 23 9 43t24 35t34.5 23.5t41.5 8.5t42 -8.5t35 -23.5t23.5 -35t8.5 -43t-8.5 -42.5t-23.5 -34t-35 -23t-42 -8.5t-41.5 8.5t-34.5 23t-24 34t-9 42.5zM315 919v-1l35 -27q-77 -91 -77 -150q0 -11 2 -20q18 6 37 6q22 0 42 -8.5t35 -23.5t23.5 -35t8.5 -43
t-8.5 -42.5t-23.5 -34t-35 -23t-42 -8.5t-41.5 8.5t-34.5 23t-24 34.5q-17 29 -17 81q0 30 6 69q15 104 114 194z" />
    <glyph glyph-name="afii57407" unicode="&#x61f;" horiz-adv-x="829" 
d="M427 249q0 23 9 43t24 35t34.5 23.5t41.5 8.5t42 -8.5t35 -23.5t23.5 -35t8.5 -43t-8.5 -42.5t-23.5 -34t-35 -23t-42 -8.5t-41.5 8.5t-34.5 23t-24 34t-9 42.5zM646 817l-82 -369l-98 55l2 149l-36 10q-252 73 -292 279q-7 38 -7 74q0 159 144 277q99 80 229 80
q102 0 223 -50l-62 -143q-86 28 -149 28q-136 0 -167 -130q-3 -21 -3 -40q0 -188 298 -220z" />
    <glyph glyph-name="afii57440" unicode="&#x640;" horiz-adv-x="460" 
d="M490 130h-520v151h520v-151z" />
    <glyph glyph-name="afii57451" unicode="&#x64b;" horiz-adv-x="408" 
d="M389 1675l-340 -193l17 91l340 193zM403 1842l-340 -193l17 91l340 193z" />
    <glyph glyph-name="afii57452" unicode="&#x64c;" horiz-adv-x="469" 
d="M409 1632q-6 -14 -19.5 -33.5t-32 -40t-40.5 -39.5t-45.5 -31t-47.5 -15q-5 -1 -10 -1q-19 0 -36 9q-22 11 -24 32q-1 5 -1 11q0 15 4 31q5 21 11 42q2 8 2 15q0 10 -4 17q-7 10 -31 10h-4q-27 -1 -86 -20q19 27 44.5 43.5t50.5 22.5q11 2 22 2q13 0 25 -3q22 -7 34 -25
q11 -16 11 -42v-6q-2 -30 -24 -72q46 20 85.5 44t71.5 62q-41 10 -60.5 31.5t-21.5 47.5q-1 5 -1 10q0 21 9 43q10 27 29.5 49.5t44.5 36.5q22 12 45 12h4q21 -2 28 -24q7 -21 7 -48v-3q-1 -29 -6.5 -56t-8.5 -37l38 -12l-17 -76zM388 1793q-10 10 -23 10h-3q-12 0 -19 -8
q-9 -10 -9 -22q-1 -3 -1 -6q0 -7 4 -13q5 -8 14 -14t20.5 -11.5t24.5 -11.5q2 19 2 35q0 14 -2.5 26.5t-7.5 16.5v-2z" />
    <glyph glyph-name="afii57453" unicode="&#x64d;" horiz-adv-x="408" 
d="M405 -148l-340 -193l17 91l340 193zM378 -316l-340 -193l17 91l340 193z" />
    <glyph glyph-name="afii57454" unicode="&#x64e;" horiz-adv-x="408" 
d="M389 1675l-340 -193l17 91l340 193z" />
    <glyph glyph-name="afii57455" unicode="&#x64f;" horiz-adv-x="414" 
d="M366 1664q-11 -23 -37.5 -52.5t-62.5 -55t-78 -42.5q-39 -15 -77 -15h-9q-29 2 -47.5 3t-28.5 2t-12 2h-2q0 1 1 1q61 25 105.5 43t79 36t62.5 39.5t56 54.5q-47 11 -69 34t-25 51q-1 6 -1 12q0 22 10 46q12 29 33.5 53t49.5 39q26 13 52 13h4q16 -1 25 -12.5t13 -28.5
q2 -14 2 -30v-9q-1 -22 -3.5 -42t-6.5 -36.5t-7 -24.5l44 -13l-19 -80zM341 1841q-5 6 -12 8t-12 2h-5q-14 0 -22 -8q-10 -11 -11 -25v-4q0 -22 20 -33q22 -12 51 -23q2 20 2 38q0 15 -2 28.5t-9 18.5v-2z" />
    <glyph glyph-name="afii57456" unicode="&#x650;" horiz-adv-x="408" 
d="M395 -148l-340 -193l17 91l340 193z" />
    <glyph glyph-name="afii57457" unicode="&#x651;" horiz-adv-x="425" 
d="M398 1823q11 -17 17.5 -36t11.5 -38q4 -22 4 -44q0 -12 -1 -23q-3 -34 -15 -62t-33 -45.5t-51 -17.5q-25 0 -37.5 9t-27.5 23q-6 -10 -15 -23t-22 -25t-31 -21t-40 -11q-7 -1 -13 -1q-26 0 -43 11q-21 13 -31 35t-11 50q-1 8 -1 16q0 19 3 37q3 26 10 47.5t14 31.5
q0 -1 1 -1t4 2q5 4 11.5 9t11.5 9q3 1 4 1t1 -1q-8 -20 -13 -46q-4 -19 -4 -36q0 -7 1 -14q2 -24 14 -40q10 -15 34 -15h3q29 0 44.5 16t23.5 37.5t12.5 44.5t12.5 38q1 -1 2 -1t3 1q4 3 9 7.5t10 8.5q2 1 3 1q2 0 2 -1q-5 -17 -5 -33q0 -11 3 -21q5 -25 19 -40t36 -18h6
q19 0 40 14q6 8 6 20v2q-1 13 -5 26.5t-11 27t-14 23.5q13 18 24.5 34t22.5 32z" />
    <glyph glyph-name="afii57458" unicode="&#x652;" horiz-adv-x="328" 
d="M347 1696q1 -8 1 -17q0 -26 -11 -54q-15 -38 -41 -88v1q0 1 1 2l-3 -5q-24 -14 -61.5 -26.5t-73.5 -14.5q-6 -1 -12 -1q-29 0 -53 12q-29 13 -35 51q-2 12 -2 26q0 23 6 50q8 42 26.5 81t46 67t59.5 33q8 1 15 1q20 0 39 -7q26 -11 46.5 -29t34.5 -40.5t17 -41.5z
M283 1628q-3 14 -13.5 30t-25 29.5t-31.5 22.5q-13 6 -26 6q-4 0 -9 -1q-30 -5 -44 -27q-12 -18 -12 -37q0 -4 1 -8q3 -22 21 -32.5t42 -10.5q2 -1 3 -1q23 0 47 7q26 7 46 21zM296 1537q0 -1 -1 -1zM295 1536q0 -1 -1 -1q1 0 1 1z" />
    <glyph glyph-name="afii57392" unicode="&#x660;" 
d="M411 869q0 16 12 27.5t28 11.5h248q17 0 28 -11.5t11 -27.5v-247q0 -16 -11 -27.5t-28 -11.5h-248q-16 0 -28 11.5t-12 27.5v247z" />
    <glyph glyph-name="afii57393" unicode="&#x661;" horiz-adv-x="652" 
d="M213 1301q0 16 12 27.5t28 11.5h138q17 0 28 -11.5t11 -27.5v-1119q0 -16 -11 -27.5t-28 -11.5h-138q-16 0 -28 11.5t-12 27.5v1119z" />
    <glyph glyph-name="afii57394" unicode="&#x662;" 
d="M859 1126l-223 1q-51 -6 -91 -18t-65.5 -35t-34.5 -59q-4 -17 -4 -38q0 -24 5 -52l173 -753q0 -15 -10 -24t-25 -9h-158q-11 0 -18 9.5t-8 23.5l-169 659q-10 60 -10 112q0 28 3 53q8 73 33 129.5t65.5 96.5t90.5 65.5t107.5 38.5t116.5 14q6 0 24 0.5t42 1t50.5 1.5
t49.5 1.5t40 1t22 0.5q11 0 24 -2t23.5 -7t17.5 -13t7 -20v-137q0 -17 -12 -29t-28 -12h-38z" />
    <glyph glyph-name="afii57395" unicode="&#x663;" 
d="M691 990h139v310q0 17 11 28.5t27 11.5h139q16 0 27.5 -11.5t11.5 -28.5v-271q0 -136 -59 -195.5t-169 -59.5h-482v-592q0 -16 -11 -27.5t-28 -11.5h-138q-16 0 -28 11.5t-12 27.5v1119q0 16 12 27.5t28 11.5h138q17 0 28 -11.5t11 -27.5v-311h139v310q0 17 11 28.5
t27 11.5h139q16 0 27.5 -11.5t11.5 -28.5l-1 -304h1v-6z" />
    <glyph glyph-name="afii57396" unicode="&#x664;" 
d="M483 1129q-33 -20 -38 -46q-1 -7 -1 -14q0 -21 11 -45q15 -33 45.5 -70t67.5 -78h224q17 0 28.5 -11t11.5 -28v-138q0 -16 -11.5 -27.5t-28.5 -11.5l-240 -1q-39 -10 -69 -32t-49 -50.5t-26 -60.5q-4 -17 -4 -32q0 -16 4 -31q7 -30 29.5 -56t62.5 -41h388
q17 0 28.5 -11.5t11.5 -26.5v-138q0 -17 -11.5 -28.5t-28.5 -11.5h-394q-68 0 -127 30.5t-101.5 82t-63.5 119.5q-15 48 -15 98q0 21 3 42q8 73 51 147t129 139q-25 32 -48.5 60.5t-42.5 58t-33.5 62.5t-21.5 74q0 67 21.5 121.5t58.5 92t86 58t104 20.5h394
q17 0 28.5 -11.5t11.5 -28.5v-138q0 -15 -11.5 -26.5t-28.5 -11.5h-405z" />
    <glyph glyph-name="afii57397" unicode="&#x665;" 
d="M404 141q-86 2 -145 35.5t-94 89.5t-49 129q-11 55 -11 116q0 19 2 40q4 82 24.5 168.5t53.5 168.5t77 154.5t94.5 127.5t106.5 88t114 34q58 -1 114 -34t106.5 -88t94.5 -127.5t77 -154.5t53.5 -168.5t25.5 -168.5q1 -21 1 -40q0 -61 -11 -116q-14 -73 -49 -129
t-94 -89.5t-145 -35.5h-346zM575 1058q-28 0 -59 -29q-33 -30 -65 -79t-60 -112t-46 -129t-24 -129q-2 -22 -2 -42q0 -38 8 -70q11 -50 43.5 -80.5t91.5 -30.5h230q59 0 91.5 30.5t44.5 80.5q7 32 7 70q0 20 -2 42q-6 63 -24 129t-46 129t-60 112t-65 79q-32 29 -59 29h-4z
" />
    <glyph glyph-name="afii57398" unicode="&#x666;" 
d="M206 1126q-16 0 -28 12t-12 29v137q0 12 7 20t17.5 13t23.5 7t24 2q5 0 22.5 -0.5t41.5 -1t51.5 -1.5t52 -1.5t43.5 -1t25 -0.5q93 -16 168 -57t128 -105.5t81.5 -151.5t28.5 -195l4 -659q-1 -14 -8 -23.5t-18 -9.5h-158q-15 0 -25 9t-10 24v753q-15 59 -44 96.5t-66 59
t-79 30.5t-84 12q-31 2 -61 2h-44q-24 0 -43 1h-38z" />
    <glyph glyph-name="afii57399" unicode="&#x667;" 
d="M524 494q27 -126 56 -126h1q28 1 54 129l180 804q1 16 12.5 27.5t28.5 11.5h139q16 0 27 -11q10 -11 10 -25v-3l-198 -896q-14 -57 -35.5 -101.5t-52.5 -76.5t-72 -51t-95 -26q-101 6 -163.5 69.5t-91.5 185.5q-50 226 -99 448t-99 448v3q0 14 10 25q11 11 27 11h139
q17 0 28.5 -11.5t12.5 -27.5z" />
    <glyph glyph-name="afii57400" unicode="&#x668;" 
d="M343 189q-1 -16 -12.5 -27.5t-28.5 -11.5h-139q-16 0 -27 12q-10 10 -10 24v3q50 226 99 448t99 448q29 122 91.5 185.5t163.5 69.5q54 -7 95 -26t72 -51t52.5 -76.5t35.5 -101.5l198 -896v-3q0 -14 -10 -24q-11 -12 -27 -12h-139q-17 0 -28.5 11.5t-12.5 27.5l-180 804
q-26 127 -54 129h-1q-29 0 -56 -126z" />
    <glyph glyph-name="afii57401" unicode="&#x669;" 
d="M916 542h-2v-360q0 -16 -11 -27.5t-28 -11.5h-138q-16 0 -28 11.5t-12 27.5v292h-255q-111 0 -169.5 59.5t-58.5 195.5v357q0 135 58.5 194.5t169.5 59.5h247q111 0 169.5 -59.5t58.5 -194.5q0 -74 -0.5 -147.5t-0.5 -146.5v-250zM430 690h267v300q0 8 3 14v120h-270
v-434z" />
    <glyph glyph-name="afii57381" unicode="&#x66a;" horiz-adv-x="1066" 
d="M399 31l-122 107l314 1318l138 -90zM91 1031q0 23 9 43t24 35t34.5 23.5t41.5 8.5t42 -8.5t35 -23.5t23.5 -35t8.5 -43t-8.5 -42.5t-23.5 -34t-35 -23t-42 -8.5t-41.5 8.5t-34.5 23t-24 34t-9 42.5zM697 498q0 23 9 43t24 35t34.5 23.5t41.5 8.5t42 -8.5t35 -23.5
t23.5 -35t8.5 -43t-8.5 -42.5t-23.5 -34t-35 -23t-42 -8.5t-41.5 8.5t-34.5 23t-24 34t-9 42.5z" />
    <glyph glyph-name="uniFD3E" unicode="&#xfd3e;" horiz-adv-x="1251" 
d="M641 665q21 0 41 8.5t35.5 23t25 34t9.5 40.5t-9.5 40t-25 34t-35.5 24t-41 9t-41 -8.5t-35 -23t-24 -34t-9 -41.5t9 -41.5t24 -33.5t35 -22.5t41 -8.5zM662 1019h47v-59l125 131l-5 4l-135 -23q13 60 31.5 117t44.5 113v108q-120 -144 -166 -336l-143 33l98 -154h8v66
h49l41 70h5v-70zM770 1134l111 8h7q25 0 25 -19q0 -15 -24 -43l-139 -157q-11 -9 -11 -25q0 -20 25 -20q11 0 24 10l168 125q25 18 41 18q21 0 21 -28v-123q133 -47 133 -115q0 -56 -133 -109v-122q0 -39 -19 -39q-13 0 -30 14l-172 129q-24 16 -37 16q-23 0 -23 -22
q0 -15 25 -41l141 -158q10 -10 10 -26q0 -21 -28 -21h-9q-3 0 -8 2l-100 15v-21q0 -8 6 -30.5t19 -59.5q16 -50 43.5 -105.5t63.5 -113t79 -114t90 -107.5q51 -51 51 -68q0 -20 -18 -20q-36 0 -156 108q-119 107 -203 215q-110 141 -174 316l-151 -29h-10q-25 0 -25 20
q0 13 12 31l127 176q19 28 19 39q0 25 -25 25q-14 0 -45 -27l-145 -129q-27 -22 -41 -22q-27 0 -27 53v116q-26 9 -49.5 22t-42.5 28t-30 30.5t-11 28.5q0 48 133 113v131q0 37 27 37q8 0 15.5 -4.5t18.5 -12.5l162 -141q21 -16 35 -16q25 0 25 22q0 11 -11 25l-127 180
q-16 22 -16 39q0 20 29 20h8q3 0 8 -2l146 -22q35 85 69.5 152t69.5 118q69 100 190 215q82 77 131.5 115.5t69.5 38.5t20 -21q0 -17 -92 -115q-48 -54 -90.5 -115t-79.5 -130t-61 -133.5t-35 -124.5zM469 697h-94v46q-17 2 -33.5 8.5t-30.5 17.5q27 20 64 23v43h98v4
l-162 123v-121q-27 -7 -51.5 -16t-42.5 -18.5t-28.5 -19t-10.5 -18.5t11.5 -19.5t30 -21t42.5 -19t49 -14.5v-118l158 116v4zM711 577v-60h-47v-69h-5l-41 69h-49v66h-4l-102 -154l143 33q41 -184 166 -336v102q-22 53 -41.5 112.5t-36.5 125.5l137 -25l5 5zM901 839v-45
q20 -2 35.5 -9t28.5 -18q-14 -11 -29.5 -16.5t-34.5 -5.5v-43h-92l-6 -5l162 -118v116q25 6 49 15.5t42.5 20t30 20t11.5 16.5q0 9 -12 20.5t-31 22t-42.5 19t-47.5 12.5v119l-156 -117l2 -4h90z" />
    <glyph glyph-name="uniFD3F" unicode="&#xfd3f;" horiz-adv-x="1251" 
d="M610 665q22 0 41.5 8.5t34.5 23t24 34t9 40.5q0 22 -9 41.5t-24 34t-34.5 23t-41.5 8.5t-42 -8.5t-35 -23t-24 -34t-9 -41.5q0 -21 9 -40.5t24 -34t35 -23t42 -8.5zM590 1019v70h4l41 -70h49v-66h8l99 154l-144 -33q-8 40 -24 84t-37.5 88t-48 86t-56.5 78v-108
q19 -39 38.5 -96t39.5 -136l-137 25l-4 -4l125 -131v59h47zM233 880v123q0 28 21 28q8 0 17.5 -4.5t23.5 -13.5l168 -125q13 -10 24 -10q25 0 25 20q0 15 -10 25l-140 157q-24 28 -24 45t25 17h8l102 -8q-6 96 -80 241q-37 73 -81.5 138.5t-98.5 123.5q-87 98 -90 111v2
q0 23 20 23q26 0 146 -105q154 -136 225 -237q37 -51 76.5 -125.5t83.5 -171.5l145 22q5 2 8 2h9q26 0 26 -22q0 -17 -14 -37l-127 -180q-10 -15 -10 -25q0 -22 22 -22q18 0 37 16l162 141q20 17 35 17q26 0 26 -37v-131q133 -65 133 -113q0 -13 -11.5 -29t-30.5 -31.5
t-42.5 -28.5t-48.5 -20v-116q0 -53 -26 -53q-16 0 -41 22l-146 129q-27 27 -49 27q-20 0 -20 -25q0 -14 18 -39l127 -176q12 -18 12 -33q0 -18 -24 -18h-10l-152 29q-37 -88 -74 -159.5t-76 -125.5q-38 -54 -91.5 -112.5t-123.5 -121.5q-134 -120 -167 -120q-19 0 -19 20
q0 15 88 113q111 120 182 262q38 69 57.5 130t22.5 114l-98 -15q-5 -2 -9 -2h-9q-27 0 -27 21q0 13 10 26l141 158q23 28 23 45q0 16 -20 16q-22 0 -37 -12l-172 -131q-21 -14 -31 -14q-19 0 -19 39v122q-133 53 -133 109q0 68 133 115zM782 697v-4l158 -116v118
q22 3 45.5 12t43 19.5t32 22t12.5 20.5q0 7 -11 17t-30 20t-43 19.5t-49 15.5v121l-162 -123v-4h99v-43q11 -2 27 -7t36 -16q-14 -11 -30 -17.5t-33 -8.5v-46h-95zM541 517v60l-125 -131l4 -5l137 25q-20 -74 -39 -131.5t-39 -99.5v-109q30 36 56.5 77.5t48 85.5t37.5 88
t24 85l143 -33l-102 154h-4v-66h-49l-41 -69h-4v69h-47zM350 794v45h90l2 4l-155 117v-119q-24 -4 -48 -12.5t-42.5 -19t-30.5 -22t-12 -20.5q0 -7 11 -16.5t30 -20t42.5 -20t49.5 -15.5v-116l162 118l-7 5h-92v43q-22 0 -63 22q14 11 29.5 18t33.5 9z" />
    <glyph glyph-name="uniFE82" horiz-adv-x="519" 
d="M323 1367v-969q0 -29 10 -52.5t27 -40.5q26 -24 47 -24h142v-151h-141q-67 0 -124.5 23.5t-98.5 65.5q-35 35 -55.5 81t-20.5 98v969h214zM37 1557l417 60l-21 -107l-417 -60z" />
    <glyph glyph-name="uniFE84" horiz-adv-x="524" 
d="M328 1367v-969q0 -29 10 -52.5t27 -40.5q26 -24 47 -24h142v-151h-141q-67 0 -124.5 23.5t-98.5 65.5q-35 35 -55.5 81t-20.5 98v969h214zM378 1522l-311 -26l-12 85l89 5q-18 24 -30 39t-16 29q-3 8 -3 17q0 6 1 13q3 15 15 40q14 32 44 46.5t68 19.5q19 2 38 2h25
q31 -3 58 -8l-21 -81q-21 4 -43 6q-11 1 -21 1t-20 -1q-36 -4 -41 -15q-2 -4 -2 -9q0 -8 7 -18q9 -16 27 -34t29 -36l107 10z" />
    <glyph glyph-name="uniFE88" horiz-adv-x="518" 
d="M322 1367v-969q0 -29 10 -52.5t27 -40.5q26 -24 47 -24h142v-151h-141q-67 0 -124.5 23.5t-98.5 65.5q-35 35 -55.5 81t-20.5 98v969h214zM372 -229l-311 -26l-12 85l89 5q-18 24 -30 39t-16 29q-3 8 -3 17q0 6 1 13q3 15 15 40q14 32 44 46.5t68 19.5q19 2 38 2h25
q31 -3 58 -8l-21 -81q-21 4 -43 6q-11 1 -21 1t-20 -1q-36 -4 -41 -15q-2 -4 -2 -9q0 -8 7 -18q9 -16 27 -34t29 -36l107 10z" />
    <glyph glyph-name="uniFE8B" horiz-adv-x="631" 
d="M531 977v-579q0 -52 -20.5 -98t-55.5 -81q-42 -42 -98.5 -65.5t-125.5 -23.5h-261v151h262q24 0 48 24q17 17 27 40.5t10 52.5h-1v579h215zM523 1185l-307 -20l-8 107l57 3q-22 29 -33.5 50t-15.5 38q-2 10 -2 19q0 7 1 14q3 15 10 34q10 27 30 48t48 35.5t61.5 21.5
t69.5 7q29 0 46.5 -2.5t34.5 -6.5l-18 -104q-39 14 -68 14q-11 0 -21 -2q-36 -7 -48 -37q-7 -16 -7 -33q0 -13 5 -26q9 -30 50 -57l120 11z" />
    <glyph glyph-name="uniFE8E" horiz-adv-x="510" 
d="M314 1367v-969q0 -29 10 -52.5t27 -40.5q26 -24 47 -24h142v-151h-141q-67 0 -124.5 23.5t-98.5 65.5q-35 35 -55.5 81t-20.5 98v969h214z" />
    <glyph glyph-name="uniFE91" horiz-adv-x="631" 
d="M133 -169q0 23 9 43t24 35t34.5 23.5t41.5 8.5t42 -8.5t35 -23.5t23.5 -35t8.5 -43t-8.5 -42.5t-23.5 -34t-35 -23t-42 -8.5t-41.5 8.5t-34.5 23t-24 34t-9 42.5zM531 977v-579q0 -52 -20.5 -98t-55.5 -81q-42 -42 -98.5 -65.5t-125.5 -23.5h-261v151h262q24 0 48 24
q17 17 27 40.5t10 52.5h-1v579h215z" />
    <glyph glyph-name="uniFE97" horiz-adv-x="631" 
d="M305 1326q0 23 9 43t24 35t35 23.5t43 8.5q22 0 41.5 -8.5t34 -23.5t23 -35t8.5 -43t-8.5 -42.5t-23 -34t-34 -23t-41.5 -8.5q-23 0 -43 8.5t-35 23t-24 34t-9 42.5zM44 1326q0 23 9 43t24 35t34.5 23.5t41.5 8.5t42 -8.5t35 -23.5t23.5 -35t8.5 -43t-8.5 -42.5
t-23.5 -34t-35 -23t-42 -8.5t-41.5 8.5t-34.5 23t-24 34t-9 42.5zM531 977v-579q0 -52 -20.5 -98t-55.5 -81q-42 -42 -98.5 -65.5t-125.5 -23.5h-261v151h262q24 0 48 24q17 17 27 40.5t10 52.5h-1v579h215z" />
    <glyph glyph-name="uniFE9A" horiz-adv-x="1484" 
d="M741 1200q0 23 9 43t24 35t35 23.5t43 8.5q22 0 41.5 -8.5t34 -23.5t23 -35t8.5 -43t-8.5 -42.5t-23 -34t-34 -23t-41.5 -8.5q-23 0 -43 8.5t-35 23t-24 34t-9 42.5zM577 1458q0 23 9 43t24 35t34.5 23.5t41.5 8.5t42 -8.5t35 -23.5t23.5 -35t8.5 -43t-8.5 -42.5
t-23.5 -34t-35 -23t-42 -8.5t-41.5 8.5t-34.5 23t-24 34t-9 42.5zM412 1200q0 23 9 43t24 35t34.5 23.5t41.5 8.5t42 -8.5t35 -23.5t23.5 -35t8.5 -43t-8.5 -42.5t-23.5 -34t-35 -23t-42 -8.5t-41.5 8.5t-34.5 23t-24 34t-9 42.5zM1345 972v-574q0 -10 -1 -15q2 -23 12 -43
t25 -35q24 -24 48 -24h85v-151h-84q-57 0 -105.5 16t-87.5 45q-38 -29 -86.5 -45t-105.5 -16h-644q-69 0 -126 23.5t-98 65.5q-35 35 -55.5 81t-20.5 98h-1v376h215v-376q0 -29 10 -52.5t27 -40.5q24 -24 47 -24h647q24 0 48 24q31 31 36 78v589h215z" />
    <glyph glyph-name="uniFE9F" horiz-adv-x="981" 
d="M101 1041q101 22 185 22q13 0 26 -1q94 -4 167.5 -32t130 -78.5t98.5 -119.5q36 -58 62 -128t45.5 -149t34.5 -165.5t29 -176.5v-7q0 -11 -4 -22q-7 -15 -20 -26t-31.5 -18.5t-40.5 -8.5q-4 -1 -11 -1h-802v151h682q-12 73 -25 142.5t-29.5 132.5t-37.5 117.5t-49 99.5
q-25 40 -57.5 70t-75 46.5t-95.5 19.5h-17q-47 0 -104 -12zM299 -169q0 23 9 43t24 35t34.5 23.5t41.5 8.5t42 -8.5t35 -23.5t23.5 -35t8.5 -43t-8.5 -42.5t-23.5 -34t-35 -23t-42 -8.5t-41.5 8.5t-34.5 23t-24 34t-9 42.5z" />
    <glyph glyph-name="uniFEA2" horiz-adv-x="1154" 
d="M1184 129h-59q-53 0 -91 6.5t-65 17.5t-45.5 27t-33 36t-27.5 44t-29 50q-23 4 -49.5 7.5t-55.5 6.5q-36 3 -74 4h-14q-32 0 -61 -3q-37 -5 -71 -15t-62 -29q-54 -31 -86 -81t-40 -108q-3 -20 -3 -39q0 -53 22 -103q14 -33 37 -62.5t57 -52.5q35 -24 82 -41t107 -23
q35 -4 76 -4q27 0 58 2q73 4 161 23l62 -143q-121 -26 -225 -31q-31 -1 -60 -1q-70 0 -131 8q-87 12 -157 39t-124 65t-91 82.5t-58 95.5q-21 48 -27 99q-3 22 -3 45q0 28 4 56q12 86 63 162.5t138 126.5q32 20 64.5 33.5t62 21.5t53.5 12.5t39 6.5q54 8 110 8h28
q70 -3 133 -11q-20 110 -48 204t-72 165q-25 40 -57.5 70t-75 46.5t-95.5 19.5h-17q-47 0 -104 -12l-61 144q101 22 185 22q13 0 26 -1q94 -4 167.5 -32t130 -78.5t98.5 -119.5q60 -97 94 -225t58 -274q6 -34 14 -56.5t20 -36t27.5 -19t35.5 -5.5v1h59v-151z" />
    <glyph glyph-name="uniFEA7" horiz-adv-x="981" 
d="M101 1041q101 22 185 22q13 0 26 -1q94 -4 167.5 -32t130 -78.5t98.5 -119.5q36 -58 62 -128t45.5 -149t34.5 -165.5t29 -176.5v-7q0 -11 -4 -22q-7 -15 -20 -26t-31.5 -18.5t-40.5 -8.5q-4 -1 -11 -1h-802v151h682q-12 73 -25 142.5t-29.5 132.5t-37.5 117.5t-49 99.5
q-25 40 -57.5 70t-75 46.5t-95.5 19.5h-17q-47 0 -104 -12zM234 1363q0 23 9 43t24 35t34.5 23.5t41.5 8.5t42 -8.5t35 -23.5t23.5 -35t8.5 -43t-8.5 -42.5t-23.5 -34t-35 -23t-42 -8.5t-41.5 8.5t-34.5 23t-24 34t-9 42.5z" />
    <glyph glyph-name="uniFEAE" horiz-adv-x="665" 
d="M536 977v-696h159v-151h-159q-5 -82 -23 -145t-48 -111t-70 -82t-89 -57q-49 -24 -102 -37t-109 -19t-114.5 -7t-118.5 -1v150q48 0 93.5 0.5t87 4.5t77.5 11.5t65 21.5q28 13 52 35.5t41.5 56t28.5 79t14 106.5v841h215z" />
    <glyph glyph-name="uniFEB4" horiz-adv-x="1502" 
d="M1338 383q4 -47 36 -78q24 -24 48 -24h110v-151h-109q-57 0 -105.5 16t-86.5 45q-39 -29 -87.5 -45t-105.5 -16h-92q-57 0 -105.5 16t-86.5 45q-39 -29 -87.5 -45t-105.5 -16h-97q-57 0 -105.5 16t-87.5 45q-38 -29 -86.5 -45t-105.5 -16h-109v151h110q24 0 48 24
q31 31 36 78v594h215v-579q0 -10 -1 -15q2 -23 12 -43t25 -35q24 -24 48 -24h99q24 0 48 24q15 15 25 35t12 43q-1 5 -1 15v579h215v-594q4 -47 36 -78q24 -24 48 -24h94q24 0 48 24q15 15 25 35t12 43q-1 5 -1 15v579h215v-594z" />
    <glyph glyph-name="uniFEBA" horiz-adv-x="2022" 
d="M2052 130h-1034q-5 -92 -29 -161t-60.5 -119.5t-81.5 -84.5t-91 -54q-41 -18 -82 -27q-20 -5 -40 -7t-40 -3h-59q-34 1 -73 7.5t-81.5 20.5t-84.5 40q-38 23 -71.5 56.5t-60 81.5t-43.5 111t-21 145v624l214 -3v-617q3 -63 14 -110t27.5 -81.5t38 -57.5t44.5 -37
q19 -11 39 -17.5t38.5 -9.5t35.5 -3h30q6 0 13 1t15 3q9 2 17.5 4.5t16.5 5.5q28 12 55.5 35t50 59t38 87.5t18.5 120.5v839h214v-122l1 1q72 111 157 143q58 23 118.5 35.5t122.5 16.5q19 1 38 1q43 0 87 -5q61 -7 118 -27q60 -20 111 -53t88.5 -79t60 -106t24.5 -135v-18
q0 -8 1 -16v-217q0 -32 -8 -61.5t-22 -55.5h136v-151zM1019 281h629q23 0 47 24q17 17 27 40.5t10 52.5v202q0 11 -0.5 22.5t-0.5 23.5q-2 50 -14.5 89.5t-34.5 69.5t-51 50t-63 32q-30 10 -64 14q-23 3 -46 3q-12 0 -24 -1q-38 -2 -77 -10.5t-77 -23.5
q-53 -20 -100.5 -51.5t-83 -73.5t-56.5 -93.5t-21 -111.5v-258z" />
    <glyph glyph-name="uniFEBF" horiz-adv-x="1394" 
d="M441 130v-2q-29 -1 -58 -1q-15 0 -30 1q-46 0 -95 2h-288v151h99q23 0 47 24q17 17 27 40.5t10 52.5v616h215v-156q72 111 157 143q58 23 118.5 35.5t122.5 16.5q19 1 38 1q43 0 87 -5q61 -7 118 -27q60 -20 111 -53t88.5 -79t60 -106t24.5 -135v-18q0 -8 1 -16v-217
q0 -52 -20.5 -98t-55.5 -81q-41 -42 -98 -65.5t-125 -23.5h-554zM367 394q0 -30 -7.5 -58.5t-21.5 -54.5h658q23 0 47 24q17 17 27 40.5t10 52.5v202q0 11 -0.5 22.5t-0.5 23.5q-2 50 -14.5 89.5t-34.5 69.5t-51 50t-63 32q-30 10 -64 14q-23 3 -46 3q-12 0 -24 -1
q-38 -2 -77 -10.5t-77 -23.5q-53 -20 -100.5 -51.5t-82.5 -73.5t-55.5 -93.5t-20.5 -111.5v-145h-2zM422 1330q0 23 9 43t24 35t34.5 23.5t41.5 8.5t42 -8.5t35 -23.5t23.5 -35t8.5 -43t-8.5 -42.5t-23.5 -34t-35 -23t-42 -8.5t-41.5 8.5t-34.5 23t-24 34t-9 42.5z" />
    <glyph glyph-name="uniFEC2" horiz-adv-x="1463" 
d="M1493 130h-1393v151h69q23 0 47 24q17 17 27 40.5t10 52.5v969h215v-509q72 111 157 143q58 23 118.5 35.5t122.5 16.5q19 1 38 1q43 0 87 -5q61 -7 118 -27q60 -20 111 -53t88.5 -79t60 -106t24.5 -135v-18q0 -8 1 -16v-217q0 -32 -8 -61.5t-22 -55.5h129v-151zM467 394
q0 -30 -7.5 -58.5t-21.5 -54.5h658q23 0 47 24q17 17 27 40.5t10 52.5v202q0 11 -0.5 22.5t-0.5 23.5q-2 50 -14.5 89.5t-34.5 69.5t-51 50t-63 32q-30 10 -64 14q-23 3 -46 3q-12 0 -24 -1q-38 -2 -77 -10.5t-77 -23.5q-53 -20 -100.5 -51.5t-82.5 -73.5t-55.5 -93.5
t-20.5 -111.5v-145h-2z" />
    <glyph glyph-name="uniFEC4" horiz-adv-x="1363" 
d="M1393 130h-1423v151h99q23 0 47 24q17 17 27 40.5t10 52.5v969h215v-509q72 111 157 143q58 23 118.5 35.5t122.5 16.5q19 1 38 1q43 0 87 -5q61 -7 118 -27q60 -20 111 -53t88.5 -79t60 -106t24.5 -135v-18q0 -8 1 -16v-217q0 -32 -8 -61.5t-22 -55.5h129v-151zM367 394
q0 -30 -7.5 -58.5t-21.5 -54.5h658q23 0 47 24q17 17 27 40.5t10 52.5v202q0 11 -0.5 22.5t-0.5 23.5q-2 50 -14.5 89.5t-34.5 69.5t-51 50t-63 32q-30 10 -64 14q-23 3 -46 3q-12 0 -24 -1q-38 -2 -77 -10.5t-77 -23.5q-53 -20 -100.5 -51.5t-82.5 -73.5t-55.5 -93.5
t-20.5 -111.5v-145h-2z" />
    <glyph glyph-name="uniFEC7" horiz-adv-x="1394" 
d="M441 130v-2q-29 -1 -58 -1q-15 0 -30 1q-46 0 -95 2h-288v151h99q23 0 47 24q17 17 27 40.5t10 52.5v972h215v-512q72 111 157 143q58 23 118.5 35.5t122.5 16.5q19 1 38 1q43 0 87 -5q61 -7 118 -27q60 -20 111 -53t88.5 -79t60 -106t24.5 -135v-18q0 -8 1 -16v-217
q0 -52 -20.5 -98t-55.5 -81q-41 -42 -98 -65.5t-125 -23.5h-554zM367 394q0 -30 -7.5 -58.5t-21.5 -54.5h658q23 0 47 24q17 17 27 40.5t10 52.5v202q0 11 -0.5 22.5t-0.5 23.5q-2 50 -14.5 89.5t-34.5 69.5t-51 50t-63 32q-30 10 -64 14q-23 3 -46 3q-12 0 -24 -1
q-38 -2 -77 -10.5t-77 -23.5q-53 -20 -100.5 -51.5t-82.5 -73.5t-55.5 -93.5t-20.5 -111.5v-145h-2zM569 1324q0 23 9 43t24 35t34.5 23.5t41.5 8.5t42 -8.5t35 -23.5t23.5 -35t8.5 -43t-8.5 -42.5t-23.5 -34t-35 -23t-42 -8.5t-41.5 8.5t-34.5 23t-24 34t-9 42.5z" />
    </font>
</defs>
</svg>
